<svg xmlns="http://www.w3.org/2000/svg" viewBox="0 -0.5 20 20" shape-rendering="crispEdges">
<metadata>Made with Pixels to Svg https://codepen.io/shshaw/pen/XbxvNj</metadata>
<path stroke="#f0c900" d="M5 7h5M4 8h1M10 8h1M3 9h1M10 9h1M3 10h1M9 10h1M4 11h5" />
<path stroke="#eeeeee" d="M10 7h6M16 8h1M17 9h1M2 10h1M1 11h1M1 12h1M1 13h1M1 14h1" />
<path stroke="#fffdf6" d="M5 8h2M4 9h1" />
<path stroke="#ffd600" d="M7 8h3M5 9h4M4 10h2" />
<path stroke="#ffffff" d="M11 8h5M11 9h5M10 10h6M2 11h2M9 11h6M2 12h12M3 13h10M5 14h7" />
<path stroke="#f6ce00" d="M9 9h1M6 10h3" />
<path stroke="#f0f0f0" d="M16 9h1M16 10h1M15 11h1M14 12h1M2 13h1M13 13h1M3 14h2M12 14h1M5 15h6" />
<path stroke="#e1e1e1" d="M17 10h1M2 15h1" />
<path stroke="#e8e8e8" d="M16 11h1M15 12h1M14 13h2M2 14h1M13 14h2M3 15h2M11 15h3M5 16h7" />
<path stroke="#cecece" d="M17 11h1M16 12h1M16 13h1M15 14h1M3 16h2" />
<path stroke="#c5c5c5" d="M14 15h1M12 16h2M5 17h7" />
</svg>