<svg xmlns="http://www.w3.org/2000/svg" viewBox="0 -0.5 20 20" shape-rendering="crispEdges">
<metadata>Made with Pixels to Svg https://codepen.io/shshaw/pen/XbxvNj</metadata>
<path stroke="#e1e1e1" d="M8 4h4M7 5h1M12 5h1M6 6h1M13 6h1M5 7h1M14 7h1M5 8h1M14 8h1M5 9h1M14 9h1M4 10h1M15 10h1M4 11h1M15 11h1M4 12h1M15 12h1M4 13h1M15 13h1M5 14h1M14 14h1M6 15h1M13 15h1M7 16h6" />
<path stroke="#ffffff" d="M8 5h4M7 6h6M6 7h8M6 8h8M6 9h8M5 10h10M5 11h1M7 11h8M5 12h1M8 12h7M5 13h1M9 13h6M9 14h5M7 15h6" />
<path stroke="#ececec" d="M6 11h1M6 12h2M6 13h3M7 14h2" />
<path stroke="#eeeeee" d="M6 14h1" />
</svg>