<svg xmlns="http://www.w3.org/2000/svg" viewBox="0 -0.5 20 20" shape-rendering="crispEdges">
<metadata>Made with Pixels to Svg https://codepen.io/shshaw/pen/XbxvNj</metadata>
<path stroke="#bababa" d="M7 6h2M6 7h1M14 7h1M4 8h2M15 8h1M16 9h1M16 10h1" />
<path stroke="#c7c7c7" d="M9 6h4M13 7h1" />
<path stroke="#f0f0f0" d="M7 7h1M6 8h1M14 8h1M4 9h1M9 9h1M3 10h1M3 11h1M15 11h1M6 12h1M14 12h1M7 13h5" />
<path stroke="#f2d540" d="M8 7h5M7 8h2M13 8h1M5 9h3M14 9h2M4 10h5M13 10h3M4 11h11M7 12h7" />
<path stroke="#d0a868" d="M9 8h4M10 9h4" />
<path stroke="#b2b2b2" d="M3 9h1M2 10h1M2 11h1M16 11h1M3 12h3M15 12h1M6 13h1M12 13h3M7 14h5" />
<path stroke="#ba7d1a" d="M8 9h1M9 10h4" />
</svg>