<svg xmlns="http://www.w3.org/2000/svg" viewBox="0 -0.5 20 20" shape-rendering="crispEdges">
<metadata>Made with Pixels to Svg https://codepen.io/shshaw/pen/XbxvNj</metadata>
<path stroke="#dfbe14" d="M7 7h6M6 8h2M13 8h2M4 9h2M15 9h1M3 10h1M16 10h1M2 11h1M16 11h1M2 12h1M16 12h1M3 13h3M15 13h1M6 14h1M12 14h3M7 15h5" />
<path stroke="#f2d540" d="M8 8h5M6 9h3M13 9h2M4 10h4M14 10h2M3 11h6M13 11h3M3 12h13M6 13h9M7 14h5" />
<path stroke="#db931f" d="M9 9h4" />
<path stroke="#ba7d1a" d="M8 10h1M9 11h2" />
<path stroke="#eed5ad" d="M9 10h1" />
<path stroke="#dd9d34" d="M10 10h3" />
<path stroke="#c5851d" d="M13 10h1M11 11h2" />
</svg>