<svg xmlns="http://www.w3.org/2000/svg" viewBox="0 -0.5 40 40" shape-rendering="crispEdges">
<metadata>Made with Pixels to Svg https://codepen.io/shshaw/pen/XbxvNj</metadata>
<path stroke="#8a745c" d="M12 14h2M22 14h2M11 15h1M24 15h3M10 16h1M27 16h1M9 17h1M28 17h1M9 18h1M29 18h1M9 19h1M29 19h1M9 20h1M9 21h1M9 22h1" />
<path stroke="#cabbaa" d="M12 15h2M11 16h1M25 16h2M10 17h1M24 17h4M10 18h1M13 18h1M23 18h6M10 19h4M24 19h5M10 20h5M25 20h4M10 21h4M24 21h1M28 21h1M10 22h4M23 22h1M27 22h1M11 23h3M25 23h2M12 24h3" />
<path stroke="#b2a494" d="M14 15h1M23 15h1M15 16h1M24 16h1M14 17h1M23 17h1M22 18h1M14 19h1M23 19h1M15 20h1M24 20h1M14 21h1M23 21h1M22 22h1M14 23h1M23 23h1M15 24h1" />
<path stroke="#927a5d" d="M12 16h3M11 17h3M11 18h2" />
<path stroke="#9f896f" d="M29 20h1" />
<path stroke="#ecdac8" d="M25 21h3M24 22h3M24 23h1" />
<path stroke="#b7a795" d="M29 21h1" />
<path stroke="#f4cf10" d="M14 22h2M16 23h1M22 23h1M17 24h1M21 24h1M18 25h1M20 25h1M14 26h1M19 26h1M23 26h1M13 27h1M22 27h1M13 28h1M22 28h1M13 29h1M23 29h1M13 30h1M23 30h1M14 31h1M23 31h1M15 32h1M22 32h1M16 33h1M22 33h1M17 34h5" />
<path stroke="#b3987a" d="M28 22h1M10 23h1M11 24h1M12 25h3M23 25h1" />
<path stroke="#d9d8c6" d="M15 23h1" />
<path stroke="#c3af97" d="M27 23h1M24 24h3" />
<path stroke="#f2d540" d="M16 24h1M22 24h2M15 25h3M21 25h2M15 26h4M20 26h3M14 27h8M14 28h3M21 28h1M14 29h2M22 29h1M14 30h2M22 30h1M15 31h1M22 31h1M16 32h1M21 32h1M17 33h5" />
<path stroke="#db931f" d="M17 28h4M21 29h1M21 30h1M21 31h1" />
<path stroke="#c5851d" d="M16 29h1M20 32h1" />
<path stroke="#dd9d34" d="M17 29h2M17 30h2M17 31h4" />
<path stroke="#d0a868" d="M19 29h1M19 30h2" />
<path stroke="#e5b86f" d="M20 29h1" />
<path stroke="#ba7d1a" d="M16 30h1M16 31h1M17 32h3" />
</svg>