<svg xmlns="http://www.w3.org/2000/svg" viewBox="0 -0.5 20 20" shape-rendering="crispEdges">
<metadata>Made with Pixels to Svg https://codepen.io/shshaw/pen/XbxvNj</metadata>
<path stroke="#8a745c" d="M8 0h2M7 1h1M6 2h1M5 3h1M5 4h1M5 5h1M4 6h1M4 7h1M4 14h1M4 15h1M5 16h1M6 17h1M7 18h6" />
<path stroke="#9f896f" d="M10 0h1" />
<path stroke="#b7a795" d="M11 0h1" />
<path stroke="#cabbaa" d="M8 1h4M7 2h4M12 2h1M6 3h5M13 3h1M6 4h5M13 4h1M7 5h3M11 5h1M8 6h1M12 6h1M10 13h1M14 13h1M5 14h1M8 14h7M5 15h1M9 15h6M6 16h1M9 16h5M7 17h6" />
<path stroke="#b3987a" d="M12 1h1M15 6h1M15 13h1M15 14h1M15 15h1M14 16h1M13 17h1" />
<path stroke="#eae8e6" d="M11 2h1M11 3h2M11 4h2M12 5h2" />
<path stroke="#c3af97" d="M13 2h1M14 3h1M14 4h1M14 5h1" />
<path stroke="#b2a494" d="M6 5h1M10 5h1M5 6h1M7 6h1M9 6h1M11 6h1M13 6h1M8 7h1M12 7h1M6 12h1M10 12h1M14 12h1M5 13h1M7 13h1M9 13h1M11 13h1M13 13h1" />
<path stroke="#927a5d" d="M6 13h1M6 14h2M6 15h3M7 16h2" />
</svg>