<svg xmlns="http://www.w3.org/2000/svg" viewBox="0 -0.5 20 20" shape-rendering="crispEdges">
<metadata>Made with Pixels to Svg https://codepen.io/shshaw/pen/XbxvNj</metadata>
<path stroke="#8a745c" d="M7 4h2M6 5h1M5 6h1M4 7h1M4 8h1M4 9h1M3 10h1M3 12h1M3 13h1M4 14h1M5 15h1M6 16h6" />
<path stroke="#9f896f" d="M9 4h1" />
<path stroke="#b7a795" d="M10 4h1" />
<path stroke="#cabbaa" d="M7 5h4M6 6h4M11 6h1M5 7h5M12 7h1M5 8h5M12 8h1M6 9h3M10 9h1M7 10h1M11 10h1M9 11h1M13 11h1M4 12h1M8 12h3M12 12h2M4 13h1M8 13h6M5 14h1M8 14h5M6 15h6" />
<path stroke="#b3987a" d="M11 5h1M14 12h1M14 13h1M13 14h1M12 15h1" />
<path stroke="#eae8e6" d="M10 6h1M10 7h2M10 8h2M11 9h2" />
<path stroke="#c3af97" d="M12 6h1M13 7h1M13 8h1" />
<path stroke="#a19586" d="M5 9h1M9 9h1M13 9h1M10 11h1M14 11h1M7 12h1" />
<path stroke="#b2a494" d="M4 10h1M6 10h1M10 10h1M12 10h2M4 11h1M6 11h1M8 11h1M11 11h1M11 12h1" />
<path stroke="#ac9c89" d="M5 10h1" />
<path stroke="#a19280" d="M8 10h2M14 10h1M3 11h1M7 11h1M12 11h1" />
<path stroke="#927a5d" d="M5 11h1M5 12h2M5 13h3M6 14h2" />
</svg>