<svg xmlns="http://www.w3.org/2000/svg" viewBox="0 -0.5 50 50" shape-rendering="crispEdges">
<metadata>Made with Pixels to Svg https://codepen.io/shshaw/pen/XbxvNj</metadata>
<path stroke="#2d5c37" d="M25 15h2M24 16h2M20 17h5M20 18h1M20 19h1M20 20h2M33 22h5" />
<path stroke="#32633c" d="M27 15h4M39 20h1M39 21h1M38 22h2" />
<path stroke="#284d2f" d="M31 15h2M39 18h1M39 19h1" />
<path stroke="#213e27" d="M33 15h7M39 16h1M39 17h1" />
<path stroke="#96932a" d="M26 16h13M19 22h1" />
<path stroke="#2a6336" d="M40 16h1M40 17h1" />
<path stroke="#a19e2c" d="M25 17h1M38 17h1M30 18h5M38 18h1M38 19h1" />
<path stroke="#898624" d="M26 17h12M35 18h3M19 19h1M19 20h1M19 25h1M16 28h1M24 28h1M17 29h1M23 29h1M19 30h4" />
<path stroke="#aba732" d="M21 18h9M26 19h12M32 20h1M36 20h3M19 21h1M35 21h4M19 26h1M17 28h1M22 28h2M18 29h2M22 29h1" />
<path stroke="#2f6f3c" d="M40 18h1M40 19h1M25 21h1" />
<path stroke="#bbb733" d="M21 19h2M26 20h6M33 20h3" />
<path stroke="#c7c338" d="M23 19h3M25 20h1M26 21h4M19 23h1M19 24h1M19 27h1M18 28h4M20 29h2" />
<path stroke="#356d41" d="M22 20h3M29 22h4" />
<path stroke="#347241" d="M40 20h1M40 21h1" />
<path stroke="#3b7a48" d="M24 21h1M25 22h4" />
<path stroke="#b2ae2f" d="M30 21h5" />
</svg>