<svg width="0" height="0" class="hidden">
  <symbol xmlns="http://www.w3.org/2000/svg" shape-rendering="crispEdges" viewBox="0 -0.5 50 50" id="oil_bottle_pouring0">
    <metadata>Made with Pixels to Svg https://codepen.io/shshaw/pen/XbxvNj</metadata>
    <path stroke="#2d5c37" d="M25 15h2M24 16h2M20 17h5M20 18h1M20 19h1M20 20h2M33 22h5"></path>
    <path stroke="#32633c" d="M27 15h4M39 20h1M39 21h1M38 22h2"></path>
    <path stroke="#284d2f" d="M31 15h2M39 18h1M39 19h1"></path>
    <path stroke="#213e27" d="M33 15h7M39 16h1M39 17h1"></path>
    <path stroke="#96932a" d="M26 16h13M19 22h1"></path>
    <path stroke="#2a6336" d="M40 16h1M40 17h1"></path>
    <path stroke="#a19e2c" d="M25 17h1M38 17h1M30 18h5M38 18h1M38 19h1"></path>
    <path stroke="#898624" d="M26 17h12M35 18h3M19 27h1M19 28h1"></path>
    <path stroke="#aba732" d="M21 18h9M26 19h12M32 20h1M36 20h3M35 21h4M19 23h1M19 24h1M19 26h1"></path>
    <path stroke="#2f6f3c" d="M40 18h1M40 19h1M25 21h1"></path>
    <path stroke="#c7c338" d="M19 19h1M23 19h3M19 20h1M25 20h1M19 21h1M26 21h4M19 25h1"></path>
    <path stroke="#bbb733" d="M21 19h2M26 20h6M33 20h3"></path>
    <path stroke="#356d41" d="M22 20h3M29 22h4"></path>
    <path stroke="#347241" d="M40 20h1M40 21h1"></path>
    <path stroke="#3b7a48" d="M24 21h1M25 22h4"></path>
    <path stroke="#b2ae2f" d="M30 21h5"></path>
  </symbol>
  <symbol xmlns="http://www.w3.org/2000/svg" shape-rendering="crispEdges" viewBox="0 -0.5 50 50" id="oil_bottle_pouring1">
    <metadata>Made with Pixels to Svg https://codepen.io/shshaw/pen/XbxvNj</metadata>
    <path stroke="#2d5c37" d="M25 15h2M24 16h2M20 17h5M20 18h1M20 19h1M20 20h2M33 22h5"></path>
    <path stroke="#32633c" d="M27 15h4M39 20h1M39 21h1M38 22h2"></path>
    <path stroke="#284d2f" d="M31 15h2M39 18h1M39 19h1"></path>
    <path stroke="#213e27" d="M33 15h7M39 16h1M39 17h1"></path>
    <path stroke="#96932a" d="M26 16h13M19 22h1"></path>
    <path stroke="#2a6336" d="M40 16h1M40 17h1"></path>
    <path stroke="#a19e2c" d="M25 17h1M38 17h1M30 18h5M38 18h1M38 19h1"></path>
    <path stroke="#898624" d="M26 17h12M35 18h3M19 19h1M19 20h1M19 25h1"></path>
    <path stroke="#aba732" d="M21 18h9M26 19h12M32 20h1M36 20h3M19 21h1M35 21h4M19 26h1"></path>
    <path stroke="#2f6f3c" d="M40 18h1M40 19h1M25 21h1"></path>
    <path stroke="#bbb733" d="M21 19h2M26 20h6M33 20h3"></path>
    <path stroke="#c7c338" d="M23 19h3M25 20h1M26 21h4M19 23h1M19 24h1M19 27h1M19 28h1"></path>
    <path stroke="#356d41" d="M22 20h3M29 22h4"></path>
    <path stroke="#347241" d="M40 20h1M40 21h1"></path>
    <path stroke="#3b7a48" d="M24 21h1M25 22h4"></path>
    <path stroke="#b2ae2f" d="M30 21h5"></path>
  </symbol>
  <symbol xmlns="http://www.w3.org/2000/svg" shape-rendering="crispEdges" viewBox="0 -0.5 50 50" id="oil_bottle_pouring2">
    <metadata>Made with Pixels to Svg https://codepen.io/shshaw/pen/XbxvNj</metadata>
    <path stroke="#2d5c37" d="M25 15h2M24 16h2M20 17h5M20 18h1M20 19h1M20 20h2M33 22h5"></path>
    <path stroke="#32633c" d="M27 15h4M39 20h1M39 21h1M38 22h2"></path>
    <path stroke="#284d2f" d="M31 15h2M39 18h1M39 19h1"></path>
    <path stroke="#213e27" d="M33 15h7M39 16h1M39 17h1"></path>
    <path stroke="#96932a" d="M26 16h13"></path>
    <path stroke="#2a6336" d="M40 16h1M40 17h1"></path>
    <path stroke="#a19e2c" d="M25 17h1M38 17h1M30 18h5M38 18h1M38 19h1"></path>
    <path stroke="#898624" d="M26 17h12M35 18h3M18 28h3"></path>
    <path stroke="#aba732" d="M21 18h9M19 19h1M26 19h12M19 20h1M32 20h1M36 20h3M19 21h1M35 21h4M19 22h1M19 23h1M19 24h1M19 25h1M19 26h1M19 27h1M21 28h2M19 29h2"></path>
    <path stroke="#2f6f3c" d="M40 18h1M40 19h1M25 21h1"></path>
    <path stroke="#bbb733" d="M21 19h2M26 20h6M33 20h3"></path>
    <path stroke="#c7c338" d="M23 19h3M25 20h1M26 21h4M17 28h1M18 29h1M21 29h1"></path>
    <path stroke="#356d41" d="M22 20h3M29 22h4"></path>
    <path stroke="#347241" d="M40 20h1M40 21h1"></path>
    <path stroke="#3b7a48" d="M24 21h1M25 22h4"></path>
    <path stroke="#b2ae2f" d="M30 21h5"></path>
  </symbol>
  <symbol xmlns="http://www.w3.org/2000/svg" shape-rendering="crispEdges" viewBox="0 -0.5 50 50" id="oil_bottle_pouring3">
    <metadata>Made with Pixels to Svg https://codepen.io/shshaw/pen/XbxvNj</metadata>
    <path stroke="#2d5c37" d="M25 15h2M24 16h2M20 17h5M20 18h1M20 19h1M20 20h2M33 22h5"></path>
    <path stroke="#32633c" d="M27 15h4M39 20h1M39 21h1M38 22h2"></path>
    <path stroke="#284d2f" d="M31 15h2M39 18h1M39 19h1"></path>
    <path stroke="#213e27" d="M33 15h7M39 16h1M39 17h1"></path>
    <path stroke="#96932a" d="M26 16h13M19 22h1"></path>
    <path stroke="#2a6336" d="M40 16h1M40 17h1"></path>
    <path stroke="#a19e2c" d="M25 17h1M38 17h1M30 18h5M38 18h1M38 19h1"></path>
    <path stroke="#898624" d="M26 17h12M35 18h3M19 19h1M19 20h1M19 25h1M16 28h1M24 28h1M17 29h1M23 29h1M19 30h4"></path>
    <path stroke="#aba732" d="M21 18h9M26 19h12M32 20h1M36 20h3M19 21h1M35 21h4M19 26h1M17 28h1M22 28h2M18 29h2M22 29h1"></path>
    <path stroke="#2f6f3c" d="M40 18h1M40 19h1M25 21h1"></path>
    <path stroke="#bbb733" d="M21 19h2M26 20h6M33 20h3"></path>
    <path stroke="#c7c338" d="M23 19h3M25 20h1M26 21h4M19 23h1M19 24h1M19 27h1M18 28h4M20 29h2"></path>
    <path stroke="#356d41" d="M22 20h3M29 22h4"></path>
    <path stroke="#347241" d="M40 20h1M40 21h1"></path>
    <path stroke="#3b7a48" d="M24 21h1M25 22h4"></path>
    <path stroke="#b2ae2f" d="M30 21h5"></path>
  </symbol>
  <symbol xmlns="http://www.w3.org/2000/svg" shape-rendering="crispEdges" viewBox="0 -0.5 50 50" id="oil_bottle_pouring4">
    <metadata>Made with Pixels to Svg https://codepen.io/shshaw/pen/XbxvNj</metadata>
    <path stroke="#2d5c37" d="M25 15h2M24 16h2M20 17h5M20 18h1M20 19h1M20 20h2M33 22h5"></path>
    <path stroke="#32633c" d="M27 15h4M39 20h1M39 21h1M38 22h2"></path>
    <path stroke="#284d2f" d="M31 15h2M39 18h1M39 19h1"></path>
    <path stroke="#213e27" d="M33 15h7M39 16h1M39 17h1"></path>
    <path stroke="#96932a" d="M26 16h13"></path>
    <path stroke="#2a6336" d="M40 16h1M40 17h1"></path>
    <path stroke="#a19e2c" d="M25 17h1M38 17h1M30 18h5M38 18h1M38 19h1"></path>
    <path stroke="#898624" d="M26 17h12M35 18h3M19 19h1M19 20h1M19 25h1M15 28h1M25 28h1M16 29h1M24 29h1M17 30h1M23 30h1M19 31h3"></path>
    <path stroke="#aba732" d="M21 18h9M26 19h12M32 20h1M36 20h3M19 21h1M35 21h4M19 24h1M19 26h1M16 28h1M18 28h3M23 28h2M17 29h1M22 29h2M18 30h5"></path>
    <path stroke="#2f6f3c" d="M40 18h1M40 19h1M25 21h1"></path>
    <path stroke="#bbb733" d="M21 19h2M26 20h6M33 20h3"></path>
    <path stroke="#c7c338" d="M23 19h3M25 20h1M26 21h4M19 22h1M19 23h1M19 27h1M17 28h1M21 28h2M18 29h4"></path>
    <path stroke="#356d41" d="M22 20h3M29 22h4"></path>
    <path stroke="#347241" d="M40 20h1M40 21h1"></path>
    <path stroke="#3b7a48" d="M24 21h1M25 22h4"></path>
    <path stroke="#b2ae2f" d="M30 21h5"></path>
  </symbol>
</svg>