<svg xmlns="http://www.w3.org/2000/svg" viewBox="0 -0.5 40 40" shape-rendering="crispEdges">
<metadata>Made with Pixels to Svg https://codepen.io/shshaw/pen/XbxvNj</metadata>
<path stroke="#f4cf10" d="M16 16h1M16 17h2M16 18h1M18 18h1M17 19h1M19 19h1M18 20h2M18 21h1M20 21h1M18 22h1M20 22h1M17 23h1M21 23h1M16 24h1M22 24h1M22 25h1M14 26h1M22 26h1M13 27h1M22 27h1M13 28h1M22 28h1M13 29h1M23 29h1M13 30h1M23 30h1M14 31h1M23 31h1M15 32h1M22 32h1M16 33h1M22 33h1M17 34h5" />
<path stroke="#f2d540" d="M17 18h1M18 19h1M19 21h1M19 22h1M18 23h3M17 24h5M15 25h7M15 26h7M14 27h8M14 28h3M21 28h1M14 29h2M22 29h1M14 30h2M22 30h1M15 31h1M22 31h1M16 32h1M21 32h1M17 33h5" />
<path stroke="#db931f" d="M17 28h4M21 29h1M21 30h1M21 31h1" />
<path stroke="#c5851d" d="M16 29h1M20 32h1" />
<path stroke="#dd9d34" d="M17 29h2M17 30h2M17 31h4" />
<path stroke="#d0a868" d="M19 29h1M19 30h2" />
<path stroke="#e5b86f" d="M20 29h1" />
<path stroke="#ba7d1a" d="M16 30h1M16 31h1M17 32h3" />
</svg>