<svg xmlns="http://www.w3.org/2000/svg" viewBox="0 -0.5 20 20" shape-rendering="crispEdges">
<metadata>Made with Pixels to Svg https://codepen.io/shshaw/pen/XbxvNj</metadata>
<path stroke="#2d2d2d" d="M7 1h2M6 2h1M14 2h1M14 3h1" />
<path stroke="#333333" d="M9 1h5M8 4h5" />
<path stroke="#565656" d="M7 2h4M9 3h1M11 3h1" />
<path stroke="#616161" d="M11 2h3" />
<path stroke="#252525" d="M6 3h1M7 4h1M13 4h1M8 5h5" />
<path stroke="#454545" d="M7 3h1M13 3h1" />
<path stroke="#222222" d="M8 3h1M10 3h1M12 3h1" />
<path stroke="#cacaca" d="M7 6h1M13 6h1M7 7h1M13 7h1M6 8h1M14 8h1M6 9h1M14 9h1" />
<path stroke="#c0dce5" d="M8 6h1M12 6h1M7 8h1M12 8h1" />
<path stroke="#cfe5ec" d="M9 6h3M8 7h1M12 7h1M8 8h1M13 8h1M8 9h1" />
<path stroke="#dbebf0" d="M9 7h3M9 8h3M7 9h1M13 9h1" />
<path stroke="#ffffff" d="M9 9h3M9 10h2M12 10h1M8 11h5M8 12h5M8 13h1M10 13h2M8 14h4M8 15h2M11 15h1M8 16h5" />
<path stroke="#d7e7ec" d="M12 9h1" />
<path stroke="#dbdbdb" d="M6 10h1M14 10h1M6 11h1" />
<path stroke="#f6fdff" d="M7 10h1M13 11h1M7 12h1M13 12h1M7 13h1M12 13h2M7 14h1M12 14h2M12 15h2M13 16h1M10 17h3" />
<path stroke="#ddf7ff" d="M8 10h1M11 10h1M9 13h1M10 15h1" />
<path stroke="#e5f9ff" d="M13 10h1M7 11h1M7 15h1M7 16h1M7 17h3M13 17h1" />
<path stroke="#e1dede" d="M14 11h1M6 12h1M14 12h1M6 13h1" />
<path stroke="#cccccc" d="M14 13h1M6 14h1M14 14h1M6 15h1M14 15h1M6 16h1M14 16h1" />
<path stroke="#c3c3c3" d="M6 17h1M14 17h1M7 18h7" />
</svg>