<svg xmlns="http://www.w3.org/2000/svg" viewBox="0 -0.5 24 20" shape-rendering="crispEdges">
<metadata>Made with Pixels to Svg https://codepen.io/shshaw/pen/XbxvNj</metadata>
<path stroke="#331b06" d="M2 0h4M1 1h1M0 2h1M0 3h1M0 4h1M0 5h1M0 6h1" />
<path stroke="#381e06" d="M6 0h7M0 7h1M0 8h1M0 9h1M0 10h1M0 11h1" />
<path stroke="#2b1705" d="M13 0h3M0 12h1M0 13h1M0 14h1M0 15h1M0 16h1M0 17h1M0 18h1M1 19h15" />
<path stroke="#201104" d="M16 0h3M15 1h1M14 2h1M14 3h1M14 4h1M14 5h1M14 6h1M19 6h1M14 7h5M14 8h1M14 9h1M14 10h1M14 11h1M14 12h1M14 13h1M14 14h1M14 15h1M14 16h1M14 17h1M15 18h1M16 19h2" />
<path stroke="#87572d" d="M2 1h3M1 2h2M1 3h1M1 4h1M1 8h3M1 9h2M1 10h1M1 11h1" />
<path stroke="#784f2b" d="M5 1h1M3 2h2M2 3h1M2 4h1M1 5h1M4 8h1M3 9h2M2 10h1M2 11h1M1 12h1" />
<path stroke="#6f4724" d="M6 1h9M5 2h8M3 3h10M3 4h9M2 5h9M1 6h4M10 8h4M5 9h1M9 9h4M3 10h10M3 11h10M2 12h10M1 13h11M1 14h10M1 15h9M1 16h7M1 17h4M1 18h1" />
<path stroke="#4b311a" d="M16 1h3M15 2h5M15 3h5M15 4h5M15 5h5M15 6h4M19 7h1M15 8h5M15 9h5M15 10h5M15 11h5M15 12h5M15 13h5M15 14h5M15 15h5M15 16h5M15 17h5M16 18h3" />
<path stroke="#1e1003" d="M19 1h1M20 2h1M20 3h1M20 4h1M20 5h1M20 6h1M4 7h1M9 7h5M20 7h1M20 8h1M20 9h1M20 10h1M20 11h1M20 12h1M20 13h1M20 14h1M20 15h1M20 16h1M20 17h1M19 18h1M18 19h1" />
<path stroke="#674120" d="M13 2h1M13 3h1M12 4h1M11 5h1M9 6h2M13 9h1M13 10h1M12 12h1M12 13h1M11 14h1M10 15h1M8 16h2M5 17h3M2 18h3" />
<path stroke="#5c3a1c" d="M13 4h1M12 5h2M11 6h3M13 11h1M13 12h1M13 13h1M12 14h2M11 15h3M10 16h4M8 17h6M5 18h10" />
<path stroke="#130d02" d="M21 4h1M22 5h1M23 6h1M23 7h1M23 8h1M23 9h1M23 10h1M23 11h1M23 12h1M23 13h1M23 14h1M23 15h1M23 16h1M23 17h1M20 18h1M23 18h1M21 19h2" />
<path stroke="#201605" d="M21 5h1M21 6h1M21 7h1M21 8h1M21 9h1M21 10h1M21 11h1M21 12h1M21 13h1M21 14h1M21 15h1M21 16h1M21 17h1M21 18h1" />
<path stroke="#a37730" d="M5 6h2M5 7h1" />
<path stroke="#9a6f29" d="M7 6h1M5 8h1" />
<path stroke="#896120" d="M8 6h1M6 8h1" />
<path stroke="#221705" d="M22 6h1M22 7h1M22 8h1M22 9h1M22 10h1M22 11h1M22 12h1M22 13h1M22 14h1M22 15h1M22 16h1M22 17h1M22 18h1" />
<path stroke="#241303" d="M1 7h3" />
<path stroke="#d6c2a2" d="M6 7h1" />
<path stroke="#d4ad6f" d="M7 7h1" />
<path stroke="#76531a" d="M8 7h1M7 8h2" />
<path stroke="#6b4423" d="M9 8h1M6 9h3" />
</svg>