<svg width="109" height="40" viewBox="0 0 109 40" fill="none" xmlns="http://www.w3.org/2000/svg">
<path d="M9.5376 2.5H100.825ZM8.1751 3.5H10.9001ZM99.4626 3.5H100.825ZM6.8126 4.5H8.1751ZM100.825 4.5H102.188ZM4.0876 5.5H8.1751ZM100.825 5.5H104.913ZM2.7251 6.5H4.0876ZM104.913 6.5H106.275ZM2.7251 7.5H4.0876ZM104.913 7.5H106.275ZM2.7251 8.5H4.0876ZM104.913 8.5H106.275ZM2.7251 9.5H4.0876ZM104.913 9.5H106.275ZM2.7251 10.5H4.0876ZM104.913 10.5H106.275ZM2.7251 11.5H4.0876ZM104.913 11.5H106.275ZM2.7251 12.5H4.0876ZM104.913 12.5H106.275ZM2.7251 13.5H4.0876ZM104.913 13.5H106.275ZM2.7251 14.5H4.0876ZM104.913 14.5H106.275ZM2.7251 15.5H4.0876ZM104.913 15.5H106.275ZM2.7251 16.5H4.0876ZM104.913 16.5H106.275ZM2.7251 17.5H4.0876ZM104.913 17.5H106.275ZM2.7251 18.5H4.0876ZM104.913 18.5H106.275ZM2.7251 19.5H4.0876ZM104.913 19.5H106.275ZM2.7251 20.5H4.0876ZM104.913 20.5H106.275ZM2.7251 21.5H4.0876ZM104.913 21.5H106.275ZM2.7251 22.5H4.0876ZM104.913 22.5H106.275ZM2.7251 23.5H4.0876ZM104.913 23.5H106.275ZM2.7251 24.5H4.0876ZM104.913 24.5H106.275ZM2.7251 25.5H4.0876ZM104.913 25.5H106.275ZM2.7251 26.5H4.0876ZM104.913 26.5H106.275ZM2.7251 27.5H4.0876ZM104.913 27.5H106.275ZM2.7251 28.5H4.0876ZM104.913 28.5H106.275ZM2.7251 29.5H4.0876ZM104.913 29.5H106.275ZM2.7251 30.5H4.0876ZM104.913 30.5H106.275ZM2.7251 31.5H4.0876ZM104.913 31.5H106.275ZM2.7251 32.5H4.0876ZM104.913 32.5H106.275ZM2.7251 33.5H4.0876ZM104.913 33.5H106.275ZM4.0876 34.5H6.8126ZM102.188 34.5H104.913ZM5.4501 35.5H8.1751ZM102.188 35.5H103.55ZM6.8126 36.5H8.1751ZM102.188 36.5H103.55ZM8.1751 37.5H102.188Z" fill="black"/>
<path d="M9.5376 2.5H100.825M8.1751 3.5H10.9001M99.4626 3.5H100.825M6.8126 4.5H8.1751M100.825 4.5H102.188M4.0876 5.5H8.1751M100.825 5.5H104.913M2.7251 6.5H4.0876M104.913 6.5H106.275M2.7251 7.5H4.0876M104.913 7.5H106.275M2.7251 8.5H4.0876M104.913 8.5H106.275M2.7251 9.5H4.0876M104.913 9.5H106.275M2.7251 10.5H4.0876M104.913 10.5H106.275M2.7251 11.5H4.0876M104.913 11.5H106.275M2.7251 12.5H4.0876M104.913 12.5H106.275M2.7251 13.5H4.0876M104.913 13.5H106.275M2.7251 14.5H4.0876M104.913 14.5H106.275M2.7251 15.5H4.0876M104.913 15.5H106.275M2.7251 16.5H4.0876M104.913 16.5H106.275M2.7251 17.5H4.0876M104.913 17.5H106.275M2.7251 18.5H4.0876M104.913 18.5H106.275M2.7251 19.5H4.0876M104.913 19.5H106.275M2.7251 20.5H4.0876M104.913 20.5H106.275M2.7251 21.5H4.0876M104.913 21.5H106.275M2.7251 22.5H4.0876M104.913 22.5H106.275M2.7251 23.5H4.0876M104.913 23.5H106.275M2.7251 24.5H4.0876M104.913 24.5H106.275M2.7251 25.5H4.0876M104.913 25.5H106.275M2.7251 26.5H4.0876M104.913 26.5H106.275M2.7251 27.5H4.0876M104.913 27.5H106.275M2.7251 28.5H4.0876M104.913 28.5H106.275M2.7251 29.5H4.0876M104.913 29.5H106.275M2.7251 30.5H4.0876M104.913 30.5H106.275M2.7251 31.5H4.0876M104.913 31.5H106.275M2.7251 32.5H4.0876M104.913 32.5H106.275M2.7251 33.5H4.0876M104.913 33.5H106.275M4.0876 34.5H6.8126M102.188 34.5H104.913M5.4501 35.5H8.1751M102.188 35.5H103.55M6.8126 36.5H8.1751M102.188 36.5H103.55M8.1751 37.5H102.188" stroke="#424242"/>
<path d="M6.8125 3.5H8.175Z" fill="black"/>
<path d="M6.8125 3.5H8.175" stroke="#7C7B7A"/>
<path d="M10.9001 3.5H99.4626ZM44.9626 4.5H46.3251ZM9.5376 5.5H10.9001ZM21.8001 5.5H23.1626ZM25.8876 5.5H27.2501ZM31.3376 5.5H34.0626ZM38.1501 5.5H39.5126Z" fill="black"/>
<path d="M10.9001 3.5H99.4626M44.9626 4.5H46.3251M9.5376 5.5H10.9001M21.8001 5.5H23.1626M25.8876 5.5H27.2501M31.3376 5.5H34.0626M38.1501 5.5H39.5126" stroke="#A5A2A1"/>
<path d="M100.825 3.5H102.187ZM20.4375 36.5H21.8ZM58.5875 36.5H59.95ZM62.675 36.5H64.0375ZM79.025 36.5H80.3875Z" fill="black"/>
<path d="M100.825 3.5H102.187M20.4375 36.5H21.8M58.5875 36.5H59.95M62.675 36.5H64.0375M79.025 36.5H80.3875" stroke="#585655"/>
<path d="M8.1748 4.5H9.5373ZM40.8748 4.5H42.2373Z" fill="black"/>
<path d="M8.1748 4.5H9.5373M40.8748 4.5H42.2373" stroke="#A8A5A4"/>
<path d="M9.5376 4.5H10.9001ZM20.4376 4.5H21.8001ZM34.0626 4.5H36.7876Z" fill="black"/>
<path d="M9.5376 4.5H10.9001M20.4376 4.5H21.8001M34.0626 4.5H36.7876" stroke="#A6A4A2"/>
<path d="M10.8999 4.5H13.6249Z" fill="black"/>
<path d="M10.8999 4.5H13.6249" stroke="#A6A4A4"/>
<path d="M13.625 4.5H14.9875Z" fill="black"/>
<path d="M13.625 4.5H14.9875" stroke="#A6A5A5"/>
<path d="M14.9877 4.5H16.3502ZM12.2627 5.5H13.6252ZM17.7127 5.5H19.0752Z" fill="black"/>
<path d="M14.9877 4.5H16.3502M12.2627 5.5H13.6252M17.7127 5.5H19.0752" stroke="#A5A2A3"/>
<path d="M16.3498 4.5H17.7123ZM14.9873 5.5H17.7123Z" fill="black"/>
<path d="M16.3498 4.5H17.7123M14.9873 5.5H17.7123" stroke="#A4A2A3"/>
<path d="M17.7124 4.5H19.0749Z" fill="black"/>
<path d="M17.7124 4.5H19.0749" stroke="#A5A3A3"/>
<path d="M19.0752 4.5H20.4377ZM21.8002 4.5H23.1627ZM25.8877 4.5H27.2502ZM31.3377 4.5H34.0627ZM19.0752 5.5H21.8002ZM23.1627 5.5H24.5252ZM27.2502 5.5H28.6127ZM29.9752 5.5H31.3377Z" fill="black"/>
<path d="M19.0752 4.5H20.4377M21.8002 4.5H23.1627M25.8877 4.5H27.2502M31.3377 4.5H34.0627M19.0752 5.5H21.8002M23.1627 5.5H24.5252M27.2502 5.5H28.6127M29.9752 5.5H31.3377" stroke="#A5A3A2"/>
<path d="M23.1626 4.5H24.5251ZM24.5251 5.5H25.8876Z" fill="black"/>
<path d="M23.1626 4.5H24.5251M24.5251 5.5H25.8876" stroke="#A6A4A3"/>
<path d="M24.5249 4.5H25.8874Z" fill="black"/>
<path d="M24.5249 4.5H25.8874" stroke="#A6A5A3"/>
<path d="M27.2499 4.5H28.6124ZM10.8999 5.5H12.2624Z" fill="black"/>
<path d="M27.2499 4.5H28.6124M10.8999 5.5H12.2624" stroke="#A4A2A2"/>
<path d="M28.6123 4.5H29.9748ZM28.6123 5.5H29.9748Z" fill="black"/>
<path d="M28.6123 4.5H29.9748M28.6123 5.5H29.9748" stroke="#A3A1A0"/>
<path d="M29.9751 4.5H31.3376Z" fill="black"/>
<path d="M29.9751 4.5H31.3376" stroke="#A7A5A3"/>
<path d="M36.7876 4.5H38.1501Z" fill="black"/>
<path d="M36.7876 4.5H38.1501" stroke="#A8A6A5"/>
<path d="M38.1498 4.5H39.5123ZM8.1748 5.5H9.5373Z" fill="black"/>
<path d="M38.1498 4.5H39.5123M8.1748 5.5H9.5373" stroke="#A7A4A3"/>
<path d="M39.5127 4.5H40.8752ZM43.6002 4.5H44.9627Z" fill="black"/>
<path d="M39.5127 4.5H40.8752M43.6002 4.5H44.9627" stroke="#A7A3A3"/>
<path d="M42.2377 4.5H43.6002ZM5.4502 8.5H6.8127ZM5.4502 25.5H6.8127Z" fill="black"/>
<path d="M42.2377 4.5H43.6002M5.4502 8.5H6.8127M5.4502 25.5H6.8127" stroke="#A6A2A2"/>
<path d="M46.3252 4.5H47.6877Z" fill="black"/>
<path d="M46.3252 4.5H47.6877" stroke="#A4A3A1"/>
<path d="M47.6877 4.5H49.0502ZM39.5127 5.5H40.8752ZM42.2377 5.5H43.6002ZM44.9627 5.5H46.3252ZM47.6877 5.5H49.0502Z" fill="black"/>
<path d="M47.6877 4.5H49.0502M39.5127 5.5H40.8752M42.2377 5.5H43.6002M44.9627 5.5H46.3252M47.6877 5.5H49.0502" stroke="#A5A1A1"/>
<path d="M49.0498 4.5H50.4123ZM51.7748 4.5H53.1373Z" fill="black"/>
<path d="M49.0498 4.5H50.4123M51.7748 4.5H53.1373" stroke="#A7A2A1"/>
<path d="M50.4126 4.5H51.7751Z" fill="black"/>
<path d="M50.4126 4.5H51.7751" stroke="#A9A4A4"/>
<path d="M53.1377 4.5H54.5002Z" fill="black"/>
<path d="M53.1377 4.5H54.5002" stroke="#A6A0A0"/>
<path d="M54.5 4.5H55.8625Z" fill="black"/>
<path d="M54.5 4.5H55.8625" stroke="#888383"/>
<path d="M55.8623 4.5H57.2248Z" fill="black"/>
<path d="M55.8623 4.5H57.2248" stroke="#817C7C"/>
<path d="M57.2251 4.5H58.5876Z" fill="black"/>
<path d="M57.2251 4.5H58.5876" stroke="#837E7E"/>
<path d="M58.5873 4.5H61.3123ZM62.6748 4.5H64.0373ZM70.8498 4.5H72.2123ZM96.7373 5.5H98.0998ZM99.4623 6.5H100.825ZM8.1748 7.5H9.5373Z" fill="black"/>
<path d="M58.5873 4.5H61.3123M62.6748 4.5H64.0373M70.8498 4.5H72.2123M96.7373 5.5H98.0998M99.4623 6.5H100.825M8.1748 7.5H9.5373" stroke="#827F7E"/>
<path d="M61.3125 4.5H62.675ZM95.375 5.5H96.7375Z" fill="black"/>
<path d="M61.3125 4.5H62.675M95.375 5.5H96.7375" stroke="#817E7E"/>
<path d="M64.0374 4.5H65.3999ZM66.7624 4.5H68.1249ZM64.0374 5.5H65.3999ZM4.0874 7.5H5.4499Z" fill="black"/>
<path d="M64.0374 4.5H65.3999M66.7624 4.5H68.1249M64.0374 5.5H65.3999M4.0874 7.5H5.4499" stroke="#838180"/>
<path d="M65.3999 4.5H66.7624ZM65.3999 5.5H66.7624ZM100.825 13.5H102.187Z" fill="black"/>
<path d="M65.3999 4.5H66.7624M65.3999 5.5H66.7624M100.825 13.5H102.187" stroke="#807E7D"/>
<path d="M68.1252 4.5H70.8502ZM72.2127 4.5H73.5752ZM74.9377 4.5H77.6627ZM70.8502 5.5H72.2127ZM5.4502 6.5H6.8127Z" fill="black"/>
<path d="M68.1252 4.5H70.8502M72.2127 4.5H73.5752M74.9377 4.5H77.6627M70.8502 5.5H72.2127M5.4502 6.5H6.8127" stroke="#827E7E"/>
<path d="M73.5749 4.5H74.9374ZM72.2124 5.5H73.5749ZM74.9374 5.5H77.6624Z" fill="black"/>
<path d="M73.5749 4.5H74.9374M72.2124 5.5H73.5749M74.9374 5.5H77.6624" stroke="#817D7D"/>
<path d="M77.6626 4.5H79.0251ZM96.7376 6.5H98.1001ZM96.7376 7.5H98.1001Z" fill="black"/>
<path d="M77.6626 4.5H79.0251M96.7376 6.5H98.1001M96.7376 7.5H98.1001" stroke="#848080"/>
<path d="M79.0252 4.5H80.3877ZM80.3877 5.5H81.7502ZM99.4627 7.5H100.825ZM5.4502 33.5H6.8127Z" fill="black"/>
<path d="M79.0252 4.5H80.3877M80.3877 5.5H81.7502M99.4627 7.5H100.825M5.4502 33.5H6.8127" stroke="#827E7F"/>
<path d="M80.3875 4.5H81.75ZM100.825 11.5H102.187ZM6.8125 33.5H8.175Z" fill="black"/>
<path d="M80.3875 4.5H81.75M100.825 11.5H102.187M6.8125 33.5H8.175" stroke="#837F80"/>
<path d="M81.75 4.5H83.1125ZM84.475 5.5H85.8375Z" fill="black"/>
<path d="M81.75 4.5H83.1125M84.475 5.5H85.8375" stroke="#838081"/>
<path d="M83.1123 4.5H84.4748ZM85.8373 5.5H87.1998Z" fill="black"/>
<path d="M83.1123 4.5H84.4748M85.8373 5.5H87.1998" stroke="#817E7F"/>
<path d="M84.4751 4.5H85.8376Z" fill="black"/>
<path d="M84.4751 4.5H85.8376" stroke="#838182"/>
<path d="M85.8374 4.5H87.1999Z" fill="black"/>
<path d="M85.8374 4.5H87.1999" stroke="#817F80"/>
<path d="M87.2002 4.5H91.2877ZM94.0127 4.5H96.7377ZM99.4627 4.5H100.825Z" fill="black"/>
<path d="M87.2002 4.5H91.2877M94.0127 4.5H96.7377M99.4627 4.5H100.825" stroke="#817F7E"/>
<path d="M91.2876 4.5H94.0126ZM98.1001 4.5H99.4626Z" fill="black"/>
<path d="M91.2876 4.5H94.0126M98.1001 4.5H99.4626" stroke="#807E7E"/>
<path d="M96.7373 4.5H98.0998Z" fill="black"/>
<path d="M96.7373 4.5H98.0998" stroke="#807F7E"/>
<path d="M13.625 5.5H14.9875Z" fill="black"/>
<path d="M13.625 5.5H14.9875" stroke="#A5A3A4"/>
<path d="M34.0625 5.5H36.7875Z" fill="black"/>
<path d="M34.0625 5.5H36.7875" stroke="#A4A2A1"/>
<path d="M36.7876 5.5H38.1501Z" fill="black"/>
<path d="M36.7876 5.5H38.1501" stroke="#A5A4A3"/>
<path d="M40.875 5.5H42.2375ZM43.6 5.5H44.9625Z" fill="black"/>
<path d="M40.875 5.5H42.2375M43.6 5.5H44.9625" stroke="#A6A2A1"/>
<path d="M46.3252 5.5H47.6877Z" fill="black"/>
<path d="M46.3252 5.5H47.6877" stroke="#A4A1A1"/>
<path d="M49.0498 5.5H50.4123ZM51.7748 5.5H53.1373Z" fill="black"/>
<path d="M49.0498 5.5H50.4123M51.7748 5.5H53.1373" stroke="#A5A0A0"/>
<path d="M50.4127 5.5H51.7752ZM5.4502 23.5H6.8127ZM5.4502 24.5H6.8127Z" fill="black"/>
<path d="M50.4127 5.5H51.7752M5.4502 23.5H6.8127M5.4502 24.5H6.8127" stroke="#A7A2A2"/>
<path d="M53.1377 5.5H54.5002Z" fill="black"/>
<path d="M53.1377 5.5H54.5002" stroke="#A69FA0"/>
<path d="M54.4999 5.5H55.8624ZM38.1499 34.5H40.8749ZM68.1249 34.5H69.4874ZM72.2124 34.5H76.2999Z" fill="black"/>
<path d="M54.4999 5.5H55.8624M38.1499 34.5H40.8749M68.1249 34.5H69.4874M72.2124 34.5H76.2999" stroke="#878181"/>
<path d="M55.8623 5.5H57.2248Z" fill="black"/>
<path d="M55.8623 5.5H57.2248" stroke="#807A7A"/>
<path d="M57.2251 5.5H58.5876Z" fill="black"/>
<path d="M57.2251 5.5H58.5876" stroke="#817D7C"/>
<path d="M58.5874 5.5H59.9499Z" fill="black"/>
<path d="M58.5874 5.5H59.9499" stroke="#807C7C"/>
<path d="M59.9502 5.5H61.3127Z" fill="black"/>
<path d="M59.9502 5.5H61.3127" stroke="#807C7B"/>
<path d="M61.3125 5.5H62.675Z" fill="black"/>
<path d="M61.3125 5.5H62.675" stroke="#7F7C7B"/>
<path d="M62.6748 5.5H64.0373ZM69.4873 5.5H70.8498ZM73.5748 5.5H74.9373ZM94.0123 5.5H95.3748Z" fill="black"/>
<path d="M62.6748 5.5H64.0373M69.4873 5.5H70.8498M73.5748 5.5H74.9373M94.0123 5.5H95.3748" stroke="#807D7C"/>
<path d="M66.7627 5.5H68.1252Z" fill="black"/>
<path d="M66.7627 5.5H68.1252" stroke="#82817F"/>
<path d="M68.125 5.5H69.4875ZM87.2 5.5H91.2875ZM95.375 6.5H96.7375ZM95.375 7.5H96.7375Z" fill="black"/>
<path d="M68.125 5.5H69.4875M87.2 5.5H91.2875M95.375 6.5H96.7375M95.375 7.5H96.7375" stroke="#817E7D"/>
<path d="M77.6626 5.5H79.0251Z" fill="black"/>
<path d="M77.6626 5.5H79.0251" stroke="#847F7F"/>
<path d="M79.0249 5.5H80.3874Z" fill="black"/>
<path d="M79.0249 5.5H80.3874" stroke="#827D7E"/>
<path d="M81.75 5.5H83.1125Z" fill="black"/>
<path d="M81.75 5.5H83.1125" stroke="#827F80"/>
<path d="M83.1123 5.5H84.4748Z" fill="black"/>
<path d="M83.1123 5.5H84.4748" stroke="#817D7E"/>
<path d="M91.2876 5.5H94.0126Z" fill="black"/>
<path d="M91.2876 5.5H94.0126" stroke="#807D7D"/>
<path d="M98.1001 5.5H100.825Z" fill="black"/>
<path d="M98.1001 5.5H100.825" stroke="#83817F"/>
<path d="M4.0874 6.5H5.4499Z" fill="black"/>
<path d="M4.0874 6.5H5.4499" stroke="#6F6E6C"/>
<path d="M6.8125 6.5H8.175Z" fill="black"/>
<path d="M6.8125 6.5H8.175" stroke="#858181"/>
<path d="M8.1748 6.5H9.5373Z" fill="black"/>
<path d="M8.1748 6.5H9.5373" stroke="#8E8A8A"/>
<path d="M9.5376 6.5H10.9001Z" fill="black"/>
<path d="M9.5376 6.5H10.9001" stroke="#888686"/>
<path d="M10.8999 6.5H12.2624Z" fill="black"/>
<path d="M10.8999 6.5H12.2624" stroke="#7B797A"/>
<path d="M12.2627 6.5H13.6252Z" fill="black"/>
<path d="M12.2627 6.5H13.6252" stroke="#767575"/>
<path d="M13.625 6.5H14.9875Z" fill="black"/>
<path d="M13.625 6.5H14.9875" stroke="#777576"/>
<path d="M14.9873 6.5H17.7123Z" fill="black"/>
<path d="M14.9873 6.5H17.7123" stroke="#747273"/>
<path d="M17.7124 6.5H19.0749Z" fill="black"/>
<path d="M17.7124 6.5H19.0749" stroke="#747272"/>
<path d="M19.0752 6.5H20.4377ZM21.8002 6.5H24.5252ZM25.8877 6.5H27.2502ZM31.3377 6.5H32.7002ZM38.1502 6.5H43.6002ZM47.6877 6.5H49.0502ZM50.4127 34.5H51.7752Z" fill="black"/>
<path d="M19.0752 6.5H20.4377M21.8002 6.5H24.5252M25.8877 6.5H27.2502M31.3377 6.5H32.7002M38.1502 6.5H43.6002M47.6877 6.5H49.0502M50.4127 34.5H51.7752" stroke="#767272"/>
<path d="M20.4375 6.5H21.8ZM24.525 6.5H25.8875ZM43.6 6.5H44.9625Z" fill="black"/>
<path d="M20.4375 6.5H21.8M24.525 6.5H25.8875M43.6 6.5H44.9625" stroke="#767372"/>
<path d="M27.25 6.5H28.6125Z" fill="black"/>
<path d="M27.25 6.5H28.6125" stroke="#777473"/>
<path d="M28.6123 6.5H29.9748Z" fill="black"/>
<path d="M28.6123 6.5H29.9748" stroke="#74706F"/>
<path d="M29.9751 6.5H31.3376Z" fill="black"/>
<path d="M29.9751 6.5H31.3376" stroke="#757271"/>
<path d="M32.7002 6.5H34.0627Z" fill="black"/>
<path d="M32.7002 6.5H34.0627" stroke="#757171"/>
<path d="M34.0625 6.5H36.7875Z" fill="black"/>
<path d="M34.0625 6.5H36.7875" stroke="#737270"/>
<path d="M36.7876 6.5H38.1501Z" fill="black"/>
<path d="M36.7876 6.5H38.1501" stroke="#757372"/>
<path d="M44.9624 6.5H46.3249Z" fill="black"/>
<path d="M44.9624 6.5H46.3249" stroke="#767271"/>
<path d="M46.3252 6.5H47.6877Z" fill="black"/>
<path d="M46.3252 6.5H47.6877" stroke="#777372"/>
<path d="M49.0498 6.5H50.4123ZM51.7748 6.5H53.1373Z" fill="black"/>
<path d="M49.0498 6.5H50.4123M51.7748 6.5H53.1373" stroke="#777272"/>
<path d="M50.4126 6.5H51.7751ZM100.825 33.5H102.188Z" fill="black"/>
<path d="M50.4126 6.5H51.7751M100.825 33.5H102.188" stroke="#7A7575"/>
<path d="M53.1377 6.5H54.5002Z" fill="black"/>
<path d="M53.1377 6.5H54.5002" stroke="#797272"/>
<path d="M54.5 6.5H55.8625ZM92.65 34.5H94.0125Z" fill="black"/>
<path d="M54.5 6.5H55.8625M92.65 34.5H94.0125" stroke="#726D6D"/>
<path d="M55.8623 6.5H58.5873ZM74.9373 6.5H76.2998Z" fill="black"/>
<path d="M55.8623 6.5H58.5873M74.9373 6.5H76.2998" stroke="#6D6867"/>
<path d="M58.5874 6.5H59.9499ZM72.2124 6.5H73.5749ZM91.2874 6.5H94.0124Z" fill="black"/>
<path d="M58.5874 6.5H59.9499M72.2124 6.5H73.5749M91.2874 6.5H94.0124" stroke="#6C6867"/>
<path d="M59.9502 6.5H61.3127ZM94.0127 7.5H95.3752Z" fill="black"/>
<path d="M59.9502 6.5H61.3127M94.0127 7.5H95.3752" stroke="#6B6867"/>
<path d="M61.3125 6.5H62.675Z" fill="black"/>
<path d="M61.3125 6.5H62.675" stroke="#6B6766"/>
<path d="M62.6748 6.5H64.0373Z" fill="black"/>
<path d="M62.6748 6.5H64.0373" stroke="#6C6968"/>
<path d="M64.0376 6.5H65.4001Z" fill="black"/>
<path d="M64.0376 6.5H65.4001" stroke="#6D6B6A"/>
<path d="M65.3999 6.5H66.7624Z" fill="black"/>
<path d="M65.3999 6.5H66.7624" stroke="#6B6A68"/>
<path d="M66.7627 6.5H68.1252Z" fill="black"/>
<path d="M66.7627 6.5H68.1252" stroke="#6D6A69"/>
<path d="M68.125 6.5H69.4875Z" fill="black"/>
<path d="M68.125 6.5H69.4875" stroke="#6C6868"/>
<path d="M69.4873 6.5H70.8498Z" fill="black"/>
<path d="M69.4873 6.5H70.8498" stroke="#6A6666"/>
<path d="M70.8501 6.5H72.2126Z" fill="black"/>
<path d="M70.8501 6.5H72.2126" stroke="#6E6A6A"/>
<path d="M73.5752 6.5H74.9377Z" fill="black"/>
<path d="M73.5752 6.5H74.9377" stroke="#6B6767"/>
<path d="M76.2998 6.5H77.6623Z" fill="black"/>
<path d="M76.2998 6.5H77.6623" stroke="#6D6767"/>
<path d="M77.6626 6.5H79.0251Z" fill="black"/>
<path d="M77.6626 6.5H79.0251" stroke="#6E6969"/>
<path d="M79.0249 6.5H80.3874Z" fill="black"/>
<path d="M79.0249 6.5H80.3874" stroke="#6D6869"/>
<path d="M80.3877 6.5H81.7502ZM85.8377 6.5H87.2002Z" fill="black"/>
<path d="M80.3877 6.5H81.7502M85.8377 6.5H87.2002" stroke="#6D696A"/>
<path d="M81.75 6.5H83.1125Z" fill="black"/>
<path d="M81.75 6.5H83.1125" stroke="#6D696B"/>
<path d="M83.1123 6.5H84.4748Z" fill="black"/>
<path d="M83.1123 6.5H84.4748" stroke="#6B6769"/>
<path d="M84.4751 6.5H85.8376Z" fill="black"/>
<path d="M84.4751 6.5H85.8376" stroke="#6F6B6C"/>
<path d="M87.2002 6.5H89.9252Z" fill="black"/>
<path d="M87.2002 6.5H89.9252" stroke="#6D6969"/>
<path d="M89.9248 6.5H91.2873Z" fill="black"/>
<path d="M89.9248 6.5H91.2873" stroke="#6D6968"/>
<path d="M94.0127 6.5H95.3752Z" fill="black"/>
<path d="M94.0127 6.5H95.3752" stroke="#726E6D"/>
<path d="M98.1001 6.5H99.4626Z" fill="black"/>
<path d="M98.1001 6.5H99.4626" stroke="#837F7F"/>
<path d="M100.825 6.5H102.188Z" fill="black"/>
<path d="M100.825 6.5H102.188" stroke="#736F6E"/>
<path d="M102.188 6.5H103.55Z" fill="black"/>
<path d="M102.188 6.5H103.55" stroke="#4F4B4A"/>
<path d="M103.55 6.5H104.912Z" fill="black"/>
<path d="M103.55 6.5H104.912" stroke="#4E4C4B"/>
<path d="M5.4502 7.5H6.8127Z" fill="black"/>
<path d="M5.4502 7.5H6.8127" stroke="#A9A5A5"/>
<path d="M6.8125 7.5H8.175Z" fill="black"/>
<path d="M6.8125 7.5H8.175" stroke="#9F9B9A"/>
<path d="M9.5376 7.5H10.9001Z" fill="black"/>
<path d="M9.5376 7.5H10.9001" stroke="#7F7D7B"/>
<path d="M10.8999 7.5H12.2624Z" fill="black"/>
<path d="M10.8999 7.5H12.2624" stroke="#6A6868"/>
<path d="M12.2627 7.5H13.6252Z" fill="black"/>
<path d="M12.2627 7.5H13.6252" stroke="#626061"/>
<path d="M13.625 7.5H14.9875Z" fill="black"/>
<path d="M13.625 7.5H14.9875" stroke="#626161"/>
<path d="M14.9873 7.5H16.3498Z" fill="black"/>
<path d="M14.9873 7.5H16.3498" stroke="#615F60"/>
<path d="M16.3501 7.5H19.0751Z" fill="black"/>
<path d="M16.3501 7.5H19.0751" stroke="#605E5E"/>
<path d="M19.0752 7.5H21.8002ZM29.9752 7.5H31.3377ZM46.3252 7.5H49.0502ZM69.4877 7.5H70.8502ZM102.188 28.5H103.55ZM47.6877 35.5H49.0502ZM85.8377 35.5H87.2002ZM92.6502 35.5H94.0127Z" fill="black"/>
<path d="M19.0752 7.5H21.8002M29.9752 7.5H31.3377M46.3252 7.5H49.0502M69.4877 7.5H70.8502M102.188 28.5H103.55M47.6877 35.5H49.0502M85.8377 35.5H87.2002M92.6502 35.5H94.0127" stroke="#625E5E"/>
<path d="M21.7998 7.5H23.1623ZM31.3373 7.5H34.0623ZM103.55 8.5H104.912Z" fill="black"/>
<path d="M21.7998 7.5H23.1623M31.3373 7.5H34.0623M103.55 8.5H104.912" stroke="#615E5D"/>
<path d="M23.1626 7.5H24.5251ZM25.8876 7.5H27.2501ZM34.0626 7.5H35.4251ZM55.8626 7.5H57.2251ZM61.3126 7.5H62.6751ZM73.5751 7.5H74.9376ZM102.188 15.5H103.55Z" fill="black"/>
<path d="M23.1626 7.5H24.5251M25.8876 7.5H27.2501M34.0626 7.5H35.4251M55.8626 7.5H57.2251M61.3126 7.5H62.6751M73.5751 7.5H74.9376M102.188 15.5H103.55" stroke="#625F5E"/>
<path d="M24.5252 7.5H25.8877ZM102.188 14.5H103.55ZM102.188 17.5H103.55ZM102.188 26.5H103.55ZM19.0752 35.5H20.4377ZM21.8002 35.5H23.1627ZM51.7752 35.5H53.1377Z" fill="black"/>
<path d="M24.5252 7.5H25.8877M102.188 14.5H103.55M102.188 17.5H103.55M102.188 26.5H103.55M19.0752 35.5H20.4377M21.8002 35.5H23.1627M51.7752 35.5H53.1377" stroke="#635F5E"/>
<path d="M27.25 7.5H28.6125ZM102.188 32.5H103.55ZM38.15 35.5H40.875ZM99.4625 35.5H100.825Z" fill="black"/>
<path d="M27.25 7.5H28.6125M102.188 32.5H103.55M38.15 35.5H40.875M99.4625 35.5H100.825" stroke="#646060"/>
<path d="M28.6123 7.5H29.9748ZM103.55 7.5H104.912Z" fill="black"/>
<path d="M28.6123 7.5H29.9748M103.55 7.5H104.912" stroke="#5F5C5B"/>
<path d="M35.4248 7.5H36.7873Z" fill="black"/>
<path d="M35.4248 7.5H36.7873" stroke="#62605E"/>
<path d="M36.7874 7.5H38.1499ZM50.4124 7.5H51.7749ZM54.4999 7.5H55.8624ZM66.7624 7.5H68.1249ZM4.0874 28.5H5.4499Z" fill="black"/>
<path d="M36.7874 7.5H38.1499M50.4124 7.5H51.7749M54.4999 7.5H55.8624M66.7624 7.5H68.1249M4.0874 28.5H5.4499" stroke="#646261"/>
<path d="M38.1499 7.5H39.5124ZM42.2374 7.5H43.5999ZM87.1999 7.5H91.2874ZM81.7499 35.5H83.1124Z" fill="black"/>
<path d="M38.1499 7.5H39.5124M42.2374 7.5H43.5999M87.1999 7.5H91.2874M81.7499 35.5H83.1124" stroke="#646160"/>
<path d="M39.5125 7.5H40.875ZM62.675 7.5H64.0375ZM102.188 9.5H103.55ZM102.188 25.5H103.55ZM102.188 27.5H103.55ZM20.4375 35.5H21.8ZM36.7875 35.5H38.15ZM49.05 35.5H50.4125ZM55.8625 35.5H57.225ZM74.9375 35.5H77.6625ZM96.7375 35.5H98.1Z" fill="black"/>
<path d="M39.5125 7.5H40.875M62.675 7.5H64.0375M102.188 9.5H103.55M102.188 25.5H103.55M102.188 27.5H103.55M20.4375 35.5H21.8M36.7875 35.5H38.15M49.05 35.5H50.4125M55.8625 35.5H57.225M74.9375 35.5H77.6625M96.7375 35.5H98.1" stroke="#64605F"/>
<path d="M40.875 7.5H42.2375ZM102.187 8.5H103.55ZM102.187 19.5H103.55ZM62.675 35.5H64.0375ZM69.4875 35.5H70.85Z" fill="black"/>
<path d="M40.875 7.5H42.2375M102.187 8.5H103.55M102.187 19.5H103.55M62.675 35.5H64.0375M69.4875 35.5H70.85" stroke="#656160"/>
<path d="M43.6001 7.5H44.9626ZM53.1376 35.5H54.5001ZM64.0376 35.5H65.4001ZM66.7626 35.5H69.4876Z" fill="black"/>
<path d="M43.6001 7.5H44.9626M53.1376 35.5H54.5001M64.0376 35.5H65.4001M66.7626 35.5H69.4876" stroke="#666262"/>
<path d="M44.9624 7.5H46.3249ZM102.187 13.5H103.55ZM102.187 22.5H103.55ZM61.3124 35.5H62.6749ZM65.3999 35.5H66.7624ZM72.2124 35.5H74.9374ZM80.3874 35.5H81.7499ZM91.2874 35.5H92.6499Z" fill="black"/>
<path d="M44.9624 7.5H46.3249M102.187 13.5H103.55M102.187 22.5H103.55M61.3124 35.5H62.6749M65.3999 35.5H66.7624M72.2124 35.5H74.9374M80.3874 35.5H81.7499M91.2874 35.5H92.6499" stroke="#645F5F"/>
<path d="M49.0498 7.5H50.4123Z" fill="black"/>
<path d="M49.0498 7.5H50.4123" stroke="#62605F"/>
<path d="M51.7749 7.5H53.1374Z" fill="black"/>
<path d="M51.7749 7.5H53.1374" stroke="#615F5E"/>
<path d="M53.1377 7.5H54.5002Z" fill="black"/>
<path d="M53.1377 7.5H54.5002" stroke="#62615F"/>
<path d="M57.2251 7.5H59.9501ZM68.1251 7.5H69.4876ZM72.2126 7.5H73.5751ZM91.2876 7.5H94.0126ZM100.825 34.5H102.188Z" fill="black"/>
<path d="M57.2251 7.5H59.9501M68.1251 7.5H69.4876M72.2126 7.5H73.5751M91.2876 7.5H94.0126M100.825 34.5H102.188" stroke="#63605F"/>
<path d="M59.9498 7.5H61.3123ZM102.187 10.5H103.55ZM102.187 16.5H103.55ZM8.1748 35.5H9.5373ZM35.4248 35.5H36.7873ZM46.3248 35.5H47.6873ZM54.4998 35.5H55.8623ZM87.1998 35.5H91.2873Z" fill="black"/>
<path d="M59.9498 7.5H61.3123M102.187 10.5H103.55M102.187 16.5H103.55M8.1748 35.5H9.5373M35.4248 35.5H36.7873M46.3248 35.5H47.6873M54.4998 35.5H55.8623M87.1998 35.5H91.2873" stroke="#635F5F"/>
<path d="M64.0376 7.5H65.4001Z" fill="black"/>
<path d="M64.0376 7.5H65.4001" stroke="#666462"/>
<path d="M65.3999 7.5H66.7624Z" fill="black"/>
<path d="M65.3999 7.5H66.7624" stroke="#626160"/>
<path d="M70.8501 7.5H72.2126ZM9.5376 35.5H10.9001Z" fill="black"/>
<path d="M70.8501 7.5H72.2126M9.5376 35.5H10.9001" stroke="#656261"/>
<path d="M74.9376 7.5H76.3001ZM102.188 33.5H103.55ZM23.1626 35.5H24.5251ZM77.6626 35.5H79.0251Z" fill="black"/>
<path d="M74.9376 7.5H76.3001M102.188 33.5H103.55M23.1626 35.5H24.5251M77.6626 35.5H79.0251" stroke="#656060"/>
<path d="M76.2998 7.5H77.6623ZM102.187 23.5H103.55Z" fill="black"/>
<path d="M76.2998 7.5H77.6623M102.187 23.5H103.55" stroke="#655F5F"/>
<path d="M77.6626 7.5H79.0251Z" fill="black"/>
<path d="M77.6626 7.5H79.0251" stroke="#676262"/>
<path d="M79.0248 7.5H80.3873ZM85.8373 7.5H87.1998ZM102.187 29.5H103.55ZM14.9873 35.5H16.3498ZM25.8873 35.5H27.2498ZM34.0623 35.5H35.4248Z" fill="black"/>
<path d="M79.0248 7.5H80.3873M85.8373 7.5H87.1998M102.187 29.5H103.55M14.9873 35.5H16.3498M25.8873 35.5H27.2498M34.0623 35.5H35.4248" stroke="#646061"/>
<path d="M80.3877 7.5H81.7502Z" fill="black"/>
<path d="M80.3877 7.5H81.7502" stroke="#646062"/>
<path d="M81.75 7.5H83.1125Z" fill="black"/>
<path d="M81.75 7.5H83.1125" stroke="#656162"/>
<path d="M83.1126 7.5H84.4751ZM102.188 30.5H103.55ZM102.188 31.5H103.55ZM16.3501 35.5H19.0751Z" fill="black"/>
<path d="M83.1126 7.5H84.4751M102.188 30.5H103.55M102.188 31.5H103.55M16.3501 35.5H19.0751" stroke="#635F60"/>
<path d="M84.475 7.5H85.8375ZM13.625 35.5H14.9875Z" fill="black"/>
<path d="M84.475 7.5H85.8375M13.625 35.5H14.9875" stroke="#666364"/>
<path d="M98.1001 7.5H99.4626Z" fill="black"/>
<path d="M98.1001 7.5H99.4626" stroke="#848181"/>
<path d="M100.825 7.5H102.188Z" fill="black"/>
<path d="M100.825 7.5H102.188" stroke="#7B7674"/>
<path d="M102.187 7.5H103.55ZM24.5249 35.5H25.8874ZM70.8499 35.5H72.2124Z" fill="black"/>
<path d="M102.187 7.5H103.55M24.5249 35.5H25.8874M70.8499 35.5H72.2124" stroke="#666261"/>
<path d="M4.0874 8.5H5.4499Z" fill="black"/>
<path d="M4.0874 8.5H5.4499" stroke="#81807E"/>
<path d="M6.8125 8.5H8.175Z" fill="black"/>
<path d="M6.8125 8.5H8.175" stroke="#9B9696"/>
<path d="M8.1748 8.5H9.5373Z" fill="black"/>
<path d="M8.1748 8.5H9.5373" stroke="#7C7875"/>
<path d="M9.5376 8.5H10.9001Z" fill="black"/>
<path d="M9.5376 8.5H10.9001" stroke="#7F7874"/>
<path d="M10.8999 8.5H12.2624Z" fill="black"/>
<path d="M10.8999 8.5H12.2624" stroke="#76655E"/>
<path d="M12.2627 8.5H13.6252Z" fill="black"/>
<path d="M12.2627 8.5H13.6252" stroke="#745C53"/>
<path d="M13.625 8.5H14.9875Z" fill="black"/>
<path d="M13.625 8.5H14.9875" stroke="#765E54"/>
<path d="M14.9873 8.5H16.3498Z" fill="black"/>
<path d="M14.9873 8.5H16.3498" stroke="#755D51"/>
<path d="M16.3501 8.5H20.4376ZM21.8001 8.5H23.1626ZM35.4251 8.5H36.7876ZM83.1126 8.5H84.4751Z" fill="black"/>
<path d="M16.3501 8.5H20.4376M21.8001 8.5H23.1626M35.4251 8.5H36.7876M83.1126 8.5H84.4751" stroke="#735D50"/>
<path d="M20.4375 8.5H21.8ZM38.15 8.5H39.5125ZM79.025 8.5H80.3875Z" fill="black"/>
<path d="M20.4375 8.5H21.8M38.15 8.5H39.5125M79.025 8.5H80.3875" stroke="#745D50"/>
<path d="M23.1626 8.5H24.5251ZM25.8876 8.5H27.2501Z" fill="black"/>
<path d="M23.1626 8.5H24.5251M25.8876 8.5H27.2501" stroke="#755F52"/>
<path d="M24.5249 8.5H25.8874Z" fill="black"/>
<path d="M24.5249 8.5H25.8874" stroke="#745E51"/>
<path d="M27.25 8.5H28.6125ZM40.875 8.5H42.2375ZM77.6625 8.5H79.025Z" fill="black"/>
<path d="M27.25 8.5H28.6125M40.875 8.5H42.2375M77.6625 8.5H79.025" stroke="#776053"/>
<path d="M28.6123 8.5H29.9748Z" fill="black"/>
<path d="M28.6123 8.5H29.9748" stroke="#725C4D"/>
<path d="M29.9751 8.5H31.3376Z" fill="black"/>
<path d="M29.9751 8.5H31.3376" stroke="#755E4F"/>
<path d="M31.3374 8.5H35.4249Z" fill="black"/>
<path d="M31.3374 8.5H35.4249" stroke="#745D4F"/>
<path d="M36.7876 8.5H38.1501Z" fill="black"/>
<path d="M36.7876 8.5H38.1501" stroke="#765F52"/>
<path d="M39.5127 8.5H40.8752ZM72.2127 8.5H73.5752ZM85.8377 8.5H88.5627Z" fill="black"/>
<path d="M39.5127 8.5H40.8752M72.2127 8.5H73.5752M85.8377 8.5H88.5627" stroke="#755E51"/>
<path d="M42.2373 8.5H43.5998ZM44.9623 8.5H46.3248ZM57.2248 8.5H61.3123ZM62.6748 8.5H64.0373ZM73.5748 8.5H74.9373ZM76.2998 8.5H77.6623Z" fill="black"/>
<path d="M42.2373 8.5H43.5998M44.9623 8.5H46.3248M57.2248 8.5H61.3123M62.6748 8.5H64.0373M73.5748 8.5H74.9373M76.2998 8.5H77.6623" stroke="#755E50"/>
<path d="M43.6001 8.5H44.9626Z" fill="black"/>
<path d="M43.6001 8.5H44.9626" stroke="#775F52"/>
<path d="M46.3252 8.5H47.6877Z" fill="black"/>
<path d="M46.3252 8.5H47.6877" stroke="#755D50"/>
<path d="M47.6875 8.5H49.05ZM74.9375 8.5H76.3ZM88.5625 8.5H91.2875Z" fill="black"/>
<path d="M47.6875 8.5H49.05M74.9375 8.5H76.3M88.5625 8.5H91.2875" stroke="#765E51"/>
<path d="M49.0498 8.5H50.4123ZM55.8623 8.5H57.2248ZM61.3123 8.5H62.6748ZM68.1248 8.5H69.4873Z" fill="black"/>
<path d="M49.0498 8.5H50.4123M55.8623 8.5H57.2248M61.3123 8.5H62.6748M68.1248 8.5H69.4873" stroke="#745E50"/>
<path d="M50.4126 8.5H51.7751ZM70.8501 8.5H72.2126ZM81.7501 8.5H83.1126Z" fill="black"/>
<path d="M50.4126 8.5H51.7751M70.8501 8.5H72.2126M81.7501 8.5H83.1126" stroke="#766052"/>
<path d="M51.7749 8.5H53.1374Z" fill="black"/>
<path d="M51.7749 8.5H53.1374" stroke="#735D4F"/>
<path d="M53.1377 8.5H54.5002Z" fill="black"/>
<path d="M53.1377 8.5H54.5002" stroke="#765F51"/>
<path d="M54.5 8.5H55.8625Z" fill="black"/>
<path d="M54.5 8.5H55.8625" stroke="#776052"/>
<path d="M64.0376 8.5H65.4001Z" fill="black"/>
<path d="M64.0376 8.5H65.4001" stroke="#776153"/>
<path d="M65.3999 8.5H66.7624ZM69.4874 8.5H70.8499Z" fill="black"/>
<path d="M65.3999 8.5H66.7624M69.4874 8.5H70.8499" stroke="#735E50"/>
<path d="M66.7627 8.5H68.1252Z" fill="black"/>
<path d="M66.7627 8.5H68.1252" stroke="#756052"/>
<path d="M80.3877 8.5H81.7502Z" fill="black"/>
<path d="M80.3877 8.5H81.7502" stroke="#765F53"/>
<path d="M84.4751 8.5H85.8376Z" fill="black"/>
<path d="M84.4751 8.5H85.8376" stroke="#776154"/>
<path d="M91.2876 8.5H94.0126Z" fill="black"/>
<path d="M91.2876 8.5H94.0126" stroke="#775F51"/>
<path d="M94.0127 8.5H95.3752Z" fill="black"/>
<path d="M94.0127 8.5H95.3752" stroke="#7C6455"/>
<path d="M95.375 8.5H96.7375Z" fill="black"/>
<path d="M95.375 8.5H96.7375" stroke="#8B7263"/>
<path d="M96.7373 8.5H98.0998Z" fill="black"/>
<path d="M96.7373 8.5H98.0998" stroke="#877466"/>
<path d="M98.1001 8.5H99.4626Z" fill="black"/>
<path d="M98.1001 8.5H99.4626" stroke="#918580"/>
<path d="M99.4624 8.5H100.825Z" fill="black"/>
<path d="M99.4624 8.5H100.825" stroke="#8B8788"/>
<path d="M100.825 8.5H102.188Z" fill="black"/>
<path d="M100.825 8.5H102.188" stroke="#817C7A"/>
<path d="M4.0874 9.5H5.4499Z" fill="black"/>
<path d="M4.0874 9.5H5.4499" stroke="#82807E"/>
<path d="M5.4502 9.5H6.8127Z" fill="black"/>
<path d="M5.4502 9.5H6.8127" stroke="#A7A2A3"/>
<path d="M6.8125 9.5H8.175Z" fill="black"/>
<path d="M6.8125 9.5H8.175" stroke="#948F8F"/>
<path d="M8.1748 9.5H9.5373Z" fill="black"/>
<path d="M8.1748 9.5H9.5373" stroke="#67625F"/>
<path d="M9.5376 9.5H10.9001Z" fill="black"/>
<path d="M9.5376 9.5H10.9001" stroke="#6C625B"/>
<path d="M10.8999 9.5H12.2624ZM10.8999 10.5H12.2624ZM96.7374 10.5H98.0999ZM10.8999 11.5H12.2624ZM96.7374 11.5H98.0999ZM10.8999 12.5H12.2624ZM96.7374 12.5H98.0999ZM10.8999 13.5H12.2624ZM96.7374 13.5H98.0999ZM10.8999 14.5H12.2624ZM96.7374 14.5H98.0999ZM10.8999 15.5H12.2624ZM96.7374 15.5H98.0999ZM10.8999 16.5H12.2624ZM96.7374 16.5H98.0999ZM10.8999 17.5H12.2624ZM96.7374 17.5H98.0999ZM10.8999 18.5H12.2624ZM96.7374 18.5H98.0999ZM10.8999 19.5H12.2624ZM96.7374 19.5H98.0999ZM10.8999 20.5H12.2624ZM96.7374 20.5H98.0999ZM10.8999 21.5H12.2624ZM96.7374 21.5H98.0999ZM10.8999 22.5H12.2624ZM96.7374 22.5H98.0999ZM10.8999 23.5H12.2624ZM96.7374 23.5H98.0999ZM10.8999 24.5H12.2624ZM96.7374 24.5H98.0999ZM10.8999 25.5H12.2624ZM96.7374 25.5H98.0999ZM96.7374 26.5H98.0999ZM10.8999 27.5H12.2624ZM96.7374 27.5H98.0999ZM10.8999 28.5H12.2624ZM96.7374 28.5H98.0999ZM10.8999 29.5H12.2624ZM96.7374 29.5H98.0999ZM10.8999 30.5H12.2624ZM96.7374 30.5H98.0999ZM10.8999 31.5H12.2624ZM96.7374 31.5H98.0999Z" fill="black"/>
<path d="M10.8999 9.5H12.2624M10.8999 10.5H12.2624M96.7374 10.5H98.0999M10.8999 11.5H12.2624M96.7374 11.5H98.0999M10.8999 12.5H12.2624M96.7374 12.5H98.0999M10.8999 13.5H12.2624M96.7374 13.5H98.0999M10.8999 14.5H12.2624M96.7374 14.5H98.0999M10.8999 15.5H12.2624M96.7374 15.5H98.0999M10.8999 16.5H12.2624M96.7374 16.5H98.0999M10.8999 17.5H12.2624M96.7374 17.5H98.0999M10.8999 18.5H12.2624M96.7374 18.5H98.0999M10.8999 19.5H12.2624M96.7374 19.5H98.0999M10.8999 20.5H12.2624M96.7374 20.5H98.0999M10.8999 21.5H12.2624M96.7374 21.5H98.0999M10.8999 22.5H12.2624M96.7374 22.5H98.0999M10.8999 23.5H12.2624M96.7374 23.5H98.0999M10.8999 24.5H12.2624M96.7374 24.5H98.0999M10.8999 25.5H12.2624M96.7374 25.5H98.0999M96.7374 26.5H98.0999M10.8999 27.5H12.2624M96.7374 27.5H98.0999M10.8999 28.5H12.2624M96.7374 28.5H98.0999M10.8999 29.5H12.2624M96.7374 29.5H98.0999M10.8999 30.5H12.2624M96.7374 30.5H98.0999M10.8999 31.5H12.2624M96.7374 31.5H98.0999" stroke="#40190C"/>
<path d="M12.2624 9.5H98.0999ZM12.2624 10.5H96.7374ZM12.2624 11.5H14.9874ZM94.0124 11.5H96.7374ZM12.2624 12.5H14.9874ZM94.0124 12.5H96.7374ZM12.2624 13.5H14.9874ZM94.0124 13.5H96.7374ZM12.2624 14.5H14.9874ZM47.6874 14.5H64.0374ZM94.0124 14.5H96.7374ZM12.2624 15.5H21.7999ZM94.0124 15.5H96.7374ZM12.2624 16.5H14.9874ZM94.0124 16.5H96.7374ZM12.2624 17.5H14.9874ZM94.0124 17.5H96.7374ZM12.2624 18.5H14.9874ZM50.4124 18.5H68.1249ZM94.0124 18.5H96.7374ZM13.6249 19.5H14.9874ZM94.0124 19.5H96.7374ZM13.6249 20.5H14.9874ZM74.9374 20.5H96.7374ZM13.6249 21.5H47.6874ZM94.0124 21.5H96.7374ZM13.6249 22.5H14.9874ZM94.0124 22.5H96.7374ZM13.6249 23.5H14.9874ZM94.0124 23.5H96.7374ZM13.6249 24.5H14.9874ZM76.2999 24.5H96.7374ZM13.6249 25.5H14.9874ZM94.0124 25.5H96.7374ZM10.8999 26.5H44.9624ZM94.0124 26.5H96.7374ZM13.6249 27.5H14.9874ZM94.0124 27.5H96.7374ZM13.6249 28.5H14.9874ZM94.0124 28.5H96.7374ZM13.6249 29.5H14.9874ZM94.0124 29.5H96.7374ZM13.6249 30.5H96.7374ZM12.2624 31.5H96.7374Z" fill="black"/>
<path d="M12.2624 9.5H98.0999M12.2624 10.5H96.7374M12.2624 11.5H14.9874M94.0124 11.5H96.7374M12.2624 12.5H14.9874M94.0124 12.5H96.7374M12.2624 13.5H14.9874M94.0124 13.5H96.7374M12.2624 14.5H14.9874M47.6874 14.5H64.0374M94.0124 14.5H96.7374M12.2624 15.5H21.7999M94.0124 15.5H96.7374M12.2624 16.5H14.9874M94.0124 16.5H96.7374M12.2624 17.5H14.9874M94.0124 17.5H96.7374M12.2624 18.5H14.9874M50.4124 18.5H68.1249M94.0124 18.5H96.7374M13.6249 19.5H14.9874M94.0124 19.5H96.7374M13.6249 20.5H14.9874M74.9374 20.5H96.7374M13.6249 21.5H47.6874M94.0124 21.5H96.7374M13.6249 22.5H14.9874M94.0124 22.5H96.7374M13.6249 23.5H14.9874M94.0124 23.5H96.7374M13.6249 24.5H14.9874M76.2999 24.5H96.7374M13.6249 25.5H14.9874M94.0124 25.5H96.7374M10.8999 26.5H44.9624M94.0124 26.5H96.7374M13.6249 27.5H14.9874M94.0124 27.5H96.7374M13.6249 28.5H14.9874M94.0124 28.5H96.7374M13.6249 29.5H14.9874M94.0124 29.5H96.7374M13.6249 30.5H96.7374M12.2624 31.5H96.7374" stroke="#431C0E"/>
<path d="M98.1001 9.5H99.4626Z" fill="black"/>
<path d="M98.1001 9.5H99.4626" stroke="#9D8B81"/>
<path d="M99.4624 9.5H100.825Z" fill="black"/>
<path d="M99.4624 9.5H100.825" stroke="#A69FA1"/>
<path d="M100.825 9.5H102.188Z" fill="black"/>
<path d="M100.825 9.5H102.188" stroke="#928D8C"/>
<path d="M103.55 9.5H104.912ZM103.55 32.5H104.912Z" fill="black"/>
<path d="M103.55 9.5H104.912M103.55 32.5H104.912" stroke="#5F5B5B"/>
<path d="M4.0874 10.5H5.4499Z" fill="black"/>
<path d="M4.0874 10.5H5.4499" stroke="#83817E"/>
<path d="M5.4502 10.5H6.8127Z" fill="black"/>
<path d="M5.4502 10.5H6.8127" stroke="#A9A3A4"/>
<path d="M6.8125 10.5H8.175Z" fill="black"/>
<path d="M6.8125 10.5H8.175" stroke="#938E8E"/>
<path d="M8.1748 10.5H9.5373ZM8.1748 22.5H9.5373Z" fill="black"/>
<path d="M8.1748 10.5H9.5373M8.1748 22.5H9.5373" stroke="#66605D"/>
<path d="M9.5376 10.5H10.9001Z" fill="black"/>
<path d="M9.5376 10.5H10.9001" stroke="#695F59"/>
<path d="M98.1001 10.5H99.4626ZM98.1001 20.5H99.4626Z" fill="black"/>
<path d="M98.1001 10.5H99.4626M98.1001 20.5H99.4626" stroke="#A28A7D"/>
<path d="M99.4624 10.5H100.825Z" fill="black"/>
<path d="M99.4624 10.5H100.825" stroke="#A79FA2"/>
<path d="M100.825 10.5H102.188Z" fill="black"/>
<path d="M100.825 10.5H102.188" stroke="#938F90"/>
<path d="M103.55 10.5H104.912ZM103.55 24.5H104.912Z" fill="black"/>
<path d="M103.55 10.5H104.912M103.55 24.5H104.912" stroke="#5E5A5A"/>
<path d="M4.0874 11.5H5.4499Z" fill="black"/>
<path d="M4.0874 11.5H5.4499" stroke="#82807D"/>
<path d="M5.4502 11.5H6.8127ZM35.4252 33.5H36.7877Z" fill="black"/>
<path d="M5.4502 11.5H6.8127M35.4252 33.5H36.7877" stroke="#A8A2A3"/>
<path d="M6.8125 11.5H8.175Z" fill="black"/>
<path d="M6.8125 11.5H8.175" stroke="#948D8F"/>
<path d="M8.1748 11.5H9.5373Z" fill="black"/>
<path d="M8.1748 11.5H9.5373" stroke="#68625F"/>
<path d="M9.5376 11.5H10.9001ZM9.5376 13.5H10.9001Z" fill="black"/>
<path d="M9.5376 11.5H10.9001M9.5376 13.5H10.9001" stroke="#6D615B"/>
<path d="M14.9873 11.5H94.0123ZM14.9873 12.5H19.0748ZM89.9248 12.5H94.0123ZM14.9873 13.5H17.7123ZM91.2873 13.5H94.0123ZM14.9873 14.5H17.7123ZM91.2873 14.5H94.0123ZM91.2873 15.5H94.0123ZM14.9873 16.5H17.7123ZM91.2873 16.5H94.0123ZM14.9873 17.5H17.7123ZM91.2873 17.5H94.0123ZM14.9873 18.5H17.7123ZM91.2873 18.5H94.0123ZM14.9873 19.5H17.7123ZM91.2873 19.5H94.0123ZM14.9873 20.5H17.7123ZM91.2873 21.5H94.0123ZM14.9873 22.5H17.7123ZM91.2873 22.5H94.0123ZM14.9873 23.5H17.7123ZM91.2873 23.5H94.0123ZM14.9873 24.5H17.7123ZM14.9873 25.5H17.7123ZM91.2873 25.5H94.0123ZM92.6498 26.5H94.0123ZM14.9873 27.5H17.7123ZM91.2873 27.5H94.0123ZM14.9873 28.5H19.0748ZM89.9248 28.5H94.0123ZM14.9873 29.5H94.0123Z" fill="black"/>
<path d="M14.9873 11.5H94.0123M14.9873 12.5H19.0748M89.9248 12.5H94.0123M14.9873 13.5H17.7123M91.2873 13.5H94.0123M14.9873 14.5H17.7123M91.2873 14.5H94.0123M91.2873 15.5H94.0123M14.9873 16.5H17.7123M91.2873 16.5H94.0123M14.9873 17.5H17.7123M91.2873 17.5H94.0123M14.9873 18.5H17.7123M91.2873 18.5H94.0123M14.9873 19.5H17.7123M91.2873 19.5H94.0123M14.9873 20.5H17.7123M91.2873 21.5H94.0123M14.9873 22.5H17.7123M91.2873 22.5H94.0123M14.9873 23.5H17.7123M91.2873 23.5H94.0123M14.9873 24.5H17.7123M14.9873 25.5H17.7123M91.2873 25.5H94.0123M92.6498 26.5H94.0123M14.9873 27.5H17.7123M91.2873 27.5H94.0123M14.9873 28.5H19.0748M89.9248 28.5H94.0123M14.9873 29.5H94.0123" stroke="#4F200F"/>
<path d="M98.1001 11.5H99.4626Z" fill="black"/>
<path d="M98.1001 11.5H99.4626" stroke="#93786A"/>
<path d="M99.4624 11.5H100.825Z" fill="black"/>
<path d="M99.4624 11.5H100.825" stroke="#958B8C"/>
<path d="M102.188 11.5H103.55Z" fill="black"/>
<path d="M102.188 11.5H103.55" stroke="#645F60"/>
<path d="M103.55 11.5H104.912ZM103.55 19.5H104.912Z" fill="black"/>
<path d="M103.55 11.5H104.912M103.55 19.5H104.912" stroke="#605C5B"/>
<path d="M4.0874 12.5H5.4499Z" fill="black"/>
<path d="M4.0874 12.5H5.4499" stroke="#80807C"/>
<path d="M5.4502 12.5H6.8127ZM5.4502 14.5H6.8127ZM65.4002 33.5H66.7627Z" fill="black"/>
<path d="M5.4502 12.5H6.8127M5.4502 14.5H6.8127M65.4002 33.5H66.7627" stroke="#A8A1A2"/>
<path d="M6.8125 12.5H8.175ZM6.8125 14.5H8.175Z" fill="black"/>
<path d="M6.8125 12.5H8.175M6.8125 14.5H8.175" stroke="#938C8D"/>
<path d="M8.1748 12.5H9.5373Z" fill="black"/>
<path d="M8.1748 12.5H9.5373" stroke="#665F5D"/>
<path d="M9.5376 12.5H10.9001ZM9.5376 14.5H10.9001ZM9.5376 17.5H10.9001Z" fill="black"/>
<path d="M9.5376 12.5H10.9001M9.5376 14.5H10.9001M9.5376 17.5H10.9001" stroke="#6B5E58"/>
<path d="M19.0749 12.5H47.6874ZM74.9374 13.5H91.2874ZM17.7124 14.5H23.1624ZM87.1999 14.5H91.2874ZM58.5874 15.5H80.3874ZM17.7124 16.5H20.4374ZM21.7999 16.5H27.2499ZM28.6124 16.5H40.8749ZM57.2249 16.5H77.6624ZM80.3874 16.5H91.2874ZM17.7124 17.5H21.7999ZM47.6874 17.5H54.4999ZM88.5624 17.5H91.2874ZM17.7124 18.5H25.8874ZM17.7124 19.5H20.4374ZM21.7999 19.5H40.8749ZM83.1124 19.5H91.2874ZM54.4999 21.5H58.5874ZM17.7124 22.5H46.3249ZM87.1999 22.5H91.2874ZM17.7124 23.5H28.6124ZM68.1249 23.5H91.2874ZM17.7124 24.5H21.7999ZM43.5999 24.5H47.6874ZM17.7124 25.5H19.0749ZM21.7999 25.5H47.6874ZM72.2124 25.5H73.5749ZM79.0249 25.5H91.2874ZM66.7624 26.5H81.7499ZM87.1999 26.5H88.5624ZM34.0624 27.5H35.4249ZM81.7499 27.5H91.2874ZM19.0749 28.5H34.0624ZM49.0499 28.5H50.4124ZM84.4749 28.5H89.9249Z" fill="black"/>
<path d="M19.0749 12.5H47.6874M74.9374 13.5H91.2874M17.7124 14.5H23.1624M87.1999 14.5H91.2874M58.5874 15.5H80.3874M17.7124 16.5H20.4374M21.7999 16.5H27.2499M28.6124 16.5H40.8749M57.2249 16.5H77.6624M80.3874 16.5H91.2874M17.7124 17.5H21.7999M47.6874 17.5H54.4999M88.5624 17.5H91.2874M17.7124 18.5H25.8874M17.7124 19.5H20.4374M21.7999 19.5H40.8749M83.1124 19.5H91.2874M54.4999 21.5H58.5874M17.7124 22.5H46.3249M87.1999 22.5H91.2874M17.7124 23.5H28.6124M68.1249 23.5H91.2874M17.7124 24.5H21.7999M43.5999 24.5H47.6874M17.7124 25.5H19.0749M21.7999 25.5H47.6874M72.2124 25.5H73.5749M79.0249 25.5H91.2874M66.7624 26.5H81.7499M87.1999 26.5H88.5624M34.0624 27.5H35.4249M81.7499 27.5H91.2874M19.0749 28.5H34.0624M49.0499 28.5H50.4124M84.4749 28.5H89.9249" stroke="#672908"/>
<path d="M47.6875 12.5H65.4ZM47.6875 13.5H74.9375ZM80.3875 15.5H91.2875ZM20.4375 16.5H21.8ZM77.6625 16.5H80.3875ZM21.8 17.5H39.5125ZM46.325 17.5H47.6875ZM54.5 17.5H68.125ZM69.4875 17.5H88.5625ZM25.8875 18.5H39.5125ZM42.2375 19.5H46.325ZM47.6875 19.5H58.5875ZM46.325 20.5H47.6875ZM42.2375 23.5H47.6875ZM28.6125 24.5H31.3375ZM36.7875 24.5H42.2375ZM47.6875 25.5H51.775ZM50.4125 26.5H57.225ZM35.425 27.5H42.2375Z" fill="black"/>
<path d="M47.6875 12.5H65.4M47.6875 13.5H74.9375M80.3875 15.5H91.2875M20.4375 16.5H21.8M77.6625 16.5H80.3875M21.8 17.5H39.5125M46.325 17.5H47.6875M54.5 17.5H68.125M69.4875 17.5H88.5625M25.8875 18.5H39.5125M42.2375 19.5H46.325M47.6875 19.5H58.5875M46.325 20.5H47.6875M42.2375 23.5H47.6875M28.6125 24.5H31.3375M36.7875 24.5H42.2375M47.6875 25.5H51.775M50.4125 26.5H57.225M35.425 27.5H42.2375" stroke="#622A08"/>
<path d="M65.3999 12.5H89.9249ZM17.7124 13.5H23.1624ZM28.6124 13.5H42.2374ZM17.7124 20.5H44.9624ZM88.5624 21.5H91.2874ZM47.6874 22.5H87.1999ZM17.7124 27.5H34.0624ZM34.0624 28.5H49.0499ZM50.4124 28.5H62.6749ZM72.2124 28.5H84.4749Z" fill="black"/>
<path d="M65.3999 12.5H89.9249M17.7124 13.5H23.1624M28.6124 13.5H42.2374M17.7124 20.5H44.9624M88.5624 21.5H91.2874M47.6874 22.5H87.1999M17.7124 27.5H34.0624M34.0624 28.5H49.0499M50.4124 28.5H62.6749M72.2124 28.5H84.4749" stroke="#652703"/>
<path d="M98.1001 12.5H99.4626Z" fill="black"/>
<path d="M98.1001 12.5H99.4626" stroke="#896E61"/>
<path d="M99.4624 12.5H100.825Z" fill="black"/>
<path d="M99.4624 12.5H100.825" stroke="#847B7C"/>
<path d="M100.825 12.5H102.188Z" fill="black"/>
<path d="M100.825 12.5H102.188" stroke="#797676"/>
<path d="M102.188 12.5H103.55Z" fill="black"/>
<path d="M102.188 12.5H103.55" stroke="#615D5D"/>
<path d="M103.55 12.5H104.912Z" fill="black"/>
<path d="M103.55 12.5H104.912" stroke="#5E5A59"/>
<path d="M4.0874 13.5H5.4499Z" fill="black"/>
<path d="M4.0874 13.5H5.4499" stroke="#81807D"/>
<path d="M5.4502 13.5H6.8127Z" fill="black"/>
<path d="M5.4502 13.5H6.8127" stroke="#A9A1A3"/>
<path d="M6.8125 13.5H8.175Z" fill="black"/>
<path d="M6.8125 13.5H8.175" stroke="#948E8F"/>
<path d="M8.1748 13.5H9.5373Z" fill="black"/>
<path d="M8.1748 13.5H9.5373" stroke="#68635F"/>
<path d="M23.1625 13.5H28.6125ZM23.1625 14.5H36.7875ZM36.7875 15.5H39.5125ZM27.25 16.5H28.6125ZM85.8375 18.5H87.2ZM20.4375 19.5H21.8ZM47.6875 21.5H54.5ZM47.6875 24.5H59.95ZM58.5875 25.5H70.85ZM57.225 27.5H70.85Z" fill="black"/>
<path d="M23.1625 13.5H28.6125M23.1625 14.5H36.7875M36.7875 15.5H39.5125M27.25 16.5H28.6125M85.8375 18.5H87.2M20.4375 19.5H21.8M47.6875 21.5H54.5M47.6875 24.5H59.95M58.5875 25.5H70.85M57.225 27.5H70.85" stroke="#5E2511"/>
<path d="M42.2377 13.5H47.6877ZM39.5127 15.5H58.5877ZM40.8752 16.5H57.2252ZM39.5127 17.5H46.3252ZM68.1252 17.5H69.4877ZM87.2002 18.5H91.2877ZM40.8752 19.5H42.2377ZM46.3252 19.5H47.6877ZM58.5877 19.5H83.1127ZM44.9627 20.5H46.3252ZM58.5877 21.5H88.5627ZM46.3252 22.5H47.6877ZM28.6127 23.5H42.2377ZM47.6877 23.5H68.1252ZM21.8002 24.5H28.6127ZM31.3377 24.5H36.7877ZM42.2377 24.5H43.6002ZM19.0752 25.5H21.8002ZM51.7752 25.5H58.5877ZM70.8502 25.5H72.2127ZM73.5752 25.5H79.0252ZM57.2252 26.5H66.7627ZM42.2377 27.5H57.2252ZM62.6752 28.5H72.2127Z" fill="black"/>
<path d="M42.2377 13.5H47.6877M39.5127 15.5H58.5877M40.8752 16.5H57.2252M39.5127 17.5H46.3252M68.1252 17.5H69.4877M87.2002 18.5H91.2877M40.8752 19.5H42.2377M46.3252 19.5H47.6877M58.5877 19.5H83.1127M44.9627 20.5H46.3252M58.5877 21.5H88.5627M46.3252 22.5H47.6877M28.6127 23.5H42.2377M47.6877 23.5H68.1252M21.8002 24.5H28.6127M31.3377 24.5H36.7877M42.2377 24.5H43.6002M19.0752 25.5H21.8002M51.7752 25.5H58.5877M70.8502 25.5H72.2127M73.5752 25.5H79.0252M57.2252 26.5H66.7627M42.2377 27.5H57.2252M62.6752 28.5H72.2127" stroke="#6D320C"/>
<path d="M98.1001 13.5H99.4626Z" fill="black"/>
<path d="M98.1001 13.5H99.4626" stroke="#8E7769"/>
<path d="M99.4624 13.5H100.825Z" fill="black"/>
<path d="M99.4624 13.5H100.825" stroke="#90888A"/>
<path d="M103.55 13.5H104.912Z" fill="black"/>
<path d="M103.55 13.5H104.912" stroke="#605B5B"/>
<path d="M4.0874 14.5H5.4499Z" fill="black"/>
<path d="M4.0874 14.5H5.4499" stroke="#817F7C"/>
<path d="M8.1748 14.5H9.5373ZM8.1748 15.5H9.5373ZM8.1748 23.5H9.5373Z" fill="black"/>
<path d="M8.1748 14.5H9.5373M8.1748 15.5H9.5373M8.1748 23.5H9.5373" stroke="#65605D"/>
<path d="M36.7876 14.5H46.3251ZM72.2126 14.5H76.3001ZM39.5126 18.5H50.4126ZM68.1251 18.5H76.3001ZM79.0251 18.5H85.8376ZM59.9501 24.5H76.3001ZM44.9626 26.5H50.4126ZM70.8501 27.5H79.0251Z" fill="black"/>
<path d="M36.7876 14.5H46.3251M72.2126 14.5H76.3001M39.5126 18.5H50.4126M68.1251 18.5H76.3001M79.0251 18.5H85.8376M59.9501 24.5H76.3001M44.9626 26.5H50.4126M70.8501 27.5H79.0251" stroke="#522312"/>
<path d="M46.3248 14.5H47.6873ZM21.7998 15.5H25.8873ZM64.0373 20.5H74.9373ZM81.7498 26.5H87.1998ZM88.5623 26.5H92.6498ZM79.0248 27.5H81.7498Z" fill="black"/>
<path d="M46.3248 14.5H47.6873M21.7998 15.5H25.8873M64.0373 20.5H74.9373M81.7498 26.5H87.1998M88.5623 26.5H92.6498M79.0248 27.5H81.7498" stroke="#4D2010"/>
<path d="M64.0376 14.5H72.2126Z" fill="black"/>
<path d="M64.0376 14.5H72.2126" stroke="#4B2011"/>
<path d="M76.3002 14.5H87.2002ZM25.8877 15.5H36.7877ZM76.3002 18.5H79.0252Z" fill="black"/>
<path d="M76.3002 14.5H87.2002M25.8877 15.5H36.7877M76.3002 18.5H79.0252" stroke="#5C2613"/>
<path d="M98.1001 14.5H99.4626Z" fill="black"/>
<path d="M98.1001 14.5H99.4626" stroke="#A38C7E"/>
<path d="M99.4623 14.5H100.825ZM76.2998 33.5H77.6623Z" fill="black"/>
<path d="M99.4623 14.5H100.825M76.2998 33.5H77.6623" stroke="#AAA3A3"/>
<path d="M100.825 14.5H102.188Z" fill="black"/>
<path d="M100.825 14.5H102.188" stroke="#92918F"/>
<path d="M103.55 14.5H104.912ZM103.55 15.5H104.912ZM103.55 22.5H104.912ZM103.55 23.5H104.912ZM103.55 28.5H104.912ZM103.55 30.5H104.912Z" fill="black"/>
<path d="M103.55 14.5H104.912M103.55 15.5H104.912M103.55 22.5H104.912M103.55 23.5H104.912M103.55 28.5H104.912M103.55 30.5H104.912" stroke="#5F5A5A"/>
<path d="M4.0874 15.5H5.4499Z" fill="black"/>
<path d="M4.0874 15.5H5.4499" stroke="#827F7C"/>
<path d="M5.4502 15.5H6.8127Z" fill="black"/>
<path d="M5.4502 15.5H6.8127" stroke="#A7A1A2"/>
<path d="M6.8125 15.5H8.175ZM6.8125 25.5H8.175Z" fill="black"/>
<path d="M6.8125 15.5H8.175M6.8125 25.5H8.175" stroke="#928D8D"/>
<path d="M9.5376 15.5H10.9001Z" fill="black"/>
<path d="M9.5376 15.5H10.9001" stroke="#6A5E58"/>
<path d="M98.1001 15.5H99.4626Z" fill="black"/>
<path d="M98.1001 15.5H99.4626" stroke="#A28A7C"/>
<path d="M99.4624 15.5H100.825Z" fill="black"/>
<path d="M99.4624 15.5H100.825" stroke="#ABA5A5"/>
<path d="M100.825 15.5H102.188Z" fill="black"/>
<path d="M100.825 15.5H102.188" stroke="#8E8D8A"/>
<path d="M4.0874 16.5H5.4499Z" fill="black"/>
<path d="M4.0874 16.5H5.4499" stroke="#807E7C"/>
<path d="M5.4502 16.5H6.8127Z" fill="black"/>
<path d="M5.4502 16.5H6.8127" stroke="#A6A0A2"/>
<path d="M6.8125 16.5H8.175ZM6.8125 23.5H8.175Z" fill="black"/>
<path d="M6.8125 16.5H8.175M6.8125 23.5H8.175" stroke="#918C8C"/>
<path d="M8.1748 16.5H9.5373ZM8.1748 27.5H9.5373Z" fill="black"/>
<path d="M8.1748 16.5H9.5373M8.1748 27.5H9.5373" stroke="#635F5B"/>
<path d="M9.5376 16.5H10.9001Z" fill="black"/>
<path d="M9.5376 16.5H10.9001" stroke="#695E57"/>
<path d="M98.1001 16.5H99.4626Z" fill="black"/>
<path d="M98.1001 16.5H99.4626" stroke="#917A6B"/>
<path d="M99.4624 16.5H100.825Z" fill="black"/>
<path d="M99.4624 16.5H100.825" stroke="#8E8887"/>
<path d="M100.825 16.5H102.188Z" fill="black"/>
<path d="M100.825 16.5H102.188" stroke="#7B7C78"/>
<path d="M103.55 16.5H104.912ZM103.55 25.5H104.912ZM103.55 27.5H104.912ZM103.55 29.5H104.912Z" fill="black"/>
<path d="M103.55 16.5H104.912M103.55 25.5H104.912M103.55 27.5H104.912M103.55 29.5H104.912" stroke="#615C5C"/>
<path d="M4.0874 17.5H5.4499ZM4.0874 23.5H5.4499ZM4.0874 24.5H5.4499Z" fill="black"/>
<path d="M4.0874 17.5H5.4499M4.0874 23.5H5.4499M4.0874 24.5H5.4499" stroke="#817E7C"/>
<path d="M5.4502 17.5H6.8127Z" fill="black"/>
<path d="M5.4502 17.5H6.8127" stroke="#A6A1A2"/>
<path d="M6.8125 17.5H8.175Z" fill="black"/>
<path d="M6.8125 17.5H8.175" stroke="#928C8D"/>
<path d="M8.1748 17.5H9.5373Z" fill="black"/>
<path d="M8.1748 17.5H9.5373" stroke="#63605C"/>
<path d="M98.1001 17.5H99.4626Z" fill="black"/>
<path d="M98.1001 17.5H99.4626" stroke="#887163"/>
<path d="M99.4624 17.5H100.825Z" fill="black"/>
<path d="M99.4624 17.5H100.825" stroke="#827C7C"/>
<path d="M100.825 17.5H102.188Z" fill="black"/>
<path d="M100.825 17.5H102.188" stroke="#767672"/>
<path d="M103.55 17.5H104.912Z" fill="black"/>
<path d="M103.55 17.5H104.912" stroke="#605A5A"/>
<path d="M4.0874 18.5H5.4499Z" fill="black"/>
<path d="M4.0874 18.5H5.4499" stroke="#837F7D"/>
<path d="M5.4502 18.5H6.8127Z" fill="black"/>
<path d="M5.4502 18.5H6.8127" stroke="#A8A1A3"/>
<path d="M6.8125 18.5H8.175Z" fill="black"/>
<path d="M6.8125 18.5H8.175" stroke="#938D8D"/>
<path d="M8.1748 18.5H9.5373Z" fill="black"/>
<path d="M8.1748 18.5H9.5373" stroke="#65615E"/>
<path d="M9.5376 18.5H10.9001ZM9.5376 22.5H10.9001Z" fill="black"/>
<path d="M9.5376 18.5H10.9001M9.5376 22.5H10.9001" stroke="#6C5E59"/>
<path d="M98.1001 18.5H99.4626Z" fill="black"/>
<path d="M98.1001 18.5H99.4626" stroke="#927B6B"/>
<path d="M99.4624 18.5H100.825Z" fill="black"/>
<path d="M99.4624 18.5H100.825" stroke="#908A8A"/>
<path d="M100.825 18.5H102.188Z" fill="black"/>
<path d="M100.825 18.5H102.188" stroke="#80807D"/>
<path d="M102.188 18.5H103.55Z" fill="black"/>
<path d="M102.188 18.5H103.55" stroke="#63605E"/>
<path d="M103.55 18.5H104.912ZM103.55 21.5H104.912Z" fill="black"/>
<path d="M103.55 18.5H104.912M103.55 21.5H104.912" stroke="#5E5959"/>
<path d="M4.0874 19.5H5.4499Z" fill="black"/>
<path d="M4.0874 19.5H5.4499" stroke="#696562"/>
<path d="M5.4502 19.5H6.8127ZM5.4502 21.5H6.8127ZM6.8127 32.5H8.1752Z" fill="black"/>
<path d="M5.4502 19.5H6.8127M5.4502 21.5H6.8127M6.8127 32.5H8.1752" stroke="#858081"/>
<path d="M6.8125 19.5H8.175ZM6.8125 28.5H8.175Z" fill="black"/>
<path d="M6.8125 19.5H8.175M6.8125 28.5H8.175" stroke="#7C7778"/>
<path d="M8.1748 19.5H9.5373Z" fill="black"/>
<path d="M8.1748 19.5H9.5373" stroke="#67615E"/>
<path d="M9.5376 19.5H10.9001Z" fill="black"/>
<path d="M9.5376 19.5H10.9001" stroke="#6D605A"/>
<path d="M12.2627 19.5H13.6252ZM12.2627 20.5H13.6252ZM12.2627 21.5H13.6252ZM12.2627 22.5H13.6252ZM12.2627 23.5H13.6252ZM12.2627 24.5H13.6252ZM12.2627 25.5H13.6252ZM12.2627 27.5H13.6252ZM12.2627 28.5H13.6252ZM12.2627 29.5H13.6252ZM12.2627 30.5H13.6252Z" fill="black"/>
<path d="M12.2627 19.5H13.6252M12.2627 20.5H13.6252M12.2627 21.5H13.6252M12.2627 22.5H13.6252M12.2627 23.5H13.6252M12.2627 24.5H13.6252M12.2627 25.5H13.6252M12.2627 27.5H13.6252M12.2627 28.5H13.6252M12.2627 29.5H13.6252M12.2627 30.5H13.6252" stroke="#451C0D"/>
<path d="M98.1001 19.5H99.4626Z" fill="black"/>
<path d="M98.1001 19.5H99.4626" stroke="#A38A7D"/>
<path d="M99.4624 19.5H100.825Z" fill="black"/>
<path d="M99.4624 19.5H100.825" stroke="#ACA3A5"/>
<path d="M100.825 19.5H102.188Z" fill="black"/>
<path d="M100.825 19.5H102.188" stroke="#928E8E"/>
<path d="M4.0874 20.5H5.4499Z" fill="black"/>
<path d="M4.0874 20.5H5.4499" stroke="#686361"/>
<path d="M5.4502 20.5H6.8127Z" fill="black"/>
<path d="M5.4502 20.5H6.8127" stroke="#837D7E"/>
<path d="M6.8125 20.5H8.175Z" fill="black"/>
<path d="M6.8125 20.5H8.175" stroke="#7B7676"/>
<path d="M8.1748 20.5H9.5373Z" fill="black"/>
<path d="M8.1748 20.5H9.5373" stroke="#66605E"/>
<path d="M9.5376 20.5H10.9001ZM9.5376 21.5H10.9001Z" fill="black"/>
<path d="M9.5376 20.5H10.9001M9.5376 21.5H10.9001" stroke="#6C5F5A"/>
<path d="M47.6875 20.5H64.0375Z" fill="black"/>
<path d="M47.6875 20.5H64.0375" stroke="#4B1F10"/>
<path d="M99.4624 20.5H100.825ZM99.4624 22.5H100.825Z" fill="black"/>
<path d="M99.4624 20.5H100.825M99.4624 22.5H100.825" stroke="#ABA2A4"/>
<path d="M100.825 20.5H102.188Z" fill="black"/>
<path d="M100.825 20.5H102.188" stroke="#918E8D"/>
<path d="M102.188 20.5H103.55Z" fill="black"/>
<path d="M102.188 20.5H103.55" stroke="#645F5E"/>
<path d="M103.55 20.5H104.912Z" fill="black"/>
<path d="M103.55 20.5H104.912" stroke="#5F5A59"/>
<path d="M4.0874 21.5H5.4499Z" fill="black"/>
<path d="M4.0874 21.5H5.4499" stroke="#696463"/>
<path d="M6.8125 21.5H8.175Z" fill="black"/>
<path d="M6.8125 21.5H8.175" stroke="#7E7979"/>
<path d="M8.1748 21.5H9.5373Z" fill="black"/>
<path d="M8.1748 21.5H9.5373" stroke="#66615E"/>
<path d="M98.1001 21.5H99.4626Z" fill="black"/>
<path d="M98.1001 21.5H99.4626" stroke="#A28B7E"/>
<path d="M99.4624 21.5H100.825Z" fill="black"/>
<path d="M99.4624 21.5H100.825" stroke="#AAA2A4"/>
<path d="M100.825 21.5H102.187ZM6.8125 24.5H8.175Z" fill="black"/>
<path d="M100.825 21.5H102.187M6.8125 24.5H8.175" stroke="#908D8C"/>
<path d="M102.188 21.5H103.55Z" fill="black"/>
<path d="M102.188 21.5H103.55" stroke="#635D5D"/>
<path d="M4.0874 22.5H5.4499Z" fill="black"/>
<path d="M4.0874 22.5H5.4499" stroke="#7E7A79"/>
<path d="M5.4502 22.5H6.8127Z" fill="black"/>
<path d="M5.4502 22.5H6.8127" stroke="#A19B9C"/>
<path d="M6.8125 22.5H8.175Z" fill="black"/>
<path d="M6.8125 22.5H8.175" stroke="#8C8888"/>
<path d="M98.1001 22.5H99.4626Z" fill="black"/>
<path d="M98.1001 22.5H99.4626" stroke="#A58D80"/>
<path d="M100.825 22.5H102.188Z" fill="black"/>
<path d="M100.825 22.5H102.188" stroke="#918D8C"/>
<path d="M9.5376 23.5H10.9001Z" fill="black"/>
<path d="M9.5376 23.5H10.9001" stroke="#6C5E58"/>
<path d="M98.1001 23.5H99.4626Z" fill="black"/>
<path d="M98.1001 23.5H99.4626" stroke="#A28B7C"/>
<path d="M99.4624 23.5H100.825Z" fill="black"/>
<path d="M99.4624 23.5H100.825" stroke="#AAA1A2"/>
<path d="M100.825 23.5H102.188Z" fill="black"/>
<path d="M100.825 23.5H102.188" stroke="#938F8D"/>
<path d="M8.1748 24.5H9.5373Z" fill="black"/>
<path d="M8.1748 24.5H9.5373" stroke="#64605D"/>
<path d="M9.5376 24.5H10.9001ZM9.5376 25.5H10.9001Z" fill="black"/>
<path d="M9.5376 24.5H10.9001M9.5376 25.5H10.9001" stroke="#6B5F59"/>
<path d="M98.1001 24.5H99.4626Z" fill="black"/>
<path d="M98.1001 24.5H99.4626" stroke="#968071"/>
<path d="M99.4624 24.5H100.825Z" fill="black"/>
<path d="M99.4624 24.5H100.825" stroke="#9E9695"/>
<path d="M100.825 24.5H102.188Z" fill="black"/>
<path d="M100.825 24.5H102.188" stroke="#888482"/>
<path d="M102.188 24.5H103.55Z" fill="black"/>
<path d="M102.188 24.5H103.55" stroke="#635E5D"/>
<path d="M4.0874 25.5H5.4499ZM4.0874 26.5H5.4499Z" fill="black"/>
<path d="M4.0874 25.5H5.4499M4.0874 26.5H5.4499" stroke="#807D7B"/>
<path d="M8.1748 25.5H9.5373Z" fill="black"/>
<path d="M8.1748 25.5H9.5373" stroke="#64605C"/>
<path d="M98.1001 25.5H99.4626ZM98.1001 27.5H99.4626Z" fill="black"/>
<path d="M98.1001 25.5H99.4626M98.1001 27.5H99.4626" stroke="#8A7364"/>
<path d="M99.4624 25.5H100.825Z" fill="black"/>
<path d="M99.4624 25.5H100.825" stroke="#888080"/>
<path d="M100.825 25.5H102.188Z" fill="black"/>
<path d="M100.825 25.5H102.188" stroke="#797773"/>
<path d="M5.4502 26.5H6.8127Z" fill="black"/>
<path d="M5.4502 26.5H6.8127" stroke="#A5A0A1"/>
<path d="M6.8125 26.5H8.175Z" fill="black"/>
<path d="M6.8125 26.5H8.175" stroke="#908B8B"/>
<path d="M8.1748 26.5H9.5373Z" fill="black"/>
<path d="M8.1748 26.5H9.5373" stroke="#645F5B"/>
<path d="M9.5376 26.5H10.9001Z" fill="black"/>
<path d="M9.5376 26.5H10.9001" stroke="#6B5F5A"/>
<path d="M98.1001 26.5H99.4626Z" fill="black"/>
<path d="M98.1001 26.5H99.4626" stroke="#8A7263"/>
<path d="M99.4624 26.5H100.825ZM92.6499 33.5H94.0124Z" fill="black"/>
<path d="M99.4624 26.5H100.825M92.6499 33.5H94.0124" stroke="#867E7E"/>
<path d="M100.825 26.5H102.188Z" fill="black"/>
<path d="M100.825 26.5H102.188" stroke="#777573"/>
<path d="M103.55 26.5H104.912Z" fill="black"/>
<path d="M103.55 26.5H104.912" stroke="#5F5B5A"/>
<path d="M4.0874 27.5H5.4499Z" fill="black"/>
<path d="M4.0874 27.5H5.4499" stroke="#696764"/>
<path d="M5.4502 27.5H6.8127Z" fill="black"/>
<path d="M5.4502 27.5H6.8127" stroke="#8B8687"/>
<path d="M6.8125 27.5H8.175Z" fill="black"/>
<path d="M6.8125 27.5H8.175" stroke="#807B7B"/>
<path d="M9.5376 27.5H10.9001Z" fill="black"/>
<path d="M9.5376 27.5H10.9001" stroke="#6B605A"/>
<path d="M99.4624 27.5H100.825Z" fill="black"/>
<path d="M99.4624 27.5H100.825" stroke="#877F7F"/>
<path d="M100.825 27.5H102.188Z" fill="black"/>
<path d="M100.825 27.5H102.188" stroke="#787675"/>
<path d="M5.4502 28.5H6.8127ZM47.6877 33.5H49.0502ZM85.8377 33.5H87.2002Z" fill="black"/>
<path d="M5.4502 28.5H6.8127M47.6877 33.5H49.0502M85.8377 33.5H87.2002" stroke="#837E80"/>
<path d="M8.1748 28.5H9.5373Z" fill="black"/>
<path d="M8.1748 28.5H9.5373" stroke="#655F5E"/>
<path d="M9.5376 28.5H10.9001Z" fill="black"/>
<path d="M9.5376 28.5H10.9001" stroke="#6A5F5A"/>
<path d="M98.1001 28.5H99.4626Z" fill="black"/>
<path d="M98.1001 28.5H99.4626" stroke="#8A7060"/>
<path d="M99.4624 28.5H100.825Z" fill="black"/>
<path d="M99.4624 28.5H100.825" stroke="#857C7C"/>
<path d="M100.825 28.5H102.188Z" fill="black"/>
<path d="M100.825 28.5H102.188" stroke="#777676"/>
<path d="M4.0874 29.5H5.4499Z" fill="black"/>
<path d="M4.0874 29.5H5.4499" stroke="#676564"/>
<path d="M5.4502 29.5H6.8127ZM28.6127 34.5H29.9752Z" fill="black"/>
<path d="M5.4502 29.5H6.8127M28.6127 34.5H29.9752" stroke="#858082"/>
<path d="M6.8125 29.5H8.175Z" fill="black"/>
<path d="M6.8125 29.5H8.175" stroke="#7E797B"/>
<path d="M8.1748 29.5H9.5373Z" fill="black"/>
<path d="M8.1748 29.5H9.5373" stroke="#696262"/>
<path d="M9.5376 29.5H10.9001Z" fill="black"/>
<path d="M9.5376 29.5H10.9001" stroke="#6C625D"/>
<path d="M98.1001 29.5H99.4626Z" fill="black"/>
<path d="M98.1001 29.5H99.4626" stroke="#8E7362"/>
<path d="M99.4624 29.5H100.825Z" fill="black"/>
<path d="M99.4624 29.5H100.825" stroke="#887E7E"/>
<path d="M100.825 29.5H102.188Z" fill="black"/>
<path d="M100.825 29.5H102.188" stroke="#79787A"/>
<path d="M4.0874 30.5H5.4499ZM4.0874 32.5H5.4499Z" fill="black"/>
<path d="M4.0874 30.5H5.4499M4.0874 32.5H5.4499" stroke="#666463"/>
<path d="M5.4502 30.5H6.8127ZM5.4502 31.5H6.8127Z" fill="black"/>
<path d="M5.4502 30.5H6.8127M5.4502 31.5H6.8127" stroke="#827E80"/>
<path d="M6.8125 30.5H8.175Z" fill="black"/>
<path d="M6.8125 30.5H8.175" stroke="#7E777A"/>
<path d="M8.1748 30.5H9.5373Z" fill="black"/>
<path d="M8.1748 30.5H9.5373" stroke="#67605F"/>
<path d="M9.5376 30.5H10.9001Z" fill="black"/>
<path d="M9.5376 30.5H10.9001" stroke="#69605A"/>
<path d="M98.1001 30.5H99.4626Z" fill="black"/>
<path d="M98.1001 30.5H99.4626" stroke="#897161"/>
<path d="M99.4624 30.5H100.825Z" fill="black"/>
<path d="M99.4624 30.5H100.825" stroke="#857D7C"/>
<path d="M100.825 30.5H102.188Z" fill="black"/>
<path d="M100.825 30.5H102.188" stroke="#777679"/>
<path d="M4.0874 31.5H5.4499Z" fill="black"/>
<path d="M4.0874 31.5H5.4499" stroke="#656362"/>
<path d="M6.8125 31.5H8.175Z" fill="black"/>
<path d="M6.8125 31.5H8.175" stroke="#7E787B"/>
<path d="M8.1748 31.5H9.5373Z" fill="black"/>
<path d="M8.1748 31.5H9.5373" stroke="#686060"/>
<path d="M9.5376 31.5H10.9001Z" fill="black"/>
<path d="M9.5376 31.5H10.9001" stroke="#695F5A"/>
<path d="M98.1001 31.5H99.4626Z" fill="black"/>
<path d="M98.1001 31.5H99.4626" stroke="#867368"/>
<path d="M99.4624 31.5H100.825Z" fill="black"/>
<path d="M99.4624 31.5H100.825" stroke="#867F7D"/>
<path d="M100.825 31.5H102.188Z" fill="black"/>
<path d="M100.825 31.5H102.188" stroke="#787679"/>
<path d="M103.55 31.5H104.912Z" fill="black"/>
<path d="M103.55 31.5H104.912" stroke="#5D5859"/>
<path d="M5.4502 32.5H6.8127Z" fill="black"/>
<path d="M5.4502 32.5H6.8127" stroke="#827F81"/>
<path d="M8.1748 32.5H9.5373Z" fill="black"/>
<path d="M8.1748 32.5H9.5373" stroke="#817A79"/>
<path d="M9.5376 32.5H10.9001Z" fill="black"/>
<path d="M9.5376 32.5H10.9001" stroke="#827A76"/>
<path d="M10.8999 32.5H12.2624Z" fill="black"/>
<path d="M10.8999 32.5H12.2624" stroke="#8A7A72"/>
<path d="M12.2627 32.5H13.6252Z" fill="black"/>
<path d="M12.2627 32.5H13.6252" stroke="#8D766E"/>
<path d="M13.625 32.5H14.9875Z" fill="black"/>
<path d="M13.625 32.5H14.9875" stroke="#8E7A70"/>
<path d="M14.9873 32.5H16.3498Z" fill="black"/>
<path d="M14.9873 32.5H16.3498" stroke="#8D776E"/>
<path d="M16.3501 32.5H19.0751Z" fill="black"/>
<path d="M16.3501 32.5H19.0751" stroke="#8C776E"/>
<path d="M19.0752 32.5H20.4377Z" fill="black"/>
<path d="M19.0752 32.5H20.4377" stroke="#8D786E"/>
<path d="M20.4375 32.5H21.8Z" fill="black"/>
<path d="M20.4375 32.5H21.8" stroke="#9C867D"/>
<path d="M21.7998 32.5H23.1623Z" fill="black"/>
<path d="M21.7998 32.5H23.1623" stroke="#AC988E"/>
<path d="M23.1626 32.5H24.5251Z" fill="black"/>
<path d="M23.1626 32.5H24.5251" stroke="#A9948A"/>
<path d="M24.5249 32.5H25.8874Z" fill="black"/>
<path d="M24.5249 32.5H25.8874" stroke="#917B71"/>
<path d="M25.8877 32.5H27.2502Z" fill="black"/>
<path d="M25.8877 32.5H27.2502" stroke="#8E796F"/>
<path d="M27.25 32.5H28.6125Z" fill="black"/>
<path d="M27.25 32.5H28.6125" stroke="#9E8980"/>
<path d="M28.6123 32.5H29.9748Z" fill="black"/>
<path d="M28.6123 32.5H29.9748" stroke="#AD998E"/>
<path d="M29.9751 32.5H31.3376Z" fill="black"/>
<path d="M29.9751 32.5H31.3376" stroke="#AC978D"/>
<path d="M31.3374 32.5H32.6999Z" fill="black"/>
<path d="M31.3374 32.5H32.6999" stroke="#AE998E"/>
<path d="M32.7002 32.5H34.0627Z" fill="black"/>
<path d="M32.7002 32.5H34.0627" stroke="#AD988E"/>
<path d="M34.0625 32.5H35.425ZM38.15 32.5H42.2375Z" fill="black"/>
<path d="M34.0625 32.5H35.425M38.15 32.5H42.2375" stroke="#AE998D"/>
<path d="M35.4248 32.5H36.7873Z" fill="black"/>
<path d="M35.4248 32.5H36.7873" stroke="#AC978B"/>
<path d="M36.7876 32.5H38.1501Z" fill="black"/>
<path d="M36.7876 32.5H38.1501" stroke="#AC988C"/>
<path d="M42.2373 32.5H43.5998Z" fill="black"/>
<path d="M42.2373 32.5H43.5998" stroke="#AD998B"/>
<path d="M43.6001 32.5H44.9626Z" fill="black"/>
<path d="M43.6001 32.5H44.9626" stroke="#AE9A8B"/>
<path d="M44.9624 32.5H46.3249ZM68.1249 32.5H69.4874Z" fill="black"/>
<path d="M44.9624 32.5H46.3249M68.1249 32.5H69.4874" stroke="#AD988A"/>
<path d="M46.3252 32.5H47.6877Z" fill="black"/>
<path d="M46.3252 32.5H47.6877" stroke="#AC988B"/>
<path d="M47.6875 32.5H49.05Z" fill="black"/>
<path d="M47.6875 32.5H49.05" stroke="#8D796E"/>
<path d="M49.0498 32.5H50.4123Z" fill="black"/>
<path d="M49.0498 32.5H50.4123" stroke="#8C786E"/>
<path d="M50.4126 32.5H51.7751ZM84.4751 32.5H85.8376Z" fill="black"/>
<path d="M50.4126 32.5H51.7751M84.4751 32.5H85.8376" stroke="#8D7A6F"/>
<path d="M51.7749 32.5H53.1374Z" fill="black"/>
<path d="M51.7749 32.5H53.1374" stroke="#8B786E"/>
<path d="M53.1377 32.5H54.5002Z" fill="black"/>
<path d="M53.1377 32.5H54.5002" stroke="#8F7C72"/>
<path d="M54.5 32.5H55.8625Z" fill="black"/>
<path d="M54.5 32.5H55.8625" stroke="#A8958A"/>
<path d="M55.8623 32.5H57.2248Z" fill="black"/>
<path d="M55.8623 32.5H57.2248" stroke="#AE9A90"/>
<path d="M57.2251 32.5H58.5876Z" fill="black"/>
<path d="M57.2251 32.5H58.5876" stroke="#9E897F"/>
<path d="M58.5874 32.5H59.9499Z" fill="black"/>
<path d="M58.5874 32.5H59.9499" stroke="#8C776D"/>
<path d="M59.9502 32.5H61.3127Z" fill="black"/>
<path d="M59.9502 32.5H61.3127" stroke="#8F7A6F"/>
<path d="M61.3125 32.5H62.675Z" fill="black"/>
<path d="M61.3125 32.5H62.675" stroke="#A79287"/>
<path d="M62.6748 32.5H64.0373Z" fill="black"/>
<path d="M62.6748 32.5H64.0373" stroke="#AA968A"/>
<path d="M64.0376 32.5H65.4001ZM66.7626 32.5H68.1251Z" fill="black"/>
<path d="M64.0376 32.5H65.4001M66.7626 32.5H68.1251" stroke="#AD988B"/>
<path d="M65.3999 32.5H66.7624Z" fill="black"/>
<path d="M65.3999 32.5H66.7624" stroke="#AC968A"/>
<path d="M69.4873 32.5H70.8498Z" fill="black"/>
<path d="M69.4873 32.5H70.8498" stroke="#AC9688"/>
<path d="M70.8501 32.5H76.3001Z" fill="black"/>
<path d="M70.8501 32.5H76.3001" stroke="#AE998A"/>
<path d="M76.2998 32.5H77.6623Z" fill="black"/>
<path d="M76.2998 32.5H77.6623" stroke="#AE9A8D"/>
<path d="M77.6626 32.5H79.0251Z" fill="black"/>
<path d="M77.6626 32.5H79.0251" stroke="#9C887B"/>
<path d="M79.0249 32.5H80.3874Z" fill="black"/>
<path d="M79.0249 32.5H80.3874" stroke="#8B766A"/>
<path d="M80.3877 32.5H81.7502Z" fill="black"/>
<path d="M80.3877 32.5H81.7502" stroke="#8C796C"/>
<path d="M81.75 32.5H83.1125Z" fill="black"/>
<path d="M81.75 32.5H83.1125" stroke="#8D796D"/>
<path d="M83.1123 32.5H84.4748Z" fill="black"/>
<path d="M83.1123 32.5H84.4748" stroke="#8C796E"/>
<path d="M85.8374 32.5H87.1999Z" fill="black"/>
<path d="M85.8374 32.5H87.1999" stroke="#8C786D"/>
<path d="M87.2002 32.5H89.9252Z" fill="black"/>
<path d="M87.2002 32.5H89.9252" stroke="#8D776C"/>
<path d="M89.9248 32.5H92.6498Z" fill="black"/>
<path d="M89.9248 32.5H92.6498" stroke="#8E776C"/>
<path d="M92.6499 32.5H94.0124Z" fill="black"/>
<path d="M92.6499 32.5H94.0124" stroke="#8E786C"/>
<path d="M94.0127 32.5H95.3752Z" fill="black"/>
<path d="M94.0127 32.5H95.3752" stroke="#8C786C"/>
<path d="M95.375 32.5H96.7375Z" fill="black"/>
<path d="M95.375 32.5H96.7375" stroke="#8C7A6E"/>
<path d="M96.7373 32.5H98.0998Z" fill="black"/>
<path d="M96.7373 32.5H98.0998" stroke="#8B7A72"/>
<path d="M98.1001 32.5H99.4626Z" fill="black"/>
<path d="M98.1001 32.5H99.4626" stroke="#8B807C"/>
<path d="M99.4624 32.5H100.825Z" fill="black"/>
<path d="M99.4624 32.5H100.825" stroke="#84807E"/>
<path d="M100.825 32.5H102.188Z" fill="black"/>
<path d="M100.825 32.5H102.188" stroke="#7A7677"/>
<path d="M4.0874 33.5H5.4499Z" fill="black"/>
<path d="M4.0874 33.5H5.4499" stroke="#656462"/>
<path d="M8.1748 33.5H9.5373ZM21.7998 34.5H23.1623Z" fill="black"/>
<path d="M8.1748 33.5H9.5373M21.7998 34.5H23.1623" stroke="#847E7E"/>
<path d="M9.5376 33.5H10.9001Z" fill="black"/>
<path d="M9.5376 33.5H10.9001" stroke="#86817D"/>
<path d="M10.8999 33.5H12.2624Z" fill="black"/>
<path d="M10.8999 33.5H12.2624" stroke="#87807F"/>
<path d="M12.2627 33.5H13.6252Z" fill="black"/>
<path d="M12.2627 33.5H13.6252" stroke="#857E81"/>
<path d="M13.625 33.5H14.9875Z" fill="black"/>
<path d="M13.625 33.5H14.9875" stroke="#868183"/>
<path d="M14.9873 33.5H16.3498Z" fill="black"/>
<path d="M14.9873 33.5H16.3498" stroke="#867F81"/>
<path d="M16.3501 33.5H19.0751ZM81.7501 33.5H83.1126Z" fill="black"/>
<path d="M16.3501 33.5H19.0751M81.7501 33.5H83.1126" stroke="#857F80"/>
<path d="M19.0752 33.5H20.4377Z" fill="black"/>
<path d="M19.0752 33.5H20.4377" stroke="#878082"/>
<path d="M20.4375 33.5H21.8Z" fill="black"/>
<path d="M20.4375 33.5H21.8" stroke="#948F91"/>
<path d="M21.7998 33.5H23.1623ZM31.3373 33.5H34.0623Z" fill="black"/>
<path d="M21.7998 33.5H23.1623M31.3373 33.5H34.0623" stroke="#A9A3A6"/>
<path d="M23.1626 33.5H24.5251Z" fill="black"/>
<path d="M23.1626 33.5H24.5251" stroke="#A59EA1"/>
<path d="M24.5249 33.5H25.8874Z" fill="black"/>
<path d="M24.5249 33.5H25.8874" stroke="#8A8486"/>
<path d="M25.8877 33.5H27.2502Z" fill="black"/>
<path d="M25.8877 33.5H27.2502" stroke="#857E82"/>
<path d="M27.25 33.5H28.6125Z" fill="black"/>
<path d="M27.25 33.5H28.6125" stroke="#979194"/>
<path d="M28.6123 33.5H29.9748Z" fill="black"/>
<path d="M28.6123 33.5H29.9748" stroke="#AAA5A8"/>
<path d="M29.9751 33.5H31.3376Z" fill="black"/>
<path d="M29.9751 33.5H31.3376" stroke="#A8A3A6"/>
<path d="M34.0625 33.5H35.425ZM38.15 33.5H39.5125Z" fill="black"/>
<path d="M34.0625 33.5H35.425M38.15 33.5H39.5125" stroke="#AAA3A5"/>
<path d="M36.7876 33.5H38.1501Z" fill="black"/>
<path d="M36.7876 33.5H38.1501" stroke="#A9A2A3"/>
<path d="M39.5127 33.5H40.8752Z" fill="black"/>
<path d="M39.5127 33.5H40.8752" stroke="#AAA3A4"/>
<path d="M40.875 33.5H42.2375ZM43.6 33.5H44.9625ZM62.675 33.5H65.4Z" fill="black"/>
<path d="M40.875 33.5H42.2375M43.6 33.5H44.9625M62.675 33.5H65.4" stroke="#AAA4A4"/>
<path d="M42.2373 33.5H43.5998Z" fill="black"/>
<path d="M42.2373 33.5H43.5998" stroke="#AAA2A3"/>
<path d="M44.9624 33.5H46.3249Z" fill="black"/>
<path d="M44.9624 33.5H46.3249" stroke="#A9A2A2"/>
<path d="M46.3252 33.5H47.6877Z" fill="black"/>
<path d="M46.3252 33.5H47.6877" stroke="#A8A2A2"/>
<path d="M49.0498 33.5H50.4123ZM51.7748 33.5H53.1373Z" fill="black"/>
<path d="M49.0498 33.5H50.4123M51.7748 33.5H53.1373" stroke="#827D7F"/>
<path d="M50.4126 33.5H51.7751ZM83.1126 33.5H84.4751Z" fill="black"/>
<path d="M50.4126 33.5H51.7751M83.1126 33.5H84.4751" stroke="#837E81"/>
<path d="M53.1377 33.5H54.5002ZM76.3002 34.5H77.6627Z" fill="black"/>
<path d="M53.1377 33.5H54.5002M76.3002 34.5H77.6627" stroke="#878283"/>
<path d="M54.5 33.5H55.8625Z" fill="black"/>
<path d="M54.5 33.5H55.8625" stroke="#A5A0A2"/>
<path d="M55.8623 33.5H57.2248Z" fill="black"/>
<path d="M55.8623 33.5H57.2248" stroke="#ABA6A8"/>
<path d="M57.2251 33.5H58.5876Z" fill="black"/>
<path d="M57.2251 33.5H58.5876" stroke="#9E989A"/>
<path d="M58.5874 33.5H59.9499Z" fill="black"/>
<path d="M58.5874 33.5H59.9499" stroke="#837D7F"/>
<path d="M59.9499 33.5H61.3124ZM44.9624 34.5H46.3249Z" fill="black"/>
<path d="M59.9499 33.5H61.3124M44.9624 34.5H46.3249" stroke="#868082"/>
<path d="M61.3125 33.5H62.675Z" fill="black"/>
<path d="M61.3125 33.5H62.675" stroke="#A59FA0"/>
<path d="M66.7627 33.5H68.1252Z" fill="black"/>
<path d="M66.7627 33.5H68.1252" stroke="#AAA4A3"/>
<path d="M68.125 33.5H69.4875Z" fill="black"/>
<path d="M68.125 33.5H69.4875" stroke="#AAA2A2"/>
<path d="M69.4873 33.5H70.8498Z" fill="black"/>
<path d="M69.4873 33.5H70.8498" stroke="#A8A2A0"/>
<path d="M70.8501 33.5H72.2126Z" fill="black"/>
<path d="M70.8501 33.5H72.2126" stroke="#ABA3A2"/>
<path d="M72.2124 33.5H74.9374Z" fill="black"/>
<path d="M72.2124 33.5H74.9374" stroke="#ADA5A3"/>
<path d="M74.9375 33.5H76.3Z" fill="black"/>
<path d="M74.9375 33.5H76.3" stroke="#ABA4A3"/>
<path d="M77.6626 33.5H79.0251Z" fill="black"/>
<path d="M77.6626 33.5H79.0251" stroke="#97908F"/>
<path d="M79.025 33.5H80.3875ZM61.3125 34.5H62.675Z" fill="black"/>
<path d="M79.025 33.5H80.3875M61.3125 34.5H62.675" stroke="#837D7D"/>
<path d="M80.3877 33.5H81.7502Z" fill="black"/>
<path d="M80.3877 33.5H81.7502" stroke="#857E7F"/>
<path d="M84.4751 33.5H85.8376Z" fill="black"/>
<path d="M84.4751 33.5H85.8376" stroke="#857F82"/>
<path d="M87.2002 33.5H91.2877Z" fill="black"/>
<path d="M87.2002 33.5H91.2877" stroke="#867E80"/>
<path d="M91.2876 33.5H92.6501Z" fill="black"/>
<path d="M91.2876 33.5H92.6501" stroke="#867E7F"/>
<path d="M94.0127 33.5H95.3752Z" fill="black"/>
<path d="M94.0127 33.5H95.3752" stroke="#867F7E"/>
<path d="M95.375 33.5H96.7375Z" fill="black"/>
<path d="M95.375 33.5H96.7375" stroke="#87817F"/>
<path d="M96.7373 33.5H98.0998Z" fill="black"/>
<path d="M96.7373 33.5H98.0998" stroke="#857C7D"/>
<path d="M98.1 33.5H99.4625ZM40.875 34.5H42.2375ZM55.8625 34.5H57.225ZM70.85 34.5H72.2125Z" fill="black"/>
<path d="M98.1 33.5H99.4625M40.875 34.5H42.2375M55.8625 34.5H57.225M70.85 34.5H72.2125" stroke="#878282"/>
<path d="M99.4624 33.5H100.825Z" fill="black"/>
<path d="M99.4624 33.5H100.825" stroke="#82807F"/>
<path d="M103.55 33.5H104.912Z" fill="black"/>
<path d="M103.55 33.5H104.912" stroke="#625D5E"/>
<path d="M6.8125 34.5H8.175Z" fill="black"/>
<path d="M6.8125 34.5H8.175" stroke="#5A5657"/>
<path d="M8.1748 34.5H9.5373ZM10.8998 34.5H12.2623ZM84.4748 34.5H85.8373Z" fill="black"/>
<path d="M8.1748 34.5H9.5373M10.8998 34.5H12.2623M84.4748 34.5H85.8373" stroke="#767171"/>
<path d="M9.5376 34.5H10.9001Z" fill="black"/>
<path d="M9.5376 34.5H10.9001" stroke="#767270"/>
<path d="M12.2627 34.5H13.6252Z" fill="black"/>
<path d="M12.2627 34.5H13.6252" stroke="#747072"/>
<path d="M13.625 34.5H14.9875Z" fill="black"/>
<path d="M13.625 34.5H14.9875" stroke="#767274"/>
<path d="M14.9873 34.5H16.3498Z" fill="black"/>
<path d="M14.9873 34.5H16.3498" stroke="#746F71"/>
<path d="M16.3501 34.5H19.0751Z" fill="black"/>
<path d="M16.3501 34.5H19.0751" stroke="#746E70"/>
<path d="M19.0752 34.5H20.4377ZM91.2877 34.5H92.6502Z" fill="black"/>
<path d="M19.0752 34.5H20.4377M91.2877 34.5H92.6502" stroke="#746E6F"/>
<path d="M20.4375 34.5H21.8Z" fill="black"/>
<path d="M20.4375 34.5H21.8" stroke="#7D7777"/>
<path d="M23.1626 34.5H24.5251Z" fill="black"/>
<path d="M23.1626 34.5H24.5251" stroke="#867F80"/>
<path d="M24.5249 34.5H25.8874Z" fill="black"/>
<path d="M24.5249 34.5H25.8874" stroke="#777273"/>
<path d="M25.8877 34.5H27.2502Z" fill="black"/>
<path d="M25.8877 34.5H27.2502" stroke="#736D6F"/>
<path d="M27.25 34.5H28.6125Z" fill="black"/>
<path d="M27.25 34.5H28.6125" stroke="#7F797C"/>
<path d="M29.9751 34.5H31.3376ZM32.7001 34.5H34.0626Z" fill="black"/>
<path d="M29.9751 34.5H31.3376M32.7001 34.5H34.0626" stroke="#858182"/>
<path d="M31.3374 34.5H32.6999Z" fill="black"/>
<path d="M31.3374 34.5H32.6999" stroke="#858183"/>
<path d="M34.0625 34.5H35.425Z" fill="black"/>
<path d="M34.0625 34.5H35.425" stroke="#868182"/>
<path d="M35.4248 34.5H36.7873ZM65.3998 34.5H66.7623Z" fill="black"/>
<path d="M35.4248 34.5H36.7873M65.3998 34.5H66.7623" stroke="#868080"/>
<path d="M36.7876 34.5H38.1501Z" fill="black"/>
<path d="M36.7876 34.5H38.1501" stroke="#868081"/>
<path d="M42.2373 34.5H43.5998Z" fill="black"/>
<path d="M42.2373 34.5H43.5998" stroke="#878182"/>
<path d="M43.6001 34.5H44.9626Z" fill="black"/>
<path d="M43.6001 34.5H44.9626" stroke="#888284"/>
<path d="M46.3252 34.5H47.6877ZM54.5002 34.5H55.8627Z" fill="black"/>
<path d="M46.3252 34.5H47.6877M54.5002 34.5H55.8627" stroke="#858080"/>
<path d="M47.6875 34.5H49.05ZM51.775 34.5H53.1375Z" fill="black"/>
<path d="M47.6875 34.5H49.05M51.775 34.5H53.1375" stroke="#756F6F"/>
<path d="M49.0498 34.5H50.4123ZM53.1373 34.5H54.4998ZM94.0123 34.5H95.3748Z" fill="black"/>
<path d="M49.0498 34.5H50.4123M53.1373 34.5H54.4998M94.0123 34.5H95.3748" stroke="#767070"/>
<path d="M57.2251 34.5H58.5876Z" fill="black"/>
<path d="M57.2251 34.5H58.5876" stroke="#7F7A7A"/>
<path d="M58.5874 34.5H59.9499ZM80.3874 34.5H81.7499ZM89.9249 34.5H91.2874Z" fill="black"/>
<path d="M58.5874 34.5H59.9499M80.3874 34.5H81.7499M89.9249 34.5H91.2874" stroke="#746E6E"/>
<path d="M59.9502 34.5H61.3127ZM81.7502 34.5H84.4752Z" fill="black"/>
<path d="M59.9502 34.5H61.3127M81.7502 34.5H84.4752" stroke="#757070"/>
<path d="M62.6748 34.5H64.0373Z" fill="black"/>
<path d="M62.6748 34.5H64.0373" stroke="#868282"/>
<path d="M64.0376 34.5H65.4001ZM66.7626 34.5H68.1251Z" fill="black"/>
<path d="M64.0376 34.5H65.4001M66.7626 34.5H68.1251" stroke="#888282"/>
<path d="M69.4873 34.5H70.8498Z" fill="black"/>
<path d="M69.4873 34.5H70.8498" stroke="#857F7F"/>
<path d="M77.6626 34.5H79.0251Z" fill="black"/>
<path d="M77.6626 34.5H79.0251" stroke="#7D7878"/>
<path d="M79.0249 34.5H80.3874Z" fill="black"/>
<path d="M79.0249 34.5H80.3874" stroke="#736D6D"/>
<path d="M85.8374 34.5H89.9249Z" fill="black"/>
<path d="M85.8374 34.5H89.9249" stroke="#736E6E"/>
<path d="M95.375 34.5H96.7375Z" fill="black"/>
<path d="M95.375 34.5H96.7375" stroke="#756F6E"/>
<path d="M96.7373 34.5H98.0998Z" fill="black"/>
<path d="M96.7373 34.5H98.0998" stroke="#746F6E"/>
<path d="M98.1001 34.5H99.4626Z" fill="black"/>
<path d="M98.1001 34.5H99.4626" stroke="#777172"/>
<path d="M99.4624 34.5H100.825Z" fill="black"/>
<path d="M99.4624 34.5H100.825" stroke="#736E6F"/>
<path d="M10.8999 35.5H12.2624Z" fill="black"/>
<path d="M10.8999 35.5H12.2624" stroke="#666363"/>
<path d="M12.2627 35.5H13.6252Z" fill="black"/>
<path d="M12.2627 35.5H13.6252" stroke="#646162"/>
<path d="M27.25 35.5H28.6125Z" fill="black"/>
<path d="M27.25 35.5H28.6125" stroke="#676264"/>
<path d="M28.6123 35.5H29.9748Z" fill="black"/>
<path d="M28.6123 35.5H29.9748" stroke="#625E60"/>
<path d="M29.9751 35.5H31.3376Z" fill="black"/>
<path d="M29.9751 35.5H31.3376" stroke="#636161"/>
<path d="M31.3374 35.5H32.6999Z" fill="black"/>
<path d="M31.3374 35.5H32.6999" stroke="#636162"/>
<path d="M32.7002 35.5H34.0627Z" fill="black"/>
<path d="M32.7002 35.5H34.0627" stroke="#636061"/>
<path d="M40.875 35.5H43.6ZM50.4125 35.5H51.775ZM83.1125 35.5H85.8375Z" fill="black"/>
<path d="M40.875 35.5H43.6M50.4125 35.5H51.775M83.1125 35.5H85.8375" stroke="#656161"/>
<path d="M43.6001 35.5H44.9626Z" fill="black"/>
<path d="M43.6001 35.5H44.9626" stroke="#666163"/>
<path d="M44.9624 35.5H46.3249Z" fill="black"/>
<path d="M44.9624 35.5H46.3249" stroke="#645F61"/>
<path d="M57.2251 35.5H58.5876Z" fill="black"/>
<path d="M57.2251 35.5H58.5876" stroke="#635E5E"/>
<path d="M58.5874 35.5H59.9499Z" fill="black"/>
<path d="M58.5874 35.5H59.9499" stroke="#625D5D"/>
<path d="M59.9502 35.5H61.3127ZM79.0252 35.5H80.3877Z" fill="black"/>
<path d="M59.9502 35.5H61.3127M79.0252 35.5H80.3877" stroke="#625E5D"/>
<path d="M94.0127 35.5H95.3752Z" fill="black"/>
<path d="M94.0127 35.5H95.3752" stroke="#656260"/>
<path d="M95.375 35.5H96.7375Z" fill="black"/>
<path d="M95.375 35.5H96.7375" stroke="#64605E"/>
<path d="M98.1001 35.5H99.4626Z" fill="black"/>
<path d="M98.1001 35.5H99.4626" stroke="#666162"/>
<path d="M100.825 35.5H102.188Z" fill="black"/>
<path d="M100.825 35.5H102.188" stroke="#4D4B4B"/>
<path d="M8.1748 36.5H9.5373Z" fill="black"/>
<path d="M8.1748 36.5H9.5373" stroke="#565353"/>
<path d="M9.5376 36.5H10.9001ZM24.5251 36.5H25.8876ZM57.2251 36.5H58.5876ZM95.3751 36.5H96.7376Z" fill="black"/>
<path d="M9.5376 36.5H10.9001M24.5251 36.5H25.8876M57.2251 36.5H58.5876M95.3751 36.5H96.7376" stroke="#5B5857"/>
<path d="M10.8999 36.5H12.2624Z" fill="black"/>
<path d="M10.8999 36.5H12.2624" stroke="#5B5A59"/>
<path d="M12.2627 36.5H13.6252ZM29.9752 36.5H31.3377ZM32.7002 36.5H34.0627Z" fill="black"/>
<path d="M12.2627 36.5H13.6252M29.9752 36.5H31.3377M32.7002 36.5H34.0627" stroke="#585858"/>
<path d="M13.625 36.5H14.9875Z" fill="black"/>
<path d="M13.625 36.5H14.9875" stroke="#5B5A5A"/>
<path d="M14.9873 36.5H16.3498Z" fill="black"/>
<path d="M14.9873 36.5H16.3498" stroke="#585657"/>
<path d="M16.3501 36.5H17.7126Z" fill="black"/>
<path d="M16.3501 36.5H17.7126" stroke="#585556"/>
<path d="M17.7124 36.5H19.0749ZM99.4624 36.5H100.825Z" fill="black"/>
<path d="M17.7124 36.5H19.0749M99.4624 36.5H100.825" stroke="#575556"/>
<path d="M19.0752 36.5H20.4377Z" fill="black"/>
<path d="M19.0752 36.5H20.4377" stroke="#575555"/>
<path d="M21.7998 36.5H23.1623ZM55.8623 36.5H57.2248ZM92.6498 36.5H94.0123Z" fill="black"/>
<path d="M21.7998 36.5H23.1623M55.8623 36.5H57.2248M92.6498 36.5H94.0123" stroke="#585755"/>
<path d="M23.1626 36.5H24.5251Z" fill="black"/>
<path d="M23.1626 36.5H24.5251" stroke="#5B5756"/>
<path d="M25.8877 36.5H27.2502ZM87.2002 36.5H91.2877Z" fill="black"/>
<path d="M25.8877 36.5H27.2502M87.2002 36.5H91.2877" stroke="#595757"/>
<path d="M27.25 36.5H28.6125ZM43.6 36.5H44.9625Z" fill="black"/>
<path d="M27.25 36.5H28.6125M43.6 36.5H44.9625" stroke="#5C595A"/>
<path d="M28.6123 36.5H29.9748Z" fill="black"/>
<path d="M28.6123 36.5H29.9748" stroke="#575757"/>
<path d="M31.3374 36.5H32.6999Z" fill="black"/>
<path d="M31.3374 36.5H32.6999" stroke="#595958"/>
<path d="M34.0625 36.5H35.425ZM36.7875 36.5H39.5125ZM68.125 36.5H69.4875ZM72.2125 36.5H74.9375ZM76.3 36.5H77.6625ZM80.3875 36.5H81.75ZM91.2875 36.5H92.65Z" fill="black"/>
<path d="M34.0625 36.5H35.425M36.7875 36.5H39.5125M68.125 36.5H69.4875M72.2125 36.5H74.9375M76.3 36.5H77.6625M80.3875 36.5H81.75M91.2875 36.5H92.65" stroke="#5A5857"/>
<path d="M35.4248 36.5H36.7873ZM46.3248 36.5H50.4123ZM51.7748 36.5H53.1373ZM59.9498 36.5H61.3123ZM74.9373 36.5H76.2998ZM85.8373 36.5H87.1998Z" fill="black"/>
<path d="M35.4248 36.5H36.7873M46.3248 36.5H50.4123M51.7748 36.5H53.1373M59.9498 36.5H61.3123M74.9373 36.5H76.2998M85.8373 36.5H87.1998" stroke="#595756"/>
<path d="M39.5127 36.5H40.8752ZM54.5002 36.5H55.8627ZM96.7377 36.5H98.1002Z" fill="black"/>
<path d="M39.5127 36.5H40.8752M54.5002 36.5H55.8627M96.7377 36.5H98.1002" stroke="#5A5856"/>
<path d="M40.875 36.5H42.2375ZM81.75 36.5H84.475Z" fill="black"/>
<path d="M40.875 36.5H42.2375M81.75 36.5H84.475" stroke="#5B5958"/>
<path d="M42.2373 36.5H43.5998Z" fill="black"/>
<path d="M42.2373 36.5H43.5998" stroke="#5A5858"/>
<path d="M44.9624 36.5H46.3249Z" fill="black"/>
<path d="M44.9624 36.5H46.3249" stroke="#5A5758"/>
<path d="M50.4126 36.5H51.7751Z" fill="black"/>
<path d="M50.4126 36.5H51.7751" stroke="#5C5A59"/>
<path d="M53.1377 36.5H54.5002ZM66.7627 36.5H68.1252ZM77.6627 36.5H79.0252Z" fill="black"/>
<path d="M53.1377 36.5H54.5002M66.7627 36.5H68.1252M77.6627 36.5H79.0252" stroke="#5C5958"/>
<path d="M61.3125 36.5H62.675Z" fill="black"/>
<path d="M61.3125 36.5H62.675" stroke="#585554"/>
<path d="M64.0376 36.5H65.4001ZM84.4751 36.5H85.8376Z" fill="black"/>
<path d="M64.0376 36.5H65.4001M84.4751 36.5H85.8376" stroke="#5D5A59"/>
<path d="M65.3999 36.5H66.7624Z" fill="black"/>
<path d="M65.3999 36.5H66.7624" stroke="#585756"/>
<path d="M69.4873 36.5H70.8498Z" fill="black"/>
<path d="M69.4873 36.5H70.8498" stroke="#585654"/>
<path d="M70.8501 36.5H72.2126Z" fill="black"/>
<path d="M70.8501 36.5H72.2126" stroke="#5B5957"/>
<path d="M94.0127 36.5H95.3752Z" fill="black"/>
<path d="M94.0127 36.5H95.3752" stroke="#5C5A58"/>
<path d="M98.1001 36.5H99.4626Z" fill="black"/>
<path d="M98.1001 36.5H99.4626" stroke="#5C5959"/>
<path d="M100.825 36.5H102.188Z" fill="black"/>
<path d="M100.825 36.5H102.188" stroke="#4F4D4E"/>
</svg>
