<svg xmlns="http://www.w3.org/2000/svg" viewBox="0 -0.5 80 40" shape-rendering="crispEdges">
<metadata>Made with Pixels to Svg https://codepen.io/shshaw/pen/XbxvNj</metadata>
<path stroke="#424242" d="M7 2h67M6 3h2M73 3h1M5 4h1M74 4h1M3 5h3M74 5h3M2 6h1M77 6h1M2 7h1M77 7h1M2 8h1M77 8h1M2 9h1M77 9h1M2 10h1M77 10h1M2 11h1M77 11h1M2 12h1M77 12h1M2 13h1M77 13h1M2 14h1M77 14h1M2 15h1M77 15h1M2 16h1M77 16h1M2 17h1M77 17h1M2 18h1M77 18h1M2 19h1M77 19h1M2 20h1M77 20h1M2 21h1M77 21h1M2 22h1M77 22h1M2 23h1M77 23h1M2 24h1M77 24h1M2 25h1M77 25h1M2 26h1M77 26h1M2 27h1M77 27h1M2 28h1M77 28h1M2 29h1M77 29h1M2 30h1M77 30h1M2 31h1M77 31h1M2 32h1M77 32h1M2 33h1M77 33h1M3 34h2M75 34h2M4 35h2M75 35h1M5 36h1M75 36h1M6 37h69" />
<path stroke="#7c7b7a" d="M5 3h1" />
<path stroke="#a5a2a1" d="M8 3h65M33 4h1M7 5h1M16 5h1M19 5h1M23 5h2M28 5h1" />
<path stroke="#585655" d="M74 3h1M15 36h1M43 36h1M46 36h1M58 36h1" />
<path stroke="#a8a5a4" d="M6 4h1M30 4h1" />
<path stroke="#a6a4a2" d="M7 4h1M15 4h1M25 4h2" />
<path stroke="#a6a4a4" d="M8 4h2" />
<path stroke="#a6a5a5" d="M10 4h1" />
<path stroke="#a5a2a3" d="M11 4h1M9 5h1M13 5h1" />
<path stroke="#a4a2a3" d="M12 4h1M11 5h2" />
<path stroke="#a5a3a3" d="M13 4h1" />
<path stroke="#a5a3a2" d="M14 4h1M16 4h1M19 4h1M23 4h2M14 5h2M17 5h1M20 5h1M22 5h1" />
<path stroke="#a6a4a3" d="M17 4h1M18 5h1" />
<path stroke="#a6a5a3" d="M18 4h1" />
<path stroke="#a4a2a2" d="M20 4h1M8 5h1" />
<path stroke="#a3a1a0" d="M21 4h1M21 5h1" />
<path stroke="#a7a5a3" d="M22 4h1" />
<path stroke="#a8a6a5" d="M27 4h1" />
<path stroke="#a7a4a3" d="M28 4h1M6 5h1" />
<path stroke="#a7a3a3" d="M29 4h1M32 4h1" />
<path stroke="#a6a2a2" d="M31 4h1M4 8h1M4 25h1" />
<path stroke="#a4a3a1" d="M34 4h1" />
<path stroke="#a5a1a1" d="M35 4h1M29 5h1M31 5h1M33 5h1M35 5h1" />
<path stroke="#a7a2a1" d="M36 4h1M38 4h1" />
<path stroke="#a9a4a4" d="M37 4h1" />
<path stroke="#a6a0a0" d="M39 4h1" />
<path stroke="#888383" d="M40 4h1" />
<path stroke="#817c7c" d="M41 4h1" />
<path stroke="#837e7e" d="M42 4h1" />
<path stroke="#827f7e" d="M43 4h2M46 4h1M52 4h1M71 5h1M73 6h1M6 7h1" />
<path stroke="#817e7e" d="M45 4h1M70 5h1" />
<path stroke="#838180" d="M47 4h1M49 4h1M47 5h1M3 7h1" />
<path stroke="#807e7d" d="M48 4h1M48 5h1M74 13h1" />
<path stroke="#827e7e" d="M50 4h2M53 4h1M55 4h2M52 5h1M4 6h1" />
<path stroke="#817d7d" d="M54 4h1M53 5h1M55 5h2" />
<path stroke="#848080" d="M57 4h1M71 6h1M71 7h1" />
<path stroke="#827e7f" d="M58 4h1M59 5h1M73 7h1M4 33h1" />
<path stroke="#837f80" d="M59 4h1M74 11h1M5 33h1" />
<path stroke="#838081" d="M60 4h1M62 5h1" />
<path stroke="#817e7f" d="M61 4h1M63 5h1" />
<path stroke="#838182" d="M62 4h1" />
<path stroke="#817f80" d="M63 4h1" />
<path stroke="#817f7e" d="M64 4h3M69 4h2M73 4h1" />
<path stroke="#807e7e" d="M67 4h2M72 4h1" />
<path stroke="#807f7e" d="M71 4h1" />
<path stroke="#a5a3a4" d="M10 5h1" />
<path stroke="#a4a2a1" d="M25 5h2" />
<path stroke="#a5a4a3" d="M27 5h1" />
<path stroke="#a6a2a1" d="M30 5h1M32 5h1" />
<path stroke="#a4a1a1" d="M34 5h1" />
<path stroke="#a5a0a0" d="M36 5h1M38 5h1" />
<path stroke="#a7a2a2" d="M37 5h1M4 23h1M4 24h1" />
<path stroke="#a69fa0" d="M39 5h1" />
<path stroke="#878181" d="M40 5h1M28 34h2M50 34h1M53 34h3" />
<path stroke="#807a7a" d="M41 5h1" />
<path stroke="#817d7c" d="M42 5h1" />
<path stroke="#807c7c" d="M43 5h1" />
<path stroke="#807c7b" d="M44 5h1" />
<path stroke="#7f7c7b" d="M45 5h1" />
<path stroke="#807d7c" d="M46 5h1M51 5h1M54 5h1M69 5h1" />
<path stroke="#82817f" d="M49 5h1" />
<path stroke="#817e7d" d="M50 5h1M64 5h3M70 6h1M70 7h1" />
<path stroke="#847f7f" d="M57 5h1" />
<path stroke="#827d7e" d="M58 5h1" />
<path stroke="#827f80" d="M60 5h1" />
<path stroke="#817d7e" d="M61 5h1" />
<path stroke="#807d7d" d="M67 5h2" />
<path stroke="#83817f" d="M72 5h2" />
<path stroke="#6f6e6c" d="M3 6h1" />
<path stroke="#858181" d="M5 6h1" />
<path stroke="#8e8a8a" d="M6 6h1" />
<path stroke="#888686" d="M7 6h1" />
<path stroke="#7b797a" d="M8 6h1" />
<path stroke="#767575" d="M9 6h1" />
<path stroke="#777576" d="M10 6h1" />
<path stroke="#747273" d="M11 6h2" />
<path stroke="#747272" d="M13 6h1" />
<path stroke="#767272" d="M14 6h1M16 6h2M19 6h1M23 6h1M28 6h4M35 6h1M37 34h1" />
<path stroke="#767372" d="M15 6h1M18 6h1M32 6h1" />
<path stroke="#777473" d="M20 6h1" />
<path stroke="#74706f" d="M21 6h1" />
<path stroke="#757271" d="M22 6h1" />
<path stroke="#757171" d="M24 6h1" />
<path stroke="#737270" d="M25 6h2" />
<path stroke="#757372" d="M27 6h1" />
<path stroke="#767271" d="M33 6h1" />
<path stroke="#777372" d="M34 6h1" />
<path stroke="#777272" d="M36 6h1M38 6h1" />
<path stroke="#7a7575" d="M37 6h1M74 33h1" />
<path stroke="#797272" d="M39 6h1" />
<path stroke="#726d6d" d="M40 6h1M68 34h1" />
<path stroke="#6d6867" d="M41 6h2M55 6h1" />
<path stroke="#6c6867" d="M43 6h1M53 6h1M67 6h2" />
<path stroke="#6b6867" d="M44 6h1M69 7h1" />
<path stroke="#6b6766" d="M45 6h1" />
<path stroke="#6c6968" d="M46 6h1" />
<path stroke="#6d6b6a" d="M47 6h1" />
<path stroke="#6b6a68" d="M48 6h1" />
<path stroke="#6d6a69" d="M49 6h1" />
<path stroke="#6c6868" d="M50 6h1" />
<path stroke="#6a6666" d="M51 6h1" />
<path stroke="#6e6a6a" d="M52 6h1" />
<path stroke="#6b6767" d="M54 6h1" />
<path stroke="#6d6767" d="M56 6h1" />
<path stroke="#6e6969" d="M57 6h1" />
<path stroke="#6d6869" d="M58 6h1" />
<path stroke="#6d696a" d="M59 6h1M63 6h1" />
<path stroke="#6d696b" d="M60 6h1" />
<path stroke="#6b6769" d="M61 6h1" />
<path stroke="#6f6b6c" d="M62 6h1" />
<path stroke="#6d6969" d="M64 6h2" />
<path stroke="#6d6968" d="M66 6h1" />
<path stroke="#726e6d" d="M69 6h1" />
<path stroke="#837f7f" d="M72 6h1" />
<path stroke="#736f6e" d="M74 6h1" />
<path stroke="#4f4b4a" d="M75 6h1" />
<path stroke="#4e4c4b" d="M76 6h1" />
<path stroke="#a9a5a5" d="M4 7h1" />
<path stroke="#9f9b9a" d="M5 7h1" />
<path stroke="#7f7d7b" d="M7 7h1" />
<path stroke="#6a6868" d="M8 7h1" />
<path stroke="#626061" d="M9 7h1" />
<path stroke="#626161" d="M10 7h1" />
<path stroke="#615f60" d="M11 7h1" />
<path stroke="#605e5e" d="M12 7h2" />
<path stroke="#625e5e" d="M14 7h2M22 7h1M34 7h2M51 7h1M75 28h1M35 35h1M63 35h1M68 35h1" />
<path stroke="#615e5d" d="M16 7h1M23 7h2M76 8h1" />
<path stroke="#625f5e" d="M17 7h1M19 7h1M25 7h1M41 7h1M45 7h1M54 7h1M75 15h1" />
<path stroke="#635f5e" d="M18 7h1M75 14h1M75 17h1M75 26h1M14 35h1M16 35h1M38 35h1" />
<path stroke="#646060" d="M20 7h1M75 32h1M28 35h2M73 35h1" />
<path stroke="#5f5c5b" d="M21 7h1M76 7h1" />
<path stroke="#62605e" d="M26 7h1" />
<path stroke="#646261" d="M27 7h1M37 7h1M40 7h1M49 7h1M3 28h1" />
<path stroke="#646160" d="M28 7h1M31 7h1M64 7h3M60 35h1" />
<path stroke="#64605f" d="M29 7h1M46 7h1M75 9h1M75 25h1M75 27h1M15 35h1M27 35h1M36 35h1M41 35h1M55 35h2M71 35h1" />
<path stroke="#656160" d="M30 7h1M75 8h1M75 19h1M46 35h1M51 35h1" />
<path stroke="#666262" d="M32 7h1M39 35h1M47 35h1M49 35h2" />
<path stroke="#645f5f" d="M33 7h1M75 13h1M75 22h1M45 35h1M48 35h1M53 35h2M59 35h1M67 35h1" />
<path stroke="#62605f" d="M36 7h1" />
<path stroke="#615f5e" d="M38 7h1" />
<path stroke="#62615f" d="M39 7h1" />
<path stroke="#63605f" d="M42 7h2M50 7h1M53 7h1M67 7h2M74 34h1" />
<path stroke="#635f5f" d="M44 7h1M75 10h1M75 16h1M6 35h1M26 35h1M34 35h1M40 35h1M64 35h3" />
<path stroke="#666462" d="M47 7h1" />
<path stroke="#626160" d="M48 7h1" />
<path stroke="#656261" d="M52 7h1M7 35h1" />
<path stroke="#656060" d="M55 7h1M75 33h1M17 35h1M57 35h1" />
<path stroke="#655f5f" d="M56 7h1M75 23h1" />
<path stroke="#676262" d="M57 7h1" />
<path stroke="#646061" d="M58 7h1M63 7h1M75 29h1M11 35h1M19 35h1M25 35h1" />
<path stroke="#646062" d="M59 7h1" />
<path stroke="#656162" d="M60 7h1" />
<path stroke="#635f60" d="M61 7h1M75 30h1M75 31h1M12 35h2" />
<path stroke="#666364" d="M62 7h1M10 35h1" />
<path stroke="#848181" d="M72 7h1" />
<path stroke="#7b7674" d="M74 7h1" />
<path stroke="#666261" d="M75 7h1M18 35h1M52 35h1" />
<path stroke="#81807e" d="M3 8h1" />
<path stroke="#9b9696" d="M5 8h1" />
<path stroke="#7c7875" d="M6 8h1" />
<path stroke="#7f7874" d="M7 8h1" />
<path stroke="#76655e" d="M8 8h1" />
<path stroke="#745c53" d="M9 8h1" />
<path stroke="#765e54" d="M10 8h1" />
<path stroke="#755d51" d="M11 8h1" />
<path stroke="#735d50" d="M12 8h3M16 8h1M26 8h1M61 8h1" />
<path stroke="#745d50" d="M15 8h1M28 8h1M58 8h1" />
<path stroke="#755f52" d="M17 8h1M19 8h1" />
<path stroke="#745e51" d="M18 8h1" />
<path stroke="#776053" d="M20 8h1M30 8h1M57 8h1" />
<path stroke="#725c4d" d="M21 8h1" />
<path stroke="#755e4f" d="M22 8h1" />
<path stroke="#745d4f" d="M23 8h3" />
<path stroke="#765f52" d="M27 8h1" />
<path stroke="#755e51" d="M29 8h1M53 8h1M63 8h2" />
<path stroke="#755e50" d="M31 8h1M33 8h1M42 8h3M46 8h1M54 8h1M56 8h1" />
<path stroke="#775f52" d="M32 8h1" />
<path stroke="#755d50" d="M34 8h1" />
<path stroke="#765e51" d="M35 8h1M55 8h1M65 8h2" />
<path stroke="#745e50" d="M36 8h1M41 8h1M45 8h1M50 8h1" />
<path stroke="#766052" d="M37 8h1M52 8h1M60 8h1" />
<path stroke="#735d4f" d="M38 8h1" />
<path stroke="#765f51" d="M39 8h1" />
<path stroke="#776052" d="M40 8h1" />
<path stroke="#776153" d="M47 8h1" />
<path stroke="#735e50" d="M48 8h1M51 8h1" />
<path stroke="#756052" d="M49 8h1" />
<path stroke="#765f53" d="M59 8h1" />
<path stroke="#776154" d="M62 8h1" />
<path stroke="#775f51" d="M67 8h2" />
<path stroke="#7c6455" d="M69 8h1" />
<path stroke="#8b7263" d="M70 8h1" />
<path stroke="#877466" d="M71 8h1" />
<path stroke="#918580" d="M72 8h1" />
<path stroke="#8b8788" d="M73 8h1" />
<path stroke="#817c7a" d="M74 8h1" />
<path stroke="#82807e" d="M3 9h1" />
<path stroke="#a7a2a3" d="M4 9h1" />
<path stroke="#948f8f" d="M5 9h1" />
<path stroke="#67625f" d="M6 9h1" />
<path stroke="#6c625b" d="M7 9h1" />
<path stroke="#40190c" d="M8 9h1M8 10h1M71 10h1M8 11h1M71 11h1M8 12h1M71 12h1M8 13h1M71 13h1M8 14h1M71 14h1M8 15h1M71 15h1M8 16h1M71 16h1M8 17h1M71 17h1M8 18h1M71 18h1M8 19h1M71 19h1M8 20h1M71 20h1M8 21h1M71 21h1M8 22h1M71 22h1M8 23h1M71 23h1M8 24h1M71 24h1M8 25h1M71 25h1M71 26h1M8 27h1M71 27h1M8 28h1M71 28h1M8 29h1M71 29h1M8 30h1M71 30h1M8 31h1M71 31h1" />
<path stroke="#431c0e" d="M9 9h63M9 10h62M9 11h2M69 11h2M9 12h2M69 12h2M9 13h2M69 13h2M9 14h2M35 14h12M69 14h2M9 15h7M69 15h2M9 16h2M69 16h2M9 17h2M69 17h2M9 18h2M37 18h13M69 18h2M10 19h1M69 19h2M10 20h1M55 20h16M10 21h25M69 21h2M10 22h1M69 22h2M10 23h1M69 23h2M10 24h1M56 24h15M10 25h1M69 25h2M8 26h25M69 26h2M10 27h1M69 27h2M10 28h1M69 28h2M10 29h1M69 29h2M10 30h61M9 31h62" />
<path stroke="#9d8b81" d="M72 9h1" />
<path stroke="#a69fa1" d="M73 9h1" />
<path stroke="#928d8c" d="M74 9h1" />
<path stroke="#5f5b5b" d="M76 9h1M76 32h1" />
<path stroke="#83817e" d="M3 10h1" />
<path stroke="#a9a3a4" d="M4 10h1" />
<path stroke="#938e8e" d="M5 10h1" />
<path stroke="#66605d" d="M6 10h1M6 22h1" />
<path stroke="#695f59" d="M7 10h1" />
<path stroke="#a28a7d" d="M72 10h1M72 20h1" />
<path stroke="#a79fa2" d="M73 10h1" />
<path stroke="#938f90" d="M74 10h1" />
<path stroke="#5e5a5a" d="M76 10h1M76 24h1" />
<path stroke="#82807d" d="M3 11h1" />
<path stroke="#a8a2a3" d="M4 11h1M26 33h1" />
<path stroke="#948d8f" d="M5 11h1" />
<path stroke="#68625f" d="M6 11h1" />
<path stroke="#6d615b" d="M7 11h1M7 13h1" />
<path stroke="#4f200f" d="M11 11h58M11 12h3M66 12h3M11 13h2M67 13h2M11 14h2M67 14h2M67 15h2M11 16h2M67 16h2M11 17h2M67 17h2M11 18h2M67 18h2M11 19h2M67 19h2M11 20h2M67 21h2M11 22h2M67 22h2M11 23h2M67 23h2M11 24h2M11 25h2M67 25h2M68 26h1M11 27h2M67 27h2M11 28h3M66 28h3M11 29h58" />
<path stroke="#93786a" d="M72 11h1" />
<path stroke="#958b8c" d="M73 11h1" />
<path stroke="#645f60" d="M75 11h1" />
<path stroke="#605c5b" d="M76 11h1M76 19h1" />
<path stroke="#80807c" d="M3 12h1" />
<path stroke="#a8a1a2" d="M4 12h1M4 14h1M48 33h1" />
<path stroke="#938c8d" d="M5 12h1M5 14h1" />
<path stroke="#665f5d" d="M6 12h1" />
<path stroke="#6b5e58" d="M7 12h1M7 14h1M7 17h1" />
<path stroke="#672908" d="M14 12h21M55 13h12M13 14h4M64 14h3M43 15h16M13 16h2M16 16h4M21 16h9M42 16h15M59 16h8M13 17h3M35 17h5M65 17h2M13 18h6M13 19h2M16 19h14M61 19h6M40 21h3M13 22h21M64 22h3M13 23h8M50 23h17M13 24h3M32 24h3M13 25h1M16 25h19M53 25h1M58 25h9M49 26h11M64 26h1M25 27h1M60 27h7M14 28h11M36 28h1M62 28h4" />
<path stroke="#622a08" d="M35 12h13M35 13h20M59 15h8M15 16h1M57 16h2M16 17h13M34 17h1M40 17h10M51 17h14M19 18h10M31 19h3M35 19h8M34 20h1M31 23h4M21 24h2M27 24h4M35 25h3M37 26h5M26 27h5" />
<path stroke="#652703" d="M48 12h18M13 13h4M21 13h10M13 20h20M65 21h2M35 22h29M13 27h12M25 28h11M37 28h9M53 28h9" />
<path stroke="#896e61" d="M72 12h1" />
<path stroke="#847b7c" d="M73 12h1" />
<path stroke="#797676" d="M74 12h1" />
<path stroke="#615d5d" d="M75 12h1" />
<path stroke="#5e5a59" d="M76 12h1" />
<path stroke="#81807d" d="M3 13h1" />
<path stroke="#a9a1a3" d="M4 13h1" />
<path stroke="#948e8f" d="M5 13h1" />
<path stroke="#68635f" d="M6 13h1" />
<path stroke="#5e2511" d="M17 13h4M17 14h10M27 15h2M20 16h1M63 18h1M15 19h1M35 21h5M35 24h9M43 25h9M42 27h10" />
<path stroke="#6d320c" d="M31 13h4M29 15h14M30 16h12M29 17h5M50 17h1M64 18h3M30 19h1M34 19h1M43 19h18M33 20h1M43 21h22M34 22h1M21 23h10M35 23h15M16 24h5M23 24h4M31 24h1M14 25h2M38 25h5M52 25h1M54 25h4M42 26h7M31 27h11M46 28h7" />
<path stroke="#8e7769" d="M72 13h1" />
<path stroke="#90888a" d="M73 13h1" />
<path stroke="#605b5b" d="M76 13h1" />
<path stroke="#817f7c" d="M3 14h1" />
<path stroke="#65605d" d="M6 14h1M6 15h1M6 23h1" />
<path stroke="#522312" d="M27 14h7M53 14h3M29 18h8M50 18h6M58 18h5M44 24h12M33 26h4M52 27h6" />
<path stroke="#4d2010" d="M34 14h1M16 15h3M47 20h8M60 26h4M65 26h3M58 27h2" />
<path stroke="#4b2011" d="M47 14h6" />
<path stroke="#5c2613" d="M56 14h8M19 15h8M56 18h2" />
<path stroke="#a38c7e" d="M72 14h1" />
<path stroke="#aaa3a3" d="M73 14h1M56 33h1" />
<path stroke="#92918f" d="M74 14h1" />
<path stroke="#5f5a5a" d="M76 14h1M76 15h1M76 22h1M76 23h1M76 28h1M76 30h1" />
<path stroke="#827f7c" d="M3 15h1" />
<path stroke="#a7a1a2" d="M4 15h1" />
<path stroke="#928d8d" d="M5 15h1M5 25h1" />
<path stroke="#6a5e58" d="M7 15h1" />
<path stroke="#a28a7c" d="M72 15h1" />
<path stroke="#aba5a5" d="M73 15h1" />
<path stroke="#8e8d8a" d="M74 15h1" />
<path stroke="#807e7c" d="M3 16h1" />
<path stroke="#a6a0a2" d="M4 16h1" />
<path stroke="#918c8c" d="M5 16h1M5 23h1" />
<path stroke="#635f5b" d="M6 16h1M6 27h1" />
<path stroke="#695e57" d="M7 16h1" />
<path stroke="#917a6b" d="M72 16h1" />
<path stroke="#8e8887" d="M73 16h1" />
<path stroke="#7b7c78" d="M74 16h1" />
<path stroke="#615c5c" d="M76 16h1M76 25h1M76 27h1M76 29h1" />
<path stroke="#817e7c" d="M3 17h1M3 23h1M3 24h1" />
<path stroke="#a6a1a2" d="M4 17h1" />
<path stroke="#928c8d" d="M5 17h1" />
<path stroke="#63605c" d="M6 17h1" />
<path stroke="#887163" d="M72 17h1" />
<path stroke="#827c7c" d="M73 17h1" />
<path stroke="#767672" d="M74 17h1" />
<path stroke="#605a5a" d="M76 17h1" />
<path stroke="#837f7d" d="M3 18h1" />
<path stroke="#a8a1a3" d="M4 18h1" />
<path stroke="#938d8d" d="M5 18h1" />
<path stroke="#65615e" d="M6 18h1" />
<path stroke="#6c5e59" d="M7 18h1M7 22h1" />
<path stroke="#927b6b" d="M72 18h1" />
<path stroke="#908a8a" d="M73 18h1" />
<path stroke="#80807d" d="M74 18h1" />
<path stroke="#63605e" d="M75 18h1" />
<path stroke="#5e5959" d="M76 18h1M76 21h1" />
<path stroke="#696562" d="M3 19h1" />
<path stroke="#858081" d="M4 19h1M4 21h1M5 32h1" />
<path stroke="#7c7778" d="M5 19h1M5 28h1" />
<path stroke="#67615e" d="M6 19h1" />
<path stroke="#6d605a" d="M7 19h1" />
<path stroke="#451c0d" d="M9 19h1M9 20h1M9 21h1M9 22h1M9 23h1M9 24h1M9 25h1M9 27h1M9 28h1M9 29h1M9 30h1" />
<path stroke="#a38a7d" d="M72 19h1" />
<path stroke="#aca3a5" d="M73 19h1" />
<path stroke="#928e8e" d="M74 19h1" />
<path stroke="#686361" d="M3 20h1" />
<path stroke="#837d7e" d="M4 20h1" />
<path stroke="#7b7676" d="M5 20h1" />
<path stroke="#66605e" d="M6 20h1" />
<path stroke="#6c5f5a" d="M7 20h1M7 21h1" />
<path stroke="#4b1f10" d="M35 20h12" />
<path stroke="#aba2a4" d="M73 20h1M73 22h1" />
<path stroke="#918e8d" d="M74 20h1" />
<path stroke="#645f5e" d="M75 20h1" />
<path stroke="#5f5a59" d="M76 20h1" />
<path stroke="#696463" d="M3 21h1" />
<path stroke="#7e7979" d="M5 21h1" />
<path stroke="#66615e" d="M6 21h1" />
<path stroke="#a28b7e" d="M72 21h1" />
<path stroke="#aaa2a4" d="M73 21h1" />
<path stroke="#908d8c" d="M74 21h1M5 24h1" />
<path stroke="#635d5d" d="M75 21h1" />
<path stroke="#7e7a79" d="M3 22h1" />
<path stroke="#a19b9c" d="M4 22h1" />
<path stroke="#8c8888" d="M5 22h1" />
<path stroke="#a58d80" d="M72 22h1" />
<path stroke="#918d8c" d="M74 22h1" />
<path stroke="#6c5e58" d="M7 23h1" />
<path stroke="#a28b7c" d="M72 23h1" />
<path stroke="#aaa1a2" d="M73 23h1" />
<path stroke="#938f8d" d="M74 23h1" />
<path stroke="#64605d" d="M6 24h1" />
<path stroke="#6b5f59" d="M7 24h1M7 25h1" />
<path stroke="#968071" d="M72 24h1" />
<path stroke="#9e9695" d="M73 24h1" />
<path stroke="#888482" d="M74 24h1" />
<path stroke="#635e5d" d="M75 24h1" />
<path stroke="#807d7b" d="M3 25h1M3 26h1" />
<path stroke="#64605c" d="M6 25h1" />
<path stroke="#8a7364" d="M72 25h1M72 27h1" />
<path stroke="#888080" d="M73 25h1" />
<path stroke="#797773" d="M74 25h1" />
<path stroke="#a5a0a1" d="M4 26h1" />
<path stroke="#908b8b" d="M5 26h1" />
<path stroke="#645f5b" d="M6 26h1" />
<path stroke="#6b5f5a" d="M7 26h1" />
<path stroke="#8a7263" d="M72 26h1" />
<path stroke="#867e7e" d="M73 26h1M68 33h1" />
<path stroke="#777573" d="M74 26h1" />
<path stroke="#5f5b5a" d="M76 26h1" />
<path stroke="#696764" d="M3 27h1" />
<path stroke="#8b8687" d="M4 27h1" />
<path stroke="#807b7b" d="M5 27h1" />
<path stroke="#6b605a" d="M7 27h1" />
<path stroke="#877f7f" d="M73 27h1" />
<path stroke="#787675" d="M74 27h1" />
<path stroke="#837e80" d="M4 28h1M35 33h1M63 33h1" />
<path stroke="#655f5e" d="M6 28h1" />
<path stroke="#6a5f5a" d="M7 28h1" />
<path stroke="#8a7060" d="M72 28h1" />
<path stroke="#857c7c" d="M73 28h1" />
<path stroke="#777676" d="M74 28h1" />
<path stroke="#676564" d="M3 29h1" />
<path stroke="#858082" d="M4 29h1M21 34h1" />
<path stroke="#7e797b" d="M5 29h1" />
<path stroke="#696262" d="M6 29h1" />
<path stroke="#6c625d" d="M7 29h1" />
<path stroke="#8e7362" d="M72 29h1" />
<path stroke="#887e7e" d="M73 29h1" />
<path stroke="#79787a" d="M74 29h1" />
<path stroke="#666463" d="M3 30h1M3 32h1" />
<path stroke="#827e80" d="M4 30h1M4 31h1" />
<path stroke="#7e777a" d="M5 30h1" />
<path stroke="#67605f" d="M6 30h1" />
<path stroke="#69605a" d="M7 30h1" />
<path stroke="#897161" d="M72 30h1" />
<path stroke="#857d7c" d="M73 30h1" />
<path stroke="#777679" d="M74 30h1" />
<path stroke="#656362" d="M3 31h1" />
<path stroke="#7e787b" d="M5 31h1" />
<path stroke="#686060" d="M6 31h1" />
<path stroke="#695f5a" d="M7 31h1" />
<path stroke="#867368" d="M72 31h1" />
<path stroke="#867f7d" d="M73 31h1" />
<path stroke="#787679" d="M74 31h1" />
<path stroke="#5d5859" d="M76 31h1" />
<path stroke="#827f81" d="M4 32h1" />
<path stroke="#817a79" d="M6 32h1" />
<path stroke="#827a76" d="M7 32h1" />
<path stroke="#8a7a72" d="M8 32h1" />
<path stroke="#8d766e" d="M9 32h1" />
<path stroke="#8e7a70" d="M10 32h1" />
<path stroke="#8d776e" d="M11 32h1" />
<path stroke="#8c776e" d="M12 32h2" />
<path stroke="#8d786e" d="M14 32h1" />
<path stroke="#9c867d" d="M15 32h1" />
<path stroke="#ac988e" d="M16 32h1" />
<path stroke="#a9948a" d="M17 32h1" />
<path stroke="#917b71" d="M18 32h1" />
<path stroke="#8e796f" d="M19 32h1" />
<path stroke="#9e8980" d="M20 32h1" />
<path stroke="#ad998e" d="M21 32h1" />
<path stroke="#ac978d" d="M22 32h1" />
<path stroke="#ae998e" d="M23 32h1" />
<path stroke="#ad988e" d="M24 32h1" />
<path stroke="#ae998d" d="M25 32h1M28 32h3" />
<path stroke="#ac978b" d="M26 32h1" />
<path stroke="#ac988c" d="M27 32h1" />
<path stroke="#ad998b" d="M31 32h1" />
<path stroke="#ae9a8b" d="M32 32h1" />
<path stroke="#ad988a" d="M33 32h1M50 32h1" />
<path stroke="#ac988b" d="M34 32h1" />
<path stroke="#8d796e" d="M35 32h1" />
<path stroke="#8c786e" d="M36 32h1" />
<path stroke="#8d7a6f" d="M37 32h1M62 32h1" />
<path stroke="#8b786e" d="M38 32h1" />
<path stroke="#8f7c72" d="M39 32h1" />
<path stroke="#a8958a" d="M40 32h1" />
<path stroke="#ae9a90" d="M41 32h1" />
<path stroke="#9e897f" d="M42 32h1" />
<path stroke="#8c776d" d="M43 32h1" />
<path stroke="#8f7a6f" d="M44 32h1" />
<path stroke="#a79287" d="M45 32h1" />
<path stroke="#aa968a" d="M46 32h1" />
<path stroke="#ad988b" d="M47 32h1M49 32h1" />
<path stroke="#ac968a" d="M48 32h1" />
<path stroke="#ac9688" d="M51 32h1" />
<path stroke="#ae998a" d="M52 32h4" />
<path stroke="#ae9a8d" d="M56 32h1" />
<path stroke="#9c887b" d="M57 32h1" />
<path stroke="#8b766a" d="M58 32h1" />
<path stroke="#8c796c" d="M59 32h1" />
<path stroke="#8d796d" d="M60 32h1" />
<path stroke="#8c796e" d="M61 32h1" />
<path stroke="#8c786d" d="M63 32h1" />
<path stroke="#8d776c" d="M64 32h2" />
<path stroke="#8e776c" d="M66 32h2" />
<path stroke="#8e786c" d="M68 32h1" />
<path stroke="#8c786c" d="M69 32h1" />
<path stroke="#8c7a6e" d="M70 32h1" />
<path stroke="#8b7a72" d="M71 32h1" />
<path stroke="#8b807c" d="M72 32h1" />
<path stroke="#84807e" d="M73 32h1" />
<path stroke="#7a7677" d="M74 32h1" />
<path stroke="#656462" d="M3 33h1" />
<path stroke="#847e7e" d="M6 33h1M16 34h1" />
<path stroke="#86817d" d="M7 33h1" />
<path stroke="#87807f" d="M8 33h1" />
<path stroke="#857e81" d="M9 33h1" />
<path stroke="#868183" d="M10 33h1" />
<path stroke="#867f81" d="M11 33h1" />
<path stroke="#857f80" d="M12 33h2M60 33h1" />
<path stroke="#878082" d="M14 33h1" />
<path stroke="#948f91" d="M15 33h1" />
<path stroke="#a9a3a6" d="M16 33h1M23 33h2" />
<path stroke="#a59ea1" d="M17 33h1" />
<path stroke="#8a8486" d="M18 33h1" />
<path stroke="#857e82" d="M19 33h1" />
<path stroke="#979194" d="M20 33h1" />
<path stroke="#aaa5a8" d="M21 33h1" />
<path stroke="#a8a3a6" d="M22 33h1" />
<path stroke="#aaa3a5" d="M25 33h1M28 33h1" />
<path stroke="#a9a2a3" d="M27 33h1" />
<path stroke="#aaa3a4" d="M29 33h1" />
<path stroke="#aaa4a4" d="M30 33h1M32 33h1M46 33h2" />
<path stroke="#aaa2a3" d="M31 33h1" />
<path stroke="#a9a2a2" d="M33 33h1" />
<path stroke="#a8a2a2" d="M34 33h1" />
<path stroke="#827d7f" d="M36 33h1M38 33h1" />
<path stroke="#837e81" d="M37 33h1M61 33h1" />
<path stroke="#878283" d="M39 33h1M56 34h1" />
<path stroke="#a5a0a2" d="M40 33h1" />
<path stroke="#aba6a8" d="M41 33h1" />
<path stroke="#9e989a" d="M42 33h1" />
<path stroke="#837d7f" d="M43 33h1" />
<path stroke="#868082" d="M44 33h1M33 34h1" />
<path stroke="#a59fa0" d="M45 33h1" />
<path stroke="#aaa4a3" d="M49 33h1" />
<path stroke="#aaa2a2" d="M50 33h1" />
<path stroke="#a8a2a0" d="M51 33h1" />
<path stroke="#aba3a2" d="M52 33h1" />
<path stroke="#ada5a3" d="M53 33h2" />
<path stroke="#aba4a3" d="M55 33h1" />
<path stroke="#97908f" d="M57 33h1" />
<path stroke="#837d7d" d="M58 33h1M45 34h1" />
<path stroke="#857e7f" d="M59 33h1" />
<path stroke="#857f82" d="M62 33h1" />
<path stroke="#867e80" d="M64 33h3" />
<path stroke="#867e7f" d="M67 33h1" />
<path stroke="#867f7e" d="M69 33h1" />
<path stroke="#87817f" d="M70 33h1" />
<path stroke="#857c7d" d="M71 33h1" />
<path stroke="#878282" d="M72 33h1M30 34h1M41 34h1M52 34h1" />
<path stroke="#82807f" d="M73 33h1" />
<path stroke="#625d5e" d="M76 33h1" />
<path stroke="#5a5657" d="M5 34h1" />
<path stroke="#767171" d="M6 34h1M8 34h1M62 34h1" />
<path stroke="#767270" d="M7 34h1" />
<path stroke="#747072" d="M9 34h1" />
<path stroke="#767274" d="M10 34h1" />
<path stroke="#746f71" d="M11 34h1" />
<path stroke="#746e70" d="M12 34h2" />
<path stroke="#746e6f" d="M14 34h1M67 34h1" />
<path stroke="#7d7777" d="M15 34h1" />
<path stroke="#867f80" d="M17 34h1" />
<path stroke="#777273" d="M18 34h1" />
<path stroke="#736d6f" d="M19 34h1" />
<path stroke="#7f797c" d="M20 34h1" />
<path stroke="#858182" d="M22 34h1M24 34h1" />
<path stroke="#858183" d="M23 34h1" />
<path stroke="#868182" d="M25 34h1" />
<path stroke="#868080" d="M26 34h1M48 34h1" />
<path stroke="#868081" d="M27 34h1" />
<path stroke="#878182" d="M31 34h1" />
<path stroke="#888284" d="M32 34h1" />
<path stroke="#858080" d="M34 34h1M40 34h1" />
<path stroke="#756f6f" d="M35 34h1M38 34h1" />
<path stroke="#767070" d="M36 34h1M39 34h1M69 34h1" />
<path stroke="#7f7a7a" d="M42 34h1" />
<path stroke="#746e6e" d="M43 34h1M59 34h1M66 34h1" />
<path stroke="#757070" d="M44 34h1M60 34h2" />
<path stroke="#868282" d="M46 34h1" />
<path stroke="#888282" d="M47 34h1M49 34h1" />
<path stroke="#857f7f" d="M51 34h1" />
<path stroke="#7d7878" d="M57 34h1" />
<path stroke="#736d6d" d="M58 34h1" />
<path stroke="#736e6e" d="M63 34h3" />
<path stroke="#756f6e" d="M70 34h1" />
<path stroke="#746f6e" d="M71 34h1" />
<path stroke="#777172" d="M72 34h1" />
<path stroke="#736e6f" d="M73 34h1" />
<path stroke="#666363" d="M8 35h1" />
<path stroke="#646162" d="M9 35h1" />
<path stroke="#676264" d="M20 35h1" />
<path stroke="#625e60" d="M21 35h1" />
<path stroke="#636161" d="M22 35h1" />
<path stroke="#636162" d="M23 35h1" />
<path stroke="#636061" d="M24 35h1" />
<path stroke="#656161" d="M30 35h2M37 35h1M61 35h2" />
<path stroke="#666163" d="M32 35h1" />
<path stroke="#645f61" d="M33 35h1" />
<path stroke="#635e5e" d="M42 35h1" />
<path stroke="#625d5d" d="M43 35h1" />
<path stroke="#625e5d" d="M44 35h1M58 35h1" />
<path stroke="#656260" d="M69 35h1" />
<path stroke="#64605e" d="M70 35h1" />
<path stroke="#666162" d="M72 35h1" />
<path stroke="#4d4b4b" d="M74 35h1" />
<path stroke="#565353" d="M6 36h1" />
<path stroke="#5b5857" d="M7 36h1M18 36h1M42 36h1M70 36h1" />
<path stroke="#5b5a59" d="M8 36h1" />
<path stroke="#585858" d="M9 36h1M22 36h1M24 36h1" />
<path stroke="#5b5a5a" d="M10 36h1" />
<path stroke="#585657" d="M11 36h1" />
<path stroke="#585556" d="M12 36h1" />
<path stroke="#575556" d="M13 36h1M73 36h1" />
<path stroke="#575555" d="M14 36h1" />
<path stroke="#585755" d="M16 36h1M41 36h1M68 36h1" />
<path stroke="#5b5756" d="M17 36h1" />
<path stroke="#595757" d="M19 36h1M64 36h3" />
<path stroke="#5c595a" d="M20 36h1M32 36h1" />
<path stroke="#575757" d="M21 36h1" />
<path stroke="#595958" d="M23 36h1" />
<path stroke="#5a5857" d="M25 36h1M27 36h2M50 36h1M53 36h2M56 36h1M59 36h1M67 36h1" />
<path stroke="#595756" d="M26 36h1M34 36h3M38 36h1M44 36h1M55 36h1M63 36h1" />
<path stroke="#5a5856" d="M29 36h1M40 36h1M71 36h1" />
<path stroke="#5b5958" d="M30 36h1M60 36h2" />
<path stroke="#5a5858" d="M31 36h1" />
<path stroke="#5a5758" d="M33 36h1" />
<path stroke="#5c5a59" d="M37 36h1" />
<path stroke="#5c5958" d="M39 36h1M49 36h1M57 36h1" />
<path stroke="#585554" d="M45 36h1" />
<path stroke="#5d5a59" d="M47 36h1M62 36h1" />
<path stroke="#585756" d="M48 36h1" />
<path stroke="#585654" d="M51 36h1" />
<path stroke="#5b5957" d="M52 36h1" />
<path stroke="#5c5a58" d="M69 36h1" />
<path stroke="#5c5959" d="M72 36h1" />
<path stroke="#4f4d4e" d="M74 36h1" />
</svg>