<svg xmlns="http://www.w3.org/2000/svg" viewBox="0 -0.5 120 40" shape-rendering="crispEdges">
<metadata>Made with Pixels to Svg https://codepen.io/shshaw/pen/XbxvNj</metadata>
<path stroke="#2f0404" d="M4 3h113M3 4h1M117 4h1M3 5h1M5 5h1M115 5h1M117 5h1M3 6h1M117 6h1M3 7h1M117 7h1M3 8h1M117 8h1M3 9h1M117 9h1M3 10h1M117 10h1M3 11h1M117 11h1M3 12h1M117 12h1M3 13h1M117 13h1M3 14h1M117 14h1M3 15h1M117 15h1M3 16h1M117 16h1M3 17h1M117 17h1M3 18h1M117 18h1M3 19h1M117 19h1M3 20h1M117 20h1M3 21h1M117 21h1M3 22h1M117 22h1M3 23h1M117 23h1M3 24h1M117 24h1M3 25h1M117 25h1M3 26h1M117 26h1M3 27h1M117 27h1M3 28h1M117 28h1M3 29h1M117 29h1M3 30h1M117 30h1M3 31h1M117 31h1M3 32h1M117 32h1M3 33h1M117 33h1M3 34h1M117 34h1M3 35h1M5 35h1M115 35h1M117 35h1M3 36h1M117 36h1M4 37h113" />
<path stroke="#662a0d" d="M4 4h51M65 4h19M96 4h4M104 4h13M4 5h1M116 5h1M4 11h1M4 12h1M116 12h1M4 13h1M116 13h1M116 14h1M116 15h1M4 16h1M116 16h1M116 19h1M116 20h1M116 21h1M4 22h1M116 22h1M4 23h1M116 23h1M4 24h1M116 24h1M116 25h1M4 28h1M4 29h1M4 30h1M4 31h1M4 32h1M116 32h1M4 33h1M116 33h1M4 34h1M116 34h1M4 35h1M116 35h1M4 36h6M21 36h10M45 36h5M57 36h1M70 36h7M82 36h17M104 36h5M115 36h2" />
<path stroke="#54210e" d="M55 4h10M84 4h12M100 4h4M4 6h1M6 6h1M27 6h1M36 6h1M61 6h1M82 6h1M116 6h1M4 7h1M116 7h1M4 8h1M116 8h1M4 9h1M116 9h1M4 10h1M65 10h15M96 10h8M116 10h1M116 11h1M4 14h1M42 14h10M4 15h1M116 17h1M116 18h1M6 32h1M27 32h1M36 32h1M10 36h7M31 36h8" />
<path stroke="#3c0900" d="M6 5h109M5 6h1M115 6h1M5 7h1M115 7h1M5 8h1M115 8h1M5 9h1M115 9h1M5 10h1M115 10h1M5 11h1M115 11h1M5 12h1M115 12h1M5 13h1M115 13h1M5 14h1M115 14h1M5 15h1M115 15h1M5 16h1M115 16h1M5 17h1M115 17h1M5 18h1M115 18h1M5 19h1M115 19h1M5 20h1M115 20h1M5 21h1M115 21h1M5 22h1M115 22h1M5 23h1M115 23h1M5 24h1M115 24h1M5 25h1M115 25h1M5 26h1M115 26h1M5 27h1M115 27h1M5 28h1M115 28h1M5 29h1M115 29h1M5 30h1M115 30h1M5 31h1M115 31h1M5 32h1M115 32h1M5 33h1M115 33h1M5 34h1M115 34h1M6 35h109" />
<path stroke="#4d1c07" d="M7 6h1M26 6h1M37 6h1M62 6h1M81 6h1M7 32h1M26 32h1M37 32h1" />
<path stroke="#471502" d="M8 6h1M25 6h1M38 6h1M63 6h1M80 6h1M8 32h1M25 32h1M38 32h1" />
<path stroke="#400f00" d="M9 6h2M23 6h2M39 6h2M64 6h2M78 6h2M9 32h2M23 32h2M39 32h2" />
<path stroke="#410e00" d="M11 6h1M22 6h1M41 6h1M66 6h1M77 6h1M11 32h1M22 32h1M41 32h1" />
<path stroke="#431006" d="M12 6h1M21 6h1M42 6h1M67 6h1M76 6h1M12 32h1M21 32h1M42 32h1" />
<path stroke="#47140a" d="M13 6h1M20 6h1M43 6h1M68 6h1M75 6h1M13 32h1M20 32h1M43 32h1" />
<path stroke="#4c170d" d="M14 6h1M19 6h1M44 6h1M69 6h1M74 6h1M14 32h1M19 32h1M44 32h1" />
<path stroke="#521e14" d="M15 6h1M18 6h1M45 6h1M70 6h1M73 6h1M15 32h1M18 32h1M45 32h1" />
<path stroke="#572318" d="M16 6h2M46 6h1M71 6h2M16 32h2M46 32h1" />
<path stroke="#531f0c" d="M28 6h1M35 6h1M60 6h1M83 6h1M28 32h1M35 32h1" />
<path stroke="#541e0c" d="M29 6h1M34 6h1M59 6h1M84 6h1M29 32h1M34 32h1" />
<path stroke="#541c0c" d="M30 6h1M33 6h1M58 6h1M85 6h1M30 32h1M33 32h1" />
<path stroke="#521b0a" d="M31 6h2M86 6h2M31 32h2" />
<path stroke="#5c2818" d="M47 6h1M47 32h1" />
<path stroke="#632f18" d="M48 6h1M48 32h1" />
<path stroke="#65311a" d="M49 6h1M49 32h1" />
<path stroke="#622a05" d="M50 6h8M55 7h2M50 8h9M28 9h1M35 9h1M42 9h17M60 9h1M52 21h5M57 22h2M52 28h6M50 29h8M50 32h6M55 33h2M50 34h9" />
<path stroke="#622613" d="M88 6h1" />
<path stroke="#5e210f" d="M89 6h1" />
<path stroke="#5b1c0c" d="M90 6h2M91 32h1" />
<path stroke="#642514" d="M92 6h1M92 32h1" />
<path stroke="#682e1a" d="M93 6h1M93 32h1" />
<path stroke="#5b2a13" d="M94 6h1M94 32h1" />
<path stroke="#512006" d="M95 6h1M95 32h1" />
<path stroke="#55230b" d="M96 6h1M96 32h1" />
<path stroke="#5a2810" d="M97 6h1M97 32h1" />
<path stroke="#5b2811" d="M98 6h1M98 32h1" />
<path stroke="#5b2712" d="M99 6h1M99 32h1" />
<path stroke="#5a2517" d="M100 6h1M100 32h1" />
<path stroke="#5a2516" d="M101 6h1M101 32h1" />
<path stroke="#5a2315" d="M102 6h1M102 32h1" />
<path stroke="#582113" d="M103 6h2M103 32h2" />
<path stroke="#592213" d="M105 6h1M105 32h1" />
<path stroke="#592113" d="M106 6h1M106 32h1" />
<path stroke="#572010" d="M107 6h1M107 32h1" />
<path stroke="#531b0c" d="M108 6h1M108 32h1" />
<path stroke="#481000" d="M109 6h1M53 26h1M109 32h1" />
<path stroke="#460e00" d="M110 6h1M110 32h1" />
<path stroke="#450d00" d="M111 6h1M111 32h1" />
<path stroke="#511a0a" d="M112 6h1M112 32h1" />
<path stroke="#582111" d="M113 6h2M113 32h2" />
<path stroke="#6f3018" d="M6 7h1M27 7h1M36 7h1M61 7h1M82 7h1M6 33h1M27 33h1M36 33h1M61 33h1M82 33h1" />
<path stroke="#6a2c12" d="M7 7h1M26 7h1M37 7h1M62 7h1M81 7h1M7 33h1M26 33h1M37 33h1M62 33h1M81 33h1" />
<path stroke="#682910" d="M8 7h1M25 7h1M38 7h1M63 7h1M80 7h1M8 33h1M25 33h1M38 33h1M63 33h1M80 33h1" />
<path stroke="#68290f" d="M9 7h1M24 7h1M39 7h1M64 7h1M79 7h1M9 33h1M24 33h1M39 33h1M64 33h1M79 33h1" />
<path stroke="#68290e" d="M10 7h1M23 7h1M40 7h1M65 7h1M78 7h1M10 33h1M23 33h1M40 33h1M65 33h1M78 33h1" />
<path stroke="#69290f" d="M11 7h1M22 7h1M41 7h1M66 7h1M77 7h1M11 33h1M22 33h1M41 33h1M66 33h1M77 33h1" />
<path stroke="#6a2b11" d="M12 7h1M21 7h1M42 7h1M67 7h1M76 7h1M12 33h1M21 33h1M42 33h1M67 33h1M76 33h1" />
<path stroke="#6d2e14" d="M13 7h1M20 7h1M43 7h1M68 7h1M75 7h1M13 33h1M20 33h1M43 33h1M68 33h1M75 33h1" />
<path stroke="#6f3014" d="M14 7h1M19 7h1M44 7h1M69 7h1M74 7h1M14 33h1M19 33h1M44 33h1M69 33h1M74 33h1" />
<path stroke="#6f3015" d="M15 7h1M18 7h1M45 7h1M70 7h1M73 7h1M15 33h1M18 33h1M45 33h1M70 33h1M73 33h1" />
<path stroke="#6d2d12" d="M16 7h2M46 7h1M71 7h2M16 33h2M46 33h1M71 33h2" />
<path stroke="#6d2f17" d="M28 7h2M34 7h2M59 7h2M83 7h2M28 33h2M34 33h2M59 33h2M83 33h2" />
<path stroke="#6d2d16" d="M30 7h1M33 7h1M58 7h1M85 7h1M30 33h1M33 33h1M58 33h1M85 33h1" />
<path stroke="#6b2d14" d="M31 7h2M57 7h1M86 7h2M31 33h2M57 33h1M86 33h2" />
<path stroke="#692c0d" d="M47 7h1M47 33h1" />
<path stroke="#642805" d="M48 7h1M48 33h1" />
<path stroke="#642706" d="M49 7h2M49 33h2" />
<path stroke="#652807" d="M51 7h1M51 33h1" />
<path stroke="#662607" d="M52 7h1M52 33h1" />
<path stroke="#692606" d="M53 7h1M53 33h1" />
<path stroke="#6c2606" d="M54 7h1M54 33h1" />
<path stroke="#6a320a" d="M88 7h1M88 33h1" />
<path stroke="#6b310a" d="M89 7h2M106 7h1M89 33h2M106 33h1" />
<path stroke="#6c300b" d="M91 7h1M98 7h1M91 33h1M98 33h1" />
<path stroke="#6b2e0a" d="M92 7h1M92 33h1" />
<path stroke="#692e09" d="M93 7h1M93 33h1" />
<path stroke="#682d09" d="M94 7h1M94 33h1" />
<path stroke="#682e09" d="M95 7h1M95 33h1" />
<path stroke="#6b300a" d="M96 7h1M96 33h1" />
<path stroke="#6b2f0c" d="M97 7h1M97 33h1" />
<path stroke="#6c310c" d="M99 7h1M102 7h1M99 33h1M102 33h1" />
<path stroke="#6b310c" d="M100 7h2M100 33h2" />
<path stroke="#6d320c" d="M103 7h1M103 33h1" />
<path stroke="#6d330c" d="M104 7h1M104 33h1" />
<path stroke="#6d320b" d="M105 7h1M105 33h1" />
<path stroke="#6a3008" d="M107 7h1M107 33h1" />
<path stroke="#6a2f08" d="M108 7h2M108 33h2" />
<path stroke="#662c05" d="M110 7h1M110 33h1" />
<path stroke="#642a08" d="M111 7h1M111 33h1" />
<path stroke="#692b13" d="M112 7h1M112 33h1" />
<path stroke="#6f3219" d="M113 7h2M113 33h2" />
<path stroke="#5e2201" d="M6 8h1M27 8h1M36 8h1M61 8h1M82 8h1M6 34h1M27 34h1M36 34h1M61 34h1M82 34h1" />
<path stroke="#5e2300" d="M7 8h1M26 8h1M37 8h1M62 8h1M81 8h1M109 12h1M9 16h1M24 16h1M39 16h1M109 22h1M107 23h1M6 27h1M8 27h1M25 27h1M27 27h2M35 27h2M38 27h1M80 27h1M6 28h2M15 28h4M26 28h3M35 28h3M45 28h2M60 28h3M70 28h4M7 34h1M26 34h1M37 34h1M62 34h1M81 34h1" />
<path stroke="#5f2300" d="M8 8h2M24 8h2M28 8h1M35 8h1M38 8h2M60 8h1M63 8h2M79 8h2M6 12h1M27 12h1M36 12h1M61 12h1M82 12h1M110 12h1M113 12h2M12 22h3M19 22h3M28 22h1M35 22h1M42 22h3M60 22h1M67 22h3M74 22h3M83 22h1M106 23h1M7 27h1M26 27h1M37 27h1M29 28h2M33 28h2M58 28h2M8 34h2M24 34h2M28 34h1M35 34h1M38 34h2M60 34h1M63 34h2M79 34h2" />
<path stroke="#602300" d="M10 8h1M23 8h1M40 8h1M65 8h1M78 8h1M31 12h2M56 12h2M86 12h2M10 34h1M23 34h1M40 34h1M65 34h1M78 34h1" />
<path stroke="#612401" d="M11 8h1M22 8h1M41 8h1M66 8h1M77 8h1M11 34h1M22 34h1M41 34h1M66 34h1M77 34h1" />
<path stroke="#622301" d="M12 8h1M21 8h1M42 8h1M67 8h1M76 8h1M30 12h1M33 12h1M55 12h1M58 12h1M85 12h1M12 34h1M21 34h1M42 34h1M67 34h1M76 34h1" />
<path stroke="#622501" d="M13 8h1M20 8h1M43 8h1M68 8h1M75 8h1M99 8h2M29 12h1M34 12h1M59 12h1M84 12h1M35 16h1M13 34h1M20 34h1M43 34h1M68 34h1M75 34h1M99 34h2" />
<path stroke="#622200" d="M14 8h2M18 8h2M44 8h2M69 8h2M73 8h2M14 34h2M18 34h2M44 34h2M69 34h2M73 34h2" />
<path stroke="#632301" d="M16 8h2M46 8h1M71 8h2M16 34h2M46 34h1M71 34h2" />
<path stroke="#5f2302" d="M29 8h1M34 8h1M59 8h1M95 22h1M31 28h2M29 34h1M34 34h1M59 34h1" />
<path stroke="#5f2202" d="M30 8h1M33 8h1M93 12h1M96 12h1M88 23h1M99 23h3M30 34h1M33 34h1" />
<path stroke="#622505" d="M31 8h2M31 34h2" />
<path stroke="#622504" d="M47 8h1M47 34h1" />
<path stroke="#612507" d="M48 8h1M15 20h1M18 20h1M45 20h1M70 20h1M73 20h1M48 34h1" />
<path stroke="#622708" d="M49 8h1M98 9h1M29 17h1M49 34h1" />
<path stroke="#622a03" d="M83 8h10M89 26h5M81 27h9M77 28h12M90 28h2M87 29h4M63 31h12M83 34h10" />
<path stroke="#5f2400" d="M93 8h1M111 8h1M8 16h1M25 16h1M38 16h1M93 34h1M111 34h1" />
<path stroke="#612601" d="M94 8h1M94 34h1" />
<path stroke="#622701" d="M95 8h1M104 8h1M95 34h1M104 34h1" />
<path stroke="#622601" d="M96 8h1M101 8h3M96 34h1M101 34h3" />
<path stroke="#612200" d="M97 8h1M97 34h1" />
<path stroke="#612400" d="M98 8h1M98 34h1" />
<path stroke="#612600" d="M105 8h2M105 34h2" />
<path stroke="#622800" d="M107 8h1M109 8h1M107 34h1M109 34h1" />
<path stroke="#632900" d="M108 8h1M108 34h1" />
<path stroke="#602600" d="M110 8h1M10 16h1M14 16h1M19 16h1M23 16h1M40 16h1M44 16h1M110 34h1" />
<path stroke="#5f2303" d="M112 8h1M92 12h1M92 29h1M112 34h1" />
<path stroke="#622605" d="M113 8h2M113 34h2" />
<path stroke="#5f2703" d="M6 9h1M8 9h2M24 9h2M27 9h1M36 9h1M38 9h2M61 9h1M63 9h2M15 12h1M18 12h1M45 12h1M70 12h1M73 12h1M104 25h1" />
<path stroke="#5f2702" d="M7 9h1M26 9h1M37 9h1M62 9h1" />
<path stroke="#602804" d="M10 9h1M23 9h1M40 9h1" />
<path stroke="#612705" d="M11 9h1M22 9h1M41 9h1" />
<path stroke="#622704" d="M12 9h1M21 9h1M112 28h1" />
<path stroke="#632905" d="M13 9h1M20 9h1" />
<path stroke="#632807" d="M14 9h1M19 9h1" />
<path stroke="#622606" d="M15 9h1M18 9h1" />
<path stroke="#5b1e00" d="M16 9h2" />
<path stroke="#642a09" d="M29 9h2M33 9h2M59 9h1" />
<path stroke="#652c0b" d="M31 9h2M86 9h2M113 9h2" />
<path stroke="#5d2302" d="M65 9h21M80 10h16M63 11h4M70 11h13M89 12h3M69 13h10M80 13h9M52 14h32M36 15h24M67 15h7M27 16h7M45 16h25M48 21h1M16 22h2M46 22h3M71 22h2M6 23h3M25 23h3M36 23h3M61 23h3M80 23h3M40 26h12M78 26h8M52 27h26M102 29h1" />
<path stroke="#5e2707" d="M88 9h1" />
<path stroke="#5f2707" d="M89 9h1" />
<path stroke="#5f2709" d="M90 9h1M107 11h1M6 17h1" />
<path stroke="#5f2608" d="M91 9h1" />
<path stroke="#602708" d="M92 9h1" />
<path stroke="#602707" d="M93 9h1" />
<path stroke="#612708" d="M94 9h1" />
<path stroke="#612807" d="M95 9h1" />
<path stroke="#622807" d="M96 9h1" />
<path stroke="#622707" d="M97 9h1" />
<path stroke="#622709" d="M99 9h2M102 9h1M97 29h1" />
<path stroke="#632809" d="M101 9h1" />
<path stroke="#5e2304" d="M103 9h1M16 21h2M46 21h1M71 21h2" />
<path stroke="#5d2304" d="M104 9h1M52 22h1M111 22h1" />
<path stroke="#5d2403" d="M105 9h1M93 27h1" />
<path stroke="#5d2400" d="M106 9h1M16 16h2M28 23h1M35 23h1M60 23h1M83 23h1M108 23h2M16 29h2M46 29h2M71 29h2" />
<path stroke="#5d2500" d="M107 9h1M12 12h1M21 12h1M42 12h1M67 12h1M76 12h1M29 23h2M33 23h2M55 23h1M58 23h2M84 23h2M47 28h1" />
<path stroke="#5e2701" d="M108 9h1M49 12h1" />
<path stroke="#632b05" d="M109 9h1" />
<path stroke="#642b06" d="M110 9h1" />
<path stroke="#642c08" d="M111 9h1M8 30h1M25 30h1M80 30h1" />
<path stroke="#642b0a" d="M112 9h1" />
<path stroke="#4c1804" d="M6 10h1M27 10h2M35 10h2M60 10h2M107 31h1" />
<path stroke="#4b1903" d="M7 10h2M25 10h2M37 10h2M62 10h2" />
<path stroke="#4b1904" d="M9 10h2M23 10h2M39 10h2M64 10h1" />
<path stroke="#4a1703" d="M11 10h1M22 10h1M41 10h1M14 31h1M19 31h1" />
<path stroke="#481500" d="M12 10h1M21 10h1M42 10h1M9 25h1M24 25h1M64 25h1M79 25h1" />
<path stroke="#4a1601" d="M13 10h1M20 10h1M43 10h1" />
<path stroke="#491501" d="M14 10h1M19 10h1M44 10h1" />
<path stroke="#4b1402" d="M15 10h1M18 10h1M45 10h1" />
<path stroke="#4d1705" d="M16 10h2M46 10h1" />
<path stroke="#4c1805" d="M29 10h1M34 10h1M59 10h1" />
<path stroke="#4d1604" d="M30 10h1M33 10h1M55 10h1M58 10h1" />
<path stroke="#4a1603" d="M31 10h2M56 10h2" />
<path stroke="#4d1903" d="M47 10h1" />
<path stroke="#4f1c00" d="M48 10h1" />
<path stroke="#562105" d="M49 10h1" />
<path stroke="#582306" d="M50 10h1M28 24h1M35 24h1M60 24h1" />
<path stroke="#562004" d="M51 10h1" />
<path stroke="#511900" d="M52 10h1" />
<path stroke="#4b0f00" d="M53 10h1" />
<path stroke="#501300" d="M54 10h1" />
<path stroke="#4b1800" d="M104 10h1" />
<path stroke="#4a1700" d="M105 10h1M109 10h1M11 14h1M22 14h1M41 14h1M98 31h1" />
<path stroke="#471500" d="M106 10h1M6 14h4M24 14h4M36 14h4M7 25h2M25 25h2M62 25h2M80 25h2M99 31h1" />
<path stroke="#471600" d="M107 10h1M14 14h1M19 14h1" />
<path stroke="#481700" d="M108 10h1M12 14h1M21 14h1" />
<path stroke="#461400" d="M110 10h1" />
<path stroke="#451200" d="M111 10h1M16 31h2" />
<path stroke="#471300" d="M112 10h1M28 25h3M55 25h1M58 25h3M83 25h2M101 31h3" />
<path stroke="#491503" d="M113 10h2" />
<path stroke="#5b2204" d="M6 11h1M27 11h1M36 11h1M61 11h1" />
<path stroke="#5b2304" d="M7 11h2M25 11h2M37 11h2M62 11h1M89 11h1" />
<path stroke="#5b2305" d="M9 11h4M21 11h4M28 11h1M35 11h1M39 11h4M60 11h1M67 11h1M83 11h1M90 11h1M11 19h1M22 19h1" />
<path stroke="#5b2506" d="M13 11h1M20 11h1M43 11h1M68 11h1" />
<path stroke="#5c2507" d="M14 11h1M19 11h1M44 11h1M69 11h1" />
<path stroke="#5e260b" d="M15 11h1M18 11h1M45 11h1" />
<path stroke="#5d260a" d="M16 11h2M46 11h1" />
<path stroke="#5b2205" d="M29 11h1M34 11h1M59 11h1M84 11h1M93 11h1" />
<path stroke="#5d2207" d="M30 11h1M33 11h1M55 11h1M58 11h1M85 11h1M54 22h1" />
<path stroke="#5d2307" d="M31 11h2M56 11h2M86 11h2M113 11h2" />
<path stroke="#5d2609" d="M47 11h1" />
<path stroke="#5d2706" d="M48 11h1" />
<path stroke="#5b2504" d="M49 11h1" />
<path stroke="#592303" d="M50 11h1" />
<path stroke="#592202" d="M51 11h1" />
<path stroke="#5b2203" d="M52 11h1" />
<path stroke="#5d2104" d="M53 11h1M11 20h2M21 20h2M41 20h2M76 20h2M51 24h1M102 28h1" />
<path stroke="#5d1e04" d="M54 11h1" />
<path stroke="#5a2304" d="M88 11h1" />
<path stroke="#5b2104" d="M91 11h2" />
<path stroke="#5e2508" d="M94 11h1M97 13h3" />
<path stroke="#5e2509" d="M95 11h1M103 13h1" />
<path stroke="#5f2509" d="M96 11h1M98 11h2M98 22h1M89 30h1" />
<path stroke="#5f2408" d="M97 11h1" />
<path stroke="#5f2407" d="M100 11h1" />
<path stroke="#5e2307" d="M101 11h1" />
<path stroke="#5e2306" d="M102 11h1M53 13h1" />
<path stroke="#5f2506" d="M103 11h2" />
<path stroke="#5e2507" d="M105 11h1M100 13h1" />
<path stroke="#5f2708" d="M106 11h1" />
<path stroke="#602809" d="M108 11h1" />
<path stroke="#5f2607" d="M109 11h1" />
<path stroke="#5c2304" d="M110 11h1M112 23h1M53 24h1" />
<path stroke="#5a2104" d="M111 11h1" />
<path stroke="#5b2106" d="M112 11h1" />
<path stroke="#5e2400" d="M7 12h1M26 12h1M37 12h1M62 12h1M81 12h1" />
<path stroke="#5f2500" d="M8 12h1M25 12h1M38 12h1M63 12h1M80 12h1M7 16h1M15 16h1M18 16h1M26 16h1M37 16h1M15 29h1M18 29h1M45 29h1M70 29h1M73 29h1" />
<path stroke="#602701" d="M9 12h2M23 12h2M39 12h2M64 12h2M78 12h2M11 29h1M22 29h1M41 29h1M66 29h1M77 29h1" />
<path stroke="#5f2600" d="M11 12h1M22 12h1M41 12h1M66 12h1M77 12h1M14 29h1M19 29h1M44 29h1M69 29h1M74 29h1" />
<path stroke="#5e2600" d="M13 12h1M20 12h1M43 12h1M68 12h1M75 12h1" />
<path stroke="#5f2601" d="M14 12h1M19 12h1M44 12h1M69 12h1M74 12h1" />
<path stroke="#5d2603" d="M16 12h2M46 12h1M71 12h2" />
<path stroke="#612500" d="M28 12h1M35 12h1M60 12h1M83 12h1" />
<path stroke="#5d2601" d="M47 12h1" />
<path stroke="#5e2601" d="M48 12h1" />
<path stroke="#5d2702" d="M50 12h1M28 30h1M83 30h1" />
<path stroke="#5c2502" d="M51 12h1" />
<path stroke="#5d2300" d="M52 12h1M110 23h1M9 27h2M23 27h2M39 27h2M78 27h2M8 28h2M24 28h2M38 28h2M63 28h2M48 29h2" />
<path stroke="#5d2102" d="M53 12h1M92 23h2M97 23h1" />
<path stroke="#5e1f05" d="M54 12h1" />
<path stroke="#5f2503" d="M88 12h1" />
<path stroke="#5e2202" d="M94 12h1M98 23h1" />
<path stroke="#5e2101" d="M95 12h1" />
<path stroke="#642506" d="M97 12h3" />
<path stroke="#632405" d="M100 12h1" />
<path stroke="#622304" d="M101 12h1" />
<path stroke="#622204" d="M102 12h1" />
<path stroke="#622302" d="M103 12h1" />
<path stroke="#612403" d="M104 12h2" />
<path stroke="#612501" d="M106 12h1" />
<path stroke="#612502" d="M107 12h1M13 27h1M20 27h1M43 27h1" />
<path stroke="#602501" d="M108 12h1M14 27h1M19 27h1M44 27h1" />
<path stroke="#5e2200" d="M111 12h2" />
<path stroke="#5d2606" d="M6 13h1M27 13h1M36 13h1M61 13h1M111 13h1" />
<path stroke="#5d2705" d="M7 13h1M26 13h1M37 13h1M62 13h1M113 26h2" />
<path stroke="#5b2705" d="M8 13h1M25 13h1M38 13h1M63 13h1" />
<path stroke="#5b2606" d="M9 13h2M23 13h2M39 13h2M64 13h2M79 13h1M7 24h2M25 24h2M37 24h2M62 24h2M80 24h1" />
<path stroke="#572504" d="M11 13h1M22 13h1M41 13h1M47 13h1M66 13h1" />
<path stroke="#542302" d="M12 13h1M14 13h1M19 13h1M21 13h1M42 13h1M44 13h1M67 13h1" />
<path stroke="#552403" d="M13 13h1M20 13h1M43 13h1M68 13h1" />
<path stroke="#532302" d="M15 13h1M18 13h1M45 13h1" />
<path stroke="#552504" d="M16 13h2M46 13h1" />
<path stroke="#5c2505" d="M28 13h1M35 13h1M60 13h1" />
<path stroke="#5c2405" d="M29 13h1M34 13h1M59 13h1M7 17h1" />
<path stroke="#5d2306" d="M30 13h1M33 13h1M55 13h1M58 13h1M53 22h1M53 23h1" />
<path stroke="#5e2608" d="M31 13h2M56 13h2" />
<path stroke="#5a2402" d="M48 13h2" />
<path stroke="#5b2502" d="M50 13h1" />
<path stroke="#5c2504" d="M51 13h1M108 26h1" />
<path stroke="#5e2504" d="M52 13h1M101 29h1" />
<path stroke="#5f200a" d="M54 13h1" />
<path stroke="#5b2508" d="M89 13h1" />
<path stroke="#5b2408" d="M90 13h1" />
<path stroke="#5c2409" d="M91 13h1" />
<path stroke="#5d2508" d="M92 13h1M10 19h1M23 19h1M40 19h1" />
<path stroke="#5d2507" d="M93 13h1M105 13h1" />
<path stroke="#5c2406" d="M94 13h1" />
<path stroke="#5d2506" d="M95 13h2M112 13h1M113 23h2M47 24h1" />
<path stroke="#5d2407" d="M101 13h2M51 23h1" />
<path stroke="#5d2509" d="M104 13h1" />
<path stroke="#5d2604" d="M106 13h1M106 26h1" />
<path stroke="#5c2604" d="M107 13h2" />
<path stroke="#5d2505" d="M109 13h1M12 17h1M21 17h1M76 17h1" />
<path stroke="#5d2605" d="M110 13h1" />
<path stroke="#5e2708" d="M113 13h2" />
<path stroke="#491700" d="M10 14h1M23 14h1M40 14h1" />
<path stroke="#4a1800" d="M13 14h1M20 14h1" />
<path stroke="#441300" d="M15 14h4" />
<path stroke="#471400" d="M28 14h3M33 14h3M6 25h1M27 25h1M61 25h1M82 25h1M100 31h1" />
<path stroke="#491500" d="M31 14h2M102 20h1M10 25h2M22 25h2M40 25h2M65 25h2M77 25h2" />
<path stroke="#57240c" d="M84 14h9M6 15h2M26 15h2M61 15h2M81 15h2" />
<path stroke="#5f2508" d="M93 14h22M95 15h20M77 17h28M72 18h9M85 18h17M75 19h19M101 19h1M81 20h19M88 22h2M88 30h1" />
<path stroke="#58250b" d="M8 15h1M25 15h1M63 15h1M80 15h1" />
<path stroke="#5d280d" d="M9 15h1M16 15h2M24 15h1M64 15h1M79 15h1" />
<path stroke="#602b10" d="M10 15h1M23 15h1M65 15h1M78 15h1" />
<path stroke="#602b11" d="M11 15h1M22 15h1M66 15h1M77 15h1" />
<path stroke="#5e290f" d="M12 15h1M21 15h1M76 15h1" />
<path stroke="#5f2a10" d="M13 15h2M19 15h2M74 15h2" />
<path stroke="#5f2a0f" d="M15 15h1M18 15h1" />
<path stroke="#541e0a" d="M28 15h1M35 15h1M60 15h1M83 15h1" />
<path stroke="#511d09" d="M29 15h1M34 15h1M84 15h1" />
<path stroke="#521c0a" d="M30 15h1M33 15h1M85 15h1" />
<path stroke="#511e0a" d="M31 15h2M86 15h2" />
<path stroke="#5a1d09" d="M88 15h2" />
<path stroke="#581c08" d="M90 15h1" />
<path stroke="#511400" d="M91 15h1" />
<path stroke="#501400" d="M92 15h1" />
<path stroke="#501600" d="M93 15h1M102 27h1" />
<path stroke="#541a05" d="M94 15h1" />
<path stroke="#602400" d="M6 16h1M36 16h1" />
<path stroke="#622700" d="M11 16h1M13 16h1M20 16h1M22 16h1M41 16h1M43 16h1" />
<path stroke="#602500" d="M12 16h1M21 16h1M42 16h1" />
<path stroke="#622502" d="M34 16h1" />
<path stroke="#5b2004" d="M70 16h13M86 16h29M24 17h5M30 17h41M105 17h1M107 17h8M25 18h47M106 18h8M41 19h34M47 20h21M91 21h12M35 30h7M46 30h29M42 31h21M75 31h22M56 32h35" />
<path stroke="#5b2200" d="M83 16h3M106 17h1M81 18h4M102 18h4M94 19h7M102 19h6M10 23h1M23 23h1M40 23h1M65 23h1M78 23h1M89 28h1" />
<path stroke="#591c02" d="M4 17h1M4 18h1M4 19h1M4 20h1M4 21h1M4 25h1M4 26h1M4 27h1M98 27h1M116 30h1M116 31h1M109 36h6" />
<path stroke="#561f00" d="M8 17h1" />
<path stroke="#561e00" d="M9 17h1" />
<path stroke="#572000" d="M10 17h1M23 17h1" />
<path stroke="#5b2303" d="M11 17h1M22 17h1M106 25h1" />
<path stroke="#5a2302" d="M13 17h1M20 17h1M75 17h1" />
<path stroke="#5e2706" d="M14 17h1M19 17h1M74 17h1" />
<path stroke="#5f2906" d="M15 17h1M18 17h1M73 17h1M100 25h1" />
<path stroke="#5c2503" d="M16 17h2M71 17h2" />
<path stroke="#431000" d="M6 18h1" />
<path stroke="#430f00" d="M7 18h1M11 18h1M22 18h1" />
<path stroke="#4b1600" d="M8 18h1M13 18h1M20 18h1M101 20h1" />
<path stroke="#5c270b" d="M9 18h1M24 18h1" />
<path stroke="#5b250a" d="M10 18h1M23 18h1" />
<path stroke="#461000" d="M12 18h1M21 18h1" />
<path stroke="#4d1800" d="M14 18h1M19 18h1" />
<path stroke="#4f1a00" d="M15 18h1M18 18h1" />
<path stroke="#501b00" d="M16 18h2" />
<path stroke="#5d240a" d="M114 18h1M104 21h1" />
<path stroke="#592306" d="M6 19h1M27 19h1M36 19h1" />
<path stroke="#5e270b" d="M7 19h1M26 19h1M37 19h1" />
<path stroke="#622c0e" d="M8 19h1M25 19h1M38 19h1" />
<path stroke="#5f270a" d="M9 19h1M24 19h1M39 19h1" />
<path stroke="#541c00" d="M12 19h1M21 19h1" />
<path stroke="#5d2608" d="M13 19h1M20 19h1M111 26h1" />
<path stroke="#632c0d" d="M14 19h1M19 19h1" />
<path stroke="#652d0e" d="M15 19h1M18 19h1" />
<path stroke="#642d0d" d="M16 19h2" />
<path stroke="#582108" d="M28 19h1M35 19h1" />
<path stroke="#571e0a" d="M29 19h1M34 19h1" />
<path stroke="#541c08" d="M30 19h1M33 19h1" />
<path stroke="#521b06" d="M31 19h2" />
<path stroke="#4f1500" d="M108 19h1M103 27h2" />
<path stroke="#521402" d="M109 19h1" />
<path stroke="#501000" d="M110 19h1" />
<path stroke="#4d0f00" d="M111 19h1" />
<path stroke="#4d1603" d="M112 19h1" />
<path stroke="#501a05" d="M113 19h2" />
<path stroke="#65290d" d="M6 20h1M27 20h1M36 20h1" />
<path stroke="#64260b" d="M7 20h1M26 20h1M37 20h1" />
<path stroke="#602207" d="M8 20h1M25 20h1M38 20h1M80 20h1" />
<path stroke="#5f2105" d="M9 20h2M23 20h2M39 20h2M78 20h2" />
<path stroke="#622308" d="M13 20h1M20 20h1M43 20h1M68 20h1M75 20h1" />
<path stroke="#602407" d="M14 20h1M19 20h1M44 20h1M69 20h1M74 20h1" />
<path stroke="#5f2405" d="M16 20h2M46 20h1M71 20h2" />
<path stroke="#682c10" d="M28 20h1M35 20h1" />
<path stroke="#692d10" d="M29 20h1M34 20h1" />
<path stroke="#692e10" d="M30 20h1M33 20h1" />
<path stroke="#662c0b" d="M31 20h2M113 20h2M96 29h1" />
<path stroke="#4c1900" d="M100 20h1M97 31h1" />
<path stroke="#511c02" d="M103 20h1" />
<path stroke="#542106" d="M104 20h1" />
<path stroke="#562102" d="M105 20h1" />
<path stroke="#5e2a01" d="M106 20h1" />
<path stroke="#612a03" d="M107 20h1" />
<path stroke="#632a05" d="M108 20h1M94 26h1" />
<path stroke="#652a07" d="M109 20h1" />
<path stroke="#662a09" d="M110 20h1" />
<path stroke="#662c08" d="M111 20h1M9 30h2M23 30h2M78 30h2" />
<path stroke="#662e0a" d="M112 20h1" />
<path stroke="#622206" d="M6 21h1M27 21h1M36 21h1M61 21h1" />
<path stroke="#612004" d="M7 21h1M12 21h2M20 21h2M26 21h1M37 21h1M42 21h2M62 21h1M67 21h2M75 21h2" />
<path stroke="#602003" d="M8 21h3M23 21h3M38 21h3M63 21h3M78 21h1" />
<path stroke="#602004" d="M11 21h1M14 21h1M19 21h1M22 21h1M41 21h1M44 21h1M66 21h1M69 21h1M74 21h1M77 21h1" />
<path stroke="#5f2104" d="M15 21h1M18 21h1M45 21h1M70 21h1M73 21h1M103 22h1" />
<path stroke="#642406" d="M28 21h1M35 21h1M60 21h1" />
<path stroke="#642703" d="M29 21h1M34 21h1M59 21h1" />
<path stroke="#642702" d="M30 21h1M33 21h1M58 21h1" />
<path stroke="#632701" d="M31 21h2M57 21h1" />
<path stroke="#5d2303" d="M47 21h1M94 27h1M113 27h2" />
<path stroke="#5c2402" d="M49 21h3M49 22h1" />
<path stroke="#5d2504" d="M79 21h12M16 23h2M46 23h1M71 23h2M105 25h1" />
<path stroke="#5f270d" d="M103 21h1" />
<path stroke="#5e2505" d="M105 21h1" />
<path stroke="#612800" d="M106 21h1" />
<path stroke="#622900" d="M107 21h1" />
<path stroke="#632a00" d="M108 21h1" />
<path stroke="#642a00" d="M109 21h1M111 21h2" />
<path stroke="#642b00" d="M110 21h1" />
<path stroke="#642900" d="M113 21h2" />
<path stroke="#5f2200" d="M6 22h1M9 22h3M22 22h3M27 22h1M36 22h1M39 22h3M61 22h1M64 22h3M77 22h3M82 22h1M105 23h1" />
<path stroke="#5d2100" d="M7 22h1M26 22h1M37 22h1M62 22h1M81 22h1" />
<path stroke="#5e2100" d="M8 22h1M25 22h1M38 22h1M63 22h1M80 22h1" />
<path stroke="#5e2302" d="M15 22h1M18 22h1M29 22h1M34 22h1M45 22h1M59 22h1M70 22h1M73 22h1M84 22h1M29 27h1M34 27h1" />
<path stroke="#5e2303" d="M30 22h1M33 22h1M55 22h1M85 22h1M110 22h1M96 23h1" />
<path stroke="#5d2205" d="M31 22h2M56 22h1M86 22h2M101 28h1" />
<path stroke="#5c2403" d="M50 22h1" />
<path stroke="#5c2404" d="M51 22h1M47 23h1" />
<path stroke="#642a0d" d="M90 22h2" />
<path stroke="#632a0d" d="M92 22h2" />
<path stroke="#5e250a" d="M94 22h1" />
<path stroke="#5f250a" d="M96 22h1" />
<path stroke="#60270b" d="M97 22h1" />
<path stroke="#602509" d="M99 22h1" />
<path stroke="#602406" d="M100 22h1" />
<path stroke="#612206" d="M101 22h1" />
<path stroke="#612205" d="M102 22h1" />
<path stroke="#5f2002" d="M104 22h2M89 23h2" />
<path stroke="#5d2200" d="M106 22h1" />
<path stroke="#5d2301" d="M107 22h2" />
<path stroke="#5d2206" d="M112 22h3" />
<path stroke="#5c2301" d="M9 23h1M24 23h1M39 23h1M64 23h1M79 23h1" />
<path stroke="#5c2201" d="M11 23h1M22 23h1M41 23h1M66 23h1M77 23h1" />
<path stroke="#5d2402" d="M12 23h1M21 23h1M42 23h1M67 23h1M76 23h1M91 27h2" />
<path stroke="#5f2504" d="M13 23h1M20 23h1M43 23h1M68 23h1M75 23h1M100 29h1M103 29h1M108 29h1" />
<path stroke="#5f2605" d="M14 23h1M19 23h1M44 23h1M69 23h1M74 23h1" />
<path stroke="#5e2606" d="M15 23h1M18 23h1M45 23h1M70 23h1M73 23h1" />
<path stroke="#5e2705" d="M31 23h2M56 23h2M86 23h2" />
<path stroke="#5d2405" d="M48 23h1" />
<path stroke="#5d2406" d="M49 23h2" />
<path stroke="#581e02" d="M52 23h1" />
<path stroke="#5b2102" d="M54 23h1" />
<path stroke="#5e1f01" d="M91 23h1" />
<path stroke="#5f2304" d="M94 23h1" />
<path stroke="#612505" d="M95 23h1" />
<path stroke="#602002" d="M102 23h1" />
<path stroke="#612002" d="M103 23h1" />
<path stroke="#602100" d="M104 23h1" />
<path stroke="#5b2301" d="M111 23h1" />
<path stroke="#5a2506" d="M6 24h1M27 24h1M36 24h1M61 24h1" />
<path stroke="#5c2707" d="M9 24h1M14 24h1M19 24h1M24 24h1M39 24h1M44 24h1M64 24h1M69 24h1M74 24h1M79 24h1" />
<path stroke="#5c2708" d="M10 24h3M21 24h3M40 24h3M65 24h3M76 24h3" />
<path stroke="#5a2707" d="M13 24h1M20 24h1M43 24h1M68 24h1M75 24h1" />
<path stroke="#5d2707" d="M15 24h4M45 24h2M70 24h4" />
<path stroke="#582308" d="M29 24h1M34 24h1M59 24h1" />
<path stroke="#58220b" d="M30 24h1M33 24h1M55 24h1M58 24h1" />
<path stroke="#541d0a" d="M31 24h2M56 24h2" />
<path stroke="#5d2305" d="M48 24h2" />
<path stroke="#5d2204" d="M50 24h1M96 27h1M107 28h1" />
<path stroke="#5d2203" d="M52 24h1M95 27h1" />
<path stroke="#5b2406" d="M54 24h1" />
<path stroke="#551f00" d="M81 24h5M94 24h1M85 25h5" />
<path stroke="#4d1201" d="M86 24h4" />
<path stroke="#4d1300" d="M90 24h1" />
<path stroke="#4e1401" d="M91 24h1" />
<path stroke="#511905" d="M92 24h1" />
<path stroke="#551e05" d="M93 24h1" />
<path stroke="#541f00" d="M95 24h1" />
<path stroke="#541e00" d="M96 24h1" />
<path stroke="#511c00" d="M97 24h1" />
<path stroke="#541d00" d="M98 24h1" />
<path stroke="#562002" d="M99 24h1" />
<path stroke="#572103" d="M100 24h1" />
<path stroke="#582103" d="M101 24h1" />
<path stroke="#572002" d="M102 24h1" />
<path stroke="#531b00" d="M103 24h1" />
<path stroke="#4e1600" d="M104 24h1M107 27h1" />
<path stroke="#4b1200" d="M105 24h1M106 27h1" />
<path stroke="#4b1100" d="M106 24h1" />
<path stroke="#4c1300" d="M107 24h1" />
<path stroke="#4e1500" d="M108 24h1M105 27h1" />
<path stroke="#511806" d="M109 24h1" />
<path stroke="#51170a" d="M110 24h1" />
<path stroke="#51190b" d="M111 24h2" />
<path stroke="#521a0a" d="M113 24h2" />
<path stroke="#4a1600" d="M12 25h1M21 25h1M42 25h1M67 25h1M76 25h1" />
<path stroke="#501c05" d="M13 25h1M20 25h1M43 25h1M68 25h1M75 25h1" />
<path stroke="#54200a" d="M14 25h1M19 25h1M32 25h8M44 25h1M69 25h1M74 25h1" />
<path stroke="#58210c" d="M15 25h4M45 25h3M70 25h4" />
<path stroke="#4b1500" d="M31 25h1M56 25h2" />
<path stroke="#59210c" d="M48 25h1" />
<path stroke="#58200a" d="M49 25h1" />
<path stroke="#581f0a" d="M50 25h1" />
<path stroke="#581e0a" d="M51 25h1" />
<path stroke="#571e06" d="M52 25h1" />
<path stroke="#541c03" d="M53 25h1" />
<path stroke="#511a03" d="M54 25h1" />
<path stroke="#61280b" d="M90 25h1" />
<path stroke="#62290c" d="M91 25h1" />
<path stroke="#622a0d" d="M92 25h1" />
<path stroke="#632c0c" d="M93 25h1" />
<path stroke="#632c09" d="M94 25h1" />
<path stroke="#622a08" d="M95 25h1" />
<path stroke="#602a05" d="M96 25h1M101 25h1" />
<path stroke="#602906" d="M97 25h1M102 25h1" />
<path stroke="#5f2805" d="M98 25h1M103 25h1" />
<path stroke="#5f2705" d="M99 25h1M109 27h1" />
<path stroke="#5a2105" d="M107 25h1" />
<path stroke="#561d04" d="M108 25h1" />
<path stroke="#561e08" d="M109 25h1" />
<path stroke="#541c09" d="M110 25h1" />
<path stroke="#531c08" d="M111 25h1" />
<path stroke="#4f1900" d="M112 25h1" />
<path stroke="#4d1700" d="M113 25h2" />
<path stroke="#59220e" d="M6 26h3M25 26h3M36 26h3M61 26h3" />
<path stroke="#58210e" d="M9 26h2M23 26h2M39 26h1M64 26h2" />
<path stroke="#57200c" d="M11 26h1M22 26h1M66 26h1M77 26h1" />
<path stroke="#521b07" d="M12 26h1M21 26h1M67 26h1M76 26h1" />
<path stroke="#4d1703" d="M13 26h1M20 26h1M68 26h1M75 26h1M110 31h1" />
<path stroke="#4b1400" d="M14 26h1M19 26h1M69 26h1M74 26h1" />
<path stroke="#4c1400" d="M15 26h4M70 26h4" />
<path stroke="#5a230d" d="M28 26h1M35 26h1M60 26h1" />
<path stroke="#5a230a" d="M29 26h1M34 26h1M59 26h1" />
<path stroke="#592408" d="M30 26h1M33 26h1M55 26h1M58 26h1" />
<path stroke="#5a2405" d="M31 26h2M56 26h2M86 26h2" />
<path stroke="#460f00" d="M52 26h1" />
<path stroke="#481100" d="M54 26h1" />
<path stroke="#662e08" d="M88 26h1" />
<path stroke="#622804" d="M95 26h1" />
<path stroke="#612703" d="M96 26h1" />
<path stroke="#612702" d="M97 26h1" />
<path stroke="#622905" d="M98 26h1" />
<path stroke="#642c07" d="M99 26h1" />
<path stroke="#612904" d="M100 26h2" />
<path stroke="#602803" d="M102 26h1" />
<path stroke="#5f2803" d="M103 26h1" />
<path stroke="#5f2802" d="M104 26h1" />
<path stroke="#5e2702" d="M105 26h1" />
<path stroke="#602807" d="M107 26h1" />
<path stroke="#561f01" d="M109 26h1" />
<path stroke="#582105" d="M110 26h1" />
<path stroke="#5f2a05" d="M112 26h1M29 30h6M84 30h4" />
<path stroke="#5c2102" d="M116 26h1M31 27h2M116 27h1M116 28h1M116 29h1M17 36h4M39 36h6M50 36h7M58 36h12M77 36h5M99 36h5" />
<path stroke="#5f2401" d="M11 27h1M22 27h1M41 27h1M109 29h1" />
<path stroke="#622603" d="M12 27h1M21 27h1M42 27h1" />
<path stroke="#612603" d="M15 27h4M45 27h2" />
<path stroke="#5d2202" d="M30 27h1M33 27h1" />
<path stroke="#5e2704" d="M47 27h1" />
<path stroke="#572702" d="M48 27h1" />
<path stroke="#552500" d="M49 27h1" />
<path stroke="#532300" d="M50 27h1" />
<path stroke="#562500" d="M51 27h1" />
<path stroke="#592000" d="M90 27h1" />
<path stroke="#5e2005" d="M97 27h1" />
<path stroke="#561900" d="M99 27h1" />
<path stroke="#511600" d="M100 27h2" />
<path stroke="#581f00" d="M108 27h1" />
<path stroke="#642c0a" d="M110 27h1" />
<path stroke="#642b09" d="M111 27h1" />
<path stroke="#602605" d="M112 27h1" />
<path stroke="#5c2200" d="M10 28h2M22 28h2M40 28h2M65 28h2" />
<path stroke="#5b2100" d="M12 28h2M20 28h2M42 28h2M67 28h2M75 28h2M92 28h1M91 29h1" />
<path stroke="#5c2100" d="M14 28h1M19 28h1M44 28h1M69 28h1M74 28h1" />
<path stroke="#5b2500" d="M48 28h1" />
<path stroke="#582200" d="M49 28h1" />
<path stroke="#5a2400" d="M50 28h1" />
<path stroke="#5d2700" d="M51 28h1" />
<path stroke="#591f00" d="M93 28h1" />
<path stroke="#561b00" d="M94 28h1" />
<path stroke="#541900" d="M95 28h1" />
<path stroke="#511700" d="M96 28h1" />
<path stroke="#541600" d="M97 28h1" />
<path stroke="#571c00" d="M98 28h1" />
<path stroke="#5a1e02" d="M99 28h1" />
<path stroke="#5c2103" d="M100 28h1" />
<path stroke="#5d2105" d="M103 28h1" />
<path stroke="#5d2006" d="M104 28h2" />
<path stroke="#5b2103" d="M106 28h1" />
<path stroke="#632808" d="M108 28h1" />
<path stroke="#682d0a" d="M109 28h2" />
<path stroke="#672c09" d="M111 28h1" />
<path stroke="#602403" d="M113 28h2" />
<path stroke="#632a03" d="M6 29h1M27 29h1M36 29h1M61 29h1M82 29h1" />
<path stroke="#642b05" d="M7 29h1M26 29h1M37 29h1M62 29h1M81 29h1M15 30h1M18 30h1M45 30h1" />
<path stroke="#642c05" d="M8 29h1M25 29h1M38 29h1M63 29h1M80 29h1" />
<path stroke="#622902" d="M9 29h1M24 29h1M39 29h1M64 29h1M79 29h1" />
<path stroke="#602801" d="M10 29h1M23 29h1M40 29h1M65 29h1M78 29h1" />
<path stroke="#5f2700" d="M12 29h2M20 29h2M42 29h2M67 29h2M75 29h2" />
<path stroke="#622802" d="M28 29h1M35 29h1M60 29h1M83 29h1" />
<path stroke="#612802" d="M29 29h1M34 29h1M59 29h1M84 29h1" />
<path stroke="#652b05" d="M30 29h1M33 29h1M58 29h1M85 29h1" />
<path stroke="#672c08" d="M31 29h2M86 29h1" />
<path stroke="#5f2404" d="M93 29h1" />
<path stroke="#5f2505" d="M94 29h1M99 29h1" />
<path stroke="#622a09" d="M95 29h1" />
<path stroke="#602506" d="M98 29h1" />
<path stroke="#622706" d="M104 29h1" />
<path stroke="#612606" d="M105 29h3" />
<path stroke="#5e2402" d="M110 29h1" />
<path stroke="#5f2501" d="M111 29h1" />
<path stroke="#642a05" d="M112 29h1" />
<path stroke="#652b06" d="M113 29h2" />
<path stroke="#5f2904" d="M6 30h1M27 30h1M82 30h1" />
<path stroke="#622b08" d="M7 30h1M26 30h1M81 30h1" />
<path stroke="#652c08" d="M11 30h1M22 30h1M77 30h1" />
<path stroke="#652c06" d="M12 30h1M14 30h1M19 30h1M21 30h1M42 30h1M44 30h1M76 30h1" />
<path stroke="#662d07" d="M13 30h1M20 30h1M43 30h1M75 30h1" />
<path stroke="#622c05" d="M16 30h2" />
<path stroke="#61260b" d="M90 30h1" />
<path stroke="#62240b" d="M91 30h1" />
<path stroke="#5f2208" d="M92 30h1" />
<path stroke="#5c2104" d="M93 30h1" />
<path stroke="#5e2406" d="M94 30h1" />
<path stroke="#612809" d="M95 30h1" />
<path stroke="#612909" d="M96 30h1" />
<path stroke="#622909" d="M97 30h1" />
<path stroke="#622a0a" d="M98 30h1" />
<path stroke="#622b0a" d="M99 30h1" />
<path stroke="#622c09" d="M100 30h1" />
<path stroke="#5f2a07" d="M101 30h1" />
<path stroke="#5e2906" d="M102 30h1" />
<path stroke="#5d2806" d="M103 30h1" />
<path stroke="#5c2705" d="M104 30h3" />
<path stroke="#5c2805" d="M107 30h1" />
<path stroke="#5b2704" d="M108 30h4" />
<path stroke="#5c2a03" d="M112 30h1" />
<path stroke="#5e2a06" d="M113 30h2" />
<path stroke="#4e1c02" d="M6 31h3M25 31h4M35 31h4" />
<path stroke="#4e1b01" d="M9 31h1M24 31h1M39 31h1" />
<path stroke="#4d1b01" d="M10 31h1M23 31h1M40 31h1" />
<path stroke="#4e1b04" d="M11 31h1M22 31h1M41 31h1" />
<path stroke="#4e1a07" d="M12 31h1M21 31h1" />
<path stroke="#4d1a06" d="M13 31h1M20 31h1" />
<path stroke="#461200" d="M15 31h1M18 31h1" />
<path stroke="#4f1c02" d="M29 31h2M33 31h2" />
<path stroke="#501c03" d="M31 31h2" />
<path stroke="#481400" d="M104 31h2" />
<path stroke="#4a1602" d="M106 31h1" />
<path stroke="#4e1a05" d="M108 31h1" />
<path stroke="#4d1905" d="M109 31h1" />
<path stroke="#4b1701" d="M111 31h1" />
<path stroke="#4c1902" d="M112 31h1" />
<path stroke="#4e1b03" d="M113 31h2" />
</svg>