<svg xmlns="http://www.w3.org/2000/svg" viewBox="0 -0.5 50 50" shape-rendering="crispEdges">
<metadata>Made with Pixels to Svg https://codepen.io/shshaw/pen/XbxvNj</metadata>
<path stroke="#241909" d="M6 10h37M6 11h1M42 11h1M6 12h1M42 12h1M6 13h1M42 13h1M6 14h1M42 14h1M6 15h1M42 15h1M6 16h1M42 16h1M6 17h1M42 17h1M6 18h1M42 18h1M6 19h1M42 19h1M6 20h1M42 20h1M6 21h1M42 21h1M6 22h1M42 22h1M6 23h1M42 23h1M6 24h1M42 24h1M6 25h1M42 25h1M6 26h1M42 26h1M6 27h1M42 27h1M6 28h1M42 28h1M6 29h1M42 29h1M6 30h1M42 30h1M6 31h1M42 31h1M6 32h1M42 32h1M6 33h1M42 33h1M6 34h1M42 34h1M6 35h1M42 35h1M6 36h1M42 36h1M6 37h1M42 37h1M6 38h1M42 38h1M6 39h1M42 39h1M6 40h1M42 40h1M6 41h1M42 41h1M6 42h1M42 42h1M6 43h1M42 43h1M6 44h1M42 44h1M6 45h37" />
<path stroke="#ac7f27" d="M7 11h35M7 12h2M40 12h2M7 13h2M40 13h2M7 14h2M40 14h2M7 15h2M40 15h2M7 16h2M40 16h2M7 17h2M40 17h2M7 18h2M40 18h2M7 19h2M40 19h2M7 20h2M40 20h2M7 21h2M40 21h2M7 22h2M40 22h2M7 23h2M40 23h2M7 24h2M40 24h2M7 25h35" />
<path stroke="#604113" d="M9 12h31" />
<path stroke="#583c12" d="M9 13h31M9 14h31" />
<path stroke="#543912" d="M9 15h31M9 16h31" />
<path stroke="#432e0e" d="M9 17h31M9 18h31" />
<path stroke="#3e2b0f" d="M9 19h31M9 20h31" />
<path stroke="#38270d" d="M9 21h31M9 22h31" />
<path stroke="#31220c" d="M9 23h31M9 24h31" />
<path stroke="#4b3413" d="M7 26h35M7 28h35M9 29h1M14 29h1M19 29h1M24 29h1M29 29h1M34 29h1M39 29h1M9 30h1M14 30h1M19 30h1M24 30h1M29 30h1M34 30h1M39 30h1M9 31h1M14 31h1M19 31h1M24 31h1M29 31h1M34 31h1M39 31h1M9 32h1M14 32h1M19 32h1M24 32h1M29 32h1M34 32h1M39 32h1M9 33h1M14 33h1M19 33h1M24 33h1M29 33h1M34 33h1M39 33h1M9 34h1M14 34h1M19 34h1M24 34h1M29 34h1M34 34h1M39 34h1M9 35h1M14 35h1M19 35h1M24 35h1M29 35h1M34 35h1M39 35h1M9 36h1M14 36h1M19 36h1M24 36h1M29 36h1M34 36h1M39 36h1M9 37h1M14 37h1M19 37h1M24 37h1M29 37h1M34 37h1M39 37h1M9 38h1M14 38h1M19 38h1M24 38h1M29 38h1M34 38h1M39 38h1M9 39h1M14 39h1M19 39h1M24 39h1M29 39h1M34 39h1M39 39h1M9 40h1M14 40h1M19 40h1M24 40h1M29 40h1M34 40h1M39 40h1M7 41h35M7 44h35" />
<path stroke="#8e6a22" d="M7 27h35M7 29h2M10 29h4M15 29h4M20 29h4M25 29h4M30 29h4M35 29h4M40 29h2M7 30h2M10 30h4M15 30h4M20 30h4M25 30h4M30 30h4M35 30h4M40 30h2M7 31h2M10 31h4M15 31h4M20 31h4M25 31h4M30 31h4M35 31h4M40 31h2M7 32h2M10 32h4M15 32h4M20 32h4M25 32h4M30 32h4M35 32h4M40 32h2M7 33h2M10 33h4M15 33h4M20 33h4M25 33h4M30 33h4M35 33h4M40 33h2M7 34h2M10 34h4M15 34h4M20 34h4M25 34h4M30 34h4M35 34h4M40 34h2M7 35h2M10 35h4M15 35h4M20 35h4M25 35h4M30 35h4M35 35h4M40 35h2M7 36h2M10 36h4M15 36h4M20 36h4M25 36h4M30 36h4M35 36h4M40 36h2M7 37h2M10 37h4M15 37h4M20 37h4M25 37h4M30 37h4M35 37h4M40 37h2M7 38h2M10 38h4M15 38h4M20 38h4M25 38h4M30 38h4M35 38h4M40 38h2M7 39h2M10 39h4M15 39h4M20 39h4M25 39h4M30 39h4M35 39h4M40 39h2M7 40h2M10 40h4M15 40h4M20 40h4M25 40h4M30 40h4M35 40h4M40 40h2M7 42h35M7 43h35" />
</svg>