<svg xmlns="http://www.w3.org/2000/svg" viewBox="0 -0.5 50 50" shape-rendering="crispEdges">
<metadata>Made with Pixels to Svg https://codepen.io/shshaw/pen/XbxvNj</metadata>
<path stroke="#721515" d="M28 3h5M36 3h5M33 4h1M35 4h1M41 4h1M9 6h7M8 7h2M16 7h2M8 8h1M17 8h3M19 9h1M20 10h1M20 11h1M20 12h1M20 13h1M20 14h1M20 15h1" />
<path stroke="#6f1515" d="M26 4h2M25 5h1M34 5h1M41 5h1M25 6h1M34 6h1M42 6h1M25 7h1M35 7h1M42 7h1M26 8h1M43 8h1M43 9h1M43 10h1M43 11h1M42 12h1" />
<path stroke="#871b1b" d="M28 4h5M37 4h4M28 5h6M37 5h4M28 6h6M37 6h5M10 7h6M29 7h6M38 7h4M10 8h7M39 8h4M11 9h8M41 9h2M12 10h8M25 10h4M5 11h4M17 11h3M26 11h3M5 12h4M27 12h2M6 13h5M7 14h3M8 15h1M8 16h1M8 19h1" />
<path stroke="#781919" d="M36 4h1M26 5h2M35 5h2M26 6h2M35 6h2M26 7h3M36 7h2M9 8h1M27 8h5M36 8h3M9 9h2M29 9h1M38 9h3M9 10h3M40 10h3M10 11h7M25 11h1M41 11h2M4 12h1M11 12h9M25 12h2M4 13h2M16 13h4M25 13h3M4 14h3M18 14h2M26 14h2M4 15h4M5 16h3M7 17h2M7 19h1M7 20h2" />
<path stroke="#636363" d="M32 8h4M30 9h2M36 9h2M29 10h1M38 10h2M29 11h1M40 11h1M29 12h1M41 12h1M11 13h5M28 13h1M41 13h1M10 14h1M16 14h2M28 14h1M42 14h1M9 15h1M18 15h2M28 15h1M42 15h1M9 16h1M20 16h2M27 16h1M43 16h1M22 17h5M17 18h5M16 19h1M22 19h3M16 20h1M25 20h2M26 21h2M28 22h1M28 23h2M29 24h1" />
<path stroke="#671414" d="M8 9h1M26 9h3M7 10h2" />
<path stroke="#631414" d="M25 9h1M24 10h1M24 11h1M24 12h1M24 13h1M3 14h1M25 14h1M3 15h1M26 15h2M3 16h2M4 17h3M6 18h3M6 19h1M6 20h1M7 21h3" />
<path stroke="#f4f4f4" d="M32 9h4M30 10h8M30 11h10M30 12h11M29 13h4M34 13h5M40 13h1M11 14h5M29 14h4M34 14h5M40 14h2M10 15h8M29 15h4M34 15h5M40 15h2M10 16h10M28 16h15M10 17h12M27 17h10M41 17h2M10 18h7M22 18h14M41 18h2M11 19h5M17 19h5M25 19h12M40 19h3M12 20h4M17 20h8M27 20h15M13 21h3M18 21h8M28 21h14M13 22h3M18 22h10M29 22h12M14 23h2M19 23h9M30 23h10M15 24h2M21 24h8M30 24h9M22 25h15M25 26h10" />
<path stroke="#6b1515" d="M5 10h2M4 11h1M9 11h1M3 12h1M9 12h2M3 13h1" />
<path stroke="#241909" d="M21 13h3M6 21h1M6 22h1M6 23h1M42 23h1M6 24h1M42 24h1M6 25h1M42 25h1M6 26h1M42 26h1M6 27h1M42 27h1M6 28h1M42 28h1M6 29h1M42 29h1M6 30h1M42 30h1M6 31h1M42 31h1M6 32h1M42 32h1M6 33h1M42 33h1M6 34h1M42 34h1M6 35h1M42 35h1M6 36h1M42 36h1M6 37h1M42 37h1M6 38h1M42 38h1M6 39h1M42 39h1M6 40h1M42 40h1M6 41h1M42 41h1M6 42h1M42 42h1M6 43h1M42 43h1M6 44h1M42 44h1M6 45h1M42 45h1M6 46h1M42 46h1M6 47h1M42 47h1M6 48h37" />
<path stroke="#000000" d="M33 13h1M39 13h1M33 14h1M39 14h1M33 15h1M39 15h1" />
<path stroke="#ac7f27" d="M21 14h4M7 22h2M7 23h2M7 24h2M7 25h2M41 25h1M7 26h2M40 26h2M7 27h2M40 27h2M7 28h35" />
<path stroke="#604113" d="M21 15h5" />
<path stroke="#583c12" d="M22 16h5" />
<path stroke="#5c5c5c" d="M9 17h1M9 18h1" />
<path stroke="#b28122" d="M37 17h4M36 18h1M40 18h1M37 19h3" />
<path stroke="#5a5a5a" d="M43 17h1M43 18h1M43 19h1M16 21h1M16 22h1" />
<path stroke="#e5c485" d="M37 18h3" />
<path stroke="#4f4f4f" d="M9 19h1M10 20h1M42 20h1M10 21h1M42 21h1M11 22h1M42 22h1M11 23h1M16 23h1M41 23h1M11 24h1M17 24h1M41 24h1M12 25h1M18 25h3M40 25h1M13 26h1M17 26h1M39 26h1M14 27h1M18 27h1M38 27h1" />
<path stroke="#dfdfdf" d="M10 19h1M11 20h1M11 21h2M17 21h1M12 22h1M17 22h1M41 22h1M12 23h2M17 23h2M40 23h1M12 24h3M18 24h3M39 24h2M13 25h5M21 25h1M37 25h3M14 26h3M18 26h7M35 26h4M15 27h3M19 27h19" />
<path stroke="#432e0e" d="M9 20h1" />
<path stroke="#3e2b0f" d="M9 22h2M9 23h2" />
<path stroke="#38270d" d="M9 24h2M9 25h3" />
<path stroke="#31220c" d="M9 26h4M9 27h5M39 27h1" />
<path stroke="#4b3413" d="M7 29h35M7 31h35M9 32h1M14 32h1M19 32h1M24 32h1M29 32h1M34 32h1M39 32h1M9 33h1M14 33h1M19 33h1M24 33h1M29 33h1M34 33h1M39 33h1M9 34h1M14 34h1M19 34h1M24 34h1M29 34h1M34 34h1M39 34h1M9 35h1M14 35h1M19 35h1M24 35h1M29 35h1M34 35h1M39 35h1M9 36h1M14 36h1M19 36h1M24 36h1M29 36h1M34 36h1M39 36h1M9 37h1M14 37h1M19 37h1M24 37h1M29 37h1M34 37h1M39 37h1M9 38h1M14 38h1M19 38h1M24 38h1M29 38h1M34 38h1M39 38h1M9 39h1M14 39h1M19 39h1M24 39h1M29 39h1M34 39h1M39 39h1M9 40h1M14 40h1M19 40h1M24 40h1M29 40h1M34 40h1M39 40h1M9 41h1M14 41h1M19 41h1M24 41h1M29 41h1M34 41h1M39 41h1M9 42h1M14 42h1M19 42h1M24 42h1M29 42h1M34 42h1M39 42h1M9 43h1M14 43h1M19 43h1M24 43h1M29 43h1M34 43h1M39 43h1M7 44h35M7 47h35" />
<path stroke="#8e6a22" d="M7 30h35M7 32h2M10 32h4M15 32h4M20 32h4M25 32h4M30 32h4M35 32h4M40 32h2M7 33h2M10 33h4M15 33h4M20 33h4M25 33h4M30 33h4M35 33h4M40 33h2M7 34h2M10 34h4M15 34h4M20 34h4M25 34h4M30 34h4M35 34h4M40 34h2M7 35h2M10 35h4M15 35h4M20 35h4M25 35h4M30 35h4M35 35h4M40 35h2M7 36h2M10 36h4M15 36h4M20 36h4M25 36h4M30 36h4M35 36h4M40 36h2M7 37h2M10 37h4M15 37h4M20 37h4M25 37h4M30 37h4M35 37h4M40 37h2M7 38h2M10 38h4M15 38h4M20 38h4M25 38h4M30 38h4M35 38h4M40 38h2M7 39h2M10 39h4M15 39h4M20 39h4M25 39h4M30 39h4M35 39h4M40 39h2M7 40h2M10 40h4M15 40h4M20 40h4M25 40h4M30 40h4M35 40h4M40 40h2M7 41h2M10 41h4M15 41h4M20 41h4M25 41h4M30 41h4M35 41h4M40 41h2M7 42h2M10 42h4M15 42h4M20 42h4M25 42h4M30 42h4M35 42h4M40 42h2M7 43h2M10 43h4M15 43h4M20 43h4M25 43h4M30 43h4M35 43h4M40 43h2M7 45h35M7 46h35" />
</svg>