<svg width="65" height="90" viewBox="0 0 65 90" fill="none" xmlns="http://www.w3.org/2000/svg">
<path d="M10.8335 1.5H20.3127ZM21.6668 1.5H50.1043ZM51.4585 1.5H59.5835ZM60.9377 1.5H62.2918ZM60.9377 5.5H62.2918ZM60.9377 6.5H62.2918ZM59.5835 7.5H60.9377ZM59.5835 8.5H60.9377ZM56.8752 23.5H58.2293ZM4.06266 81.5H6.771ZM4.06266 82.5H5.41683ZM2.7085 83.5H4.06266ZM9.47933 88.5H10.8335Z" fill="black"/>
<path d="M10.8335 1.5H20.3127M21.6668 1.5H50.1043M51.4585 1.5H59.5835M60.9377 1.5H62.2918M60.9377 5.5H62.2918M60.9377 6.5H62.2918M59.5835 7.5H60.9377M59.5835 8.5H60.9377M56.8752 23.5H58.2293M4.06266 81.5H6.771M4.06266 82.5H5.41683M2.7085 83.5H4.06266M9.47933 88.5H10.8335" stroke="#282828"/>
<path d="M20.3127 1.5H21.6668ZM2.7085 84.5H4.06266ZM2.7085 88.5H9.47933ZM10.8335 88.5H13.5418ZM14.896 88.5H47.396ZM48.7502 88.5H54.1668Z" fill="black"/>
<path d="M20.3127 1.5H21.6668M2.7085 84.5H4.06266M2.7085 88.5H9.47933M10.8335 88.5H13.5418M14.896 88.5H47.396M48.7502 88.5H54.1668" stroke="#272727"/>
<path d="M50.104 1.5H51.4582Z" fill="black"/>
<path d="M50.104 1.5H51.4582" stroke="#2A2A2A"/>
<path d="M59.5835 1.5H60.9377Z" fill="black"/>
<path d="M59.5835 1.5H60.9377" stroke="#282727"/>
<path d="M9.479 2.5H10.8332ZM9.479 3.5H12.1873ZM9.479 4.5H10.8332ZM54.1665 83.5H55.5207ZM54.1665 84.5H55.5207ZM54.1665 86.5H55.5207Z" fill="black"/>
<path d="M9.479 2.5H10.8332M9.479 3.5H12.1873M9.479 4.5H10.8332M54.1665 83.5H55.5207M54.1665 84.5H55.5207M54.1665 86.5H55.5207" stroke="#282626"/>
<path d="M10.8335 2.5H59.5835Z" fill="black"/>
<path d="M10.8335 2.5H59.5835" stroke="#0F0808"/>
<path d="M59.5835 2.5H60.9377Z" fill="black"/>
<path d="M59.5835 2.5H60.9377" stroke="#0F0807"/>
<path d="M60.9375 2.5H62.2917Z" fill="black"/>
<path d="M60.9375 2.5H62.2917" stroke="#272626"/>
<path d="M12.1877 3.5H13.5418ZM6.771 77.5H8.12516Z" fill="black"/>
<path d="M12.1877 3.5H13.5418M6.771 77.5H8.12516" stroke="#D5AA8B"/>
<path d="M13.5415 3.5H14.8957Z" fill="black"/>
<path d="M13.5415 3.5H14.8957" stroke="#D5AA8A"/>
<path d="M14.896 3.5H16.2502ZM18.9585 4.5H20.3127ZM6.771 65.5H8.12516ZM54.1668 65.5H55.521Z" fill="black"/>
<path d="M14.896 3.5H16.2502M18.9585 4.5H20.3127M6.771 65.5H8.12516M54.1668 65.5H55.521" stroke="#D6AA8F"/>
<path d="M16.2498 3.5H17.604ZM20.3123 3.5H21.6665ZM41.979 3.5H43.3332ZM44.6873 3.5H46.0415ZM47.3957 3.5H48.7498ZM58.229 4.5H59.5832ZM9.479 9.5H10.8332ZM9.479 11.5H10.8332ZM9.479 12.5H10.8332ZM9.479 13.5H10.8332ZM54.1665 20.5H55.5207ZM6.77067 21.5H8.12484ZM54.1665 21.5H55.5207ZM6.77067 22.5H8.12484ZM6.77067 23.5H8.12484ZM6.77067 24.5H8.12484ZM6.77067 25.5H8.12484ZM6.77067 26.5H8.12484ZM6.77067 27.5H8.12484ZM6.77067 30.5H9.479ZM6.77067 31.5H9.479ZM6.77067 32.5H9.479ZM6.77067 33.5H9.479ZM6.77067 34.5H9.479ZM6.77067 35.5H9.479ZM6.77067 36.5H9.479ZM6.77067 37.5H9.479ZM6.77067 38.5H9.479ZM6.77067 39.5H9.479ZM6.77067 40.5H9.479ZM6.77067 41.5H9.479ZM6.77067 42.5H9.479ZM6.77067 43.5H9.479ZM6.77067 44.5H9.479ZM6.77067 45.5H9.479ZM6.77067 46.5H9.479ZM6.77067 47.5H9.479ZM6.77067 48.5H9.479ZM6.77067 49.5H9.479ZM6.77067 50.5H9.479ZM6.77067 51.5H9.479ZM6.77067 52.5H9.479ZM6.77067 53.5H9.479ZM6.77067 54.5H9.479ZM6.77067 55.5H9.479ZM6.77067 56.5H9.479ZM6.77067 57.5H9.479ZM6.77067 58.5H9.479ZM6.77067 59.5H9.479ZM6.77067 60.5H9.479ZM6.77067 61.5H9.479ZM6.77067 62.5H9.479ZM6.77067 63.5H9.479ZM6.77067 64.5H9.479ZM6.77067 67.5H8.12484ZM6.77067 68.5H8.12484ZM54.1665 69.5H55.5207ZM6.77067 70.5H8.12484ZM6.77067 71.5H8.12484ZM52.8123 71.5H54.1665ZM6.77067 73.5H8.12484ZM54.1665 76.5H55.5207ZM54.1665 77.5H55.5207ZM54.1665 78.5H55.5207ZM6.77067 79.5H8.12484ZM54.1665 79.5H55.5207ZM5.4165 83.5H6.77067ZM5.4165 84.5H6.77067ZM8.12484 84.5H9.479ZM12.1873 84.5H13.5415ZM16.2498 84.5H17.604ZM36.5623 84.5H37.9165ZM8.12484 85.5H9.479ZM12.1873 85.5H13.5415ZM16.2498 85.5H17.604ZM20.3123 85.5H21.6665ZM24.3748 85.5H25.729ZM28.4373 85.5H29.7915ZM32.4998 85.5H33.854ZM36.5623 85.5H37.9165ZM44.6873 85.5H46.0415ZM9.479 86.5H43.3332ZM48.7498 86.5H50.104Z" fill="black"/>
<path d="M16.2498 3.5H17.604M20.3123 3.5H21.6665M41.979 3.5H43.3332M44.6873 3.5H46.0415M47.3957 3.5H48.7498M58.229 4.5H59.5832M9.479 9.5H10.8332M9.479 11.5H10.8332M9.479 12.5H10.8332M9.479 13.5H10.8332M54.1665 20.5H55.5207M6.77067 21.5H8.12484M54.1665 21.5H55.5207M6.77067 22.5H8.12484M6.77067 23.5H8.12484M6.77067 24.5H8.12484M6.77067 25.5H8.12484M6.77067 26.5H8.12484M6.77067 27.5H8.12484M6.77067 30.5H9.479M6.77067 31.5H9.479M6.77067 32.5H9.479M6.77067 33.5H9.479M6.77067 34.5H9.479M6.77067 35.5H9.479M6.77067 36.5H9.479M6.77067 37.5H9.479M6.77067 38.5H9.479M6.77067 39.5H9.479M6.77067 40.5H9.479M6.77067 41.5H9.479M6.77067 42.5H9.479M6.77067 43.5H9.479M6.77067 44.5H9.479M6.77067 45.5H9.479M6.77067 46.5H9.479M6.77067 47.5H9.479M6.77067 48.5H9.479M6.77067 49.5H9.479M6.77067 50.5H9.479M6.77067 51.5H9.479M6.77067 52.5H9.479M6.77067 53.5H9.479M6.77067 54.5H9.479M6.77067 55.5H9.479M6.77067 56.5H9.479M6.77067 57.5H9.479M6.77067 58.5H9.479M6.77067 59.5H9.479M6.77067 60.5H9.479M6.77067 61.5H9.479M6.77067 62.5H9.479M6.77067 63.5H9.479M6.77067 64.5H9.479M6.77067 67.5H8.12484M6.77067 68.5H8.12484M54.1665 69.5H55.5207M6.77067 70.5H8.12484M6.77067 71.5H8.12484M52.8123 71.5H54.1665M6.77067 73.5H8.12484M54.1665 76.5H55.5207M54.1665 77.5H55.5207M54.1665 78.5H55.5207M6.77067 79.5H8.12484M54.1665 79.5H55.5207M5.4165 83.5H6.77067M5.4165 84.5H6.77067M8.12484 84.5H9.479M12.1873 84.5H13.5415M16.2498 84.5H17.604M36.5623 84.5H37.9165M8.12484 85.5H9.479M12.1873 85.5H13.5415M16.2498 85.5H17.604M20.3123 85.5H21.6665M24.3748 85.5H25.729M28.4373 85.5H29.7915M32.4998 85.5H33.854M36.5623 85.5H37.9165M44.6873 85.5H46.0415M9.479 86.5H43.3332M48.7498 86.5H50.104" stroke="#D6AA8D"/>
<path d="M17.604 3.5H18.9582ZM54.1665 68.5H55.5207ZM9.479 73.5H10.8332ZM6.77067 80.5H8.12484ZM54.1665 81.5H55.5207ZM5.4165 85.5H6.77067ZM46.0415 86.5H47.3957ZM51.4582 86.5H54.1665Z" fill="black"/>
<path d="M17.604 3.5H18.9582M54.1665 68.5H55.5207M9.479 73.5H10.8332M6.77067 80.5H8.12484M54.1665 81.5H55.5207M5.4165 85.5H6.77067M46.0415 86.5H47.3957M51.4582 86.5H54.1665" stroke="#D6AA8B"/>
<path d="M18.9585 3.5H20.3127Z" fill="black"/>
<path d="M18.9585 3.5H20.3127" stroke="#D4AA8A"/>
<path d="M21.6665 3.5H41.979ZM24.3748 4.5H25.729ZM27.0832 4.5H28.4373ZM31.1457 4.5H32.4998ZM35.2082 4.5H36.5623ZM39.2707 4.5H40.6248ZM47.3957 4.5H48.7498ZM55.5207 4.5H56.8748ZM24.3748 5.5H25.729ZM47.3957 5.5H48.7498ZM51.4582 5.5H52.8123ZM55.5207 5.5H56.8748Z" fill="black"/>
<path d="M21.6665 3.5H41.979M24.3748 4.5H25.729M27.0832 4.5H28.4373M31.1457 4.5H32.4998M35.2082 4.5H36.5623M39.2707 4.5H40.6248M47.3957 4.5H48.7498M55.5207 4.5H56.8748M24.3748 5.5H25.729M47.3957 5.5H48.7498M51.4582 5.5H52.8123M55.5207 5.5H56.8748" stroke="#D6A98F"/>
<path d="M43.3335 3.5H44.6877ZM58.2293 5.5H59.5835ZM58.2293 6.5H59.5835ZM52.8127 24.5H54.1668Z" fill="black"/>
<path d="M43.3335 3.5H44.6877M58.2293 5.5H59.5835M58.2293 6.5H59.5835M52.8127 24.5H54.1668" stroke="#D7AA8D"/>
<path d="M46.0415 3.5H47.3957ZM52.8123 23.5H54.1665Z" fill="black"/>
<path d="M46.0415 3.5H47.3957M52.8123 23.5H54.1665" stroke="#D7AA8C"/>
<path d="M48.7498 3.5H50.104ZM52.8123 3.5H54.1665ZM56.8748 8.5H58.229ZM56.8748 11.5H58.229ZM56.8748 12.5H58.229ZM56.8748 13.5H58.229ZM6.77067 19.5H8.12484ZM54.1665 25.5H55.5207ZM6.77067 78.5H8.12484ZM5.4165 86.5H6.77067Z" fill="black"/>
<path d="M48.7498 3.5H50.104M52.8123 3.5H54.1665M56.8748 8.5H58.229M56.8748 11.5H58.229M56.8748 12.5H58.229M56.8748 13.5H58.229M6.77067 19.5H8.12484M54.1665 25.5H55.5207M6.77067 78.5H8.12484M5.4165 86.5H6.77067" stroke="#D5AA8D"/>
<path d="M50.104 3.5H51.4582Z" fill="black"/>
<path d="M50.104 3.5H51.4582" stroke="#D5AB8F"/>
<path d="M51.4585 3.5H52.8127ZM54.1668 80.5H55.521Z" fill="black"/>
<path d="M51.4585 3.5H52.8127M54.1668 80.5H55.521" stroke="#D5A98C"/>
<path d="M54.1668 3.5H55.521ZM9.47933 8.5H10.8335ZM54.1668 16.5H55.521ZM54.1668 17.5H55.521ZM6.771 18.5H8.12516ZM54.1668 18.5H55.521ZM54.1668 19.5H55.521ZM54.1668 27.5H55.521ZM54.1668 28.5H55.521ZM54.1668 29.5H55.521ZM54.1668 30.5H55.521ZM54.1668 31.5H55.521ZM54.1668 32.5H55.521ZM54.1668 33.5H55.521ZM54.1668 34.5H55.521ZM54.1668 35.5H55.521ZM54.1668 36.5H55.521ZM54.1668 37.5H55.521ZM54.1668 38.5H55.521ZM54.1668 39.5H55.521ZM54.1668 40.5H55.521ZM54.1668 41.5H55.521ZM54.1668 42.5H55.521ZM54.1668 43.5H55.521ZM54.1668 44.5H55.521ZM54.1668 45.5H55.521ZM54.1668 46.5H55.521ZM54.1668 47.5H55.521ZM54.1668 48.5H55.521ZM54.1668 49.5H55.521ZM54.1668 50.5H55.521ZM54.1668 51.5H55.521ZM54.1668 52.5H55.521ZM54.1668 53.5H55.521ZM54.1668 54.5H55.521ZM54.1668 55.5H55.521ZM54.1668 56.5H55.521ZM54.1668 57.5H55.521ZM54.1668 58.5H55.521ZM54.1668 59.5H55.521ZM54.1668 60.5H55.521ZM54.1668 61.5H55.521ZM54.1668 62.5H55.521ZM54.1668 63.5H55.521ZM54.1668 64.5H55.521ZM54.1668 71.5H55.521ZM43.3335 86.5H46.0418Z" fill="black"/>
<path d="M54.1668 3.5H55.521M9.47933 8.5H10.8335M54.1668 16.5H55.521M54.1668 17.5H55.521M6.771 18.5H8.12516M54.1668 18.5H55.521M54.1668 19.5H55.521M54.1668 27.5H55.521M54.1668 28.5H55.521M54.1668 29.5H55.521M54.1668 30.5H55.521M54.1668 31.5H55.521M54.1668 32.5H55.521M54.1668 33.5H55.521M54.1668 34.5H55.521M54.1668 35.5H55.521M54.1668 36.5H55.521M54.1668 37.5H55.521M54.1668 38.5H55.521M54.1668 39.5H55.521M54.1668 40.5H55.521M54.1668 41.5H55.521M54.1668 42.5H55.521M54.1668 43.5H55.521M54.1668 44.5H55.521M54.1668 45.5H55.521M54.1668 46.5H55.521M54.1668 47.5H55.521M54.1668 48.5H55.521M54.1668 49.5H55.521M54.1668 50.5H55.521M54.1668 51.5H55.521M54.1668 52.5H55.521M54.1668 53.5H55.521M54.1668 54.5H55.521M54.1668 55.5H55.521M54.1668 56.5H55.521M54.1668 57.5H55.521M54.1668 58.5H55.521M54.1668 59.5H55.521M54.1668 60.5H55.521M54.1668 61.5H55.521M54.1668 62.5H55.521M54.1668 63.5H55.521M54.1668 64.5H55.521M54.1668 71.5H55.521M43.3335 86.5H46.0418" stroke="#D4AA8D"/>
<path d="M55.521 3.5H56.8752Z" fill="black"/>
<path d="M55.521 3.5H56.8752" stroke="#D3AA8C"/>
<path d="M56.875 3.5H58.2292Z" fill="black"/>
<path d="M56.875 3.5H58.2292" stroke="#D4AB8E"/>
<path d="M58.2293 3.5H59.5835ZM54.1668 9.5H55.521ZM6.771 72.5H8.12516ZM6.771 86.5H8.12516ZM47.396 86.5H48.7502Z" fill="black"/>
<path d="M58.2293 3.5H59.5835M54.1668 9.5H55.521M6.771 72.5H8.12516M6.771 86.5H8.12516M47.396 86.5H48.7502" stroke="#D6AA8C"/>
<path d="M59.5835 3.5H60.9377ZM6.771 16.5H8.12516ZM6.771 17.5H8.12516ZM6.771 20.5H8.12516ZM52.8127 21.5H54.1668ZM6.771 28.5H8.12516Z" fill="black"/>
<path d="M59.5835 3.5H60.9377M6.771 16.5H8.12516M6.771 17.5H8.12516M6.771 20.5H8.12516M52.8127 21.5H54.1668M6.771 28.5H8.12516" stroke="#D6AA8E"/>
<path d="M60.9375 3.5H62.2917Z" fill="black"/>
<path d="M60.9375 3.5H62.2917" stroke="#282827"/>
<path d="M10.8335 4.5H12.1877ZM10.8335 6.5H12.1877ZM52.8127 84.5H54.1668Z" fill="black"/>
<path d="M10.8335 4.5H12.1877M10.8335 6.5H12.1877M52.8127 84.5H54.1668" stroke="#D4AB89"/>
<path d="M12.1875 4.5H13.5417Z" fill="black"/>
<path d="M12.1875 4.5H13.5417" stroke="#D7B798"/>
<path d="M13.5415 4.5H14.8957ZM44.6873 83.5H46.0415Z" fill="black"/>
<path d="M13.5415 4.5H14.8957M44.6873 83.5H46.0415" stroke="#F9E6CB"/>
<path d="M14.896 4.5H16.2502ZM23.021 4.5H24.3752ZM43.3335 4.5H44.6877ZM43.3335 5.5H44.6877ZM48.7502 85.5H50.1043Z" fill="black"/>
<path d="M14.896 4.5H16.2502M23.021 4.5H24.3752M43.3335 4.5H44.6877M43.3335 5.5H44.6877M48.7502 85.5H50.1043" stroke="#D6AB8B"/>
<path d="M16.25 4.5H17.6042Z" fill="black"/>
<path d="M16.25 4.5H17.6042" stroke="#DCB99A"/>
<path d="M17.604 4.5H18.9582ZM52.8123 75.5H54.1665ZM17.604 83.5H18.9582ZM50.104 85.5H51.4582Z" fill="black"/>
<path d="M17.604 4.5H18.9582M52.8123 75.5H54.1665M17.604 83.5H18.9582M50.104 85.5H51.4582" stroke="#F8E7CB"/>
<path d="M20.3125 4.5H21.6667Z" fill="black"/>
<path d="M20.3125 4.5H21.6667" stroke="#DEBEA1"/>
<path d="M21.6665 4.5H23.0207ZM13.5415 83.5H14.8957Z" fill="black"/>
<path d="M21.6665 4.5H23.0207M13.5415 83.5H14.8957" stroke="#F8E6CB"/>
<path d="M25.7293 4.5H27.0835ZM29.7918 4.5H31.146ZM33.8543 4.5H35.2085ZM37.9168 4.5H39.271ZM41.9793 4.5H43.3335ZM46.0418 4.5H47.396ZM50.1043 4.5H51.4585ZM54.1668 4.5H55.521ZM25.7293 5.5H27.0835ZM29.7918 5.5H31.146ZM33.8543 5.5H35.2085ZM37.9168 5.5H39.271ZM41.9793 5.5H43.3335ZM46.0418 5.5H47.396ZM50.1043 5.5H51.4585ZM54.1668 5.5H55.521ZM24.3752 6.5H43.3335ZM44.6877 6.5H46.0418ZM51.4585 6.5H54.1668ZM56.8752 6.5H58.2293ZM14.896 7.5H52.8127ZM54.1668 7.5H55.521ZM10.8335 8.5H54.1668ZM10.8335 9.5H52.8127ZM10.8335 10.5H52.8127ZM10.8335 11.5H55.521ZM10.8335 12.5H55.521ZM10.8335 13.5H55.521ZM12.1877 14.5H52.8127ZM12.1877 15.5H52.8127ZM9.47933 16.5H54.1668ZM9.47933 17.5H54.1668ZM9.47933 18.5H54.1668ZM9.47933 19.5H54.1668ZM9.47933 20.5H51.4585ZM9.47933 21.5H51.4585ZM9.47933 22.5H51.4585ZM9.47933 23.5H51.4585ZM9.47933 24.5H51.4585ZM9.47933 25.5H54.1668ZM9.47933 26.5H54.1668ZM9.47933 27.5H13.5418ZM23.021 27.5H24.3752ZM39.271 27.5H40.6252ZM51.4585 27.5H54.1668ZM9.47933 28.5H12.1877ZM13.5418 28.5H54.1668ZM9.47933 29.5H13.5418ZM33.8543 29.5H35.2085ZM51.4585 29.5H54.1668ZM9.47933 30.5H54.1668ZM9.47933 31.5H13.5418ZM23.021 31.5H24.3752ZM27.0835 31.5H28.4377ZM39.271 31.5H40.6252ZM51.4585 31.5H54.1668ZM9.47933 32.5H54.1668ZM9.47933 33.5H13.5418ZM31.146 33.5H32.5002ZM48.7502 33.5H50.1043ZM51.4585 33.5H54.1668ZM9.47933 34.5H54.1668ZM9.47933 35.5H54.1668ZM9.47933 36.5H37.9168ZM40.6252 36.5H54.1668ZM9.47933 37.5H23.021ZM24.3752 37.5H29.7918ZM33.8543 37.5H37.9168ZM41.9793 37.5H54.1668ZM9.47933 38.5H21.6668ZM24.3752 38.5H29.7918ZM43.3335 38.5H54.1668ZM9.47933 39.5H17.6043ZM18.9585 39.5H20.3127ZM24.3752 39.5H31.146ZM43.3335 39.5H54.1668ZM9.47933 40.5H16.2502ZM18.9585 40.5H20.3127ZM24.3752 40.5H32.5002ZM46.0418 40.5H54.1668ZM9.47933 41.5H16.2502ZM24.3752 41.5H33.8543ZM46.0418 41.5H54.1668ZM9.47933 42.5H14.896ZM24.3752 42.5H33.8543ZM46.0418 42.5H54.1668ZM9.47933 43.5H14.896ZM27.0835 43.5H31.146ZM48.7502 43.5H54.1668ZM9.47933 44.5H14.896ZM47.396 44.5H54.1668ZM9.47933 45.5H14.896ZM46.0418 45.5H54.1668ZM9.47933 46.5H14.896ZM46.0418 46.5H54.1668ZM9.47933 47.5H14.896ZM46.0418 47.5H54.1668ZM9.47933 48.5H16.2502ZM46.0418 48.5H54.1668ZM9.47933 49.5H16.2502ZM46.0418 49.5H54.1668ZM9.47933 50.5H16.2502ZM44.6877 50.5H54.1668ZM9.47933 51.5H17.6043ZM43.3335 51.5H54.1668ZM9.47933 52.5H18.9585ZM43.3335 52.5H54.1668ZM9.47933 53.5H21.6668ZM41.9793 53.5H54.1668ZM9.47933 54.5H23.021ZM37.9168 54.5H54.1668ZM9.47933 55.5H27.0835ZM37.9168 55.5H54.1668ZM9.47933 56.5H28.4377ZM33.8543 56.5H54.1668ZM9.47933 57.5H54.1668ZM9.47933 58.5H54.1668ZM9.47933 59.5H54.1668ZM9.47933 60.5H12.1877ZM31.146 60.5H36.5627ZM46.0418 60.5H47.396ZM48.7502 60.5H54.1668ZM9.47933 61.5H12.1877ZM21.6668 61.5H24.3752ZM27.0835 61.5H28.4377ZM31.146 61.5H32.5002ZM43.3335 61.5H47.396ZM48.7502 61.5H54.1668ZM9.47933 62.5H54.1668ZM9.47933 63.5H12.1877ZM41.9793 63.5H43.3335ZM48.7502 63.5H54.1668ZM9.47933 64.5H13.5418ZM23.021 64.5H25.7293ZM27.0835 64.5H28.4377ZM36.5627 64.5H39.271ZM41.9793 64.5H43.3335ZM48.7502 64.5H54.1668ZM9.47933 65.5H52.8127ZM9.47933 66.5H52.8127ZM9.47933 67.5H54.1668ZM9.47933 68.5H54.1668ZM9.47933 69.5H54.1668ZM9.47933 70.5H52.8127ZM9.47933 71.5H51.4585ZM12.1877 72.5H51.4585ZM12.1877 73.5H51.4585ZM12.1877 74.5H52.8127ZM12.1877 75.5H52.8127ZM9.47933 76.5H52.8127ZM9.47933 77.5H52.8127ZM9.47933 78.5H54.1668ZM9.47933 79.5H54.1668ZM9.47933 80.5H52.8127ZM9.47933 81.5H50.1043ZM51.4585 81.5H52.8127ZM9.47933 82.5H50.1043ZM6.771 83.5H8.12516ZM14.896 83.5H16.2502ZM18.9585 83.5H20.3127ZM21.6668 83.5H40.6252ZM9.47933 84.5H10.8335ZM13.5418 84.5H14.896ZM17.6043 84.5H18.9585ZM21.6668 84.5H23.021ZM25.7293 84.5H27.0835ZM29.7918 84.5H31.146ZM33.8543 84.5H35.2085ZM37.9168 84.5H39.271ZM9.47933 85.5H10.8335ZM13.5418 85.5H14.896ZM17.6043 85.5H18.9585ZM21.6668 85.5H23.021ZM25.7293 85.5H27.0835ZM29.7918 85.5H31.146ZM33.8543 85.5H35.2085ZM37.9168 85.5H39.271Z" fill="black"/>
<path d="M25.7293 4.5H27.0835M29.7918 4.5H31.146M33.8543 4.5H35.2085M37.9168 4.5H39.271M41.9793 4.5H43.3335M46.0418 4.5H47.396M50.1043 4.5H51.4585M54.1668 4.5H55.521M25.7293 5.5H27.0835M29.7918 5.5H31.146M33.8543 5.5H35.2085M37.9168 5.5H39.271M41.9793 5.5H43.3335M46.0418 5.5H47.396M50.1043 5.5H51.4585M54.1668 5.5H55.521M24.3752 6.5H43.3335M44.6877 6.5H46.0418M51.4585 6.5H54.1668M56.8752 6.5H58.2293M14.896 7.5H52.8127M54.1668 7.5H55.521M10.8335 8.5H54.1668M10.8335 9.5H52.8127M10.8335 10.5H52.8127M10.8335 11.5H55.521M10.8335 12.5H55.521M10.8335 13.5H55.521M12.1877 14.5H52.8127M12.1877 15.5H52.8127M9.47933 16.5H54.1668M9.47933 17.5H54.1668M9.47933 18.5H54.1668M9.47933 19.5H54.1668M9.47933 20.5H51.4585M9.47933 21.5H51.4585M9.47933 22.5H51.4585M9.47933 23.5H51.4585M9.47933 24.5H51.4585M9.47933 25.5H54.1668M9.47933 26.5H54.1668M9.47933 27.5H13.5418M23.021 27.5H24.3752M39.271 27.5H40.6252M51.4585 27.5H54.1668M9.47933 28.5H12.1877M13.5418 28.5H54.1668M9.47933 29.5H13.5418M33.8543 29.5H35.2085M51.4585 29.5H54.1668M9.47933 30.5H54.1668M9.47933 31.5H13.5418M23.021 31.5H24.3752M27.0835 31.5H28.4377M39.271 31.5H40.6252M51.4585 31.5H54.1668M9.47933 32.5H54.1668M9.47933 33.5H13.5418M31.146 33.5H32.5002M48.7502 33.5H50.1043M51.4585 33.5H54.1668M9.47933 34.5H54.1668M9.47933 35.5H54.1668M9.47933 36.5H37.9168M40.6252 36.5H54.1668M9.47933 37.5H23.021M24.3752 37.5H29.7918M33.8543 37.5H37.9168M41.9793 37.5H54.1668M9.47933 38.5H21.6668M24.3752 38.5H29.7918M43.3335 38.5H54.1668M9.47933 39.5H17.6043M18.9585 39.5H20.3127M24.3752 39.5H31.146M43.3335 39.5H54.1668M9.47933 40.5H16.2502M18.9585 40.5H20.3127M24.3752 40.5H32.5002M46.0418 40.5H54.1668M9.47933 41.5H16.2502M24.3752 41.5H33.8543M46.0418 41.5H54.1668M9.47933 42.5H14.896M24.3752 42.5H33.8543M46.0418 42.5H54.1668M9.47933 43.5H14.896M27.0835 43.5H31.146M48.7502 43.5H54.1668M9.47933 44.5H14.896M47.396 44.5H54.1668M9.47933 45.5H14.896M46.0418 45.5H54.1668M9.47933 46.5H14.896M46.0418 46.5H54.1668M9.47933 47.5H14.896M46.0418 47.5H54.1668M9.47933 48.5H16.2502M46.0418 48.5H54.1668M9.47933 49.5H16.2502M46.0418 49.5H54.1668M9.47933 50.5H16.2502M44.6877 50.5H54.1668M9.47933 51.5H17.6043M43.3335 51.5H54.1668M9.47933 52.5H18.9585M43.3335 52.5H54.1668M9.47933 53.5H21.6668M41.9793 53.5H54.1668M9.47933 54.5H23.021M37.9168 54.5H54.1668M9.47933 55.5H27.0835M37.9168 55.5H54.1668M9.47933 56.5H28.4377M33.8543 56.5H54.1668M9.47933 57.5H54.1668M9.47933 58.5H54.1668M9.47933 59.5H54.1668M9.47933 60.5H12.1877M31.146 60.5H36.5627M46.0418 60.5H47.396M48.7502 60.5H54.1668M9.47933 61.5H12.1877M21.6668 61.5H24.3752M27.0835 61.5H28.4377M31.146 61.5H32.5002M43.3335 61.5H47.396M48.7502 61.5H54.1668M9.47933 62.5H54.1668M9.47933 63.5H12.1877M41.9793 63.5H43.3335M48.7502 63.5H54.1668M9.47933 64.5H13.5418M23.021 64.5H25.7293M27.0835 64.5H28.4377M36.5627 64.5H39.271M41.9793 64.5H43.3335M48.7502 64.5H54.1668M9.47933 65.5H52.8127M9.47933 66.5H52.8127M9.47933 67.5H54.1668M9.47933 68.5H54.1668M9.47933 69.5H54.1668M9.47933 70.5H52.8127M9.47933 71.5H51.4585M12.1877 72.5H51.4585M12.1877 73.5H51.4585M12.1877 74.5H52.8127M12.1877 75.5H52.8127M9.47933 76.5H52.8127M9.47933 77.5H52.8127M9.47933 78.5H54.1668M9.47933 79.5H54.1668M9.47933 80.5H52.8127M9.47933 81.5H50.1043M51.4585 81.5H52.8127M9.47933 82.5H50.1043M6.771 83.5H8.12516M14.896 83.5H16.2502M18.9585 83.5H20.3127M21.6668 83.5H40.6252M9.47933 84.5H10.8335M13.5418 84.5H14.896M17.6043 84.5H18.9585M21.6668 84.5H23.021M25.7293 84.5H27.0835M29.7918 84.5H31.146M33.8543 84.5H35.2085M37.9168 84.5H39.271M9.47933 85.5H10.8335M13.5418 85.5H14.896M17.6043 85.5H18.9585M21.6668 85.5H23.021M25.7293 85.5H27.0835M29.7918 85.5H31.146M33.8543 85.5H35.2085M37.9168 85.5H39.271" stroke="#F8E7CD"/>
<path d="M28.4377 4.5H29.7918ZM36.5627 4.5H37.9168ZM51.4585 4.5H52.8127ZM28.4377 5.5H29.7918ZM32.5002 5.5H33.8543ZM36.5627 5.5H37.9168ZM40.6252 5.5H41.9793ZM44.6877 5.5H46.0418ZM48.7502 5.5H50.1043ZM52.8127 5.5H54.1668ZM56.8752 5.5H58.2293ZM6.771 84.5H8.12516ZM10.8335 84.5H12.1877ZM31.146 84.5H32.5002ZM6.771 85.5H8.12516ZM10.8335 85.5H12.1877ZM14.896 85.5H16.2502ZM18.9585 85.5H20.3127ZM23.021 85.5H24.3752ZM27.0835 85.5H28.4377ZM31.146 85.5H32.5002ZM35.2085 85.5H36.5627ZM39.271 85.5H40.6252ZM43.3335 85.5H44.6877Z" fill="black"/>
<path d="M28.4377 4.5H29.7918M36.5627 4.5H37.9168M51.4585 4.5H52.8127M28.4377 5.5H29.7918M32.5002 5.5H33.8543M36.5627 5.5H37.9168M40.6252 5.5H41.9793M44.6877 5.5H46.0418M48.7502 5.5H50.1043M52.8127 5.5H54.1668M56.8752 5.5H58.2293M6.771 84.5H8.12516M10.8335 84.5H12.1877M31.146 84.5H32.5002M6.771 85.5H8.12516M10.8335 85.5H12.1877M14.896 85.5H16.2502M18.9585 85.5H20.3127M23.021 85.5H24.3752M27.0835 85.5H28.4377M31.146 85.5H32.5002M35.2085 85.5H36.5627M39.271 85.5H40.6252M43.3335 85.5H44.6877" stroke="#E0C1A3"/>
<path d="M32.5002 4.5H33.8543ZM40.6252 4.5H41.9793ZM44.6877 4.5H46.0418ZM48.7502 4.5H50.1043ZM52.8127 4.5H54.1668ZM56.8752 4.5H58.2293ZM14.896 84.5H16.2502ZM18.9585 84.5H20.3127Z" fill="black"/>
<path d="M32.5002 4.5H33.8543M40.6252 4.5H41.9793M44.6877 4.5H46.0418M48.7502 4.5H50.1043M52.8127 4.5H54.1668M56.8752 4.5H58.2293M14.896 84.5H16.2502M18.9585 84.5H20.3127" stroke="#E6CBAE"/>
<path d="M59.5835 4.5H60.9377Z" fill="black"/>
<path d="M59.5835 4.5H60.9377" stroke="#55463C"/>
<path d="M60.9375 4.5H62.2917Z" fill="black"/>
<path d="M60.9375 4.5H62.2917" stroke="#2A2627"/>
<path d="M8.125 5.5H9.47917ZM8.125 6.5H9.47917ZM55.5208 82.5H56.875ZM55.5208 83.5H56.875ZM55.5208 84.5H56.875ZM55.5208 85.5H56.875ZM55.5208 86.5H56.875ZM55.5208 87.5H56.875Z" fill="black"/>
<path d="M8.125 5.5H9.47917M8.125 6.5H9.47917M55.5208 82.5H56.875M55.5208 83.5H56.875M55.5208 84.5H56.875M55.5208 85.5H56.875M55.5208 86.5H56.875M55.5208 87.5H56.875" stroke="#3F352E"/>
<path d="M9.479 5.5H10.8332ZM5.4165 68.5H6.77067Z" fill="black"/>
<path d="M9.479 5.5H10.8332M5.4165 68.5H6.77067" stroke="#292827"/>
<path d="M10.8335 5.5H12.1877Z" fill="black"/>
<path d="M10.8335 5.5H12.1877" stroke="#D6AC8A"/>
<path d="M12.1875 5.5H13.5417ZM51.4583 83.5H52.8125Z" fill="black"/>
<path d="M12.1875 5.5H13.5417M51.4583 83.5H52.8125" stroke="#DAB699"/>
<path d="M13.5415 5.5H14.8957ZM17.604 5.5H18.9582ZM13.5415 6.5H14.8957ZM23.0207 6.5H24.3748ZM43.3332 6.5H44.6873ZM55.5207 6.5H56.8748ZM12.1873 7.5H13.5415ZM9.479 15.5H10.8332ZM52.8123 70.5H54.1665ZM51.4582 73.5H54.1665ZM10.8332 74.5H12.1873ZM47.3957 83.5H48.7498ZM50.104 83.5H51.4582ZM50.104 84.5H51.4582Z" fill="black"/>
<path d="M13.5415 5.5H14.8957M17.604 5.5H18.9582M13.5415 6.5H14.8957M23.0207 6.5H24.3748M43.3332 6.5H44.6873M55.5207 6.5H56.8748M12.1873 7.5H13.5415M9.479 15.5H10.8332M52.8123 70.5H54.1665M51.4582 73.5H54.1665M10.8332 74.5H12.1873M47.3957 83.5H48.7498M50.104 83.5H51.4582M50.104 84.5H51.4582" stroke="#F7E7CD"/>
<path d="M14.896 5.5H16.2502ZM27.0835 5.5H28.4377ZM31.146 5.5H32.5002ZM35.2085 5.5H36.5627ZM39.271 5.5H40.6252ZM20.3127 84.5H21.6668ZM24.3752 84.5H25.7293ZM28.4377 84.5H29.7918ZM32.5002 84.5H33.8543Z" fill="black"/>
<path d="M14.896 5.5H16.2502M27.0835 5.5H28.4377M31.146 5.5H32.5002M35.2085 5.5H36.5627M39.271 5.5H40.6252M20.3127 84.5H21.6668M24.3752 84.5H25.7293M28.4377 84.5H29.7918M32.5002 84.5H33.8543" stroke="#CDA989"/>
<path d="M16.25 5.5H17.6042Z" fill="black"/>
<path d="M16.25 5.5H17.6042" stroke="#D2B497"/>
<path d="M18.9585 5.5H20.3127ZM23.021 5.5H24.3752Z" fill="black"/>
<path d="M18.9585 5.5H20.3127M23.021 5.5H24.3752" stroke="#CEA98C"/>
<path d="M20.3125 5.5H21.6667ZM23.0208 84.5H24.375ZM27.0833 84.5H28.4375ZM35.2083 84.5H36.5625ZM39.2708 84.5H40.625ZM43.3333 84.5H44.6875Z" fill="black"/>
<path d="M20.3125 5.5H21.6667M23.0208 84.5H24.375M27.0833 84.5H28.4375M35.2083 84.5H36.5625M39.2708 84.5H40.625M43.3333 84.5H44.6875" stroke="#DCBDA3"/>
<path d="M21.6665 5.5H23.0207Z" fill="black"/>
<path d="M21.6665 5.5H23.0207" stroke="#FBE6CE"/>
<path d="M59.5835 5.5H60.9377Z" fill="black"/>
<path d="M59.5835 5.5H60.9377" stroke="#534639"/>
<path d="M9.479 6.5H10.8332ZM5.4165 22.5H6.77067Z" fill="black"/>
<path d="M9.479 6.5H10.8332M5.4165 22.5H6.77067" stroke="#292828"/>
<path d="M12.1875 6.5H13.5417ZM51.4583 84.5H52.8125Z" fill="black"/>
<path d="M12.1875 6.5H13.5417M51.4583 84.5H52.8125" stroke="#D9B699"/>
<path d="M14.8957 6.5H21.6665ZM47.3957 6.5H50.104ZM10.8332 15.5H12.1873ZM52.8123 65.5H54.1665ZM52.8123 66.5H54.1665ZM52.8123 74.5H54.1665ZM10.8332 75.5H12.1873ZM52.8123 76.5H54.1665ZM52.8123 77.5H54.1665ZM52.8123 80.5H54.1665ZM50.104 82.5H51.4582ZM9.479 83.5H12.1873Z" fill="black"/>
<path d="M14.8957 6.5H21.6665M47.3957 6.5H50.104M10.8332 15.5H12.1873M52.8123 65.5H54.1665M52.8123 66.5H54.1665M52.8123 74.5H54.1665M10.8332 75.5H12.1873M52.8123 76.5H54.1665M52.8123 77.5H54.1665M52.8123 80.5H54.1665M50.104 82.5H51.4582M9.479 83.5H12.1873" stroke="#F8E6CD"/>
<path d="M21.6665 6.5H23.0207Z" fill="black"/>
<path d="M21.6665 6.5H23.0207" stroke="#F7E7CB"/>
<path d="M46.0415 6.5H47.3957ZM50.104 6.5H51.4582ZM54.1665 6.5H55.5207ZM52.8123 7.5H54.1665ZM52.8123 15.5H54.1665Z" fill="black"/>
<path d="M46.0415 6.5H47.3957M50.104 6.5H51.4582M54.1665 6.5H55.5207M52.8123 7.5H54.1665M52.8123 15.5H54.1665" stroke="#F7E6CD"/>
<path d="M59.5835 6.5H60.9377Z" fill="black"/>
<path d="M59.5835 6.5H60.9377" stroke="#524538"/>
<path d="M6.77067 7.5H8.12484ZM5.4165 73.5H6.77067Z" fill="black"/>
<path d="M6.77067 7.5H8.12484M5.4165 73.5H6.77067" stroke="#282826"/>
<path d="M8.125 7.5H9.47917Z" fill="black"/>
<path d="M8.125 7.5H9.47917" stroke="#41382C"/>
<path d="M9.47933 7.5H10.8335ZM6.771 66.5H8.12516ZM54.1668 66.5H55.521Z" fill="black"/>
<path d="M9.47933 7.5H10.8335M6.771 66.5H8.12516M54.1668 66.5H55.521" stroke="#D6AB89"/>
<path d="M10.8335 7.5H12.1877ZM54.1668 10.5H55.521Z" fill="black"/>
<path d="M10.8335 7.5H12.1877M54.1668 10.5H55.521" stroke="#F7E6CC"/>
<path d="M13.5417 7.5H14.8958ZM12.1875 28.5H13.5417Z" fill="black"/>
<path d="M13.5417 7.5H14.8958M12.1875 28.5H13.5417" stroke="#FAE6CD"/>
<path d="M55.521 7.5H56.8752Z" fill="black"/>
<path d="M55.521 7.5H56.8752" stroke="#DCBD9F"/>
<path d="M56.875 7.5H58.2292Z" fill="black"/>
<path d="M56.875 7.5H58.2292" stroke="#D7A988"/>
<path d="M58.2293 7.5H59.5835ZM56.8752 16.5H58.2293ZM56.8752 17.5H58.2293ZM56.8752 18.5H58.2293ZM5.41683 19.5H6.771ZM56.8752 19.5H58.2293ZM56.8752 20.5H58.2293ZM56.8752 21.5H58.2293ZM56.8752 24.5H58.2293ZM56.8752 27.5H58.2293ZM56.8752 28.5H58.2293ZM56.8752 64.5H58.2293ZM56.8752 65.5H58.2293ZM56.8752 67.5H58.2293ZM56.8752 68.5H58.2293ZM56.8752 70.5H58.2293ZM56.8752 71.5H58.2293ZM56.8752 72.5H58.2293ZM56.8752 73.5H58.2293ZM2.7085 86.5H4.06266Z" fill="black"/>
<path d="M58.2293 7.5H59.5835M56.8752 16.5H58.2293M56.8752 17.5H58.2293M56.8752 18.5H58.2293M5.41683 19.5H6.771M56.8752 19.5H58.2293M56.8752 20.5H58.2293M56.8752 21.5H58.2293M56.8752 24.5H58.2293M56.8752 27.5H58.2293M56.8752 28.5H58.2293M56.8752 64.5H58.2293M56.8752 65.5H58.2293M56.8752 67.5H58.2293M56.8752 68.5H58.2293M56.8752 70.5H58.2293M56.8752 71.5H58.2293M56.8752 72.5H58.2293M56.8752 73.5H58.2293M2.7085 86.5H4.06266" stroke="#282728"/>
<path d="M6.771 8.5H8.12516Z" fill="black"/>
<path d="M6.771 8.5H8.12516" stroke="#282A27"/>
<path d="M8.125 8.5H9.47917Z" fill="black"/>
<path d="M8.125 8.5H9.47917" stroke="#413831"/>
<path d="M54.1665 8.5H55.5207Z" fill="black"/>
<path d="M54.1665 8.5H55.5207" stroke="#FFE6CD"/>
<path d="M55.5208 8.5H56.875ZM8.125 82.5H9.47917Z" fill="black"/>
<path d="M55.5208 8.5H56.875M8.125 82.5H9.47917" stroke="#DCBCA0"/>
<path d="M58.229 8.5H59.5832ZM56.8748 25.5H58.229ZM56.8748 26.5H58.229ZM56.8748 29.5H58.229ZM56.8748 66.5H58.229ZM5.4165 69.5H6.77067Z" fill="black"/>
<path d="M58.229 8.5H59.5832M56.8748 25.5H58.229M56.8748 26.5H58.229M56.8748 29.5H58.229M56.8748 66.5H58.229M5.4165 69.5H6.77067" stroke="#292829"/>
<path d="M6.771 9.5H8.12516ZM6.771 10.5H8.12516ZM6.771 11.5H8.12516ZM6.771 12.5H8.12516ZM6.771 13.5H8.12516ZM56.8752 76.5H58.2293ZM56.8752 77.5H58.2293ZM56.8752 78.5H58.2293ZM56.8752 79.5H58.2293Z" fill="black"/>
<path d="M6.771 9.5H8.12516M6.771 10.5H8.12516M6.771 11.5H8.12516M6.771 12.5H8.12516M6.771 13.5H8.12516M56.8752 76.5H58.2293M56.8752 77.5H58.2293M56.8752 78.5H58.2293M56.8752 79.5H58.2293" stroke="#28292B"/>
<path d="M8.125 9.5H9.47917ZM8.125 10.5H9.47917ZM55.5208 78.5H56.875Z" fill="black"/>
<path d="M8.125 9.5H9.47917M8.125 10.5H9.47917M55.5208 78.5H56.875" stroke="#413732"/>
<path d="M52.8125 9.5H54.1667Z" fill="black"/>
<path d="M52.8125 9.5H54.1667" stroke="#F6E7CD"/>
<path d="M55.521 9.5H56.8752Z" fill="black"/>
<path d="M55.521 9.5H56.8752" stroke="#D6A98E"/>
<path d="M56.875 9.5H58.2292ZM4.0625 86.5H5.41667Z" fill="black"/>
<path d="M56.875 9.5H58.2292M4.0625 86.5H5.41667" stroke="#D5AA8C"/>
<path d="M58.229 9.5H59.5832ZM58.229 10.5H59.5832ZM58.229 11.5H59.5832ZM58.229 12.5H59.5832ZM58.229 13.5H59.5832ZM5.4165 16.5H6.77067ZM5.4165 17.5H6.77067ZM5.4165 20.5H6.77067ZM5.4165 21.5H6.77067ZM5.4165 24.5H6.77067ZM5.4165 25.5H6.77067ZM5.4165 27.5H6.77067ZM5.4165 28.5H6.77067ZM5.4165 64.5H6.77067ZM5.4165 67.5H6.77067ZM5.4165 70.5H6.77067ZM5.4165 71.5H6.77067ZM5.4165 72.5H6.77067ZM5.4165 77.5H6.77067ZM5.4165 78.5H6.77067ZM5.4165 79.5H6.77067Z" fill="black"/>
<path d="M58.229 9.5H59.5832M58.229 10.5H59.5832M58.229 11.5H59.5832M58.229 12.5H59.5832M58.229 13.5H59.5832M5.4165 16.5H6.77067M5.4165 17.5H6.77067M5.4165 20.5H6.77067M5.4165 21.5H6.77067M5.4165 24.5H6.77067M5.4165 25.5H6.77067M5.4165 27.5H6.77067M5.4165 28.5H6.77067M5.4165 64.5H6.77067M5.4165 67.5H6.77067M5.4165 70.5H6.77067M5.4165 71.5H6.77067M5.4165 72.5H6.77067M5.4165 77.5H6.77067M5.4165 78.5H6.77067M5.4165 79.5H6.77067" stroke="#292826"/>
<path d="M9.479 10.5H10.8332Z" fill="black"/>
<path d="M9.479 10.5H10.8332" stroke="#D6A98C"/>
<path d="M52.8125 10.5H54.1667Z" fill="black"/>
<path d="M52.8125 10.5H54.1667" stroke="#FAE4CC"/>
<path d="M55.521 10.5H56.8752Z" fill="black"/>
<path d="M55.521 10.5H56.8752" stroke="#DCBD9E"/>
<path d="M56.875 10.5H58.2292Z" fill="black"/>
<path d="M56.875 10.5H58.2292" stroke="#D3AB8B"/>
<path d="M8.12516 11.5H9.47933ZM8.12516 13.5H9.47933ZM56.8752 14.5H58.2293ZM6.771 15.5H8.12516ZM55.521 76.5H56.8752ZM55.521 79.5H56.8752Z" fill="black"/>
<path d="M8.12516 11.5H9.47933M8.12516 13.5H9.47933M56.8752 14.5H58.2293M6.771 15.5H8.12516M55.521 76.5H56.8752M55.521 79.5H56.8752" stroke="#413733"/>
<path d="M55.5208 11.5H56.875ZM8.125 76.5H9.47917Z" fill="black"/>
<path d="M55.5208 11.5H56.875M8.125 76.5H9.47917" stroke="#DCBC9F"/>
<path d="M8.125 12.5H9.47917Z" fill="black"/>
<path d="M8.125 12.5H9.47917" stroke="#403632"/>
<path d="M55.5208 12.5H56.875ZM55.5208 13.5H56.875ZM8.125 77.5H9.47917ZM8.125 80.5H9.47917Z" fill="black"/>
<path d="M55.5208 12.5H56.875M55.5208 13.5H56.875M8.125 77.5H9.47917M8.125 80.5H9.47917" stroke="#DBBC9F"/>
<path d="M6.771 14.5H8.12516Z" fill="black"/>
<path d="M6.771 14.5H8.12516" stroke="#251B17"/>
<path d="M8.125 14.5H9.47917Z" fill="black"/>
<path d="M8.125 14.5H9.47917" stroke="#503B2F"/>
<path d="M9.479 14.5H10.8332Z" fill="black"/>
<path d="M9.479 14.5H10.8332" stroke="#D4B093"/>
<path d="M10.8335 14.5H12.1877Z" fill="black"/>
<path d="M10.8335 14.5H12.1877" stroke="#FAE7CC"/>
<path d="M52.8125 14.5H54.1667Z" fill="black"/>
<path d="M52.8125 14.5H54.1667" stroke="#F7E4CB"/>
<path d="M54.1665 14.5H55.5207Z" fill="black"/>
<path d="M54.1665 14.5H55.5207" stroke="#F9DEC3"/>
<path d="M55.521 14.5H56.8752Z" fill="black"/>
<path d="M55.521 14.5H56.8752" stroke="#D1B59B"/>
<path d="M58.229 14.5H59.5832Z" fill="black"/>
<path d="M58.229 14.5H59.5832" stroke="#262626"/>
<path d="M5.4165 15.5H6.77067ZM56.8748 74.5H58.229Z" fill="black"/>
<path d="M5.4165 15.5H6.77067M56.8748 74.5H58.229" stroke="#282829"/>
<path d="M8.125 15.5H9.47917Z" fill="black"/>
<path d="M8.125 15.5H9.47917" stroke="#D5B196"/>
<path d="M54.1665 15.5H55.5207Z" fill="black"/>
<path d="M54.1665 15.5H55.5207" stroke="#D3AB8D"/>
<path d="M55.521 15.5H56.8752Z" fill="black"/>
<path d="M55.521 15.5H56.8752" stroke="#685549"/>
<path d="M56.875 15.5H58.2292Z" fill="black"/>
<path d="M56.875 15.5H58.2292" stroke="#2A2726"/>
<path d="M8.125 16.5H9.47917ZM8.125 17.5H9.47917ZM8.125 20.5H9.47917ZM8.125 21.5H9.47917ZM8.125 22.5H9.47917ZM8.125 23.5H9.47917ZM8.125 24.5H9.47917ZM8.125 25.5H9.47917ZM8.125 26.5H9.47917ZM8.125 27.5H9.47917ZM8.125 29.5H9.47917ZM8.125 67.5H9.47917ZM8.125 70.5H9.47917Z" fill="black"/>
<path d="M8.125 16.5H9.47917M8.125 17.5H9.47917M8.125 20.5H9.47917M8.125 21.5H9.47917M8.125 22.5H9.47917M8.125 23.5H9.47917M8.125 24.5H9.47917M8.125 25.5H9.47917M8.125 26.5H9.47917M8.125 27.5H9.47917M8.125 29.5H9.47917M8.125 67.5H9.47917M8.125 70.5H9.47917" stroke="#D5B192"/>
<path d="M55.521 16.5H56.8752ZM55.521 17.5H56.8752ZM55.521 18.5H56.8752ZM55.521 19.5H56.8752ZM55.521 20.5H56.8752ZM55.521 21.5H56.8752ZM55.521 24.5H56.8752ZM55.521 25.5H56.8752ZM55.521 26.5H56.8752ZM55.521 27.5H56.8752ZM55.521 28.5H56.8752ZM55.521 64.5H56.8752ZM55.521 65.5H56.8752ZM55.521 66.5H56.8752ZM55.521 67.5H56.8752ZM55.521 68.5H56.8752ZM55.521 69.5H56.8752ZM55.521 70.5H56.8752ZM55.521 71.5H56.8752ZM55.521 72.5H56.8752ZM55.521 73.5H56.8752Z" fill="black"/>
<path d="M55.521 16.5H56.8752M55.521 17.5H56.8752M55.521 18.5H56.8752M55.521 19.5H56.8752M55.521 20.5H56.8752M55.521 21.5H56.8752M55.521 24.5H56.8752M55.521 25.5H56.8752M55.521 26.5H56.8752M55.521 27.5H56.8752M55.521 28.5H56.8752M55.521 64.5H56.8752M55.521 65.5H56.8752M55.521 66.5H56.8752M55.521 67.5H56.8752M55.521 68.5H56.8752M55.521 69.5H56.8752M55.521 70.5H56.8752M55.521 71.5H56.8752M55.521 72.5H56.8752M55.521 73.5H56.8752" stroke="#68554C"/>
<path d="M5.4165 18.5H6.77067ZM5.4165 65.5H6.77067ZM56.8748 69.5H58.229ZM5.4165 74.5H6.77067Z" fill="black"/>
<path d="M5.4165 18.5H6.77067M5.4165 65.5H6.77067M56.8748 69.5H58.229M5.4165 74.5H6.77067" stroke="#292728"/>
<path d="M8.125 18.5H9.47917ZM8.125 19.5H9.47917ZM8.125 28.5H9.47917ZM8.125 65.5H9.47917ZM8.125 68.5H9.47917ZM8.125 71.5H9.47917Z" fill="black"/>
<path d="M8.125 18.5H9.47917M8.125 19.5H9.47917M8.125 28.5H9.47917M8.125 65.5H9.47917M8.125 68.5H9.47917M8.125 71.5H9.47917" stroke="#D6B192"/>
<path d="M51.4585 20.5H52.8127Z" fill="black"/>
<path d="M51.4585 20.5H52.8127" stroke="#F1DABF"/>
<path d="M52.8125 20.5H54.1667Z" fill="black"/>
<path d="M52.8125 20.5H54.1667" stroke="#F2D8BA"/>
<path d="M51.4585 21.5H52.8127ZM51.4585 22.5H52.8127ZM51.4585 23.5H52.8127Z" fill="black"/>
<path d="M51.4585 21.5H52.8127M51.4585 22.5H52.8127M51.4585 23.5H52.8127" stroke="#DFC2A4"/>
<path d="M52.8125 22.5H54.1667Z" fill="black"/>
<path d="M52.8125 22.5H54.1667" stroke="#D6A988"/>
<path d="M54.1665 22.5H55.5207Z" fill="black"/>
<path d="M54.1665 22.5H55.5207" stroke="#262928"/>
<path d="M55.521 22.5H56.8752Z" fill="black"/>
<path d="M55.521 22.5H56.8752" stroke="#282C2A"/>
<path d="M56.875 22.5H58.2292Z" fill="black"/>
<path d="M56.875 22.5H58.2292" stroke="#29282A"/>
<path d="M5.4165 23.5H6.77067ZM54.1665 85.5H55.5207Z" fill="black"/>
<path d="M5.4165 23.5H6.77067M54.1665 85.5H55.5207" stroke="#292727"/>
<path d="M54.1665 23.5H55.5207Z" fill="black"/>
<path d="M54.1665 23.5H55.5207" stroke="#6B594B"/>
<path d="M55.521 23.5H56.8752Z" fill="black"/>
<path d="M55.521 23.5H56.8752" stroke="#453B36"/>
<path d="M51.4585 24.5H52.8127Z" fill="black"/>
<path d="M51.4585 24.5H52.8127" stroke="#DFBFA3"/>
<path d="M54.1665 24.5H55.5207Z" fill="black"/>
<path d="M54.1665 24.5H55.5207" stroke="#D4AA8F"/>
<path d="M5.4165 26.5H6.77067Z" fill="black"/>
<path d="M5.4165 26.5H6.77067" stroke="#292927"/>
<path d="M54.1665 26.5H55.5207Z" fill="black"/>
<path d="M54.1665 26.5H55.5207" stroke="#D5AB8D"/>
<path d="M13.5417 27.5H23.0208ZM24.375 27.5H39.2708ZM40.625 27.5H51.4583ZM13.5417 29.5H33.8542ZM35.2083 29.5H51.4583ZM13.5417 31.5H23.0208ZM24.375 31.5H27.0833ZM28.4375 31.5H39.2708ZM40.625 31.5H51.4583ZM13.5417 33.5H31.1458ZM32.5 33.5H48.75ZM50.1042 33.5H51.4583ZM12.1875 60.5H31.1458ZM36.5625 60.5H46.0417ZM47.3958 60.5H48.75ZM12.1875 61.5H21.6667ZM24.375 61.5H27.0833ZM28.4375 61.5H31.1458ZM32.5 61.5H43.3333ZM47.3958 61.5H48.75ZM12.1875 63.5H41.9792ZM43.3333 63.5H48.75ZM13.5417 64.5H23.0208ZM25.7292 64.5H27.0833ZM28.4375 64.5H36.5625ZM39.2708 64.5H41.9792ZM43.3333 64.5H48.75Z" fill="black"/>
<path d="M13.5417 27.5H23.0208M24.375 27.5H39.2708M40.625 27.5H51.4583M13.5417 29.5H33.8542M35.2083 29.5H51.4583M13.5417 31.5H23.0208M24.375 31.5H27.0833M28.4375 31.5H39.2708M40.625 31.5H51.4583M13.5417 33.5H31.1458M32.5 33.5H48.75M50.1042 33.5H51.4583M12.1875 60.5H31.1458M36.5625 60.5H46.0417M47.3958 60.5H48.75M12.1875 61.5H21.6667M24.375 61.5H27.0833M28.4375 61.5H31.1458M32.5 61.5H43.3333M47.3958 61.5H48.75M12.1875 63.5H41.9792M43.3333 63.5H48.75M13.5417 64.5H23.0208M25.7292 64.5H27.0833M28.4375 64.5H36.5625M39.2708 64.5H41.9792M43.3333 64.5H48.75" stroke="#F8E7CD"/>
<path d="M5.4165 29.5H6.77067ZM5.4165 30.5H6.77067ZM56.8748 30.5H58.229ZM5.4165 31.5H6.77067ZM56.8748 31.5H58.229ZM5.4165 32.5H6.77067ZM56.8748 32.5H58.229ZM5.4165 33.5H6.77067ZM56.8748 33.5H58.229ZM5.4165 34.5H6.77067ZM56.8748 34.5H58.229ZM5.4165 35.5H6.77067ZM56.8748 35.5H58.229ZM5.4165 36.5H6.77067ZM56.8748 36.5H58.229ZM5.4165 37.5H6.77067ZM56.8748 37.5H58.229ZM5.4165 38.5H6.77067ZM56.8748 38.5H58.229ZM5.4165 39.5H6.77067ZM56.8748 39.5H58.229ZM5.4165 40.5H6.77067ZM56.8748 40.5H58.229ZM5.4165 41.5H6.77067ZM56.8748 41.5H58.229ZM5.4165 42.5H6.77067ZM56.8748 42.5H58.229ZM5.4165 43.5H6.77067ZM56.8748 43.5H58.229ZM5.4165 44.5H6.77067ZM56.8748 44.5H58.229ZM5.4165 45.5H6.77067ZM56.8748 45.5H58.229ZM5.4165 46.5H6.77067ZM56.8748 46.5H58.229ZM5.4165 47.5H6.77067ZM56.8748 47.5H58.229ZM5.4165 48.5H6.77067ZM56.8748 48.5H58.229ZM5.4165 49.5H6.77067ZM56.8748 49.5H58.229ZM5.4165 50.5H6.77067ZM56.8748 50.5H58.229ZM5.4165 51.5H6.77067ZM56.8748 51.5H58.229ZM5.4165 52.5H6.77067ZM56.8748 52.5H58.229ZM5.4165 53.5H6.77067ZM56.8748 53.5H58.229ZM5.4165 54.5H6.77067ZM56.8748 54.5H58.229ZM5.4165 55.5H6.77067ZM56.8748 55.5H58.229ZM5.4165 56.5H6.77067ZM56.8748 56.5H58.229ZM5.4165 57.5H6.77067ZM56.8748 57.5H58.229ZM5.4165 58.5H6.77067ZM56.8748 58.5H58.229ZM5.4165 59.5H6.77067ZM56.8748 59.5H58.229ZM5.4165 60.5H6.77067ZM56.8748 60.5H58.229ZM5.4165 61.5H6.77067ZM56.8748 61.5H58.229ZM5.4165 62.5H6.77067ZM56.8748 62.5H58.229ZM5.4165 63.5H6.77067ZM56.8748 63.5H58.229Z" fill="black"/>
<path d="M5.4165 29.5H6.77067M5.4165 30.5H6.77067M56.8748 30.5H58.229M5.4165 31.5H6.77067M56.8748 31.5H58.229M5.4165 32.5H6.77067M56.8748 32.5H58.229M5.4165 33.5H6.77067M56.8748 33.5H58.229M5.4165 34.5H6.77067M56.8748 34.5H58.229M5.4165 35.5H6.77067M56.8748 35.5H58.229M5.4165 36.5H6.77067M56.8748 36.5H58.229M5.4165 37.5H6.77067M56.8748 37.5H58.229M5.4165 38.5H6.77067M56.8748 38.5H58.229M5.4165 39.5H6.77067M56.8748 39.5H58.229M5.4165 40.5H6.77067M56.8748 40.5H58.229M5.4165 41.5H6.77067M56.8748 41.5H58.229M5.4165 42.5H6.77067M56.8748 42.5H58.229M5.4165 43.5H6.77067M56.8748 43.5H58.229M5.4165 44.5H6.77067M56.8748 44.5H58.229M5.4165 45.5H6.77067M56.8748 45.5H58.229M5.4165 46.5H6.77067M56.8748 46.5H58.229M5.4165 47.5H6.77067M56.8748 47.5H58.229M5.4165 48.5H6.77067M56.8748 48.5H58.229M5.4165 49.5H6.77067M56.8748 49.5H58.229M5.4165 50.5H6.77067M56.8748 50.5H58.229M5.4165 51.5H6.77067M56.8748 51.5H58.229M5.4165 52.5H6.77067M56.8748 52.5H58.229M5.4165 53.5H6.77067M56.8748 53.5H58.229M5.4165 54.5H6.77067M56.8748 54.5H58.229M5.4165 55.5H6.77067M56.8748 55.5H58.229M5.4165 56.5H6.77067M56.8748 56.5H58.229M5.4165 57.5H6.77067M56.8748 57.5H58.229M5.4165 58.5H6.77067M56.8748 58.5H58.229M5.4165 59.5H6.77067M56.8748 59.5H58.229M5.4165 60.5H6.77067M56.8748 60.5H58.229M5.4165 61.5H6.77067M56.8748 61.5H58.229M5.4165 62.5H6.77067M56.8748 62.5H58.229M5.4165 63.5H6.77067M56.8748 63.5H58.229" stroke="#2A2927"/>
<path d="M6.771 29.5H8.12516ZM6.771 69.5H8.12516Z" fill="black"/>
<path d="M6.771 29.5H8.12516M6.771 69.5H8.12516" stroke="#D7AB8E"/>
<path d="M55.521 29.5H56.8752ZM55.521 30.5H56.8752ZM55.521 31.5H56.8752ZM55.521 32.5H56.8752ZM55.521 33.5H56.8752ZM55.521 34.5H56.8752ZM55.521 35.5H56.8752ZM55.521 36.5H56.8752ZM55.521 37.5H56.8752ZM55.521 38.5H56.8752ZM55.521 39.5H56.8752ZM55.521 40.5H56.8752ZM55.521 41.5H56.8752ZM55.521 42.5H56.8752ZM55.521 43.5H56.8752ZM55.521 44.5H56.8752ZM55.521 45.5H56.8752ZM55.521 46.5H56.8752ZM55.521 47.5H56.8752ZM55.521 48.5H56.8752ZM55.521 49.5H56.8752ZM55.521 50.5H56.8752ZM55.521 51.5H56.8752ZM55.521 52.5H56.8752ZM55.521 53.5H56.8752ZM55.521 54.5H56.8752ZM55.521 55.5H56.8752ZM55.521 56.5H56.8752ZM55.521 57.5H56.8752ZM55.521 58.5H56.8752ZM55.521 59.5H56.8752ZM55.521 60.5H56.8752ZM55.521 61.5H56.8752ZM55.521 62.5H56.8752ZM55.521 63.5H56.8752Z" fill="black"/>
<path d="M55.521 29.5H56.8752M55.521 30.5H56.8752M55.521 31.5H56.8752M55.521 32.5H56.8752M55.521 33.5H56.8752M55.521 34.5H56.8752M55.521 35.5H56.8752M55.521 36.5H56.8752M55.521 37.5H56.8752M55.521 38.5H56.8752M55.521 39.5H56.8752M55.521 40.5H56.8752M55.521 41.5H56.8752M55.521 42.5H56.8752M55.521 43.5H56.8752M55.521 44.5H56.8752M55.521 45.5H56.8752M55.521 46.5H56.8752M55.521 47.5H56.8752M55.521 48.5H56.8752M55.521 49.5H56.8752M55.521 50.5H56.8752M55.521 51.5H56.8752M55.521 52.5H56.8752M55.521 53.5H56.8752M55.521 54.5H56.8752M55.521 55.5H56.8752M55.521 56.5H56.8752M55.521 57.5H56.8752M55.521 58.5H56.8752M55.521 59.5H56.8752M55.521 60.5H56.8752M55.521 61.5H56.8752M55.521 62.5H56.8752M55.521 63.5H56.8752" stroke="#69564D"/>
<path d="M37.9168 36.5H40.6252ZM23.021 37.5H24.3752ZM29.7918 37.5H33.8543ZM37.9168 37.5H41.9793ZM21.6668 38.5H24.3752ZM29.7918 38.5H43.3335ZM17.6043 39.5H18.9585ZM20.3127 39.5H24.3752ZM31.146 39.5H43.3335ZM16.2502 40.5H18.9585ZM20.3127 40.5H24.3752ZM32.5002 40.5H46.0418ZM16.2502 41.5H24.3752ZM33.8543 41.5H46.0418ZM14.896 42.5H24.3752ZM33.8543 42.5H46.0418ZM14.896 43.5H27.0835ZM31.146 43.5H48.7502ZM14.896 44.5H47.396ZM14.896 45.5H46.0418ZM14.896 46.5H46.0418ZM14.896 47.5H46.0418ZM16.2502 48.5H46.0418ZM16.2502 49.5H46.0418ZM16.2502 50.5H44.6877ZM17.6043 51.5H43.3335ZM18.9585 52.5H43.3335ZM21.6668 53.5H41.9793ZM23.021 54.5H37.9168ZM27.0835 55.5H37.9168ZM28.4377 56.5H33.8543Z" fill="black"/>
<path d="M37.9168 36.5H40.6252M23.021 37.5H24.3752M29.7918 37.5H33.8543M37.9168 37.5H41.9793M21.6668 38.5H24.3752M29.7918 38.5H43.3335M17.6043 39.5H18.9585M20.3127 39.5H24.3752M31.146 39.5H43.3335M16.2502 40.5H18.9585M20.3127 40.5H24.3752M32.5002 40.5H46.0418M16.2502 41.5H24.3752M33.8543 41.5H46.0418M14.896 42.5H24.3752M33.8543 42.5H46.0418M14.896 43.5H27.0835M31.146 43.5H48.7502M14.896 44.5H47.396M14.896 45.5H46.0418M14.896 46.5H46.0418M14.896 47.5H46.0418M16.2502 48.5H46.0418M16.2502 49.5H46.0418M16.2502 50.5H44.6877M17.6043 51.5H43.3335M18.9585 52.5H43.3335M21.6668 53.5H41.9793M23.021 54.5H37.9168M27.0835 55.5H37.9168M28.4377 56.5H33.8543" stroke="#F8E7CD"/>
<path d="M5.4165 66.5H6.77067Z" fill="black"/>
<path d="M5.4165 66.5H6.77067" stroke="#2A2829"/>
<path d="M8.125 66.5H9.47917Z" fill="black"/>
<path d="M8.125 66.5H9.47917" stroke="#D5B290"/>
<path d="M54.1667 67.5H55.5208ZM54.1667 73.5H55.5208ZM40.625 85.5H41.9792Z" fill="black"/>
<path d="M54.1667 67.5H55.5208M54.1667 73.5H55.5208M40.625 85.5H41.9792" stroke="#D4AB8B"/>
<path d="M8.125 69.5H9.47917Z" fill="black"/>
<path d="M8.125 69.5H9.47917" stroke="#D5B193"/>
<path d="M54.1665 70.5H55.5207Z" fill="black"/>
<path d="M54.1665 70.5H55.5207" stroke="#D7A98F"/>
<path d="M51.4585 71.5H52.8127Z" fill="black"/>
<path d="M51.4585 71.5H52.8127" stroke="#DFC1A5"/>
<path d="M8.125 72.5H9.47917Z" fill="black"/>
<path d="M8.125 72.5H9.47917" stroke="#D0A98A"/>
<path d="M9.479 72.5H10.8332Z" fill="black"/>
<path d="M9.479 72.5H10.8332" stroke="#D4B195"/>
<path d="M10.8335 72.5H12.1877Z" fill="black"/>
<path d="M10.8335 72.5H12.1877" stroke="#F6E4CC"/>
<path d="M51.4585 72.5H52.8127Z" fill="black"/>
<path d="M51.4585 72.5H52.8127" stroke="#F3DDC2"/>
<path d="M52.8125 72.5H54.1667Z" fill="black"/>
<path d="M52.8125 72.5H54.1667" stroke="#F9DEC2"/>
<path d="M54.1665 72.5H55.5207ZM54.1665 74.5H55.5207Z" fill="black"/>
<path d="M54.1665 72.5H55.5207M54.1665 74.5H55.5207" stroke="#D4AB8C"/>
<path d="M8.125 73.5H9.47917Z" fill="black"/>
<path d="M8.125 73.5H9.47917" stroke="#D9AC8B"/>
<path d="M10.8335 73.5H12.1877Z" fill="black"/>
<path d="M10.8335 73.5H12.1877" stroke="#F9E7CE"/>
<path d="M6.771 74.5H8.12516Z" fill="black"/>
<path d="M6.771 74.5H8.12516" stroke="#D4AA8B"/>
<path d="M8.125 74.5H9.47917Z" fill="black"/>
<path d="M8.125 74.5H9.47917" stroke="#D6B193"/>
<path d="M9.479 74.5H10.8332ZM43.3332 83.5H44.6873ZM41.979 84.5H43.3332Z" fill="black"/>
<path d="M9.479 74.5H10.8332M43.3332 83.5H44.6873M41.979 84.5H43.3332" stroke="#F7E7CC"/>
<path d="M55.521 74.5H56.8752Z" fill="black"/>
<path d="M55.521 74.5H56.8752" stroke="#68554B"/>
<path d="M5.4165 75.5H6.77067Z" fill="black"/>
<path d="M5.4165 75.5H6.77067" stroke="#0D0D0D"/>
<path d="M6.771 75.5H8.12516Z" fill="black"/>
<path d="M6.771 75.5H8.12516" stroke="#CCAD99"/>
<path d="M8.125 75.5H9.47917Z" fill="black"/>
<path d="M8.125 75.5H9.47917" stroke="#D7B9A0"/>
<path d="M9.479 75.5H10.8332Z" fill="black"/>
<path d="M9.479 75.5H10.8332" stroke="#FDE6C7"/>
<path d="M54.1665 75.5H55.5207Z" fill="black"/>
<path d="M54.1665 75.5H55.5207" stroke="#CDAA8E"/>
<path d="M55.521 75.5H56.8752Z" fill="black"/>
<path d="M55.521 75.5H56.8752" stroke="#3F2E23"/>
<path d="M56.875 75.5H58.2292Z" fill="black"/>
<path d="M56.875 75.5H58.2292" stroke="#110907"/>
<path d="M5.4165 76.5H6.77067ZM5.4165 80.5H6.77067Z" fill="black"/>
<path d="M5.4165 76.5H6.77067M5.4165 80.5H6.77067" stroke="#282725"/>
<path d="M6.771 76.5H8.12516ZM8.12516 86.5H9.47933Z" fill="black"/>
<path d="M6.771 76.5H8.12516M8.12516 86.5H9.47933" stroke="#D5AB8B"/>
<path d="M55.521 77.5H56.8752Z" fill="black"/>
<path d="M55.521 77.5H56.8752" stroke="#403733"/>
<path d="M8.125 78.5H9.47917ZM8.125 79.5H9.47917Z" fill="black"/>
<path d="M8.125 78.5H9.47917M8.125 79.5H9.47917" stroke="#DBBD9E"/>
<path d="M55.521 80.5H56.8752Z" fill="black"/>
<path d="M55.521 80.5H56.8752" stroke="#403732"/>
<path d="M56.875 80.5H58.2292Z" fill="black"/>
<path d="M56.875 80.5H58.2292" stroke="#27282A"/>
<path d="M6.771 81.5H8.12516Z" fill="black"/>
<path d="M6.771 81.5H8.12516" stroke="#D5AA8F"/>
<path d="M8.125 81.5H9.47917Z" fill="black"/>
<path d="M8.125 81.5H9.47917" stroke="#DBBD9F"/>
<path d="M50.1042 81.5H51.4583ZM20.3125 83.5H21.6667ZM40.625 83.5H41.9792ZM46.0417 84.5H47.3958Z" fill="black"/>
<path d="M50.1042 81.5H51.4583M20.3125 83.5H21.6667M40.625 83.5H41.9792M46.0417 84.5H47.3958" stroke="#F8E6CE"/>
<path d="M52.8125 81.5H54.1667Z" fill="black"/>
<path d="M52.8125 81.5H54.1667" stroke="#F9E6CD"/>
<path d="M55.521 81.5H56.8752Z" fill="black"/>
<path d="M55.521 81.5H56.8752" stroke="#403831"/>
<path d="M56.875 81.5H58.2292Z" fill="black"/>
<path d="M56.875 81.5H58.2292" stroke="#29292B"/>
<path d="M5.4165 82.5H6.77067Z" fill="black"/>
<path d="M5.4165 82.5H6.77067" stroke="#28292A"/>
<path d="M6.771 82.5H8.12516Z" fill="black"/>
<path d="M6.771 82.5H8.12516" stroke="#DAAC8D"/>
<path d="M51.4585 82.5H52.8127Z" fill="black"/>
<path d="M51.4585 82.5H52.8127" stroke="#F8E8CE"/>
<path d="M52.8125 82.5H54.1667Z" fill="black"/>
<path d="M52.8125 82.5H54.1667" stroke="#F4E6CB"/>
<path d="M54.1665 82.5H55.5207Z" fill="black"/>
<path d="M54.1665 82.5H55.5207" stroke="#D8A98A"/>
<path d="M56.875 82.5H58.2292Z" fill="black"/>
<path d="M56.875 82.5H58.2292" stroke="#28282A"/>
<path d="M4.0625 83.5H5.41667ZM4.0625 84.5H5.41667Z" fill="black"/>
<path d="M4.0625 83.5H5.41667M4.0625 84.5H5.41667" stroke="#53463A"/>
<path d="M8.125 83.5H9.47917Z" fill="black"/>
<path d="M8.125 83.5H9.47917" stroke="#F6E7CC"/>
<path d="M12.1875 83.5H13.5417ZM46.0417 83.5H47.3958Z" fill="black"/>
<path d="M12.1875 83.5H13.5417M46.0417 83.5H47.3958" stroke="#F8E7CC"/>
<path d="M16.25 83.5H17.6042Z" fill="black"/>
<path d="M16.25 83.5H17.6042" stroke="#F8E6CC"/>
<path d="M41.979 83.5H43.3332Z" fill="black"/>
<path d="M41.979 83.5H43.3332" stroke="#FAE6CC"/>
<path d="M48.75 83.5H50.1042Z" fill="black"/>
<path d="M48.75 83.5H50.1042" stroke="#FAE6CE"/>
<path d="M52.8125 83.5H54.1667ZM52.8125 85.5H54.1667Z" fill="black"/>
<path d="M52.8125 83.5H54.1667M52.8125 85.5H54.1667" stroke="#D5AB89"/>
<path d="M40.625 84.5H41.9792ZM48.75 84.5H50.1042Z" fill="black"/>
<path d="M40.625 84.5H41.9792M48.75 84.5H50.1042" stroke="#CDA98B"/>
<path d="M44.6875 84.5H46.0417Z" fill="black"/>
<path d="M44.6875 84.5H46.0417" stroke="#D0A88B"/>
<path d="M47.396 84.5H48.7502Z" fill="black"/>
<path d="M47.396 84.5H48.7502" stroke="#D4B599"/>
<path d="M2.7085 85.5H4.06266Z" fill="black"/>
<path d="M2.7085 85.5H4.06266" stroke="#28272A"/>
<path d="M4.0625 85.5H5.41667Z" fill="black"/>
<path d="M4.0625 85.5H5.41667" stroke="#57473D"/>
<path d="M41.979 85.5H43.3332Z" fill="black"/>
<path d="M41.979 85.5H43.3332" stroke="#F6E7CA"/>
<path d="M46.0415 85.5H47.3957Z" fill="black"/>
<path d="M46.0415 85.5H47.3957" stroke="#F6E6CA"/>
<path d="M47.396 85.5H48.7502Z" fill="black"/>
<path d="M47.396 85.5H48.7502" stroke="#DAB99B"/>
<path d="M51.4585 85.5H52.8127Z" fill="black"/>
<path d="M51.4585 85.5H52.8127" stroke="#D7B699"/>
<path d="M50.104 86.5H51.4582Z" fill="black"/>
<path d="M50.104 86.5H51.4582" stroke="#D6AA8A"/>
<path d="M2.7085 87.5H4.06266Z" fill="black"/>
<path d="M2.7085 87.5H4.06266" stroke="#2C2927"/>
<path d="M4.0625 87.5H5.41667Z" fill="black"/>
<path d="M4.0625 87.5H5.41667" stroke="#120B0A"/>
<path d="M5.4165 87.5H54.1665Z" fill="black"/>
<path d="M5.4165 87.5H54.1665" stroke="#110B0B"/>
<path d="M54.1665 87.5H55.5207Z" fill="black"/>
<path d="M54.1665 87.5H55.5207" stroke="#150A0A"/>
<path d="M13.5415 88.5H14.8957Z" fill="black"/>
<path d="M13.5415 88.5H14.8957" stroke="#292929"/>
<path d="M47.396 88.5H48.7502Z" fill="black"/>
<path d="M47.396 88.5H48.7502" stroke="#272725"/>
<path d="M54.1665 88.5H55.5207Z" fill="black"/>
<path d="M54.1665 88.5H55.5207" stroke="#2B2B2B"/>
</svg>
