<svg xmlns="http://www.w3.org/2000/svg" viewBox="0 -0.5 20 20" shape-rendering="crispEdges">
<metadata>Made with Pixels to Svg https://codepen.io/shshaw/pen/XbxvNj</metadata>
<path stroke="#210f0a" d="M2 1h16M1 2h2M17 2h2M1 3h1M18 3h1M1 4h1M18 4h1M1 5h1M18 5h1M1 6h1M18 6h1M1 7h1M18 7h1M1 8h1M18 8h1M1 9h1M18 9h1M1 10h1M18 10h1M1 11h1M18 11h1M1 12h1M18 12h1M1 13h1M18 13h1M1 14h1M18 14h1M1 15h1M18 15h1M1 16h1M18 16h1M1 17h2M17 17h2M2 18h16" />
<path stroke="#3b1300" d="M3 2h14M2 3h2M16 3h2M2 4h1M17 4h1M2 5h1M17 5h1M2 6h1M17 6h1M2 7h1M17 7h1M2 8h1M17 8h1M2 9h1M17 9h1M2 10h1M17 10h1M2 11h1M17 11h1M2 12h1M17 12h1M2 13h1M17 13h1M2 14h1M17 14h1M2 15h1M17 15h1M2 16h2M16 16h2M3 17h14" />
<path stroke="#6f2d03" d="M4 3h12M3 4h14M3 5h14M3 6h14M3 7h14M3 8h14M3 9h14M3 10h14M3 11h14M3 12h14M3 13h14M3 14h14M3 15h14M4 16h12" />
</svg>