<svg width="20" height="20" viewBox="0 0 20 20" fill="none" xmlns="http://www.w3.org/2000/svg">
<path d="M2 1.5H18ZM1 2.5H3ZM17 2.5H19ZM1 3.5H2ZM18 3.5H19ZM1 4.5H2ZM18 4.5H19ZM1 5.5H2ZM18 5.5H19ZM1 6.5H2ZM18 6.5H19ZM1 7.5H2ZM18 7.5H19ZM1 8.5H2ZM18 8.5H19ZM1 9.5H2ZM18 9.5H19ZM1 10.5H2ZM18 10.5H19ZM1 11.5H2ZM18 11.5H19ZM1 12.5H2ZM18 12.5H19ZM1 13.5H2ZM18 13.5H19ZM1 14.5H2ZM18 14.5H19ZM1 15.5H2ZM18 15.5H19ZM1 16.5H2ZM18 16.5H19ZM1 17.5H3ZM17 17.5H19ZM2 18.5H18Z" fill="black"/>
<path d="M2 1.5H18M1 2.5H3M17 2.5H19M1 3.5H2M18 3.5H19M1 4.5H2M18 4.5H19M1 5.5H2M18 5.5H19M1 6.5H2M18 6.5H19M1 7.5H2M18 7.5H19M1 8.5H2M18 8.5H19M1 9.5H2M18 9.5H19M1 10.5H2M18 10.5H19M1 11.5H2M18 11.5H19M1 12.5H2M18 12.5H19M1 13.5H2M18 13.5H19M1 14.5H2M18 14.5H19M1 15.5H2M18 15.5H19M1 16.5H2M18 16.5H19M1 17.5H3M17 17.5H19M2 18.5H18" stroke="#A7693A"/>
<path d="M3 2.5H17ZM2 3.5H4ZM16 3.5H18ZM2 4.5H3ZM17 4.5H18ZM2 5.5H3ZM17 5.5H18ZM2 6.5H3ZM17 6.5H18ZM2 7.5H3ZM17 7.5H18ZM2 8.5H3ZM17 8.5H18ZM2 9.5H3ZM17 9.5H18ZM2 10.5H3ZM17 10.5H18ZM2 11.5H3ZM17 11.5H18ZM2 12.5H3ZM17 12.5H18ZM2 13.5H3ZM17 13.5H18ZM2 14.5H3ZM17 14.5H18ZM2 15.5H3ZM17 15.5H18ZM2 16.5H4ZM16 16.5H18ZM3 17.5H17Z" fill="black"/>
<path d="M3 2.5H17M2 3.5H4M16 3.5H18M2 4.5H3M17 4.5H18M2 5.5H3M17 5.5H18M2 6.5H3M17 6.5H18M2 7.5H3M17 7.5H18M2 8.5H3M17 8.5H18M2 9.5H3M17 9.5H18M2 10.5H3M17 10.5H18M2 11.5H3M17 11.5H18M2 12.5H3M17 12.5H18M2 13.5H3M17 13.5H18M2 14.5H3M17 14.5H18M2 15.5H3M17 15.5H18M2 16.5H4M16 16.5H18M3 17.5H17" stroke="#E7A366"/>
<path d="M4 3.5H16ZM3 4.5H17ZM3 5.5H17ZM3 6.5H17ZM3 7.5H17ZM3 8.5H17ZM3 9.5H17ZM3 10.5H17ZM3 11.5H17ZM3 12.5H17ZM3 13.5H17ZM3 14.5H17ZM3 15.5H17ZM4 16.5H16Z" fill="black"/>
<path d="M4 3.5H16M3 4.5H17M3 5.5H17M3 6.5H17M3 7.5H17M3 8.5H17M3 9.5H17M3 10.5H17M3 11.5H17M3 12.5H17M3 13.5H17M3 14.5H17M3 15.5H17M4 16.5H16" stroke="#F5C585"/>
</svg>
