<svg xmlns="http://www.w3.org/2000/svg" viewBox="0 -0.5 50 30" shape-rendering="crispEdges">
<metadata>Made with Pixels to Svg https://codepen.io/shshaw/pen/XbxvNj</metadata>
<path stroke="#2f0404" d="M4 4h42M3 5h1M46 5h1M3 6h1M46 6h1M3 7h1M46 7h1M3 8h1M46 8h1M3 9h1M46 9h1M3 10h1M46 10h1M3 11h1M46 11h1M3 12h1M46 12h1M3 13h1M46 13h1M3 14h1M46 14h1M3 15h1M46 15h1M3 16h1M46 16h1M3 17h1M46 17h1M3 18h1M46 18h1M3 19h1M46 19h1M3 20h1M46 20h1M3 21h1M46 21h1M3 22h1M46 22h1M3 23h1M46 23h1M3 24h1M46 24h1M4 25h42" />
<path stroke="#662b0e" d="M4 5h3M15 5h3M30 5h10M42 5h3M4 6h1M4 7h1M4 8h1M45 11h1M45 12h1M45 13h1M45 14h1M45 15h1M45 16h1M45 17h1M4 23h1M4 24h1M10 24h2M36 24h3" />
<path stroke="#521b0a" d="M7 5h5M23 5h6M40 5h2M45 5h1M45 6h1M45 7h1M45 8h1M45 9h1M45 10h1M4 11h1M4 12h1M4 13h1M4 14h1M4 15h1M4 16h1M4 18h1M4 19h1M45 20h1M18 24h2" />
<path stroke="#572318" d="M12 5h3M18 5h5M29 5h1M4 9h1M4 10h1M4 17h1M45 18h1M45 19h1M4 20h1M4 21h1M45 21h1M4 22h1M45 22h1M45 23h1M12 24h6M20 24h4M31 24h5M42 24h3" />
<path stroke="#3c0900" d="M5 6h40M5 7h1M44 7h1M5 8h1M44 8h1M5 9h1M44 9h1M5 10h1M44 10h1M5 11h1M44 11h1M5 12h1M44 12h1M5 13h1M44 13h1M5 14h1M44 14h1M5 15h1M44 15h1M5 16h1M44 16h1M5 17h1M44 17h1M5 18h1M44 18h1M5 19h1M44 19h1M5 20h1M44 20h1M5 21h1M44 21h1M5 22h1M44 22h1M5 23h40" />
<path stroke="#5f2500" d="M6 7h2M11 7h3M15 7h2M18 7h3M24 7h3M35 7h3M41 7h3M6 8h9M17 8h9M28 8h6M36 8h8M14 13h1M17 13h1" />
<path stroke="#622702" d="M8 7h1M23 7h1M38 7h1" />
<path stroke="#622701" d="M9 7h1M22 7h1M39 7h1" />
<path stroke="#612701" d="M10 7h1M21 7h1M40 7h1" />
<path stroke="#5e2400" d="M14 7h1M17 7h1M27 7h2M30 7h2M33 7h2M15 20h2" />
<path stroke="#5e2300" d="M29 7h1M32 7h1" />
<path stroke="#5e2302" d="M15 8h2" />
<path stroke="#602600" d="M26 8h2M34 8h2" />
<path stroke="#612702" d="M6 9h2M24 9h2M36 9h2" />
<path stroke="#612601" d="M8 9h2M15 9h2M22 9h2M38 9h2M15 13h2" />
<path stroke="#612602" d="M10 9h1M21 9h1M40 9h1" />
<path stroke="#602502" d="M11 9h1M20 9h1M41 9h1M23 10h6M6 11h21M6 12h3" />
<path stroke="#5f2501" d="M12 9h1M14 9h1M17 9h1M19 9h1M42 9h1M13 13h1M18 13h1M43 13h1" />
<path stroke="#5f2401" d="M13 9h1M18 9h1M43 9h1" />
<path stroke="#602702" d="M26 9h2M34 9h2M15 19h2" />
<path stroke="#5f2601" d="M28 9h1M33 9h1" />
<path stroke="#5e2500" d="M29 9h4" />
<path stroke="#5b2004" d="M6 10h17M36 10h8M27 11h17M6 13h1M22 13h4M6 14h30M10 18h1M21 18h1M40 18h1" />
<path stroke="#5d2505" d="M29 10h1M32 10h1" />
<path stroke="#5d2504" d="M30 10h2" />
<path stroke="#521a00" d="M33 10h1" />
<path stroke="#4f1600" d="M34 10h1" />
<path stroke="#521a01" d="M35 10h1" />
<path stroke="#652c08" d="M9 12h1M22 12h1M39 12h1" />
<path stroke="#662c07" d="M10 12h1M12 12h2M18 12h2M21 12h1M40 12h1M42 12h2" />
<path stroke="#652c07" d="M11 12h1M20 12h1M41 12h1" />
<path stroke="#662c06" d="M14 12h1M17 12h1" />
<path stroke="#672e07" d="M15 12h2" />
<path stroke="#652c0a" d="M23 12h2M37 12h2" />
<path stroke="#642c08" d="M25 12h1M36 12h1" />
<path stroke="#632c06" d="M26 12h1M35 12h1" />
<path stroke="#622c04" d="M27 12h1M34 12h1" />
<path stroke="#602a00" d="M28 12h1M33 12h1" />
<path stroke="#5d2600" d="M29 12h1M32 12h1" />
<path stroke="#5e2800" d="M30 12h2" />
<path stroke="#5f2507" d="M7 13h1M37 13h1" />
<path stroke="#5f2606" d="M8 13h1M38 13h1" />
<path stroke="#5f2505" d="M9 13h1M39 13h1" />
<path stroke="#602505" d="M10 13h1M21 13h1M40 13h1" />
<path stroke="#612606" d="M11 13h1M20 13h1M41 13h1" />
<path stroke="#612603" d="M12 13h1M19 13h1M42 13h1" />
<path stroke="#5d2508" d="M26 13h1M35 13h1" />
<path stroke="#5d2509" d="M27 13h1M34 13h1" />
<path stroke="#5f270b" d="M28 13h1M33 13h1M26 21h1M35 21h1" />
<path stroke="#61290d" d="M29 13h1M32 13h1M6 21h1M25 21h1M36 21h1" />
<path stroke="#5f280d" d="M30 13h2" />
<path stroke="#5f2508" d="M36 13h1" />
<path stroke="#511900" d="M36 14h1" />
<path stroke="#531a00" d="M37 14h2" />
<path stroke="#581f02" d="M39 14h1" />
<path stroke="#592002" d="M40 14h1" />
<path stroke="#581f01" d="M41 14h1" />
<path stroke="#582002" d="M42 14h1" />
<path stroke="#592001" d="M43 14h1M7 19h2M23 19h2M37 19h2" />
<path stroke="#5c2a03" d="M6 15h1M25 15h1M36 15h1" />
<path stroke="#5a2706" d="M7 15h2M23 15h2M37 15h2" />
<path stroke="#592706" d="M9 15h1M22 15h1M39 15h1" />
<path stroke="#532200" d="M10 15h1M21 15h1M40 15h1" />
<path stroke="#4a1900" d="M11 15h1M20 15h1M41 15h1" />
<path stroke="#4e1c00" d="M12 15h1M19 15h1M42 15h1" />
<path stroke="#501e00" d="M13 15h2M17 15h2M43 15h1" />
<path stroke="#542204" d="M15 15h2" />
<path stroke="#5d2a00" d="M26 15h1M35 15h1" />
<path stroke="#5c2800" d="M27 15h1M34 15h1" />
<path stroke="#5c2704" d="M28 15h1M33 15h1M13 16h2M17 16h2M43 16h1" />
<path stroke="#5e270a" d="M29 15h1M32 15h1M7 21h1M24 21h1M37 21h1" />
<path stroke="#60290f" d="M30 15h2" />
<path stroke="#5f2703" d="M6 16h1M25 16h1M36 16h1" />
<path stroke="#5d2705" d="M7 16h1M24 16h1M37 16h1" />
<path stroke="#5d2704" d="M8 16h1M23 16h1M38 16h1" />
<path stroke="#5c2604" d="M9 16h1M22 16h1M39 16h1" />
<path stroke="#5b2503" d="M10 16h1M21 16h1M40 16h1" />
<path stroke="#5b2502" d="M11 16h1M20 16h1M41 16h1" />
<path stroke="#5b2701" d="M12 16h1M19 16h1M42 16h1" />
<path stroke="#5c2605" d="M15 16h2" />
<path stroke="#5f2800" d="M26 16h1M35 16h1" />
<path stroke="#612902" d="M27 16h1M34 16h1" />
<path stroke="#632a06" d="M28 16h1M33 16h1" />
<path stroke="#642a0a" d="M29 16h1M32 16h1" />
<path stroke="#642a0b" d="M30 16h2" />
<path stroke="#5b2100" d="M6 17h5M21 17h7M34 17h7M7 20h1M9 20h1M22 20h1M24 20h1M37 20h1M39 20h1" />
<path stroke="#5b2200" d="M11 17h1M20 17h1M41 17h1M8 20h1M23 20h1M38 20h1" />
<path stroke="#5c2300" d="M12 17h1M19 17h1M42 17h1" />
<path stroke="#5d2400" d="M13 17h6M43 17h1M15 18h2" />
<path stroke="#5c2100" d="M28 17h1M33 17h1" />
<path stroke="#5d2100" d="M29 17h4" />
<path stroke="#5b2104" d="M6 18h4M22 18h4M36 18h4" />
<path stroke="#5d1f04" d="M11 18h1M20 18h1M41 18h1" />
<path stroke="#5f2005" d="M12 18h1M19 18h1M42 18h1" />
<path stroke="#5f2105" d="M13 18h1M18 18h1M43 18h1" />
<path stroke="#5f2302" d="M14 18h1M17 18h1" />
<path stroke="#5b2002" d="M26 18h2M34 18h2" />
<path stroke="#5c2002" d="M28 18h1M33 18h1" />
<path stroke="#5d1f02" d="M29 18h4" />
<path stroke="#582100" d="M6 19h1M25 19h1M36 19h1" />
<path stroke="#5c2304" d="M9 19h1M11 19h1M13 19h1M18 19h1M20 19h1M22 19h1M39 19h1M41 19h1M43 19h1" />
<path stroke="#5d2305" d="M10 19h1M21 19h1M40 19h1" />
<path stroke="#5b2305" d="M12 19h1M19 19h1M42 19h1" />
<path stroke="#5b2302" d="M14 19h1M17 19h1" />
<path stroke="#552300" d="M26 19h4M32 19h4" />
<path stroke="#582400" d="M30 19h2" />
<path stroke="#592300" d="M6 20h1M13 20h1M18 20h1M25 20h1M36 20h1M43 20h1" />
<path stroke="#5a2100" d="M10 20h1M21 20h1M40 20h1" />
<path stroke="#582200" d="M11 20h1M20 20h1M41 20h1M12 21h1M19 21h1M42 21h1" />
<path stroke="#582300" d="M12 20h1M19 20h1M42 20h1M13 21h1M18 21h1M43 21h1" />
<path stroke="#5b2300" d="M14 20h1M17 20h1" />
<path stroke="#552500" d="M26 20h1M35 20h1" />
<path stroke="#572600" d="M27 20h2M33 20h2" />
<path stroke="#572700" d="M29 20h1M32 20h1" />
<path stroke="#592900" d="M30 20h2" />
<path stroke="#5b2306" d="M8 21h1M23 21h1M38 21h1" />
<path stroke="#5a2105" d="M9 21h1M22 21h1M39 21h1" />
<path stroke="#5b2105" d="M10 21h1M21 21h1M40 21h1" />
<path stroke="#592104" d="M11 21h1M20 21h1M41 21h1" />
<path stroke="#572200" d="M14 21h1M17 21h1" />
<path stroke="#5c2603" d="M15 21h2" />
<path stroke="#5d2408" d="M27 21h1M34 21h1" />
<path stroke="#582104" d="M28 21h1M33 21h1" />
<path stroke="#511b00" d="M29 21h1M32 21h1" />
<path stroke="#4c1500" d="M30 21h2" />
<path stroke="#4d1503" d="M6 22h1M25 22h1M36 22h1" />
<path stroke="#4e1705" d="M7 22h1M24 22h1M37 22h1" />
<path stroke="#511a07" d="M8 22h1M23 22h1M38 22h1" />
<path stroke="#541c0a" d="M9 22h1M22 22h1M39 22h1" />
<path stroke="#561d0c" d="M10 22h2M20 22h2M40 22h2" />
<path stroke="#57200d" d="M12 22h1M19 22h1M42 22h1" />
<path stroke="#58210c" d="M13 22h1M18 22h1M43 22h1" />
<path stroke="#58210a" d="M14 22h1M17 22h1" />
<path stroke="#562004" d="M15 22h2" />
<path stroke="#4c1301" d="M26 22h1M35 22h1" />
<path stroke="#4a1100" d="M27 22h1M34 22h1" />
<path stroke="#4a1200" d="M28 22h1M33 22h1" />
<path stroke="#4f1705" d="M29 22h1M32 22h1" />
<path stroke="#531c09" d="M30 22h2" />
<path stroke="#5f2202" d="M5 24h5M24 24h7M39 24h3M45 24h1" />
</svg>