<svg xmlns="http://www.w3.org/2000/svg" viewBox="0 -0.5 40 40" shape-rendering="crispEdges">
<metadata>Made with Pixels to Svg https://codepen.io/shshaw/pen/XbxvNj</metadata>
<path stroke="#e5aa1d" d="M32 8h1M32 9h1M32 10h1M31 11h1M33 11h1M28 12h3M34 12h3M31 13h1M33 13h1M32 14h1M32 15h1M32 16h1M29 17h1M28 18h1M30 18h1M29 19h1" />
<path stroke="#52677a" d="M6 9h8M5 10h1M5 11h1M5 12h1M5 13h1M28 13h1M5 14h1M28 14h1M5 15h1M5 16h1" />
<path stroke="#506576" d="M14 9h14M28 10h1M28 11h1M5 17h1M5 18h1M5 19h1M5 20h1M5 21h1M5 22h1M5 23h1M5 24h1M3 25h27M3 26h1M3 27h1M3 28h1M3 29h1M3 30h1M3 31h1M3 32h2" />
<path stroke="#678196" d="M6 10h7M6 11h1M6 12h1M6 13h1M6 14h1M6 15h1" />
<path stroke="#607789" d="M13 10h15M27 11h1M27 12h1M27 13h1M27 14h1M27 15h1M6 16h1M6 17h1M6 18h1M6 19h1M6 20h1M6 21h1M6 22h1M6 23h1M6 24h4M4 26h25M4 27h5M11 27h5M18 27h5M25 27h2M4 28h4M12 28h3M19 28h3M4 29h4M12 29h3M19 29h3M4 30h5M11 30h5M18 30h2M4 31h9" />
<path stroke="#dfb536" d="M7 11h20M7 12h1M13 12h1M20 12h1M26 12h1M7 13h1M13 13h1M20 13h1M26 13h1M7 14h1M13 14h1M20 14h1M26 14h1M7 15h1M13 15h1M20 15h1M7 16h1M13 16h1M20 16h1M7 17h1M13 17h1M7 18h1M13 18h1M7 19h1M13 19h1M7 20h1M7 21h1M7 22h1M7 23h2" />
<path stroke="#f9df77" d="M32 11h1M31 12h1M33 12h1M32 13h1M29 18h1" />
<path stroke="#f2f2f2" d="M8 12h1M10 12h1M12 12h1M14 12h1M16 12h4M21 12h1M23 12h1M25 12h1M8 13h1M10 13h1M12 13h1M14 13h1M16 13h2M19 13h1M21 13h1M23 13h1M25 13h1M8 14h1M10 14h3M14 14h1M16 14h2M19 14h1M21 14h1M23 14h3M8 15h1M11 15h2M14 15h1M19 15h1M21 15h1M24 15h2M8 16h1M11 16h2M14 16h1M19 16h1M21 16h1M24 16h2M8 17h2M11 17h2M14 17h2M19 17h1M21 17h2M24 17h2M8 18h2M11 18h2M14 18h3M18 18h1M21 18h2M24 18h2M8 19h4M14 19h4M21 19h1M24 19h1M8 20h1M10 20h1M14 20h2M17 20h1M21 20h1M23 20h1M8 21h1M10 21h1M14 21h2M8 22h1" />
<path stroke="#bf4f1e" d="M9 12h1M11 12h1M15 12h1M22 12h1M24 12h1M9 13h1M11 13h1M15 13h1M18 13h1M22 13h1M24 13h1M9 14h1M15 14h1M18 14h1M22 14h1M9 15h2M15 15h4M22 15h2M9 16h2M15 16h3M22 16h2M16 17h1M23 17h1M16 20h1" />
<path stroke="#fff2c1" d="M32 12h1" />
<path stroke="#d0a933" d="M26 15h1M26 16h1M20 17h1M26 17h1M20 18h1M26 18h1M20 19h1M26 19h1M13 20h1M20 20h1M9 23h2" />
<path stroke="#4a5e6f" d="M28 15h1M28 16h1M28 17h1M30 25h1M30 26h1M10 32h9" />
<path stroke="#ac481c" d="M18 16h1M10 17h1M17 17h2M10 18h1M17 18h1M23 18h1M22 19h2M9 20h1M11 20h1M18 20h1M22 20h1M9 21h1M11 21h1M16 21h1M18 21h1M22 21h1M24 21h1M9 22h1M11 22h1M15 22h4M24 22h1" />
<path stroke="#596d7c" d="M27 16h1M27 17h1M27 18h1M27 19h1M27 20h1M10 24h10M29 26h1M27 27h2M26 28h2M26 29h1M20 30h3M13 31h8" />
<path stroke="#e7e7e7" d="M19 18h1M12 19h1M18 19h2M25 19h1M12 20h1M19 20h1M24 20h2M12 21h1M17 21h1M19 21h1M21 21h1M23 21h1M25 21h1M10 22h1M12 22h1M14 22h1M19 22h1M21 22h3M25 22h1" />
<path stroke="#455867" d="M28 19h1M28 20h1M28 21h1M28 22h1M28 23h1M28 24h1M30 30h1M30 31h1M19 32h12" />
<path stroke="#caa431" d="M26 20h1M13 21h1M20 21h1M26 21h1M13 22h1M20 22h1M26 22h1M11 23h16" />
<path stroke="#526676" d="M27 21h1M27 22h1M27 23h1M20 24h8M29 27h1M28 28h2M27 29h3M25 30h5M21 31h9" />
<path stroke="#700707" d="M31 26h3M30 27h1" />
<path stroke="#670505" d="M9 27h1M16 27h1M23 27h1M8 28h1M15 28h1M22 28h1" />
<path stroke="#630404" d="M10 27h1M17 27h1M24 27h1M8 29h1M15 29h1M22 29h1" />
<path stroke="#900c0c" d="M31 27h2M9 28h1M16 28h1M23 28h1M31 28h1" />
<path stroke="#7e0c0c" d="M33 27h1M32 28h2M31 29h3" />
<path stroke="#610707" d="M34 27h1M30 28h1M34 28h1M30 29h1M34 29h1M31 30h3" />
<path stroke="#7e0a0a" d="M10 28h1M17 28h1M24 28h1M9 29h2M16 29h2M23 29h2" />
<path stroke="#5a0505" d="M11 28h1M18 28h1M25 28h1M11 29h1M18 29h1M25 29h1M9 30h2M16 30h2M23 30h2" />
<path stroke="#2c3133" d="M34 30h1M31 31h3" />
<path stroke="#4b6070" d="M5 32h5" />
</svg>