<svg xmlns="http://www.w3.org/2000/svg" viewBox="0 -0.5 40 40" shape-rendering="crispEdges">
<metadata>Made with Pixels to Svg https://codepen.io/shshaw/pen/XbxvNj</metadata>
<path stroke="#941616" d="M32 6h3M31 7h1M35 7h1M31 8h1M31 9h1" />
<path stroke="#ca1212" d="M32 7h1" />
<path stroke="#b61111" d="M33 7h2M32 8h2" />
<path stroke="#9f1010" d="M34 8h1M32 9h3" />
<path stroke="#8b1313" d="M35 8h1M35 9h1M32 10h3" />
<path stroke="#494949" d="M32 11h1M32 12h1" />
<path stroke="#5a5959" d="M33 11h1M33 12h1M33 13h1M33 14h1" />
<path stroke="#383838" d="M34 11h1M34 12h1M34 13h1M32 15h1" />
<path stroke="#7a7a7a" d="M17 12h5M11 13h4M16 13h1M22 13h1M24 13h4M10 14h1M15 14h1M23 14h1M28 14h1M10 15h1M15 15h1M23 15h1M28 15h1M10 16h1M15 16h1M23 16h1M28 16h1M10 17h1M15 17h1M23 17h1M28 17h1M9 18h1M15 18h1M23 18h1M29 18h1M9 19h1M15 19h1M23 19h1M29 19h1M9 20h1M15 20h1M23 20h1M29 20h1M9 21h1M15 21h1M23 21h1M29 21h1" />
<path stroke="#ffffff" d="M17 13h5M11 14h4M16 14h7M24 14h4M11 15h4M16 15h7M24 15h4M11 16h4M16 16h7M24 16h4M11 17h4M16 17h1M22 17h1M24 17h4M10 18h1M14 18h1M16 18h1M18 18h3M22 18h1M24 18h1M28 18h1M10 19h1M12 19h1M14 19h1M16 19h1M18 19h3M22 19h1M24 19h1M26 19h1M28 19h1M10 20h3M14 20h1M16 20h5M22 20h1M24 20h3M28 20h1M11 21h2M14 21h1M16 21h5M22 21h1M24 21h3M17 22h3M21 22h1" />
<path stroke="#3e3d3d" d="M32 13h1M32 14h1" />
<path stroke="#d0a31a" d="M9 14h1M29 14h1M8 15h1M30 15h1M5 16h3M31 16h2M4 17h1M7 17h1M31 17h1M34 17h1M3 18h1M7 18h1M31 18h1M35 18h1M3 19h1M7 19h1M31 19h1M35 19h1M3 20h1M6 20h1M32 20h1M35 20h1M3 21h1M35 21h1M3 22h1M35 22h1" />
<path stroke="#333333" d="M34 14h1M34 15h1M34 16h1" />
<path stroke="#eed620" d="M9 15h1M29 15h1M8 16h2M29 16h2M5 17h2M8 17h2M29 17h2M32 17h1M4 18h3M8 18h1M30 18h1M32 18h1M34 18h1M4 19h3M8 19h1M30 19h1M32 19h3M4 20h2M7 20h2M30 20h2M33 20h2M4 21h2M8 21h1M30 21h1M33 21h2M4 22h2M33 22h2" />
<path stroke="#515151" d="M33 15h1M33 16h1M33 17h1M33 18h1" />
<path stroke="#db3434" d="M17 17h5M11 18h3M17 18h1M21 18h1M25 18h3M11 19h1M13 19h1M17 19h1M21 19h1M25 19h1M27 19h1M13 20h1M21 20h1M27 20h1M13 21h1M21 21h1M27 21h1M20 22h1" />
<path stroke="#c59a19" d="M6 21h1M32 21h1M6 22h1M32 22h1" />
<path stroke="#e1ca1e" d="M7 21h1M31 21h1M7 22h2M30 22h2" />
<path stroke="#ececec" d="M10 21h1M28 21h1M10 22h2M13 22h2M16 22h1M22 22h1M24 22h2M27 22h2M10 23h2M13 23h2M16 23h3M20 23h3M24 23h2M27 23h2M10 24h2M13 24h2M16 24h3M20 24h3M24 24h2M27 24h2M11 25h1M13 25h1M18 25h1M20 25h1M25 25h1M27 25h1" />
<path stroke="#6d6c6c" d="M9 22h1M15 22h1M23 22h1M29 22h1M9 23h1M15 23h1M23 23h1M29 23h1" />
<path stroke="#d23131" d="M12 22h1M26 22h1M12 23h1M19 23h1M26 23h1M12 24h1M19 24h1M26 24h1" />
<path stroke="#b89016" d="M3 23h1M6 23h1M32 23h1M35 23h1M3 24h1M7 24h1M31 24h1M35 24h1M3 25h1M7 25h1M31 25h1M35 25h1M4 26h1M7 26h1M31 26h1M34 26h1M5 27h3M31 27h3M8 28h1M30 28h1M9 29h1M29 29h1" />
<path stroke="#d8c21b" d="M4 23h2M7 23h2M30 23h2M33 23h2M4 24h3M8 24h1M30 24h1M32 24h3M4 25h3M8 25h1M30 25h1M32 25h3M5 26h2M8 26h2M29 26h2M32 26h2M8 27h2M29 27h2M9 28h1M29 28h1" />
<path stroke="#636262" d="M9 24h1M15 24h1M23 24h1M29 24h1M9 25h1M15 25h1M23 25h1M29 25h1M10 26h1M15 26h1M23 26h1M28 26h1M10 27h1M15 27h1M23 27h1M28 27h1M10 28h1M15 28h1M23 28h1M28 28h1M10 29h1M15 29h1M23 29h1M28 29h1M11 30h4M16 30h1M22 30h1M24 30h4M17 31h5" />
<path stroke="#eeeeee" d="M10 25h1M14 25h1M16 25h2M21 25h2M24 25h1M28 25h1" />
<path stroke="#c32b2b" d="M12 25h1M19 25h1M26 25h1" />
<path stroke="#e5e5e5" d="M11 26h4M16 26h7M24 26h4M11 27h4M16 27h7M24 27h4" />
<path stroke="#d4d4d4" d="M11 28h4M16 28h7M24 28h4M11 29h4M16 29h7M24 29h4" />
<path stroke="#c5c5c5" d="M17 30h5" />
</svg>