<svg xmlns="http://www.w3.org/2000/svg" viewBox="0 -0.5 40 40" shape-rendering="crispEdges">
<metadata>Made with Pixels to Svg https://codepen.io/shshaw/pen/XbxvNj</metadata>
<path stroke="#7a7a7a" d="M17 12h5M11 13h4M16 13h1M22 13h1M24 13h4M10 14h1M15 14h1M23 14h1M28 14h1M10 15h1M15 15h1M23 15h1M28 15h1M10 16h1M15 16h1M23 16h1M28 16h1M10 17h1M15 17h1M23 17h1M28 17h1M9 18h1M15 18h1M23 18h1M29 18h1M9 19h1M15 19h1M23 19h1M29 19h1M9 20h1M15 20h1M23 20h1M29 20h1M9 21h1M15 21h1M23 21h1M29 21h1" />
<path stroke="#ffffff" d="M17 13h2M20 13h2M12 14h1M14 14h1M16 14h3M20 14h3M24 14h2M27 14h1M12 15h1M14 15h1M16 15h3M20 15h3M24 15h2M27 15h1M12 16h1M14 16h1M16 16h3M20 16h3M24 16h2M27 16h1M11 17h2M14 17h1M16 17h3M20 17h1M22 17h1M24 17h1M26 17h2M10 18h3M14 18h1M16 18h3M20 18h1M22 18h1M24 18h1M26 18h1M28 18h1M10 19h1M12 19h3M16 19h3M20 19h1M22 19h1M24 19h1M26 19h1M28 19h1M10 20h1M12 20h3M16 20h1M18 20h1M20 20h1M22 20h1M24 20h1M26 20h1M28 20h1M12 21h1M14 21h1M16 21h1M18 21h1M20 21h1M22 21h1M24 21h1M26 21h1M18 22h3" />
<path stroke="#d23131" d="M19 13h1M11 14h1M13 14h1M19 14h1M26 14h1M11 15h1M13 15h1M19 15h1M26 15h1M11 16h1M13 16h1M19 16h1M26 16h1M13 17h1M19 17h1M21 17h1M25 17h1M13 18h1M19 18h1M21 18h1M25 18h1M27 18h1M11 19h1M19 19h1M21 19h1M25 19h1M27 19h1M11 20h1M17 20h1M19 20h1M21 20h1M25 20h1M27 20h1M13 21h1M17 21h1M19 21h1M21 21h1M25 21h1M26 24h1" />
<path stroke="#d0a31a" d="M9 14h1M29 14h1M8 15h1M30 15h1M5 16h3M31 16h1M4 17h1M7 17h1M31 17h1M3 18h1M7 18h1M31 18h1M35 18h1M3 19h1M7 19h1M3 20h1M6 20h1M3 21h1M3 22h1" />
<path stroke="#eed620" d="M9 15h1M29 15h1M8 16h2M29 16h2M5 17h2M8 17h2M29 17h2M4 18h3M8 18h1M30 18h1M4 19h3M8 19h1M30 19h1M4 20h2M7 20h2M30 20h1M4 21h2M8 21h1M30 21h1M4 22h2" />
<path stroke="#333333" d="M32 16h2M32 17h1M34 17h1" />
<path stroke="#515151" d="M33 17h1" />
<path stroke="#8b1313" d="M32 18h3M31 19h1M35 19h1M31 20h1M35 20h1M31 21h1M35 21h1M32 22h3" />
<path stroke="#ca1212" d="M32 19h1" />
<path stroke="#b61111" d="M33 19h2M32 20h2" />
<path stroke="#9f1010" d="M34 20h1M32 21h3" />
<path stroke="#c59a19" d="M6 21h1M6 22h1" />
<path stroke="#e1ca1e" d="M7 21h1M7 22h2M30 22h1" />
<path stroke="#ececec" d="M10 21h1M28 21h1M10 22h1M14 22h1M16 22h1M22 22h1M24 22h1M28 22h1M10 23h2M14 23h1M16 23h1M18 23h3M22 23h1M24 23h1M27 23h2M10 24h2M14 24h1M16 24h1M18 24h2M22 24h1M24 24h1M27 24h2M11 25h1M18 25h1M27 25h1" />
<path stroke="#c32e2e" d="M11 21h1M27 21h1M11 22h3M17 22h1M21 22h1M25 22h3M12 23h2M17 23h1M21 23h1M25 23h2M12 24h2M17 24h1M20 24h2M25 24h1M12 25h2M17 25h1M19 25h2M25 25h2" />
<path stroke="#6d6c6c" d="M9 22h1M15 22h1M23 22h1M29 22h1M9 23h1M15 23h1M23 23h1M29 23h1" />
<path stroke="#d8c21b" d="M31 22h1M4 23h2M7 23h2M30 23h2M33 23h2M4 24h3M8 24h1M30 24h1M32 24h3M4 25h3M8 25h1M30 25h1M32 25h3M5 26h2M8 26h2M29 26h2M32 26h2M8 27h2M29 27h2M9 28h1M29 28h1" />
<path stroke="#b89016" d="M35 22h1M3 23h1M6 23h1M32 23h1M35 23h1M3 24h1M7 24h1M31 24h1M35 24h1M3 25h1M7 25h1M31 25h1M35 25h1M4 26h1M7 26h1M31 26h1M34 26h1M5 27h3M31 27h3M8 28h1M30 28h1M9 29h1M29 29h1" />
<path stroke="#636262" d="M9 24h1M15 24h1M23 24h1M29 24h1M9 25h1M15 25h1M23 25h1M29 25h1M10 26h1M15 26h1M23 26h1M28 26h1M10 27h1M15 27h1M23 27h1M28 27h1M10 28h1M15 28h1M23 28h1M28 28h1M10 29h1M15 29h1M23 29h1M28 29h1M11 30h4M16 30h1M22 30h1M24 30h4M17 31h5" />
<path stroke="#eeeeee" d="M10 25h1M14 25h1M16 25h1M21 25h2M24 25h1M28 25h1" />
<path stroke="#b22a2a" d="M11 26h3M17 26h1M19 26h2M25 26h3M11 27h1M13 27h1M17 27h1M19 27h2M25 27h3" />
<path stroke="#e5e5e5" d="M14 26h1M16 26h1M18 26h1M21 26h2M24 26h1M12 27h1M14 27h1M16 27h1M18 27h1M21 27h2M24 27h1" />
<path stroke="#ae2a2a" d="M11 28h1M13 28h1M17 28h1M19 28h2M25 28h1M27 28h1M11 29h1M13 29h1M17 29h1M20 29h1M25 29h1M27 29h1" />
<path stroke="#d4d4d4" d="M12 28h1M14 28h1M16 28h1M18 28h1M21 28h2M24 28h1M26 28h1M12 29h1M14 29h1M16 29h1M18 29h2M21 29h2M24 29h1M26 29h1" />
<path stroke="#9d2626" d="M17 30h1M20 30h1" />
<path stroke="#c5c5c5" d="M18 30h2M21 30h1" />
</svg>