<svg xmlns="http://www.w3.org/2000/svg" viewBox="0 -0.5 40 40" shape-rendering="crispEdges">
<metadata>Made with Pixels to Svg https://codepen.io/shshaw/pen/XbxvNj</metadata>
<path stroke="#181818" d="M6 8h6M13 8h2M5 9h1M5 10h1M5 11h1M5 12h1M5 13h1M14 14h1M14 15h1M14 23h1M20 23h1M14 24h1M20 24h1M20 25h1M20 26h1M20 27h1" />
<path stroke="#1c1c1c" d="M12 8h1M15 8h5M20 9h1M20 10h1M20 11h1M20 12h1M20 13h1M20 14h1M20 15h1" />
<path stroke="#424242" d="M6 9h2M6 10h1M6 11h1M6 12h1M6 13h1M6 14h1M6 15h1M6 16h1M6 17h1M6 18h1M6 19h1M6 20h1M6 21h1M6 22h1M6 23h1M6 24h1M6 25h1M6 26h1M6 27h1M6 28h2M6 29h14" />
<path stroke="#585858" d="M8 9h12M7 10h6M16 10h4M7 11h5M17 11h3M7 12h4M18 12h2M7 13h4M18 13h2M7 14h4M18 14h2M7 15h4M18 15h2M7 16h4M18 16h2M7 17h4M18 17h2M7 18h4M18 18h1M7 19h4M18 19h1M7 20h4M18 20h1M7 21h4M18 21h2M7 22h4M18 22h2M7 23h4M18 23h2M7 24h4M18 24h2M7 25h4M18 25h2M7 26h4M18 26h2M7 27h5M17 27h3M8 28h5M16 28h4" />
<path stroke="#333232" d="M13 10h3M12 11h1M16 11h1M11 12h1M17 12h1M11 13h1M17 13h1M11 14h1M17 14h1M11 15h1M17 15h1M11 16h1M17 16h1M11 17h1M17 17h1M11 18h1M17 18h1M11 19h1M17 19h1M17 20h1M17 21h1M17 22h1M17 23h1" />
<path stroke="#3e3e3e" d="M13 11h3M12 12h2M15 12h2M12 13h1M16 13h1M12 14h1M16 14h1M12 15h1M16 15h1M12 16h1M16 16h1M12 17h1M16 17h1M12 18h1M16 18h1M12 19h1M16 19h1M12 20h1M16 20h1M12 21h1M16 21h1M12 22h1M16 22h1M12 23h1M16 23h1M12 24h1M16 24h1M12 25h1M16 25h1M12 26h2M15 26h2M13 27h3" />
<path stroke="#242424" d="M14 12h1M13 13h3M13 14h1M15 14h1M13 15h1M15 15h1M15 16h1M15 17h1M15 18h1M15 19h1M15 20h1M15 21h1M15 22h1M15 23h1" />
<path stroke="#d09545" d="M24 13h2M20 17h1M19 18h1" />
<path stroke="#c79552" d="M26 13h1M27 14h2M29 15h1M19 19h1M25 19h1M19 20h1M20 21h1M20 22h1M21 23h1" />
<path stroke="#111111" d="M5 14h1M5 15h1M5 16h1M5 17h1M5 18h1M5 19h1M5 20h1M5 21h1M5 22h1M5 23h1M20 28h1M20 29h1M15 30h5" />
<path stroke="#e5a34c" d="M22 14h2M21 15h1M20 16h1" />
<path stroke="#fbe051" d="M24 14h3M22 15h2M27 15h2M21 16h2M28 16h2M21 17h1M20 18h1M24 18h3M20 19h1M24 19h1M20 20h1M21 21h1" />
<path stroke="#ecd247" d="M24 15h3M23 16h1M27 16h1M22 17h1M28 17h1M21 18h1M29 18h1M21 19h1M21 20h1M22 21h1" />
<path stroke="#202020" d="M13 16h1M13 17h1M13 18h1M13 19h1M13 20h1M13 21h1M13 22h1M13 23h1M13 24h1M15 24h1M13 25h3M14 26h1" />
<path stroke="#161616" d="M14 16h1M14 17h1M14 18h1M14 19h1M14 20h1M14 21h1M14 22h1" />
<path stroke="#e1c844" d="M24 16h3M23 17h1M27 17h1M22 18h1M28 18h1M22 19h1M22 20h1" />
<path stroke="#b68544" d="M30 16h1M30 17h1M31 18h1M31 19h1M22 24h2" />
<path stroke="#eeba74" d="M24 17h3M23 18h1M27 18h1M23 19h1M27 19h1M23 20h1" />
<path stroke="#d6be40" d="M29 17h1M30 18h1M21 22h2M22 23h2" />
<path stroke="#e8cf4a" d="M26 19h1M24 20h2" />
<path stroke="#d2bb3f" d="M28 19h1M28 20h1M23 21h1M27 21h1M24 22h3" />
<path stroke="#d6be3d" d="M29 19h1M29 20h1M28 21h1M23 22h1M27 22h1M24 23h3" />
<path stroke="#c7b13f" d="M30 19h1M30 20h1M29 21h1M28 22h2M27 23h2M24 24h3" />
<path stroke="#2b2a2a" d="M11 20h1M17 24h1M17 25h1M17 26h1" />
<path stroke="#e1c949" d="M26 20h1" />
<path stroke="#d0a263" d="M27 20h1M24 21h3" />
<path stroke="#ac7e41" d="M31 20h1M30 21h1M30 22h1M29 23h1M27 24h2M24 25h3" />
<path stroke="#272727" d="M11 21h1M11 22h1M11 23h1M11 24h1M11 25h1M11 26h1M12 27h1M16 27h1M13 28h3" />
<path stroke="#0f0f0f" d="M5 24h1M5 25h1M5 26h1M5 27h1M5 28h1M5 29h1M6 30h9" />
</svg>