<svg xmlns="http://www.w3.org/2000/svg" viewBox="0 -0.5 32 32" shape-rendering="crispEdges">
<metadata>Made with Pixels to Svg https://codepen.io/shshaw/pen/XbxvNj</metadata>
<path stroke="#f2c24e" d="M13 8h5M11 9h2M18 9h2M10 10h1M15 10h1M20 10h1M9 11h1M14 11h1M16 11h1M21 11h1M8 12h1M12 12h2M17 12h2M22 12h1M8 13h1M11 13h1M14 13h3M19 13h1M22 13h1M7 14h1M11 14h1M13 14h1M17 14h1M19 14h1M7 15h1M10 15h1M12 15h1M15 15h1M18 15h1M20 15h1M7 16h1M9 16h1M12 16h1M14 16h1M16 16h1M18 16h1M21 16h1M7 17h1M10 17h1M12 17h1M15 17h1M18 17h1M20 17h1M7 18h1M11 18h1M13 18h1M17 18h1M19 18h1M8 19h1M11 19h1M14 19h3M19 19h1M8 20h1M12 20h2M17 20h2M9 21h1M14 21h1M16 21h1M10 22h1M15 22h1M11 23h1" />
<path stroke="#fffdf6" d="M13 9h3M11 10h2M10 11h2M9 12h2M9 13h1M8 14h2M8 15h1M8 16h1" />
<path stroke="#ffda03" d="M16 9h2M13 10h2M16 10h4M12 11h2M17 11h4M11 12h1M19 12h3M10 13h1M20 13h2M10 14h1M14 14h3M20 14h3M9 15h1M13 15h2M16 15h2M21 15h1M13 16h1M15 16h1M17 16h1M8 17h2M13 17h2M16 17h2M21 17h1M8 18h3M14 18h3M20 18h1M9 19h2M20 19h1M9 20h3M19 20h1M10 21h4M17 21h2M11 22h4M16 22h2" />
<path stroke="#d2a842" d="M15 11h1M14 12h2M12 13h2" />
<path stroke="#c9a13f" d="M16 12h1M17 13h2M12 14h1M18 14h1M11 15h1M10 16h2M11 17h1M12 18h1M12 19h1" />
<path stroke="#ddb148" d="M23 14h1M23 15h1M23 16h1M23 17h1M23 18h1M22 19h1M22 20h1M21 21h1M20 22h1M12 23h1M18 23h2M13 24h5" />
<path stroke="#c19b3d" d="M19 15h1M19 16h2M19 17h1M18 18h1M13 19h1M17 19h2M14 20h3M15 21h1" />
<path stroke="#dfbe00" d="M22 15h1M22 16h1M22 17h1M21 18h2M21 19h1M20 20h2M19 21h2M18 22h2M13 23h5" />
</svg>