<svg xmlns="http://www.w3.org/2000/svg" viewBox="0 -0.5 40 40" shape-rendering="crispEdges">
<metadata>Made with Pixels to Svg https://codepen.io/shshaw/pen/XbxvNj</metadata>
<path stroke="#181818" d="M6 8h6M13 8h2M5 9h1M5 10h1M5 11h1M5 12h1M5 13h1M14 14h1M14 15h1M14 23h1M14 24h1M20 25h1M20 26h1M20 27h1" />
<path stroke="#1c1c1c" d="M12 8h1M15 8h5M20 9h1M20 10h1M20 11h1M20 12h1M20 13h1" />
<path stroke="#424242" d="M6 9h2M6 10h1M6 11h1M6 12h1M6 13h1M6 14h1M6 15h1M6 16h1M6 17h1M6 18h1M6 19h1M6 20h1M6 21h1M6 22h1M6 23h1M6 24h1M6 25h1M6 26h1M6 27h1M6 28h2M6 29h14" />
<path stroke="#585858" d="M8 9h12M7 10h6M16 10h4M7 11h5M17 11h3M7 12h4M18 12h2M7 13h4M19 13h1M7 14h4M7 15h4M7 16h4M7 17h4M7 18h4M7 19h4M7 20h4M7 21h4M7 22h4M7 23h4M7 24h4M7 25h4M19 25h1M7 26h4M18 26h2M7 27h5M17 27h3M8 28h5M16 28h4" />
<path stroke="#333232" d="M13 10h3M12 11h1M16 11h1M11 12h1M17 12h1M11 13h1M11 14h1M11 15h1M11 16h1M11 17h1M11 18h1M11 19h1" />
<path stroke="#3e3e3e" d="M13 11h3M12 12h2M15 12h2M12 13h1M12 14h1M12 15h1M12 16h1M12 17h1M12 18h1M12 19h1M12 20h1M12 21h1M12 22h1M12 23h1M12 24h1M12 25h1M12 26h2M15 26h2M13 27h3" />
<path stroke="#f2e290" d="M23 11h1M22 12h1M24 12h1M26 12h1M23 13h1M26 13h1M24 15h1M28 15h1M26 17h1M26 18h1M29 19h1M28 20h1M30 20h1M29 21h1" />
<path stroke="#242424" d="M14 12h1M13 13h3M13 14h1M13 15h1" />
<path stroke="#d09545" d="M16 13h2" />
<path stroke="#c79552" d="M18 13h1M19 14h2M21 15h1M17 19h1" />
<path stroke="#111111" d="M5 14h1M5 15h1M5 16h1M5 17h1M5 18h1M5 19h1M5 20h1M5 21h1M5 22h1M5 23h1M20 28h1M20 29h1M15 30h5" />
<path stroke="#e5a34c" d="M15 14h1" />
<path stroke="#fbe051" d="M16 14h3M15 15h1M19 15h2M20 16h2M16 18h3M16 19h1" />
<path stroke="#d6b17f" d="M26 14h1M25 15h1M27 15h1M26 16h1" />
<path stroke="#ecd247" d="M16 15h3M15 16h1M19 16h1M20 17h1M21 18h1" />
<path stroke="#202020" d="M13 16h1M13 17h1M13 18h1M13 19h1M13 20h1M13 21h1M13 22h1M13 23h1M13 24h1M13 25h3M14 26h1" />
<path stroke="#161616" d="M14 16h1M14 17h1M14 18h1M14 19h1M14 20h1M14 21h1M14 22h1" />
<path stroke="#e1c844" d="M16 16h3M15 17h1M19 17h1M20 18h1" />
<path stroke="#b68544" d="M22 16h1M22 17h1M23 18h1M23 19h1M15 24h1" />
<path stroke="#eeba74" d="M16 17h3M15 18h1M19 18h1M15 19h1M19 19h1M15 20h1" />
<path stroke="#d6be40" d="M21 17h1M22 18h1M15 23h1" />
<path stroke="#e8cf4a" d="M18 19h1M16 20h2" />
<path stroke="#d2bb3f" d="M20 19h1M20 20h1M15 21h1M19 21h1M16 22h3" />
<path stroke="#d6be3d" d="M21 19h1M21 20h1M20 21h1M15 22h1M19 22h1M16 23h3" />
<path stroke="#c7b13f" d="M22 19h1M22 20h1M21 21h1M20 22h2M19 23h2M16 24h3" />
<path stroke="#2b2a2a" d="M11 20h1M17 26h1" />
<path stroke="#e1c949" d="M18 20h1" />
<path stroke="#d0a263" d="M19 20h1M16 21h3" />
<path stroke="#ac7e41" d="M23 20h1M22 21h1M22 22h1M21 23h1M19 24h2M16 25h3" />
<path stroke="#272727" d="M11 21h1M11 22h1M11 23h1M11 24h1M11 25h1M11 26h1M12 27h1M16 27h1M13 28h3" />
<path stroke="#0f0f0f" d="M5 24h1M5 25h1M5 26h1M5 27h1M5 28h1M5 29h1M6 30h9" />
</svg>