<svg xmlns="http://www.w3.org/2000/svg" viewBox="0 -0.5 40 40" shape-rendering="crispEdges">
<metadata>Made with Pixels to Svg https://codepen.io/shshaw/pen/XbxvNj</metadata>
<path stroke="#000000" d="M23 0h4M21 1h2M27 1h3M10 2h5M18 2h3M29 2h2M8 3h2M15 3h2M18 3h1M30 3h2M8 4h1M16 4h3M31 4h1M7 5h1M17 5h1M31 5h1M7 6h1M17 6h1M31 6h1M7 7h1M16 7h12M30 7h6M6 8h1M11 8h6M27 8h4M36 8h2M6 9h1M10 9h3M29 9h2M37 9h1M6 10h2M9 10h2M30 10h2M37 10h1M7 11h3M31 11h2M37 11h1M7 12h2M32 12h2M37 12h1M6 13h2M13 13h4M33 13h5M5 14h2M12 14h5M24 14h4M34 14h3M4 15h2M11 15h5M24 15h6M35 15h1M3 16h2M10 16h5M25 16h6M36 16h1M3 17h1M9 17h1M12 17h2M27 17h5M36 17h1M2 18h2M8 18h2M29 18h4M37 18h1M2 19h1M7 19h2M30 19h4M37 19h1M2 20h1M32 20h3M37 20h1M1 21h2M37 21h1M1 22h1M17 22h5M37 22h2M0 23h2M16 23h2M20 23h3M38 23h1M0 24h1M16 24h1M20 24h1M22 24h1M38 24h1M0 25h1M16 25h1M20 25h1M22 25h1M38 25h1M0 26h1M16 26h1M20 26h1M22 26h1M38 26h1M0 27h1M16 27h1M18 27h3M22 27h1M38 27h1M0 28h1M16 28h2M19 28h2M22 28h1M37 28h2M0 29h1M16 29h1M19 29h1M22 29h1M37 29h1M0 30h1M19 30h1M22 30h1M37 30h1M0 31h2M18 31h1M22 31h1M37 31h1M1 32h1M18 32h1M22 32h1M37 32h1M1 33h1M18 33h1M22 33h2M36 33h2M1 34h2M18 34h1M23 34h1M36 34h1M2 35h1M18 35h1M23 35h1M35 35h2M2 36h2M19 36h2M23 36h1M33 36h3M3 37h2M21 37h3M31 37h3M4 38h6M24 38h8M9 39h16" />
<path stroke="#a11e1e" d="M23 1h4M21 2h8M10 3h5M19 3h11M9 4h7M19 4h12M8 5h9M18 5h13M8 6h9M18 6h13M8 7h8M28 7h2M7 8h4M31 8h5M7 9h3M31 9h6M8 10h1M32 10h5M33 11h4M34 12h3M21 24h1M21 25h1M21 26h1M21 27h1M21 28h1M20 29h2M20 30h2M19 31h3M19 32h3M19 33h3M19 34h4M19 35h4M21 36h2" />
<path stroke="#eae8e7" d="M17 8h10M13 9h16M11 10h19M10 11h21M9 12h23M8 13h5M17 13h16M7 14h5M17 14h7M28 14h6M6 15h5M16 15h8M30 15h5M5 16h5M15 16h10M31 16h5M4 17h5M14 17h11M32 17h4M4 18h4M13 18h12M28 18h1M33 18h4M3 19h4M9 19h2M13 19h13M28 19h2M34 19h3M3 20h8M13 20h13M28 20h4M35 20h2M3 21h8M13 21h13M28 21h9M2 22h8M13 22h4M22 22h4M29 22h8M2 23h8M11 23h5M23 23h5M30 23h8M1 24h8M10 24h6M23 24h15M1 25h15M23 25h15M1 26h15M23 26h15M1 27h15M23 27h15M1 28h15M18 28h1M23 28h14M1 29h15M17 29h2M23 29h14M1 30h18M23 30h14M2 31h16M23 31h14M2 32h16M23 32h14M2 33h16M24 33h12M3 34h15M24 34h12M3 35h15M24 35h11M4 36h15M24 36h9M5 37h16M24 37h7M10 38h14" />
<path stroke="#ffffff" d="M10 17h2M25 17h2M10 18h2M25 18h2" />
<path stroke="#241e1e" d="M12 18h1M27 18h1M11 19h2M26 19h2M11 20h2M26 20h2M11 21h2M26 21h2M12 22h1M26 22h1" />
<path stroke="#74edff" d="M10 22h2M27 22h2M10 23h1M28 23h2M9 24h1" />
<path stroke="#d8bf97" d="M18 23h2M17 24h3M17 25h3M17 26h3M17 27h1" />
</svg>