<svg xmlns="http://www.w3.org/2000/svg" viewBox="0 -0.5 20 20" shape-rendering="crispEdges">
<metadata>Made with Pixels to Svg https://codepen.io/shshaw/pen/XbxvNj</metadata>
<path stroke="#695943" d="M7 6h2M6 7h2M4 8h2M3 9h1M16 10h1M16 11h1" />
<path stroke="#806c52" d="M9 6h4M13 7h2M15 8h1M16 9h1" />
<path stroke="#f0f0f0" d="M8 7h5M6 8h3M13 8h2M4 9h4M9 9h1M14 9h2M3 10h6M13 10h3M3 11h13M6 12h9M7 13h5" />
<path stroke="#dfca9f" d="M9 8h4M10 9h4" />
<path stroke="#bfa169" d="M8 9h1M9 10h2" />
<path stroke="#655641" d="M2 10h1M2 11h1M3 12h3M15 12h1M6 13h1M12 13h3M7 14h5" />
<path stroke="#c6ae80" d="M11 10h2" />
</svg>