<svg xmlns="http://www.w3.org/2000/svg" viewBox="0 -0.5 20 20" shape-rendering="crispEdges">
<metadata>Made with Pixels to Svg https://codepen.io/shshaw/pen/XbxvNj</metadata>
<path stroke="#f4cf10" d="M7 6h6M7 7h1M13 7h1" />
<path stroke="#d8b711" d="M6 7h1M14 7h1M4 8h2M15 8h1M3 9h1M16 9h1M2 10h1M16 10h1M16 11h1" />
<path stroke="#f2d540" d="M8 7h5M6 8h3M13 8h2M4 9h4M14 9h2M3 10h6M13 10h3M3 11h13M6 12h9M7 13h5" />
<path stroke="#d0a868" d="M9 8h4M10 9h4" />
<path stroke="#ba7d1a" d="M8 9h1M9 10h4" />
<path stroke="#f0f0f0" d="M9 9h1" />
<path stroke="#bfa30f" d="M2 11h1M3 12h2M15 12h1" />
<path stroke="#b29810" d="M5 12h1M6 13h1M12 13h3M7 14h5" />
</svg>