<svg xmlns="http://www.w3.org/2000/svg" viewBox="0 -0.5 20 20" shape-rendering="crispEdges">
<metadata>Made with Pixels to Svg https://codepen.io/shshaw/pen/XbxvNj</metadata>
<path stroke="#949292" d="M7 6h3M6 7h1M4 8h2M15 8h1M3 9h1M16 9h1" />
<path stroke="#a3a3a3" d="M10 6h3M13 7h2" />
<path stroke="#f0f0f0" d="M7 7h6M6 8h2M14 8h1M4 9h3M9 9h1M14 9h2M3 10h5M14 10h2M3 11h13M6 12h9M7 13h5" />
<path stroke="#f2d540" d="M8 8h1M13 8h1M7 9h1M8 10h1M13 10h1" />
<path stroke="#d0a868" d="M9 8h4M10 9h4" />
<path stroke="#ba7d1a" d="M8 9h1M9 10h4" />
<path stroke="#787878" d="M2 10h1M2 11h1M16 11h1M3 12h3M15 12h1M6 13h1M12 13h3M7 14h5" />
<path stroke="#7e7e7e" d="M16 10h1" />
</svg>