<svg xmlns="http://www.w3.org/2000/svg" viewBox="0 -0.5 20 20" shape-rendering="crispEdges">
<metadata>Made with Pixels to Svg https://codepen.io/shshaw/pen/XbxvNj</metadata>
<path stroke="#1e1e1e" d="M7 6h3M6 7h2M4 8h2M3 9h1M2 10h1M16 10h1" />
<path stroke="#2d2d2d" d="M10 6h3M13 7h2M15 8h1M16 9h1" />
<path stroke="#312d28" d="M8 7h2M7 8h1M14 8h1M6 9h1M5 10h1M15 10h1M3 11h2M7 11h2M10 12h1M12 12h1M9 13h1M11 13h1" />
<path stroke="#423b33" d="M10 7h1M12 7h1M5 9h1M14 10h1M6 11h1M9 11h1M8 12h1M13 12h1M7 13h1M10 13h1" />
<path stroke="#f0f0f0" d="M11 7h1M6 8h1M8 8h1M13 8h1M4 9h1M7 9h1M9 9h1M14 9h2M3 10h2M6 10h3M13 10h1M5 11h1M10 11h6M6 12h2M9 12h1M11 12h1M14 12h1M8 13h1" />
<path stroke="#dfd29f" d="M9 8h4M10 9h4" />
<path stroke="#bdb183" d="M8 9h1M9 10h4" />
<path stroke="#111111" d="M2 11h1M16 11h1M3 12h3M15 12h1M6 13h1M12 13h3M7 14h5" />
</svg>