<svg xmlns="http://www.w3.org/2000/svg" viewBox="0 -0.5 32 32" shape-rendering="crispEdges">
<metadata>Made with Pixels to Svg https://codepen.io/shshaw/pen/XbxvNj</metadata>
<path stroke="#520a1e" d="M8 9h3M12 9h2M7 10h1M11 10h1M14 10h1M7 11h1M11 11h1M15 11h1M7 12h1M15 12h1M6 13h2M15 13h1M5 14h1M8 14h1M5 15h1M8 15h1M5 16h1M6 17h1M7 18h1M8 19h1" />
<path stroke="#8f2133" d="M8 10h1M12 10h1M8 11h1M10 11h1M12 11h1M8 12h4M14 12h1M8 13h3M6 14h1M9 14h1M6 15h1M9 15h1M6 16h3M7 17h2M8 18h1" />
<path stroke="#b52a41" d="M9 10h2M13 10h1M9 11h1M13 11h2M7 14h1M7 15h1" />
<path stroke="#060606" d="M20 10h1M22 10h3M19 11h1M25 11h1M18 12h1M24 12h2M23 13h1M23 14h1M21 15h2M20 16h2M19 17h1" />
<path stroke="#007272" d="M21 10h1M18 13h1M18 14h1" />
<path stroke="#00d9d9" d="M20 11h2M19 12h2M19 13h1" />
<path stroke="#131313" d="M22 11h3M22 12h2M21 13h2M20 14h3M20 15h1M19 16h1" />
<path stroke="#0f0f0f" d="M12 12h2M11 13h1M14 13h1M10 14h1M15 14h2M10 15h1M16 15h1M9 16h1M16 16h1M9 17h1M17 17h1M9 18h1M9 19h2M18 19h2M10 20h1M20 20h2M26 20h1M10 21h2M22 21h5M11 22h2M25 22h1M11 23h3M24 23h1M12 24h3M21 24h1M23 24h1M13 25h7M21 25h2M15 26h6" />
<path stroke="#bd00c9" d="M21 12h1M20 13h1M19 14h1M19 15h1" />
<path stroke="#161616" d="M12 13h2M11 14h4M11 15h5M10 16h6M10 17h2M16 17h1M10 18h1M11 20h1M18 20h2M12 21h1M19 21h3M13 22h1M19 22h1M23 22h2M14 23h1M18 23h1M20 23h1M22 23h1M15 24h1M18 24h1" />
<path stroke="#ffffff" d="M24 13h2M25 14h1M17 15h1M23 15h1M25 15h2M17 16h1M22 16h5M18 17h1M20 17h3M26 17h1M13 18h3M18 18h4M26 18h1M15 19h2M20 19h3M25 19h2M16 20h2M22 20h4M15 21h4M17 22h2M16 23h2" />
<path stroke="#c4c4c4" d="M26 13h1M17 14h1M26 14h1M27 15h1M27 16h1M27 17h1M27 18h1M27 19h1" />
<path stroke="#050505" d="M24 14h1M24 15h1" />
<path stroke="#9f00a9" d="M18 15h1M18 16h1" />
<path stroke="#a1a1a1" d="M12 17h4M11 18h1M16 18h2M11 19h1M17 19h1" />
<path stroke="#b3914f" d="M23 17h3M22 18h1M25 18h1M23 19h2" />
<path stroke="#c2c2c2" d="M12 18h1M12 19h3M14 21h1" />
<path stroke="#e5aa7a" d="M23 18h1M14 27h1M16 27h1M21 27h1M23 27h1" />
<path stroke="#f7e3bc" d="M24 18h1" />
<path stroke="#8a8a8a" d="M12 20h4M13 21h1M14 22h3M15 23h1M16 24h2" />
<path stroke="#e1e1e1" d="M20 22h3M19 23h1M21 23h1M23 23h1M19 24h2M22 24h1M20 25h1" />
<path stroke="#ad7832" d="M13 26h2M21 26h2M13 27h1M15 27h1M19 27h2M22 27h1" />
</svg>