<svg xmlns="http://www.w3.org/2000/svg" viewBox="0 -0.5 32 32" shape-rendering="crispEdges">
<metadata>Made with Pixels to Svg https://codepen.io/shshaw/pen/XbxvNj</metadata>
<path stroke="#520a1e" d="M18 7h4M18 8h1M22 8h2M17 9h2M21 9h1M24 9h1M17 10h1M25 10h1M17 11h1M25 11h1M18 12h1" />
<path stroke="#8f2133" d="M19 8h1M19 9h2M22 9h1M18 10h1M18 11h1" />
<path stroke="#b52a41" d="M20 8h2M23 9h1M24 10h1" />
<path stroke="#11344b" d="M8 9h3M12 9h2M7 10h1M11 10h1M14 10h1M7 11h1M11 11h1M15 11h1M7 12h1M15 12h1M6 13h2M15 13h1M5 14h1M8 14h1M5 15h1M8 15h1M5 16h1M6 17h1M7 18h1M8 19h1" />
<path stroke="#173f5a" d="M8 10h1M12 10h1M8 11h1M10 11h1M12 11h1M8 12h4M14 12h1M8 13h3M6 14h1M9 14h1M6 15h1M9 15h1M6 16h3M7 17h2M8 18h1" />
<path stroke="#1d4f70" d="M9 10h2M13 10h1M9 11h1M13 11h2M7 14h1M7 15h1" />
<path stroke="#9c9c9c" d="M19 10h2M19 11h1M19 12h1M18 13h1M17 14h1M27 15h1M27 16h1M15 17h2M16 18h2M17 19h1M15 20h1M15 22h2" />
<path stroke="#acacac" d="M21 10h3M24 11h1M25 12h1M26 13h1M26 14h1" />
<path stroke="#d2d2d2" d="M20 11h2M21 12h2M22 13h2M23 14h1M25 15h1M26 16h1" />
<path stroke="#dcdddd" d="M22 11h2M23 12h2M24 13h2M25 14h1M26 15h1" />
<path stroke="#6d6d6d" d="M12 12h2M11 13h1M14 13h1M10 14h1M10 15h1M9 16h1M9 17h1M9 18h1M26 20h1M26 21h1" />
<path stroke="#c6c9ca" d="M20 12h1M12 13h1M19 13h3M11 14h1M13 14h2M18 14h3M22 14h1M11 15h1M13 15h1M15 15h1M17 15h4M22 15h2M10 16h1M12 16h1M14 16h1M16 16h1M18 16h8M11 17h1M17 17h1M19 17h4M26 17h1M15 18h1M18 18h4M26 18h1M16 19h1M18 19h1M20 19h3M25 19h2M16 20h2M19 20h1M21 20h5M16 21h3M20 21h5M13 22h1M17 22h1M19 22h1M21 22h1M14 23h1M17 23h2M20 23h1M18 24h1" />
<path stroke="#212229" d="M13 13h1M12 15h1M14 15h1M16 15h1M17 16h1M18 17h1M19 19h1M20 20h1M25 21h1" />
<path stroke="#1c1d22" d="M12 14h1M11 16h1M13 16h1M15 16h1M10 17h1M18 20h1M19 21h1M18 22h1M20 22h1M22 22h1M19 23h1M21 23h1" />
<path stroke="#858787" d="M15 14h2M27 17h1M27 18h1M27 19h1" />
<path stroke="#050505" d="M21 14h1M24 14h1M21 15h1M24 15h1" />
<path stroke="#929292" d="M12 17h3" />
<path stroke="#b3914f" d="M23 17h3M22 18h1M25 18h1M23 19h2" />
<path stroke="#111115" d="M10 18h1M14 18h1M13 19h1M15 19h1M11 21h1M15 21h1M12 22h1M24 22h1M13 23h1M23 23h1M13 24h1M15 24h1M19 24h1M21 24h2M16 25h1M18 25h1M20 25h1" />
<path stroke="#898989" d="M11 18h2M11 19h1M12 20h3M13 21h1M14 22h1M15 23h1" />
<path stroke="#b2b2b2" d="M13 18h1M10 19h1M12 19h1M14 19h1M11 20h1M12 21h1M14 21h1M23 22h1M12 23h1M16 23h1M22 23h1M14 24h1M16 24h2M20 24h1M15 25h1M17 25h1M19 25h1" />
<path stroke="#e5aa7a" d="M23 18h1M14 27h1M16 27h1M21 27h1M23 27h1" />
<path stroke="#f7e3bc" d="M24 18h1" />
<path stroke="#5e5e5e" d="M9 19h1M10 20h1M10 21h1M11 22h1M25 22h1M11 23h1M24 23h1M12 24h1M23 24h1M13 25h2M21 25h2M15 26h6" />
<path stroke="#ad7832" d="M13 26h2M21 26h2M13 27h1M15 27h1M19 27h2M22 27h1" />
</svg>