<svg xmlns="http://www.w3.org/2000/svg" viewBox="0 -0.5 12 14" shape-rendering="crispEdges">
<metadata>Made with Pixels to Svg https://codepen.io/shshaw/pen/XbxvNj</metadata>
<path stroke="#947334" d="M4 0h4M3 1h1M8 1h1M2 2h1M9 2h1M1 3h1M10 3h1M10 4h1" />
<path stroke="#d8c9ad" d="M4 1h2M3 2h1M2 3h1M5 3h1M4 4h1M1 5h1M4 5h1M3 6h1M2 7h1" />
<path stroke="#d8c7a6" d="M6 1h2M6 2h3M6 3h4M5 4h5M5 5h5M1 6h1M4 6h5M1 7h1M3 7h6M2 8h7M2 9h6M4 10h2" />
<path stroke="#e8e6e0" d="M4 2h2M3 3h2M2 4h2M2 5h2M2 6h1" />
<path stroke="#8e7136" d="M1 4h1M0 5h1M0 6h1M0 7h1" />
<path stroke="#c1b398" d="M10 5h1M9 6h2M9 7h2M1 8h1M9 8h1M1 9h1M8 9h1M1 10h3M6 10h2M2 11h4" />
<path stroke="#836733" d="M11 5h1M11 6h1" />
<path stroke="#856a37" d="M11 7h1M11 8h1M4 13h3" />
<path stroke="#8e7034" d="M0 8h1M0 9h1M0 10h1M1 11h1" />
<path stroke="#bdaf94" d="M10 8h1M9 9h2M8 10h3M6 11h4M3 12h6" />
<path stroke="#7e6332" d="M11 9h1M11 10h1M10 11h1M9 12h1M7 13h2" />
<path stroke="#876a34" d="M2 12h1M3 13h1" />
</svg>