<svg xmlns="http://www.w3.org/2000/svg" viewBox="0 -0.5 200 115" shape-rendering="crispEdges">
<metadata>Made with Pixels to Svg https://codepen.io/shshaw/pen/XbxvNj</metadata>
<path stroke="#b0a59d" d="M0 0h200M0 1h200M0 2h200M0 3h200M0 4h200M0 5h200M0 6h200M0 7h200M0 8h200M0 9h200M0 10h200M0 11h200M0 12h200M0 13h200M0 14h200M0 15h200M0 16h200M0 17h200M0 18h200M0 19h200M0 20h200M0 21h200M0 22h200M0 23h200M0 24h200M0 25h24M27 25h173M0 26h23M28 26h172M0 27h22M29 27h3M34 27h132M0 28h21M29 28h1M35 28h131M0 29h21M36 29h130M0 30h21M36 30h132M0 31h20M37 31h131M0 32h20M37 32h131M0 33h20M37 33h131M0 34h20M34 34h1M37 34h131M0 35h20M34 35h2M37 35h131M0 36h20M22 36h1M34 36h2M37 36h49M128 36h40M0 37h20M21 37h2M34 37h52M128 37h40M0 38h22M34 38h52M128 38h40M0 39h22M24 39h1M34 39h52M128 39h40M0 40h22M23 40h3M33 40h53M128 40h40M0 41h23M54 41h32M128 41h40M0 42h22M55 42h31M128 42h40M0 43h22M55 43h31M128 43h40M0 44h13M14 44h8M0 45h13M14 45h8M55 45h31M128 45h40M0 46h13M14 46h8M0 47h12M13 47h1M15 47h7M0 48h12M13 48h2M16 48h6M0 49h5M6 49h6M16 49h6M0 50h4M5 50h6M16 50h6M0 51h5M6 51h4M17 51h5M0 52h4M6 52h4M17 52h5M0 53h3M7 53h3M17 53h5M0 54h2M8 54h3M16 54h6M0 55h2M8 55h4M15 55h7M0 56h2M8 56h14M0 57h3M7 57h15M0 58h4M6 58h16M0 59h22M0 60h22M0 61h22M0 62h22M0 63h22M0 64h22M0 65h22M0 66h22" />
<path stroke="#588140" d="M24 25h3M23 26h1M27 26h1M22 27h1M28 27h1M21 28h1M28 28h1M21 29h1M29 29h1M25 30h2M29 30h2M20 31h1M24 31h1M26 31h2M30 31h1M20 32h1M23 32h1M28 32h1M30 32h1M20 33h1M22 33h1M20 34h1M22 34h1M20 35h1M22 35h1M20 36h2M20 37h1" />
<path stroke="#7aab5e" d="M24 26h3M23 27h1M22 28h2M22 29h1M21 30h2M21 31h1M21 32h1M21 33h1" />
<path stroke="#619244" d="M24 27h4M24 28h4M23 29h6M23 30h2M27 30h2M22 31h2M28 31h2M22 32h1M29 32h1M21 34h1M21 35h1" />
<path stroke="#4d7237" d="M32 27h2M30 28h2M34 28h1M30 29h1M35 29h1M36 31h1M32 32h2M36 33h1M35 34h2M36 35h1M36 36h1" />
<path stroke="#745c42" d="M166 27h34M166 28h1M166 29h34M168 30h1M185 30h1M168 31h1M185 31h1M168 32h1M185 32h1M168 33h1M185 33h1M168 34h1M185 34h1M168 35h1M185 35h1M168 36h1M185 36h1M168 37h1M185 37h1M168 38h1M185 38h1M168 39h1M185 39h1M168 40h1M185 40h1M168 41h1M185 41h1M168 42h1M185 42h1M168 43h1M185 43h1M168 44h1M185 44h1M168 45h1M185 45h1M168 46h1M185 46h1M168 47h1M185 47h1M168 48h1M185 48h1M168 49h1M185 49h1M168 50h1M185 50h1M168 51h1M185 51h1M168 52h1M185 52h1M168 53h1M185 53h1M168 54h1M185 54h1M168 55h1M185 55h1M166 56h34M166 57h1M166 58h34" />
<path stroke="#6f9a56" d="M32 28h2M34 29h1M35 30h1M35 31h1M36 32h1" />
<path stroke="#8e6f4f" d="M167 28h33M169 30h16M186 30h14M169 31h16M186 31h14M169 32h16M186 32h14M169 33h16M186 33h14M169 34h16M186 34h14M169 35h16M186 35h14M169 36h16M186 36h14M169 37h16M186 37h14M169 38h16M186 38h14M169 39h16M186 39h14M169 40h16M186 40h14M169 41h16M186 41h14M169 42h16M186 42h14M169 43h16M186 43h14M169 44h16M186 44h14M169 45h13M184 45h1M186 45h11M199 45h1M169 46h14M184 46h1M186 46h12M199 46h1M169 47h14M184 47h1M186 47h12M199 47h1M169 48h14M184 48h1M186 48h12M199 48h1M169 49h14M184 49h1M186 49h12M199 49h1M169 50h14M184 50h1M186 50h12M199 50h1M169 51h14M184 51h1M186 51h12M199 51h1M169 52h14M184 52h1M186 52h12M199 52h1M169 53h13M184 53h1M186 53h11M199 53h1M169 54h16M186 54h14M169 55h16M186 55h14M167 57h33" />
<path stroke="#5a8740" d="M31 29h3M31 30h4M31 31h4M31 32h1M34 32h2M35 33h1" />
<path stroke="#41612e" d="M25 32h3M23 33h1M23 34h2M23 35h2M23 36h2M23 37h2M22 38h3M22 39h2M22 40h1" />
<path stroke="#6d3f3d" d="M24 33h11M25 34h1M33 34h1M25 35h1M33 35h1M25 36h1M33 36h1M25 37h1M33 37h1M25 38h1M33 38h1M25 39h1M33 39h1M26 40h7" />
<path stroke="#874f4c" d="M26 34h7M26 35h7M26 36h7M26 37h7M26 38h7M26 39h7" />
<path stroke="#afbac5" d="M86 36h42M86 37h1M127 37h1M86 38h1M88 38h38M127 38h1M86 39h1M88 39h1M107 39h1M125 39h1M127 39h1M86 40h1M88 40h1M107 40h1M125 40h1M127 40h1M86 41h1M88 41h1M107 41h1M125 41h1M127 41h1M86 42h1M88 42h1M107 42h1M125 42h1M127 42h1M86 43h1M88 43h1M107 43h1M125 43h1M127 43h1M86 44h1M88 44h1M107 44h1M125 44h1M127 44h1M86 45h1M88 45h1M107 45h1M125 45h1M127 45h1M86 46h1M88 46h1M107 46h1M125 46h1M127 46h1M86 47h1M88 47h1M107 47h1M125 47h1M127 47h1M86 48h1M88 48h1M107 48h1M125 48h1M127 48h1M86 49h1M88 49h1M107 49h1M125 49h1M127 49h1M86 50h1M88 50h1M107 50h1M125 50h1M127 50h1M86 51h1M88 51h1M107 51h1M125 51h1M127 51h1M86 52h1M88 52h1M107 52h1M125 52h1M127 52h1M86 53h1M88 53h1M107 53h1M125 53h1M127 53h1M86 54h1M88 54h1M107 54h1M125 54h1M127 54h1M86 55h1M88 55h1M107 55h1M125 55h1M127 55h1M86 56h1M88 56h1M107 56h1M125 56h1M127 56h1M86 57h1M88 57h1M125 57h1M127 57h1M86 58h1M88 58h1M125 58h1M127 58h1M86 59h1M88 59h1M125 59h1M127 59h1M86 60h1M88 60h1M125 60h1M127 60h1M84 61h22M108 61h22M84 62h1M129 62h1M84 63h22M108 63h22" />
<path stroke="#b9c9d8" d="M87 37h40M87 38h1M126 38h1M87 39h1M126 39h1M87 40h1M126 40h1M87 41h1M126 41h1M87 42h1M126 42h1M87 43h1M126 43h1M87 44h1M126 44h1M87 45h1M126 45h1M87 46h1M126 46h1M87 47h1M126 47h1M87 48h1M126 48h1M87 49h1M126 49h1M87 50h1M126 50h1M87 51h1M126 51h1M87 52h1M126 52h1M87 53h1M126 53h1M87 54h1M126 54h1M87 55h1M126 55h1M87 56h1M126 56h1M87 57h1M126 57h1M87 58h1M126 58h1M87 59h1M126 59h1M87 60h1M126 60h1M85 62h21M108 62h21" />
<path stroke="#90d9e8" d="M89 39h18M108 39h17M89 40h18M108 40h10M120 40h5M89 41h2M93 41h14M108 41h9M121 41h4M89 42h1M94 42h13M108 42h10M119 42h6M89 43h1M98 43h9M108 43h1M112 43h13M89 44h2M101 44h5M113 44h12M89 45h3M102 45h3M114 45h7M123 45h2M89 46h8M100 46h7M108 46h1M111 46h9M124 46h1M89 47h18M108 47h10M89 48h18M108 48h12M123 48h2M89 49h18M108 49h17M89 50h18M108 50h17M89 51h18M108 51h17M89 52h18M108 52h17M89 53h18M108 53h17M89 54h18M108 54h17M89 55h18M108 55h17M89 56h18M108 56h17M89 57h18M111 57h14M89 58h17M112 58h13M89 59h17M108 59h2M112 59h13M89 60h17M108 60h17" />
<path stroke="#d9e6ea" d="M118 40h2M117 41h4M118 42h1M94 43h4M109 43h3M92 44h9M106 44h1M108 44h5M92 45h10M105 45h2M108 45h6M121 45h2M97 46h3M109 46h2M120 46h4M118 47h7M120 48h3" />
<path stroke="#b5bfc9" d="M23 41h31M22 42h1M54 42h1M22 43h1M54 43h1M22 44h1M54 44h1M22 45h1M54 45h1M22 46h1M54 46h1M22 47h1M54 47h1M22 48h1M54 48h1M22 49h1M54 49h1M22 50h1M54 50h1M22 51h1M54 51h1M22 52h1M54 52h1M22 53h1M54 53h1M22 54h1M54 54h1M22 55h1M54 55h1M22 56h1M54 56h1M22 57h1M54 57h1M22 58h1M54 58h1M22 59h1M54 59h1M22 60h1M54 60h1M22 61h1M54 61h1M22 62h1M54 62h1M22 63h33M22 64h1M54 64h1M22 65h1M54 65h1M22 66h1M54 66h1M22 67h1M54 67h1M22 68h1M54 68h1M22 69h1M54 69h1M22 70h1M54 70h1M22 71h1M54 71h1M22 72h1M54 72h1M22 73h1M54 73h1M22 74h1M54 74h1M22 75h1M54 75h1M22 76h1M54 76h1M22 77h1M54 77h1M22 78h1M54 78h1M22 79h1M54 79h1M22 80h1M54 80h1M22 81h1M54 81h1M22 82h1M54 82h1M22 83h1M54 83h1M22 84h1M54 84h1M22 85h1M54 85h1M22 86h1M54 86h1M22 87h1M54 87h1M22 88h1M54 88h1M22 89h1M54 89h1M22 90h1M54 90h1M22 91h1M54 91h1M22 92h1M54 92h1M22 93h1M54 93h1M22 94h1M54 94h1M22 95h1M54 95h1M22 96h1M54 96h1M22 97h1M54 97h1M22 98h1M54 98h1M22 99h1M54 99h1M22 100h1M54 100h1M22 101h1M54 101h1M22 102h1M54 102h1M22 103h1M54 103h1M22 104h1M54 104h1M22 105h1M54 105h1M22 106h1M54 106h1M23 107h31" />
<path stroke="#fbe543" d="M91 41h2M90 42h4M90 43h4M91 44h1" />
<path stroke="#cfd9e3" d="M23 42h31M23 43h31M23 44h31M23 45h31M23 46h31M23 47h31M23 48h31M23 49h31M23 50h31M23 51h31M23 52h31M23 53h31M23 54h31M23 55h31M23 56h31M23 57h31M23 58h31M23 59h31M23 60h31M23 61h31M23 62h31M23 64h31M23 65h31M23 66h31M23 67h31M23 68h31M23 69h31M23 70h31M23 71h27M51 71h3M23 72h26M52 72h2M23 73h26M52 73h2M23 74h26M52 74h2M23 75h26M52 75h2M23 76h26M52 76h2M23 77h26M52 77h2M23 78h26M52 78h2M23 79h26M52 79h2M23 80h26M52 80h2M23 81h26M52 81h2M23 82h27M51 82h3M23 83h31M23 84h31M23 85h31M23 86h31M23 87h31M23 88h31M23 89h31M23 90h31M23 91h31M23 92h31M23 93h31M23 94h31M23 95h31M23 96h31M23 97h31M23 98h31M23 99h31M23 100h31M23 101h31M23 102h31M23 103h31M23 104h31M23 105h31M23 106h31" />
<path stroke="#3a310d" d="M13 44h1M13 45h1M13 46h1M12 47h1M14 47h1M12 48h1M15 48h1M5 49h1M15 49h1M4 50h1M5 51h1" />
<path stroke="#8e8a87" d="M55 44h31M128 44h40M55 46h31M128 46h40" />
<path stroke="#695239" d="M182 45h2M197 45h2M183 46h1M198 46h1M183 47h1M198 47h1M183 48h1M198 48h1M183 49h1M198 49h1M183 50h1M198 50h1M183 51h1M198 51h1M183 52h1M198 52h1M182 53h2M197 53h2" />
<path stroke="#1c4949" d="M55 47h31M128 47h40M55 48h31M128 48h40M55 49h31M128 49h40M55 50h31M128 50h40M55 51h31M128 51h40M55 52h31M128 52h40M55 53h31M128 53h40M55 54h31M128 54h40M55 55h31M128 55h40M55 56h31M128 56h38M55 57h31M128 57h38M55 58h31M128 58h38M55 59h31M128 59h72M55 60h31M128 60h72M55 61h29M130 61h70M55 62h29M130 62h70M55 63h29M130 63h70M55 64h51M108 64h92M55 65h48M104 65h2M108 65h2M111 65h17M160 65h40M55 66h47M105 66h1M108 66h1M112 66h15M161 66h39" />
<path stroke="#c3a637" d="M12 49h3M11 50h1M15 50h1M10 51h1M16 51h1M4 52h2M10 52h1M16 52h1M3 53h1M6 53h1M10 53h1M16 53h1M2 54h1M7 54h1M11 54h1M15 54h1M2 55h1M7 55h1M12 55h3M2 56h1M7 56h1M3 57h1M6 57h1M4 58h2" />
<path stroke="#f9d239" d="M12 50h3M11 51h1M15 51h1M11 52h1M15 52h1M4 53h2M11 53h1M15 53h1M3 54h1M6 54h1M12 54h3M3 55h1M6 55h1M3 56h1M6 56h1M4 57h2" />
<path stroke="#524512" d="M12 51h3M12 52h3M12 53h3M4 54h2M4 55h2M4 56h2" />
<path stroke="#666c70" d="M107 57h4M106 58h6M106 59h2M110 59h2M106 60h2M106 61h2M106 62h2M106 63h2M106 64h2M103 65h1M106 65h2M110 65h1M102 66h3M106 66h2M109 66h3M102 67h10M103 68h8" />
<path stroke="#44484b" d="M128 65h32M127 66h1M160 66h1M127 67h1M160 67h1M127 68h1M160 68h1M127 69h1M160 69h1M127 70h1M160 70h1M127 71h1M138 71h1M160 71h1M127 72h34M127 73h1M160 73h1M127 74h1M160 74h1M127 75h1M160 75h1M127 76h1M160 76h1M127 77h1M160 77h1M127 78h1M160 78h1M127 79h34M127 80h1M160 80h1M127 81h1M160 81h1M127 82h1M160 82h1M127 83h1M160 83h1M127 84h1M160 84h1M127 85h1M160 85h1M127 86h1M160 86h1M127 87h1M160 87h1M127 88h1M160 88h1M127 89h1M160 89h1M127 90h1M160 90h1M127 91h1M160 91h1M127 92h1M160 92h1M127 93h1M160 93h1M127 94h1M160 94h1M127 95h1M160 95h1M127 96h1M160 96h1M127 97h1M160 97h1M127 98h1M160 98h1M127 99h1M160 99h1M127 100h1M160 100h1M127 101h1M160 101h1M127 102h1M160 102h1M127 103h1M160 103h1M127 104h34M127 105h1M160 105h1M127 106h1M160 106h1M127 107h1M160 107h1M127 108h1M160 108h1M127 109h1M160 109h1" />
<path stroke="#50555a" d="M128 66h32M128 67h32M128 68h32M128 69h32M128 70h5M138 70h12M155 70h5M128 71h4M139 71h10M156 71h4M128 73h32M128 74h4M134 74h5M141 74h6M149 74h5M156 74h4M128 75h3M135 75h3M142 75h4M150 75h3M157 75h3M128 76h3M135 76h3M142 76h4M150 76h3M157 76h3M128 77h4M134 77h5M141 77h6M149 77h5M156 77h4M128 78h32M128 80h32M128 81h32M128 82h2M133 82h13M151 82h4M158 82h2M128 83h2M158 83h2M128 84h2M158 84h2M128 85h17M153 85h7M128 86h17M153 86h7M128 87h5M155 87h5M128 88h5M155 88h5M128 89h5M155 89h5M128 90h5M155 90h5M128 91h5M155 91h5M128 92h5M155 92h5M128 93h5M155 93h5M128 94h5M155 94h5M128 95h5M155 95h5M128 96h5M155 96h5M128 97h5M155 97h5M128 98h5M155 98h5M128 99h5M155 99h5M128 100h5M155 100h5M128 101h32M128 102h32M128 103h32M128 105h32M128 106h32M128 107h32M128 108h32M128 109h32" />
<path stroke="#2d241a" d="M0 67h22M55 67h47M112 67h15M161 67h39M0 71h22M55 71h40M119 71h8M161 71h39M3 72h1M7 72h1M11 72h1M15 72h1M19 72h1M56 72h1M60 72h1M64 72h1M68 72h1M72 72h1M76 72h1M80 72h1M84 72h1M88 72h1M92 72h1M121 72h1M125 72h1M162 72h1M166 72h1M170 72h1M174 72h1M178 72h1M182 72h1M186 72h1M190 72h1M194 72h1M198 72h1M3 73h1M7 73h1M11 73h1M15 73h1M19 73h1M56 73h1M60 73h1M64 73h1M68 73h1M72 73h1M76 73h1M80 73h1M84 73h1M88 73h1M92 73h1M121 73h1M125 73h1M162 73h1M166 73h1M170 73h1M174 73h1M178 73h1M182 73h1M186 73h1M190 73h1M194 73h1M198 73h1M3 74h1M7 74h1M11 74h1M15 74h1M19 74h1M56 74h1M60 74h1M64 74h1M68 74h1M72 74h1M76 74h1M80 74h1M84 74h1M88 74h1M92 74h1M121 74h1M125 74h1M162 74h1M166 74h1M170 74h1M174 74h1M178 74h1M182 74h1M186 74h1M190 74h1M194 74h1M198 74h1M3 75h1M7 75h1M11 75h1M15 75h1M19 75h1M125 75h1M3 76h1M7 76h1M11 76h1M15 76h1M19 76h1M125 76h1M3 77h1M7 77h1M11 77h1M15 77h1M19 77h1M125 77h1M3 78h1M7 78h1M11 78h1M15 78h1M19 78h1M125 78h1M162 78h1M3 79h1M7 79h1M11 79h1M15 79h1M19 79h1M125 79h1M162 79h1M3 80h1M7 80h1M11 80h1M15 80h1M19 80h1M125 80h1M162 80h1M3 81h1M7 81h1M11 81h1M15 81h1M19 81h1M125 81h1M162 81h1M3 82h1M7 82h1M11 82h1M15 82h1M19 82h1M125 82h1M162 82h1M3 83h1M7 83h1M11 83h1M15 83h1M19 83h1M125 83h1M162 83h1M3 84h1M7 84h1M11 84h1M15 84h1M19 84h1M125 84h1M162 84h1M3 85h1M7 85h1M11 85h1M15 85h1M19 85h1M125 85h1M162 85h1M3 86h1M7 86h1M11 86h1M15 86h1M19 86h1M125 86h1M162 86h1M3 87h1M7 87h1M11 87h1M15 87h1M19 87h1M125 87h1M162 87h1M3 88h1M7 88h1M11 88h1M15 88h1M19 88h1M125 88h1M162 88h1M3 89h1M7 89h1M11 89h1M15 89h1M19 89h1M125 89h1M162 89h1M3 90h1M7 90h1M11 90h1M15 90h1M19 90h1M125 90h1M162 90h1M3 91h1M7 91h1M11 91h1M15 91h1M19 91h1M125 91h1M162 91h1M3 92h1M7 92h1M11 92h1M15 92h1M19 92h1M125 92h1M162 92h1M3 93h1M7 93h1M11 93h1M15 93h1M19 93h1M125 93h1M162 93h1M3 94h1M7 94h1M11 94h1M15 94h1M19 94h1M125 94h1M162 94h1M3 95h1M7 95h1M11 95h1M15 95h1M19 95h1M125 95h1M162 95h1M3 96h1M7 96h1M11 96h1M15 96h1M19 96h1M125 96h1M162 96h1M3 97h1M7 97h1M11 97h1M15 97h1M19 97h1M125 97h1M162 97h1M3 98h1M7 98h1M11 98h1M15 98h1M19 98h1M125 98h1M162 98h1M3 99h1M7 99h1M11 99h1M15 99h1M19 99h1M125 99h1M162 99h1M3 100h1M7 100h1M11 100h1M15 100h1M19 100h1M125 100h1M162 100h1M3 101h1M7 101h1M11 101h1M15 101h1M19 101h1M125 101h1M162 101h1M3 102h1M7 102h1M11 102h1M15 102h1M19 102h1M125 102h1M162 102h1M3 103h1M7 103h1M11 103h1M15 103h1M19 103h1M125 103h1M162 103h1M3 104h1M7 104h1M11 104h1M15 104h1M19 104h1M125 104h1M162 104h1M3 105h1M7 105h1M11 105h1M15 105h1M19 105h1M125 105h1M162 105h1M3 106h1M7 106h1M11 106h1M15 106h1M19 106h1M125 106h1M162 106h1M3 107h1M7 107h1M11 107h1M15 107h1M19 107h1M125 107h1M162 107h1M3 108h1M7 108h1M11 108h1M15 108h1M19 108h1M125 108h1M162 108h1M3 109h1M7 109h1M11 109h1M15 109h1M19 109h1M125 109h1M162 109h1" />
<path stroke="#473929" d="M0 68h22M55 68h48M111 68h16M161 68h39M0 69h22M55 69h40M119 69h8M161 69h39M0 70h22M55 70h40M119 70h8M161 70h39M0 72h3M4 72h3M8 72h3M12 72h3M16 72h3M20 72h2M55 72h1M57 72h3M61 72h3M65 72h3M69 72h3M73 72h3M77 72h3M81 72h3M85 72h3M89 72h3M93 72h2M119 72h2M122 72h3M126 72h1M161 72h1M163 72h3M167 72h3M171 72h3M175 72h3M179 72h3M183 72h3M187 72h3M191 72h3M195 72h3M199 72h1M0 73h3M4 73h3M8 73h3M12 73h3M16 73h3M20 73h2M55 73h1M57 73h3M61 73h3M65 73h3M69 73h3M73 73h3M77 73h3M81 73h3M85 73h3M89 73h3M93 73h2M119 73h2M122 73h3M126 73h1M161 73h1M163 73h3M167 73h3M171 73h3M175 73h3M179 73h3M183 73h3M187 73h3M191 73h3M195 73h3M199 73h1M0 74h3M4 74h3M8 74h3M12 74h3M16 74h3M20 74h2M55 74h1M57 74h3M61 74h3M65 74h3M69 74h3M73 74h3M77 74h3M81 74h3M85 74h3M89 74h3M93 74h2M119 74h2M122 74h3M126 74h1M161 74h1M163 74h3M167 74h3M171 74h3M175 74h3M179 74h3M183 74h3M187 74h3M191 74h3M195 74h3M199 74h1M0 75h3M4 75h3M8 75h3M12 75h3M16 75h3M20 75h2M126 75h1M161 75h1M0 76h3M4 76h3M8 76h3M12 76h3M16 76h3M20 76h2M126 76h1M161 76h1M0 77h3M4 77h3M8 77h3M12 77h3M16 77h3M20 77h2M126 77h1M161 77h1M0 78h3M4 78h3M8 78h3M12 78h3M16 78h3M20 78h2M55 78h1M124 78h1M126 78h1M161 78h1M163 78h1M0 79h3M4 79h3M8 79h3M12 79h3M16 79h3M20 79h2M55 79h1M124 79h1M126 79h1M161 79h1M163 79h1M0 80h3M4 80h3M8 80h3M12 80h3M16 80h3M20 80h2M55 80h1M124 80h1M126 80h1M161 80h1M163 80h1M0 81h3M4 81h3M8 81h3M12 81h3M16 81h3M20 81h2M55 81h1M124 81h1M126 81h1M161 81h1M163 81h1M0 82h3M4 82h3M8 82h3M12 82h3M16 82h3M20 82h2M55 82h1M124 82h1M126 82h1M161 82h1M163 82h1M0 83h3M4 83h3M8 83h3M12 83h3M16 83h3M20 83h2M55 83h1M124 83h1M126 83h1M161 83h1M163 83h1M0 84h3M4 84h3M8 84h3M12 84h3M16 84h3M20 84h2M55 84h1M124 84h1M126 84h1M161 84h1M163 84h1M0 85h3M4 85h3M8 85h3M12 85h3M16 85h3M20 85h2M55 85h1M124 85h1M126 85h1M161 85h1M163 85h1M0 86h3M4 86h3M8 86h3M12 86h3M16 86h3M20 86h2M55 86h1M124 86h1M126 86h1M161 86h1M163 86h1M0 87h3M4 87h3M8 87h3M12 87h3M16 87h3M20 87h2M55 87h1M124 87h1M126 87h1M161 87h1M163 87h1M0 88h3M4 88h3M8 88h3M12 88h3M16 88h3M20 88h2M55 88h1M124 88h1M126 88h1M161 88h1M163 88h1M0 89h3M4 89h3M8 89h3M12 89h3M16 89h3M20 89h2M55 89h1M124 89h1M126 89h1M161 89h1M163 89h1M0 90h3M4 90h3M8 90h3M12 90h3M16 90h3M20 90h2M55 90h1M124 90h1M126 90h1M161 90h1M163 90h1M0 91h3M4 91h3M8 91h3M12 91h3M16 91h3M20 91h2M55 91h1M124 91h1M126 91h1M161 91h1M163 91h1M0 92h3M4 92h3M8 92h3M12 92h3M16 92h3M20 92h2M55 92h1M124 92h1M126 92h1M161 92h1M163 92h1M0 93h3M4 93h3M8 93h3M12 93h3M16 93h3M20 93h2M55 93h1M124 93h1M126 93h1M161 93h1M163 93h1M0 94h3M4 94h3M8 94h3M12 94h3M16 94h3M20 94h2M55 94h1M124 94h1M126 94h1M161 94h1M163 94h1M0 95h3M4 95h3M8 95h3M12 95h3M16 95h3M20 95h2M55 95h1M124 95h1M126 95h1M161 95h1M163 95h1M0 96h3M4 96h3M8 96h3M12 96h3M16 96h3M20 96h2M55 96h1M124 96h1M126 96h1M161 96h1M163 96h1M0 97h3M4 97h3M8 97h3M12 97h3M16 97h3M20 97h2M55 97h1M124 97h1M126 97h1M161 97h1M163 97h1M0 98h3M4 98h3M8 98h3M12 98h3M16 98h3M20 98h2M55 98h1M124 98h1M126 98h1M161 98h1M163 98h1M0 99h3M4 99h3M8 99h3M12 99h3M16 99h3M20 99h2M55 99h1M124 99h1M126 99h1M161 99h1M163 99h1M0 100h3M4 100h3M8 100h3M12 100h3M16 100h3M20 100h2M55 100h1M124 100h1M126 100h1M161 100h1M163 100h1M0 101h3M4 101h3M8 101h3M12 101h3M16 101h3M20 101h2M55 101h1M124 101h1M126 101h1M161 101h1M163 101h1M0 102h3M4 102h3M8 102h3M12 102h3M16 102h3M20 102h2M55 102h1M124 102h1M126 102h1M161 102h1M163 102h1M0 103h3M4 103h3M8 103h3M12 103h3M16 103h3M20 103h2M55 103h1M124 103h1M126 103h1M161 103h1M163 103h1M0 104h3M4 104h3M8 104h3M12 104h3M16 104h3M20 104h2M55 104h1M124 104h1M126 104h1M161 104h1M163 104h1M0 105h3M4 105h3M8 105h3M12 105h3M16 105h3M20 105h2M55 105h1M124 105h1M126 105h1M161 105h1M163 105h1M0 106h3M4 106h3M8 106h3M12 106h3M16 106h3M20 106h2M55 106h1M124 106h1M126 106h1M161 106h1M163 106h1M0 107h3M4 107h3M8 107h3M12 107h3M16 107h3M20 107h3M54 107h2M124 107h1M126 107h1M161 107h1M163 107h1M0 108h3M4 108h3M8 108h3M12 108h3M16 108h3M20 108h4M53 108h3M124 108h1M126 108h1M161 108h1M163 108h1M0 109h3M4 109h3M8 109h3M12 109h3M16 109h3M20 109h4M53 109h3M124 109h1M126 109h1M161 109h1M163 109h1" />
<path stroke="#cbd5df" d="M95 69h24M95 70h1M118 70h1M95 71h1M118 71h1M95 72h1M118 72h1M95 73h1M118 73h1M95 74h1M118 74h1M95 75h1M118 75h1M95 76h1M118 76h1M95 77h1M118 77h1M95 78h1M118 78h1M96 79h22" />
<path stroke="#e2edf7" d="M96 70h22M96 71h22M96 72h22M96 73h22M96 74h22M96 75h22M96 76h22M96 77h22M96 78h22" />
<path stroke="#232629" d="M133 70h5M150 70h5M132 71h6M149 71h7" />
<path stroke="#141516" d="M50 71h1M49 72h1M51 72h1M49 73h1M51 73h1M49 74h1M51 74h1M49 75h1M51 75h1M49 76h1M51 76h1M49 77h1M51 77h1M49 78h1M51 78h1M49 79h1M51 79h1M49 80h1M51 80h1M49 81h1M51 81h1M50 82h1M24 108h1M52 108h1M24 109h1M52 109h1" />
<path stroke="#191b1c" d="M50 72h1M50 73h1M50 74h1M50 75h1M50 76h1M50 77h1M50 78h1M50 79h1M50 80h1M50 81h1M25 108h27M25 109h27" />
<path stroke="#121213" d="M132 74h2M139 74h2M147 74h2M154 74h2M131 75h4M138 75h4M146 75h4M153 75h4M131 76h4M138 76h4M146 76h4M153 76h4M132 77h2M139 77h2M147 77h2M154 77h2M130 82h3M155 82h3M130 83h1M132 83h13M151 83h5M157 83h1M130 84h15M151 84h7M133 87h12M153 87h2M133 88h12M153 88h2M133 89h12M153 89h2M133 90h12M151 90h4M133 91h12M151 91h4M133 92h12M150 92h5M133 93h12M149 93h6M133 94h12M147 94h8M133 95h22M133 96h22M133 97h22M133 98h22M133 99h22M133 100h22" />
<path stroke="#604c37" d="M55 75h40M119 75h6M162 75h38M55 76h1M124 76h1M162 76h1M55 77h40M119 77h6M162 77h38M56 78h1M69 78h1M82 78h1M90 78h1M123 78h1M164 78h1M56 79h1M69 79h1M82 79h1M90 79h1M123 79h1M164 79h1M56 80h1M69 80h1M82 80h1M90 80h1M123 80h1M164 80h1M167 80h15M184 80h15M56 81h1M69 81h1M82 81h1M90 81h1M123 81h1M164 81h1M167 81h1M181 81h1M184 81h1M198 81h1M56 82h1M69 82h1M82 82h1M90 82h1M123 82h1M164 82h1M167 82h1M181 82h1M184 82h1M198 82h1M56 83h1M69 83h1M82 83h1M90 83h1M123 83h1M164 83h1M167 83h1M181 83h1M184 83h1M198 83h1M56 84h1M69 84h1M82 84h1M90 84h1M123 84h1M164 84h1M167 84h1M181 84h1M184 84h1M198 84h1M56 85h1M69 85h1M82 85h1M90 85h1M123 85h1M164 85h1M167 85h1M181 85h1M184 85h1M198 85h1M56 86h1M69 86h1M82 86h1M90 86h1M123 86h1M164 86h1M167 86h1M181 86h1M184 86h1M198 86h1M56 87h1M69 87h1M82 87h1M90 87h1M123 87h1M164 87h1M167 87h1M181 87h1M184 87h1M198 87h1M56 88h1M69 88h14M90 88h34M164 88h1M167 88h1M181 88h1M184 88h1M198 88h1M56 89h1M69 89h1M82 89h1M90 89h1M123 89h1M164 89h1M167 89h1M181 89h1M184 89h1M198 89h1M56 90h1M69 90h1M82 90h1M90 90h1M123 90h1M164 90h1M167 90h1M181 90h1M184 90h1M198 90h1M56 91h1M69 91h1M82 91h1M90 91h1M123 91h1M164 91h1M167 91h1M181 91h1M184 91h1M198 91h1M56 92h1M69 92h1M82 92h1M90 92h1M123 92h1M164 92h1M167 92h1M181 92h1M184 92h1M198 92h1M56 93h1M69 93h1M82 93h1M90 93h1M123 93h1M164 93h1M167 93h1M181 93h1M184 93h1M198 93h1M56 94h1M69 94h1M82 94h1M90 94h1M123 94h1M164 94h1M167 94h1M181 94h1M184 94h1M198 94h1M56 95h1M69 95h1M82 95h1M90 95h1M123 95h1M164 95h1M167 95h1M181 95h1M184 95h1M198 95h1M56 96h1M69 96h1M82 96h1M90 96h1M123 96h1M164 96h1M167 96h1M181 96h1M184 96h1M198 96h1M56 97h1M69 97h1M82 97h1M90 97h1M123 97h1M164 97h1M167 97h1M181 97h1M184 97h1M198 97h1M56 98h1M69 98h1M82 98h1M90 98h1M123 98h1M164 98h1M167 98h1M181 98h1M184 98h1M198 98h1M56 99h1M69 99h14M90 99h34M164 99h1M167 99h1M181 99h1M184 99h1M198 99h1M56 100h1M69 100h1M82 100h1M90 100h1M123 100h1M164 100h1M167 100h1M181 100h1M184 100h1M198 100h1M56 101h1M69 101h1M82 101h1M90 101h1M123 101h1M164 101h1M167 101h1M181 101h1M184 101h1M198 101h1M56 102h1M69 102h1M82 102h1M90 102h1M123 102h1M164 102h1M167 102h1M181 102h1M184 102h1M198 102h1M56 103h1M69 103h1M82 103h1M90 103h1M123 103h1M164 103h1M167 103h1M181 103h1M184 103h1M198 103h1M56 104h1M69 104h1M82 104h1M90 104h1M123 104h1M164 104h1M167 104h1M181 104h1M184 104h1M198 104h1M56 105h1M69 105h1M82 105h1M90 105h1M123 105h1M164 105h1M167 105h1M181 105h1M184 105h1M198 105h1M56 106h1M69 106h1M82 106h1M90 106h1M123 106h1M164 106h1M167 106h15M184 106h15M56 107h1M69 107h1M82 107h1M90 107h1M123 107h1M164 107h1M56 108h1M69 108h1M82 108h1M90 108h1M123 108h1M164 108h1M56 109h1M69 109h1M82 109h1M90 109h1M123 109h1M164 109h1" />
<path stroke="#705a41" d="M56 76h39M119 76h5M163 76h37M57 78h12M70 78h12M83 78h7M91 78h4M119 78h4M165 78h35M57 79h12M70 79h12M83 79h7M91 79h5M118 79h5M165 79h35M57 80h12M70 80h2M80 80h2M83 80h7M91 80h32M165 80h2M182 80h2M199 80h1M57 81h12M70 81h2M73 81h6M80 81h2M83 81h7M91 81h32M165 81h2M168 81h13M182 81h2M185 81h13M199 81h1M57 82h12M70 82h12M83 82h7M91 82h32M165 82h2M168 82h13M182 82h2M185 82h13M199 82h1M57 83h12M70 83h12M83 83h7M91 83h32M165 83h2M168 83h13M182 83h2M185 83h13M199 83h1M57 84h12M70 84h12M83 84h7M91 84h32M165 84h2M168 84h13M182 84h2M185 84h13M199 84h1M57 85h8M67 85h2M70 85h12M83 85h4M89 85h1M91 85h32M165 85h2M168 85h13M182 85h2M185 85h13M199 85h1M57 86h9M67 86h2M70 86h12M83 86h5M89 86h1M91 86h32M165 86h2M168 86h9M179 86h2M182 86h2M185 86h9M196 86h2M199 86h1M57 87h9M67 87h2M70 87h12M83 87h5M89 87h1M91 87h32M165 87h2M168 87h10M179 87h2M182 87h2M185 87h10M196 87h2M199 87h1M57 88h9M67 88h2M83 88h5M89 88h1M165 88h2M168 88h10M179 88h2M182 88h2M185 88h10M196 88h2M199 88h1M57 89h9M67 89h2M70 89h12M83 89h5M89 89h1M91 89h32M165 89h2M168 89h10M179 89h2M182 89h2M185 89h10M196 89h2M199 89h1M57 90h9M67 90h2M70 90h12M83 90h5M89 90h1M91 90h32M165 90h2M168 90h10M179 90h2M182 90h2M185 90h10M196 90h2M199 90h1M57 91h9M67 91h2M70 91h2M80 91h2M83 91h5M89 91h1M91 91h7M116 91h7M165 91h2M168 91h10M179 91h2M182 91h2M185 91h10M196 91h2M199 91h1M57 92h9M67 92h2M70 92h2M73 92h6M80 92h2M83 92h5M89 92h1M91 92h7M99 92h16M116 92h7M165 92h2M168 92h10M179 92h2M182 92h2M185 92h10M196 92h2M199 92h1M57 93h9M67 93h2M70 93h12M83 93h5M89 93h1M91 93h32M165 93h2M168 93h10M179 93h2M182 93h2M185 93h10M196 93h2M199 93h1M57 94h9M67 94h2M70 94h12M83 94h5M89 94h1M91 94h32M165 94h2M168 94h9M179 94h2M182 94h2M185 94h10M196 94h2M199 94h1M57 95h9M67 95h2M70 95h12M83 95h5M89 95h1M91 95h32M165 95h2M168 95h13M182 95h2M185 95h9M196 95h2M199 95h1M57 96h8M67 96h2M70 96h12M83 96h4M89 96h1M91 96h32M165 96h2M168 96h13M182 96h2M185 96h13M199 96h1M57 97h12M70 97h12M83 97h7M91 97h32M165 97h2M168 97h13M182 97h2M185 97h13M199 97h1M57 98h12M70 98h12M83 98h7M91 98h32M165 98h2M168 98h13M182 98h2M185 98h13M199 98h1M57 99h12M83 99h7M165 99h2M168 99h13M182 99h2M185 99h13M199 99h1M57 100h12M70 100h12M83 100h7M91 100h32M165 100h2M168 100h13M182 100h2M185 100h13M199 100h1M57 101h12M70 101h12M83 101h7M91 101h32M165 101h2M168 101h13M182 101h2M185 101h13M199 101h1M57 102h12M70 102h2M80 102h2M83 102h7M91 102h7M116 102h7M165 102h2M168 102h13M182 102h2M185 102h13M199 102h1M57 103h12M70 103h2M73 103h6M80 103h2M83 103h7M91 103h7M99 103h16M116 103h7M165 103h2M168 103h13M182 103h2M185 103h13M199 103h1M57 104h12M70 104h12M83 104h7M91 104h32M165 104h2M168 104h13M182 104h2M185 104h13M199 104h1M57 105h12M70 105h12M83 105h7M91 105h32M165 105h2M168 105h13M182 105h2M185 105h13M199 105h1M57 106h12M70 106h12M83 106h7M91 106h32M165 106h2M182 106h2M199 106h1M57 107h12M70 107h12M83 107h7M91 107h32M165 107h35M57 108h12M70 108h12M83 108h7M91 108h32M165 108h35M57 109h12M70 109h12M83 109h7M91 109h32M165 109h35" />
<path stroke="#544331" d="M72 80h8M72 81h1M79 81h1M65 85h2M87 85h2M66 86h1M88 86h1M177 86h2M194 86h2M66 87h1M88 87h1M178 87h1M195 87h1M66 88h1M88 88h1M178 88h1M195 88h1M66 89h1M88 89h1M178 89h1M195 89h1M66 90h1M88 90h1M178 90h1M195 90h1M66 91h1M72 91h8M88 91h1M98 91h18M178 91h1M195 91h1M66 92h1M72 92h1M79 92h1M88 92h1M98 92h1M115 92h1M178 92h1M195 92h1M66 93h1M88 93h1M178 93h1M195 93h1M66 94h1M88 94h1M177 94h2M195 94h1M66 95h1M88 95h1M194 95h2M65 96h2M87 96h2M72 102h8M98 102h18M72 103h1M79 103h1M98 103h1M115 103h1" />
<path stroke="#bebf84" d="M146 82h5M145 83h1M150 83h1M145 84h1M150 84h1M145 85h1M150 85h1M152 85h1M145 86h1M150 86h1M152 86h1M145 87h1M150 87h1M152 87h1M145 88h1M150 88h1M152 88h1M145 89h1M150 89h3M145 90h1M150 90h1M145 91h1M150 91h1M145 92h1M149 92h1M145 93h1M147 93h2M145 94h2" />
<path stroke="#d5d69f" d="M146 83h4M146 84h4M146 85h4M151 85h1M146 86h4M151 86h1M146 87h4M151 87h1M146 88h4M151 88h1M146 89h4M146 90h1M148 90h1M147 91h1M149 91h1M146 92h3M146 93h1" />
<path stroke="#fb7e7e" d="M147 90h1M149 90h1M146 91h1M148 91h1" />
<path stroke="#564e3e" d="M0 110h200" />
<path stroke="#726854" d="M0 111h200M0 112h200M0 113h200M0 114h200" />
</svg>