<svg xmlns="http://www.w3.org/2000/svg" viewBox="0 -0.5 150 150" shape-rendering="crispEdges">
<metadata>Made with Pixels to Svg https://codepen.io/shshaw/pen/XbxvNj</metadata>
<path stroke="#333333" d="M38 45h33M38 46h33M38 47h33M38 48h33M26 49h12M71 49h12M26 50h12M71 50h12M26 51h12M71 51h12M26 52h12M71 52h12M83 53h3M83 54h3M83 55h3M86 56h4M86 57h4M86 58h4M86 59h4M90 60h4M90 61h4M90 62h4M90 63h4" />
<path stroke="#515151" d="M38 49h33M38 50h33M38 51h33M38 52h33M26 53h8M75 53h8M26 54h8M75 54h8M26 55h8M75 55h8M23 56h3M83 56h3M23 57h3M83 57h3M23 58h3M83 58h3M23 59h3M83 59h3M19 60h4M86 60h4M19 61h4M86 61h4M19 62h4M86 62h4M19 63h4M86 63h4" />
<path stroke="#2f2f2f" d="M23 53h3M23 54h3M23 55h3M19 56h4M19 57h4M19 58h4M19 59h4M15 60h4M15 61h4M15 62h4M15 63h4M15 64h4M90 64h4M15 65h4M90 65h4M15 66h4M90 66h4M15 67h4M90 67h4" />
<path stroke="#bae0f4" d="M34 53h41M34 54h41M34 55h41M26 56h8M75 56h8M26 57h8M75 57h8M26 58h8M75 58h8M26 59h8M75 59h8M23 60h3M83 60h3M23 61h3M83 61h3M23 62h3M83 62h3M23 63h3M83 63h3M19 64h4M86 64h4M19 65h4M86 65h4M19 66h4M86 66h4M19 67h4M86 67h4M83 68h3M83 69h3M83 70h3M79 71h4M79 72h4M79 73h4M79 74h4M67 75h1M67 76h1M67 77h1M60 78h8" />
<path stroke="#9acde8" d="M34 56h41M34 57h41M34 58h41M34 59h41M26 60h57M26 61h57M26 62h57M26 63h57M23 64h63M23 65h63M23 66h63M23 67h63M23 68h60M23 69h60M23 70h60M26 71h53M26 72h53M26 73h53M26 74h53M41 75h26M41 76h26M41 77h26M41 78h19" />
<path stroke="#292929" d="M15 68h4M90 68h4M15 69h4M90 69h4M15 70h4M90 70h4M15 71h4M90 71h4M15 72h4M90 72h4M15 73h4M90 73h4M15 74h4M90 74h4M15 75h4M90 75h4M15 76h4M90 76h4M15 77h4M90 77h4M15 78h4M90 78h4M15 79h4M90 79h4M15 80h4M90 80h4M15 81h4M90 81h4M15 82h4M90 82h4M15 83h4M90 83h4M15 84h4M90 84h4M15 85h4M90 85h4" />
<path stroke="#404040" d="M19 68h4M86 68h4M19 69h4M86 69h4M19 70h4M86 70h4M23 71h3M83 71h3M23 72h3M83 72h3M23 73h3M83 73h3M23 74h3M83 74h3M26 75h15M68 75h15M26 76h15M68 76h15M26 77h15M68 77h15M26 78h15M68 78h15M41 79h27M41 80h27M41 81h27M41 82h27" />
<path stroke="#2f1f10" d="M94 68h30M94 69h30M94 70h30" />
<path stroke="#22160b" d="M124 68h11M124 69h11M124 70h11" />
<path stroke="#4b4b4b" d="M19 71h4M86 71h4M19 72h4M86 72h4M19 73h4M86 73h4M19 74h4M86 74h4M19 75h7M83 75h7M19 76h7M83 76h7M19 77h7M83 77h7M19 78h7M83 78h7M23 79h18M68 79h18M23 80h18M68 80h18M23 81h18M68 81h18M23 82h18M68 82h18M26 83h57M26 84h57M26 85h57M38 86h33M38 87h33M38 88h33M38 89h33" />
<path stroke="#473728" d="M94 71h41M94 72h41M94 73h41M94 74h41" />
<path stroke="#1e130a" d="M135 71h4M135 72h4M135 73h4M135 74h4M131 75h4M131 76h4M131 77h4M131 78h4M94 79h37M94 80h37M94 81h37M94 82h37" />
<path stroke="#3a2d21" d="M94 75h37M94 76h37M94 77h37M94 78h37" />
<path stroke="#424242" d="M19 79h4M86 79h4M19 80h4M86 80h4M19 81h4M86 81h4M19 82h4M86 82h4M19 83h7M83 83h7M19 84h7M83 84h7M19 85h7M83 85h7M19 86h19M71 86h19M19 87h19M71 87h19M19 88h19M71 88h19M19 89h19M71 89h19M23 90h63M23 91h63M23 92h63M23 93h63M26 94h57M26 95h57M26 96h57M26 97h57M34 98h41M34 99h41M34 100h41" />
<path stroke="#242424" d="M15 86h4M90 86h4M15 87h4M90 87h4M15 88h4M90 88h4M15 89h4M90 89h4M15 90h4M90 90h4M15 91h4M90 91h4M15 92h4M90 92h4M15 93h4M90 93h4M15 94h4M90 94h4M15 95h4M90 95h4M15 96h4M90 96h4M15 97h4M90 97h4M19 98h4M86 98h4M19 99h4M86 99h4M19 100h4M86 100h4M23 101h3M83 101h3M23 102h3M83 102h3M23 103h3M83 103h3M23 104h3M83 104h3M26 105h8M75 105h8M26 106h8M75 106h8M26 107h8M75 107h8M26 108h8M75 108h8M34 109h41M34 110h41M34 111h41M34 112h41" />
<path stroke="#3e3e3e" d="M19 90h4M86 90h4M19 91h4M86 91h4M19 92h4M86 92h4M19 93h4M86 93h4M23 94h3M83 94h3M23 95h3M83 95h3M23 96h3M83 96h3M23 97h3M83 97h3M26 98h8M75 98h8M26 99h8M75 99h8M26 100h8M75 100h8M34 101h41M34 102h41M34 103h41M34 104h41" />
<path stroke="#363636" d="M19 94h4M86 94h4M19 95h4M86 95h4M19 96h4M86 96h4M19 97h4M86 97h4M23 98h3M83 98h3M23 99h3M83 99h3M23 100h3M83 100h3M26 101h8M75 101h8M26 102h8M75 102h8M26 103h8M75 103h8M26 104h8M75 104h8M34 105h41M34 106h41M34 107h41M34 108h41" />
</svg>