<svg xmlns="http://www.w3.org/2000/svg" viewBox="0 -0.5 40 40" shape-rendering="crispEdges">
<metadata>Made with Pixels to Svg https://codepen.io/shshaw/pen/XbxvNj</metadata>
<path stroke="#333333" d="M10 12h9M7 13h3M19 13h3M22 14h1M23 15h1M24 16h1" />
<path stroke="#515151" d="M10 13h9M7 14h15M6 15h17M5 16h5M19 16h5M5 17h3M21 17h3M6 18h1M22 18h1" />
<path stroke="#2f2f2f" d="M6 14h1M5 15h1M4 16h1M4 17h1M24 17h1" />
<path stroke="#3c3c3c" d="M10 16h9M8 17h2M19 17h2M7 18h1M21 18h1" />
<path stroke="#474747" d="M10 17h9M8 18h13M7 19h15M11 20h7" />
<path stroke="#292929" d="M4 18h1M24 18h1M4 19h1M24 19h1M4 20h1M24 20h1M4 21h1M24 21h1M4 22h1M24 22h1" />
<path stroke="#404040" d="M5 18h1M23 18h1M6 19h1M22 19h1M7 20h4M18 20h4M11 21h7" />
<path stroke="#2f1f10" d="M25 18h8" />
<path stroke="#22160b" d="M33 18h3" />
<path stroke="#4b4b4b" d="M5 19h1M23 19h1M5 20h2M22 20h2M6 21h5M18 21h5M7 22h15M10 23h9" />
<path stroke="#473728" d="M25 19h11" />
<path stroke="#1e130a" d="M36 19h1M35 20h1M25 21h10" />
<path stroke="#3a2d21" d="M25 20h10" />
<path stroke="#424242" d="M5 21h1M23 21h1M5 22h2M22 22h2M5 23h5M19 23h5M6 24h17M7 25h15M9 26h11" />
<path stroke="#242424" d="M4 23h1M24 23h1M4 24h1M24 24h1M4 25h1M24 25h1M5 26h1M23 26h1M6 27h1M22 27h1M7 28h2M20 28h2M9 29h11" />
<path stroke="#3e3e3e" d="M5 24h1M23 24h1M6 25h1M22 25h1M7 26h2M20 26h2M9 27h11" />
<path stroke="#363636" d="M5 25h1M23 25h1M6 26h1M22 26h1M7 27h2M20 27h2M9 28h11" />
</svg>