<svg xmlns="http://www.w3.org/2000/svg" viewBox="0 -0.5 204 115" shape-rendering="crispEdges">
<metadata>Made with Pixels to Svg https://codepen.io/shshaw/pen/XbxvNj</metadata>
<path stroke="#255663" d="M0 0h14M198 0h6M0 1h14M198 1h6M0 2h15M198 2h6M0 3h15M197 3h7M0 4h15M197 4h7M0 5h15M197 5h7M0 6h15M197 6h7M0 7h15M196 7h8M0 8h16M196 8h8M0 9h16M196 9h8M0 10h16M196 10h8M0 11h16M195 11h9M0 12h16M195 12h9M0 13h17M195 13h9M0 14h17M195 14h9M0 15h17M194 15h10M0 16h17M194 16h10M0 17h17M194 17h10M0 18h18M194 18h10M0 19h18M193 19h11M0 20h18M193 20h11M0 21h18M193 21h11M0 22h18M193 22h11M0 23h19M192 23h12M0 24h19M192 24h12M0 25h19M192 25h12M0 26h19M192 26h12M0 27h19M191 27h13M0 28h20M191 28h13M0 29h20M191 29h13M0 30h20M191 30h13M0 31h20M190 31h14M0 32h20M190 32h14M0 33h20M190 33h14M0 34h21M190 34h14M0 35h20M191 35h13M0 36h19M192 36h12M0 37h19M192 37h12M0 38h19M192 38h12M0 39h19M192 39h12M0 40h19M192 40h12M0 41h20M191 41h13M0 42h20M191 42h13M0 43h21M190 43h14M0 44h103M110 44h94M0 45h103M110 45h94M0 46h54M162 46h42M0 47h51M163 47h41M0 48h50M163 48h41M0 49h50M164 49h40M0 50h49M164 50h40M0 51h49M165 51h39M0 52h48M165 52h39M0 53h48M166 53h38M0 54h47M166 54h38M0 55h47M167 55h37M0 56h46M167 56h37M0 57h46M168 57h36M0 58h45M168 58h36M0 59h45M169 59h35M0 60h44M46 60h1M169 60h35M0 61h44M170 61h34M0 62h43M170 62h34M0 63h43M171 63h33M0 64h42M171 64h33M0 65h42M172 65h32M0 66h41M172 66h32M0 67h41M173 67h31M0 68h40M173 68h31M0 69h40M174 69h30M0 70h39M174 70h30M0 71h39M175 71h29M0 72h38M175 72h29M0 73h38M40 73h1M176 73h28M0 74h37M176 74h28M177 75h27" />
<path stroke="#f2f2f2" d="M14 0h5M105 0h4M192 0h6M14 1h5M105 1h4M192 1h6M15 2h5M105 2h4M192 2h6M15 3h5M105 3h4M192 3h5M15 4h5M105 4h4M192 4h5M15 5h5M105 5h4M191 5h6M15 6h5M105 6h4M191 6h6M15 7h6M105 7h2M191 7h5M16 8h5M105 8h1M191 8h5M16 9h5M105 9h1M191 9h5M16 10h5M190 10h6M16 11h5M190 11h5M16 12h5M190 12h5M17 13h5M190 13h5M17 14h5M190 14h5M17 15h5M189 15h5M17 16h5M189 16h5M17 17h5M189 17h5M18 18h5M189 18h5M18 19h5M188 19h5M18 20h5M188 20h5M18 21h5M188 21h5M18 22h5M188 22h5M19 23h5M188 23h4M19 24h5M187 24h5M19 25h5M187 25h5M19 26h5M187 26h5M19 27h5M187 27h4M20 28h4M187 28h4M20 29h5M186 29h5M20 30h5M186 30h5M20 31h5M186 31h4M20 32h83M110 32h80M20 33h83M110 33h80M21 34h82M110 34h80" />
<path stroke="#bff2ff" d="M19 0h86M109 0h83M19 1h86M109 1h83M20 2h85M109 2h83M20 3h85M109 3h83M20 4h85M109 4h83M20 5h85M109 5h82M20 6h85M117 6h74M21 7h84M118 7h73M21 8h84M119 8h72M21 9h84M120 9h71M21 10h84M120 10h70M21 11h84M120 11h70M21 12h83M121 12h69M22 13h82M122 13h68M22 14h82M122 14h68M22 15h81M122 15h67M22 16h81M112 16h2M122 16h67M22 17h81M111 17h4M122 17h67M23 18h80M111 18h4M122 18h67M23 19h80M110 19h5M122 19h66M23 20h80M110 20h5M122 20h66M23 21h80M110 21h5M122 21h66M23 22h80M110 22h5M122 22h66M24 23h79M110 23h5M122 23h66M24 24h79M110 24h5M122 24h65M24 25h79M110 25h5M122 25h65M24 26h79M110 26h5M122 26h65M24 27h79M110 27h5M122 27h65M24 28h79M110 28h5M122 28h65M25 29h78M110 29h6M121 29h65M25 30h78M110 30h76M25 31h78M110 31h76" />
<path stroke="#5c5c5c" d="M109 6h7M109 7h8M109 8h9M109 9h10M109 10h10M109 11h10M109 12h11M109 13h12M109 14h4M116 14h5M109 15h3M116 15h5M109 16h3M117 16h4M109 17h2M117 17h4M109 18h2M117 18h4M117 19h4M117 20h4M117 21h4M117 22h4M117 23h4M117 24h4M117 25h4M117 26h4M117 27h4M117 28h4M118 29h3" />
<path stroke="#727171" d="M116 6h1M117 7h1M118 8h1M119 9h1M119 10h1M119 11h1M120 12h1M121 13h1M121 14h1M121 15h1M121 16h1M121 17h1M121 18h1M109 19h1M121 19h1M109 20h1M121 20h1M109 21h1M121 21h1M109 22h1M121 22h1M109 23h1M121 23h1M109 24h1M121 24h1M109 25h1M121 25h1M109 26h1M121 26h1M109 27h1M121 27h1M109 28h1M121 28h1M109 29h1M109 30h1M109 31h1M109 32h1M109 33h1M109 34h1M109 35h1M109 36h1M109 37h1M109 38h1M109 39h1M109 40h1M109 41h1M109 42h1M109 43h1M109 44h1M109 45h1M109 46h1M109 47h1M109 48h1M109 49h1M109 50h1" />
<path stroke="#545353" d="M107 7h1M106 8h2M106 9h2M106 10h2M106 11h2M106 12h2M106 13h2M106 14h2M106 15h2M106 16h2M106 17h2M106 18h2M106 19h2M106 20h2M106 21h2M106 22h2M106 23h2M106 24h2M106 25h2M106 26h2M106 27h2M106 28h2M106 29h2M106 30h2M106 31h2M106 32h2M106 33h2M106 34h2M106 35h2M106 36h2M106 37h2M106 38h2M106 39h2M106 40h2M106 41h2M106 42h2M106 43h2M106 44h2M106 45h2M106 46h2M106 47h2M106 48h2M106 49h2M106 50h2M106 51h2" />
<path stroke="#585858" d="M108 7h1M108 8h1M108 9h1M108 10h1M108 11h1M108 12h1M108 13h1M108 14h1M108 15h1M108 16h1M108 17h1M108 18h1M108 19h1M108 20h1M108 21h1M108 22h1M108 23h1M108 24h1M108 25h1M108 26h1M108 27h1M108 28h1M108 29h1M108 30h1M108 31h1M108 32h1M108 33h1M108 34h1M108 35h1M108 36h1M108 37h1M108 38h1M108 39h1M108 40h1M108 41h1M108 42h1M108 43h1M108 44h1M108 45h1M108 46h1M108 47h1M108 48h1M108 49h1M108 50h1M108 51h1" />
<path stroke="#474747" d="M105 10h1M105 11h1M104 12h2M104 13h2M104 14h2M113 14h3M104 15h2M115 15h1M104 16h2M115 16h2M104 17h2M116 17h1M104 18h2M116 18h1M104 19h2M116 19h1M104 20h2M116 20h1M104 21h2M116 21h1M104 22h2M116 22h1M104 23h2M116 23h1M104 24h2M116 24h1M104 25h2M116 25h1M104 26h2M116 26h1M104 27h2M116 27h1M104 28h2M116 28h1M104 29h2M116 29h2M104 30h2M104 31h2M104 32h2M104 33h2M104 34h2M104 35h2M104 36h2M104 37h2M104 38h2M104 39h2M104 40h2M104 41h2M104 42h2M104 43h2M104 44h2M104 45h2M104 46h2M104 47h2M104 48h2M104 49h2M104 50h2M104 51h2" />
<path stroke="#3e3e3e" d="M103 15h1M112 15h3M103 16h1M114 16h1M103 17h1M115 17h1M103 18h1M115 18h1M103 19h1M115 19h1M103 20h1M115 20h1M103 21h1M115 21h1M103 22h1M115 22h1M103 23h1M115 23h1M103 24h1M115 24h1M103 25h1M115 25h1M103 26h1M115 26h1M103 27h1M115 27h1M103 28h1M115 28h1M103 29h1M103 30h1M103 31h1M103 32h1M103 33h1M103 34h1M103 35h1M103 36h1M103 37h1M103 38h1M103 39h1M103 40h1M103 41h1M103 42h1M103 43h1M103 44h1M103 45h1M103 46h1M103 47h1M103 48h1M103 49h1M103 50h1" />
<path stroke="#dfdfdf" d="M20 35h83M110 35h81M19 36h84M110 36h82M19 37h84M110 37h82M19 38h84M110 38h82M19 39h84M110 39h82M19 40h84M110 40h82" />
<path stroke="#b2b2b2" d="M20 41h83M110 41h81M20 42h83M110 42h81M21 43h82M110 43h80" />
<path stroke="#1b414b" d="M54 46h4M156 46h6M51 47h3M159 47h4M50 48h2M160 48h3M50 49h2M161 49h3M49 50h2M161 50h3M49 51h2M162 51h3M48 52h2M162 52h3M48 53h2M163 53h3M47 54h2M163 54h3M47 55h2M164 55h3M46 56h2M164 56h3M46 57h2M165 57h3M45 58h2M165 58h3M45 59h2M166 59h3M44 60h2M166 60h3M44 61h2M167 61h3M43 62h3M167 62h3M43 63h2M168 63h3M42 64h3M168 64h3M42 65h2M169 65h3M41 66h3M169 66h3M41 67h2M169 67h4M40 68h3M170 68h3M40 69h2M170 69h4M39 70h3M171 70h3M39 71h2M171 71h4M38 72h3M172 72h3M38 73h2M172 73h4M37 74h3M173 74h3M173 75h4" />
<path stroke="#f0ede7" d="M58 46h20M80 46h2M85 46h18M110 46h17M129 46h3M134 46h22M54 47h24M84 47h19M110 47h17M134 47h25M52 48h15M146 48h14M52 49h15M147 49h14M51 50h15M147 50h14M51 51h8M154 51h8M50 52h9M154 52h8M50 53h8M155 53h8M49 54h9M155 54h8M49 55h8M156 55h8M48 56h9M156 56h8M48 57h9M157 57h8M47 58h9M157 58h8M47 59h9M158 59h8M47 60h8M158 60h8M46 61h9M159 61h8M46 62h9M159 62h8M45 63h9M159 63h9M45 64h9M160 64h8M44 65h9M160 65h9M44 66h9M161 66h8M43 67h9M161 67h8M43 68h9M162 68h8M42 69h10M162 69h8M42 70h9M163 70h8M41 71h10M163 71h8M41 72h9M163 72h9M41 73h9M164 73h8M40 74h10M164 74h9M40 75h9M165 75h8M39 76h10M165 76h9M39 77h9M166 77h8M38 78h10M166 78h9M38 79h10M167 79h8M37 80h10M167 80h9M37 81h10M168 81h8M36 82h10M168 82h9M36 83h10M168 83h9M36 84h10M169 84h9M35 85h10M169 85h9M35 86h10M170 86h9M34 87h10M170 87h9M34 88h10M171 88h9M33 89h11M171 89h9M33 90h10M172 90h9M32 91h11M172 91h9M32 92h10M173 92h9M31 93h11M173 93h9M31 94h11M173 94h10M31 95h10M174 95h9M30 96h11M174 96h10M30 97h10M175 97h9M29 98h11M175 98h10M29 99h10M176 99h9M28 100h11M176 100h10M28 101h11M177 101h9M27 102h11M177 102h10M27 103h11M177 103h10M26 104h11M178 104h10M26 105h11M178 105h10M25 106h12M179 106h10M25 107h11M179 107h10M25 108h11M180 108h10M24 109h11M180 109h10M24 110h11M181 110h10M23 111h12M181 111h10M23 112h11M182 112h10M22 113h12M182 113h10M22 114h11M182 114h11" />
<path stroke="#383838" d="M78 46h2M82 46h3M127 46h2M132 46h2M78 47h6M127 47h7M78 49h2M83 49h2M128 49h1M132 49h2M78 50h2M82 50h3M127 50h3M132 50h2" />
<path stroke="#616161" d="M67 48h12M84 48h19M110 48h18M133 48h13M67 49h11M85 49h18M110 49h18M134 49h13M66 50h12M85 50h18M110 50h17M134 50h13M66 51h14M83 51h21M109 51h20M132 51h16M66 52h42M109 52h39M68 53h78" />
<path stroke="#606060" d="M79 48h1M83 48h1M128 48h1M132 48h1M80 49h3M129 49h3" />
<path stroke="#2d2d2d" d="M80 48h3M129 48h3" />
<path stroke="#222222" d="M80 50h2M130 50h2M80 51h3M129 51h3" />
<path stroke="#787878" d="M59 51h7M148 51h6M59 52h7M148 52h6M58 53h10M146 53h9M58 54h97M57 55h6M150 55h6M57 56h5M151 56h5M57 57h5M151 57h6M56 58h5M152 58h5M56 59h5M152 59h6M55 60h6M153 60h5M55 61h5M153 61h6M55 62h5M154 62h5M54 63h5M154 63h5M54 64h5M155 64h5M53 65h6M155 65h5M53 66h5M155 66h6M52 67h6M156 67h5M52 68h5M156 68h6M52 69h5M157 69h5M51 70h5M157 70h6M51 71h5M158 71h5M50 72h6M158 72h5M50 73h5M159 73h5M50 74h5M159 74h5M49 75h5M159 75h6M49 76h5M160 76h5M48 77h6M160 77h6M48 78h5M161 78h5M48 79h5M161 79h6M47 80h5M162 80h5M47 81h5M162 81h6M46 82h6M163 82h5M46 83h5M163 83h5M46 84h5M164 84h5M45 85h5M164 85h5M45 86h5M164 86h6M44 87h6M165 87h5M44 88h5M165 88h6M44 89h5M166 89h5M43 90h5M166 90h6M43 91h5M167 91h5M42 92h6M167 92h6M42 93h5M168 93h5M42 94h5M168 94h5M41 95h5M169 95h5M41 96h5M169 96h5M40 97h6M169 97h6M40 98h5M170 98h5M39 99h6M170 99h6M39 100h5M171 100h5M39 101h5M171 101h6M38 102h5M172 102h5M38 103h5M172 103h5M37 104h6M173 104h5M37 105h5M173 105h5M37 106h5M173 106h6M36 107h5M174 107h5M36 108h5M174 108h6M35 109h6M175 109h5M35 110h5M175 110h6M35 111h5M176 111h5M34 112h148M34 113h148M33 114h149" />
<path stroke="#636363" d="M108 52h1" />
<path stroke="#5e5e5e" d="M63 55h1M149 55h1M62 56h2M149 56h2M62 57h2M149 57h2M61 58h3M149 58h3M61 59h3M149 59h3M61 60h3M149 60h4M60 61h4M148 61h5M60 62h5M148 62h6M59 63h6M148 63h6M59 64h6M148 64h7M59 65h6M147 65h8M58 66h7M147 66h8M58 67h7M147 67h9M57 68h8M147 68h9M57 69h9M147 69h10M56 70h10M146 70h11M56 71h10M146 71h12M56 72h10M146 72h12M55 73h11M146 73h13M55 74h11M146 74h13M54 75h12M146 75h13M54 76h13M146 76h14M54 77h13M145 77h15M53 78h14M145 78h16M53 79h14M145 79h16M52 80h15M145 80h17M52 81h15M145 81h17M52 82h15M145 82h18M51 83h17M144 83h19M51 84h17M144 84h20M50 85h18M144 85h20M50 86h17M144 86h20M50 87h17M144 87h21M49 88h17M145 88h20M49 89h17M145 89h21M48 90h17M146 90h20M48 91h17M146 91h21M48 92h17M147 92h20M47 93h17M147 93h21M47 94h17M147 94h21M46 95h17M148 95h21M46 96h17M148 96h21M46 97h17M149 97h20M45 98h17M149 98h21M45 99h17M149 99h21M44 100h18M150 100h21M44 101h17M150 101h21M43 102h18M151 102h21M43 103h17M151 103h21M43 104h17M152 104h21M42 105h18M152 105h21M42 106h17M152 106h21M41 107h18M153 107h21M41 108h17M153 108h21M41 109h17M154 109h21M40 110h18M154 110h21M40 111h18M154 111h22" />
<path stroke="#403f3f" d="M64 55h85M64 56h85M64 57h85M64 58h85M64 59h85M64 60h85M64 61h84M65 62h83M65 63h83M65 64h83M65 65h82M65 66h82M65 67h82M65 68h82M66 69h81M66 70h80M66 71h80M66 72h80M66 73h80M66 74h80M66 75h80M67 76h78M67 77h78M67 78h78M67 79h78M67 80h78M67 81h78M67 82h78M68 83h76M68 84h76M68 85h76" />
<path stroke="#58471f" d="M0 75h37M0 76h37M177 76h27M0 77h36M178 77h26M0 78h36M178 78h26M0 79h35M179 79h25M0 80h35M179 80h25M0 81h34M180 81h24M0 82h34M180 82h24M0 83h33M181 83h23M0 84h33M181 84h23M0 85h32M182 85h22M0 86h32M182 86h22M0 87h31M183 87h21M0 88h31M183 88h21M0 89h30M184 89h20M0 90h30M184 90h20M0 91h29M185 91h19M0 92h29M185 92h19M0 93h28M186 93h18M0 94h28M186 94h18M0 95h27M187 95h17M0 96h27M187 96h17M0 97h27M188 97h16M0 98h26M188 98h16M0 99h26M189 99h15M0 100h25M189 100h15M0 101h25M190 101h14M0 102h24M190 102h14M0 103h24M191 103h13M0 104h23M191 104h13M0 105h23M192 105h12M0 106h22M192 106h12M0 107h22M193 107h11M0 108h21M193 108h11M0 109h21M194 109h10M0 110h20M194 110h10M0 111h20M195 111h9M0 112h19M195 112h9M0 113h19M196 113h8M0 114h18M196 114h8" />
<path stroke="#423518" d="M37 75h3M37 76h2M174 76h3M36 77h3M174 77h4M36 78h2M175 78h3M35 79h3M175 79h4M35 80h2M176 80h3M34 81h3M176 81h4M34 82h2M177 82h3M33 83h3M177 83h4M33 84h3M178 84h3M32 85h3M178 85h4M32 86h3M179 86h3M31 87h3M179 87h4M31 88h3M180 88h3M30 89h3M180 89h4M30 90h3M181 90h3M29 91h3M181 91h4M29 92h3M182 92h3M28 93h3M182 93h4M28 94h3M183 94h3M27 95h4M183 95h4M27 96h3M184 96h3M27 97h3M184 97h4M26 98h3M185 98h3M26 99h3M185 99h4M25 100h3M186 100h3M25 101h3M186 101h4M24 102h3M187 102h3M24 103h3M187 103h4M23 104h3M188 104h3M23 105h3M188 105h4M22 106h3M189 106h3M22 107h3M189 107h4M21 108h4M190 108h3M21 109h3M190 109h4M20 110h4M191 110h3M20 111h3M191 111h4M19 112h4M192 112h3M19 113h3M192 113h4M18 114h4M193 114h3" />
<path stroke="#030712" d="M145 76h1" />
<path stroke="#6d6c6c" d="M67 86h77M67 87h77M66 88h79M66 89h79M65 90h81M65 91h37M110 91h36M65 92h35M112 92h35M64 93h35M113 93h34M64 94h35M113 94h34M63 95h37M112 95h36M63 96h39M110 96h38M63 97h86M62 98h87M62 99h87M62 100h88M61 101h89M61 102h90M60 103h91M60 104h92M60 105h92M59 106h93M59 107h94M58 108h95M58 109h96M58 110h96M58 111h96" />
<path stroke="#292929" d="M102 91h8M100 92h12M99 93h14M99 94h14M100 95h12M102 96h8" />
</svg>