<svg xmlns="http://www.w3.org/2000/svg" viewBox="0 -0.5 200 147" shape-rendering="crispEdges">
<metadata>Made with Pixels to Svg https://codepen.io/shshaw/pen/XbxvNj</metadata>
<path stroke="#2a646d" d="M0 0h200M0 1h200M0 2h200M0 3h200M0 4h200M0 5h200M0 6h200M0 7h200M0 8h39M153 8h47M0 9h38M157 9h43M0 10h36M157 10h43M0 11h35M159 11h41M0 12h33M159 12h41M0 13h33M160 13h40M0 14h33M161 14h39M0 15h33M161 15h39M0 16h33M161 16h39M0 17h33M161 17h39M0 18h33M161 18h39M0 19h33M161 19h39M0 20h33M161 20h39M0 21h33M161 21h39M0 22h33M161 22h39M0 23h33M161 23h39M0 24h33M161 24h39M0 25h33M161 25h39M0 26h33M161 26h39M0 27h33M161 27h39M0 28h33M161 28h39M0 29h33M161 29h39M0 30h33M161 30h39M0 31h33M161 31h39M0 32h33M161 32h39M0 33h33M161 33h39M0 34h33M161 34h39M0 35h33M160 35h40M0 36h33M160 36h40M0 37h33M160 37h40M0 38h33M160 38h40M0 39h33M160 39h40M0 40h33M160 40h40M0 41h33M160 41h40M0 42h33M160 42h40M0 43h33M160 43h40M0 44h33M160 44h40M0 45h33M160 45h40M0 46h33M160 46h40M0 47h33M160 47h40M0 48h33M160 48h40M0 49h33M160 49h40M0 50h33M160 50h40M0 51h33M160 51h40M0 52h33M160 52h40M0 53h33M160 53h40M0 54h33M160 54h40M0 55h34" />
<path stroke="#5c5c5c" d="M39 8h114M38 9h119M36 10h121M35 11h124M33 12h126M33 13h127M33 14h128M33 15h128M33 16h128M33 17h128M33 18h128M33 19h128M33 20h128M33 21h128M33 22h128M33 23h128M33 24h128M33 25h128M33 26h128M33 27h128M33 28h128M33 29h128M33 30h128M33 31h128M33 32h128M33 33h128M33 34h128M33 35h127M33 36h127M33 37h127M33 38h127M33 39h127M33 40h127M33 41h127M33 42h127M33 43h127M33 44h127M85 45h8M125 45h6M85 46h8M125 46h6M33 47h127M33 48h127M33 49h127M33 50h127M33 51h127M33 52h127M33 53h127M33 54h127" />
<path stroke="#3a3a3a" d="M33 45h52M93 45h32M131 45h29M33 46h52M93 46h32M131 46h29" />
<path stroke="#383737" d="M34 55h125M32 56h123M156 56h5M31 57h9M41 57h11M65 57h19M86 57h23M110 57h20M144 57h12M157 57h5M31 58h8M40 58h7M70 58h14M86 58h22M110 58h16M148 58h8M157 58h6M30 59h9M40 59h4M73 59h11M86 59h22M110 59h13M151 59h6M158 59h6M29 60h9M39 60h3M75 60h9M86 60h22M109 60h1M111 60h10M153 60h5M159 60h6M28 61h9M38 61h3M76 61h7M85 61h24M111 61h9M154 61h4M159 61h7M28 62h9M38 62h3M76 62h7M85 62h24M111 62h9M154 62h5M160 62h6M27 63h9M37 63h4M76 63h7M85 63h24M111 63h9M154 63h6M161 63h6M25 64h10M36 64h6M75 64h8M85 64h24M110 64h1M112 64h9M153 64h7M161 64h7M23 65h12M36 65h8M73 65h10M85 65h25M112 65h11M151 65h10M162 65h7M23 66h11M35 66h12M70 66h13M85 66h25M112 66h14M148 66h14M163 66h7M23 67h10M34 67h18M65 67h17M84 67h26M112 67h18M144 67h19M164 67h7M23 68h10M34 68h48M84 68h26M112 68h51M164 68h7M22 69h10M33 69h49M84 69h27M113 69h51M165 69h7M22 70h9M32 70h50M84 70h27M113 70h52M166 70h7M21 71h10M32 71h50M84 71h27M113 71h52M166 71h8M20 72h10M31 72h18M62 72h20M84 72h27M113 72h23M150 72h16M167 72h8M19 73h11M31 73h12M68 73h13M83 73h28M112 73h1M114 73h16M156 73h11M168 73h8M18 74h11M30 74h10M71 74h10M83 74h29M114 74h13M159 74h8M168 74h8M18 75h10M29 75h9M73 75h8M83 75h29M114 75h11M161 75h7M169 75h8M17 76h11M29 76h7M75 76h6M83 76h29M114 76h9M163 76h6M170 76h8M16 77h11M28 77h7M76 77h5M83 77h29M113 77h1M115 77h7M164 77h5M170 77h9M15 78h11M27 78h7M77 78h4M83 78h30M115 78h6M165 78h5M171 78h9M15 79h11M27 79h7M77 79h3M82 79h31M115 79h6M165 79h6M172 79h9M13 80h12M26 80h8M77 80h3M82 80h31M115 80h6M165 80h6M172 80h9M13 81h11M25 81h10M76 81h4M82 81h31M115 81h6M165 81h7M173 81h9M12 82h12M25 82h11M75 82h5M82 82h32M116 82h6M164 82h9M174 82h9M12 83h11M24 83h14M73 83h7M82 83h32M116 83h7M163 83h11M175 83h9M11 84h11M23 84h17M71 84h9M82 84h32M116 84h9M161 84h13M175 84h10M10 85h12M23 85h20M68 85h11M81 85h33M116 85h11M159 85h16M176 85h10M9 86h12M22 86h27M62 86h17M81 86h34M117 86h13M156 86h20M177 86h9M9 87h2M81 87h34M117 87h19M150 87h26M177 87h10M8 88h107M187 88h1M99 89h89M188 98h1M188 99h1M188 100h1M8 111h1M8 112h1M8 113h1M8 114h1M15 122h1M15 123h1" />
<path stroke="#403010" d="M159 55h4M29 56h3M161 56h2M29 57h2M162 57h2M28 58h3M163 58h2M27 59h3M164 59h2M26 60h3M165 60h1M26 61h2M166 61h1M25 62h3M166 62h2M24 63h3M167 63h2M24 64h1M168 64h2M169 65h2M22 66h1M170 66h1M21 67h2M171 67h1M21 68h2M171 68h2M20 69h2M172 69h2M19 70h3M173 70h2M18 71h3M174 71h2M18 72h2M175 72h2M17 73h2M176 73h1M16 74h2M176 74h2M15 75h3M177 75h2M15 76h2M178 76h2M14 77h2M179 77h2M13 78h2M180 78h2M12 79h3M181 79h2M11 80h2M181 80h2M11 81h2M182 81h2M10 82h2M183 82h2M9 83h3M184 83h2M8 84h3M185 84h2M8 85h2M186 85h2M7 86h2M186 86h2M6 87h3M187 87h2M7 88h1M188 88h2M188 89h3M6 90h1M189 90h2M6 91h1M189 91h2M6 92h1M189 92h3M6 93h1M189 93h3M6 94h1M189 94h3M6 95h1M189 95h3M6 96h1M189 96h3M6 97h1M189 97h2M6 98h1M189 98h2M6 99h2M189 99h2M6 100h2M189 100h2M7 101h1M188 101h3M7 102h1M188 102h3M7 103h1M188 103h3M7 104h1M188 104h2M7 105h1M188 105h2M7 106h1M188 106h2M7 107h1M187 107h3M7 108h1M187 108h3M7 109h1M187 109h3M7 110h1M187 110h2M187 111h2M187 112h2M187 113h2M187 114h2M8 115h1M187 115h2M8 116h1M186 116h3M8 117h1M186 117h2M8 118h1M186 118h2M8 119h1M186 119h2M8 120h1M186 120h2M186 121h2M9 122h1M186 122h2M9 123h1M186 123h2M9 124h1M186 124h1M9 125h1M186 125h1M9 126h1M185 126h2M9 127h1M185 127h2M9 128h1M185 128h2M9 129h1M185 129h2M9 130h1M185 130h2M185 131h1M185 132h1M10 133h1M185 133h1M10 134h1M185 134h1M10 135h1M184 135h2M10 136h1M184 136h2M10 137h1M184 137h1M10 138h1M184 138h1M10 139h1M184 139h1M10 140h1M184 140h1M184 141h1M184 142h1M184 143h1M183 144h1M11 145h1M183 145h1M11 146h1M183 146h1" />
<path stroke="#543f16" d="M163 55h37M0 56h29M163 56h37M0 57h29M164 57h36M0 58h28M165 58h35M0 59h27M166 59h34M0 60h26M166 60h34M0 61h26M167 61h33M0 62h25M168 62h32M0 63h24M169 63h31M0 64h24M170 64h30M0 65h23M171 65h29M0 66h22M171 66h29M0 67h21M172 67h28M0 68h21M173 68h27M0 69h20M174 69h26M0 70h19M175 70h25M0 71h18M176 71h24M0 72h18M177 72h23M0 73h17M177 73h23M0 74h16M178 74h22M0 75h15M179 75h21M0 76h15M180 76h20M0 77h14M181 77h19M0 78h13M182 78h18M0 79h12M183 79h17M0 80h11M183 80h17M0 81h11M184 81h16M0 82h10M185 82h15M0 83h9M186 83h14M0 84h8M187 84h13M0 85h8M188 85h12M0 86h7M188 86h12M0 87h6M189 87h11M190 88h10M191 89h9" />
<path stroke="#404040" d="M155 56h1M40 57h1M84 57h1M109 57h1M156 57h1M39 58h1M84 58h1M109 58h1M156 58h1M39 59h1M84 59h1M109 59h1M157 59h1M38 60h1M84 60h1M110 60h1M158 60h1M37 61h1M83 61h1M110 61h1M158 61h1M37 62h1M83 62h1M110 62h1M159 62h1M36 63h1M83 63h1M110 63h1M160 63h1M35 64h1M83 64h1M111 64h1M160 64h1M35 65h1M83 65h1M111 65h1M161 65h1M34 66h1M83 66h1M111 66h1M162 66h1M33 67h1M82 67h1M111 67h1M163 67h1M33 68h1M82 68h1M111 68h1M163 68h1M32 69h1M82 69h1M112 69h1M164 69h1M31 70h1M82 70h1M112 70h1M165 70h1M31 71h1M82 71h1M112 71h1M165 71h1M30 72h1M82 72h1M112 72h1M166 72h1M30 73h1M81 73h1M113 73h1M167 73h1M29 74h1M81 74h1M113 74h1M167 74h1M28 75h1M81 75h1M113 75h1M168 75h1M28 76h1M81 76h1M113 76h1M169 76h1M27 77h1M81 77h1M114 77h1M169 77h1M26 78h1M81 78h1M114 78h1M170 78h1M26 79h1M80 79h1M114 79h1M171 79h1M25 80h1M80 80h1M114 80h1M171 80h1M24 81h1M80 81h1M114 81h1M172 81h1M24 82h1M80 82h1M115 82h1M173 82h1M23 83h1M80 83h1M115 83h1M174 83h1M22 84h1M80 84h1M115 84h1M174 84h1M22 85h1M79 85h1M115 85h1M175 85h1M21 86h1M79 86h1M116 86h1M176 86h1M11 87h69M116 87h1M176 87h1M116 88h71" />
<path stroke="#0d0d0d" d="M52 57h13M130 57h14M47 58h23M126 58h22M44 59h7M66 59h7M123 59h6M145 59h6M42 60h5M70 60h5M121 60h4M149 60h4M41 61h5M71 61h5M120 61h4M150 61h4M41 62h4M72 62h4M120 62h3M151 62h3M41 63h5M71 63h5M120 63h4M150 63h4M42 64h5M70 64h5M121 64h4M149 64h4M44 65h7M66 65h7M123 65h6M145 65h6M47 66h23M126 66h22M52 67h13M130 67h14M49 72h13M136 72h14M43 73h25M130 73h26M40 74h31M127 74h9M151 74h8M38 75h9M64 75h9M125 75h6M156 75h5M36 76h6M69 76h6M123 76h6M158 76h5M35 77h5M71 77h5M122 77h5M160 77h4M34 78h5M72 78h5M121 78h5M161 78h4M34 79h4M73 79h4M121 79h5M161 79h4M34 80h5M72 80h5M121 80h5M161 80h4M35 81h5M71 81h5M121 81h5M161 81h4M36 82h6M69 82h6M122 82h5M160 82h4M38 83h9M64 83h9M123 83h6M158 83h5M40 84h31M125 84h6M156 84h5M43 85h25M127 85h9M151 85h8M49 86h13M130 86h26M136 87h14" />
<path stroke="#2f2f2f" d="M85 57h1M85 58h1M108 58h1M85 59h1M108 59h1M85 60h1M108 60h1M84 61h1M109 61h1M84 62h1M109 62h1M84 63h1M109 63h1M84 64h1M109 64h1M84 65h1M110 65h1M84 66h1M110 66h1M83 67h1M110 67h1M83 68h1M110 68h1M83 69h1M111 69h1M83 70h1M111 70h1M83 71h1M111 71h1M83 72h1M111 72h1M82 73h1M111 73h1M82 74h1M112 74h1M82 75h1M112 75h1M82 76h1M112 76h1M82 77h1M112 77h1M82 78h1M113 78h1M81 79h1M113 79h1M81 80h1M113 80h1M81 81h1M113 81h1M81 82h1M114 82h1M81 83h1M114 83h1M81 84h1M114 84h1M80 85h1M114 85h1M80 86h1M115 86h1M80 87h1M115 87h1M115 88h1" />
<path stroke="#1c1c1c" d="M51 59h15M129 59h16M47 60h23M125 60h24M46 61h25M124 61h26M45 62h27M123 62h28M46 63h25M124 63h26M47 64h23M125 64h24M51 65h15M129 65h16M136 74h15M47 75h17M131 75h25M42 76h27M129 76h29M40 77h31M127 77h33M39 78h33M126 78h35M38 79h35M126 79h35M39 80h33M126 80h35M40 81h31M126 81h35M42 82h27M127 82h33M47 83h17M129 83h29M131 84h25M136 85h15M95 92h4M100 92h1M94 93h4M100 93h2M28 94h2M31 94h2M62 94h5M93 94h4M100 94h3M27 95h2M31 95h3M61 95h2M66 95h2M92 95h4M101 95h3M132 95h5M165 95h4M26 96h2M31 96h4M60 96h3M66 96h3M91 96h5M101 96h4M131 96h3M136 96h2M163 96h4M169 96h2M25 97h3M31 97h5M59 97h3M66 97h4M91 97h5M101 97h4M130 97h4M136 97h3M163 97h4M169 97h2M25 98h3M31 98h5M59 98h3M66 98h4M91 98h5M101 98h4M129 98h4M136 98h4M162 98h5M170 98h2M25 99h3M31 99h5M59 99h3M66 99h4M91 99h5M101 99h4M129 99h4M136 99h4M162 99h5M170 99h2M25 100h3M31 100h5M59 100h4M66 100h4M91 100h5M101 100h4M129 100h4M136 100h4M162 100h5M170 100h2M26 101h2M31 101h4M60 101h3M66 101h3M92 101h4M101 101h3M130 101h3M136 101h3M163 101h4M170 101h1M27 102h2M31 102h3M61 102h2M66 102h2M93 102h4M100 102h3M131 102h3M136 102h2M163 102h4M169 102h2M28 103h2M31 103h2M62 103h2M65 103h2M94 103h4M100 103h2M132 103h5M165 103h4M95 104h4M100 104h1" />
<path stroke="#382a0f" d="M0 88h7M0 89h7M0 90h6M191 90h9M0 91h6M191 91h9M0 92h6M192 92h8M0 93h6M192 93h8M0 94h6M192 94h8M0 95h6M192 95h8M0 96h6M192 96h8M0 97h6M191 97h9M0 98h6M191 98h9M0 99h6M191 99h9M0 100h6M191 100h9M0 101h7M191 101h9M0 102h7M191 102h9M0 103h7M191 103h9M0 104h7M190 104h10M0 105h7M190 105h10M0 106h7M190 106h10M0 107h7M190 107h10M0 108h7M190 108h10M0 109h7M190 109h10M0 110h7M189 110h11M0 111h8M189 111h11M0 112h8M189 112h11M0 113h8M189 113h11M0 114h8M189 114h11M0 115h8M189 115h11M0 116h8M189 116h11M0 117h8M188 117h12M0 118h8M188 118h12M0 119h8M188 119h12M0 120h8M188 120h12M0 121h9M188 121h12M0 122h9M188 122h12M0 123h9M188 123h12M0 124h9M187 124h13M0 125h9M187 125h13M0 126h9M187 126h13M0 127h9M187 127h13M0 128h9M187 128h13M0 129h9M187 129h13M0 130h9M187 130h13M0 131h10M186 131h14M0 132h10M186 132h14M0 133h10M186 133h14M0 134h10M186 134h14M0 135h10M186 135h14M0 136h10M186 136h14M0 137h10M185 137h15M0 138h10M185 138h15M0 139h10M185 139h15M0 140h10M185 140h15M0 141h11M185 141h15M0 142h11M185 142h15M0 143h11M185 143h15M0 144h11M184 144h16M0 145h11M184 145h16M0 146h11M184 146h16" />
<path stroke="#2d2c2c" d="M7 89h92M7 90h182M7 91h182M7 92h88M101 92h88M7 93h87M102 93h87M7 94h21M33 94h29M67 94h26M103 94h86M7 95h20M34 95h27M68 95h24M104 95h28M137 95h28M169 95h20M7 96h19M35 96h25M69 96h22M105 96h26M138 96h25M171 96h18M7 97h18M36 97h23M70 97h21M105 97h25M139 97h24M171 97h18M7 98h18M36 98h23M70 98h21M105 98h24M140 98h22M172 98h16M8 99h17M36 99h23M70 99h21M105 99h24M140 99h22M172 99h16M8 100h17M36 100h23M70 100h21M105 100h24M140 100h22M172 100h16M8 101h18M35 101h25M69 101h23M104 101h26M139 101h24M171 101h17M8 102h19M34 102h27M68 102h25M103 102h28M138 102h25M171 102h17M8 103h20M33 103h29M67 103h27M102 103h30M137 103h28M169 103h19M8 104h87M101 104h87M8 105h180M8 106h180M8 107h179M8 108h179M8 109h179M8 110h179M9 111h178M9 112h178M9 113h178M9 114h178M9 115h178M9 116h177M9 117h177M9 118h177M9 119h177M9 120h177M9 121h177M10 122h5M16 122h170M10 123h5M16 123h170M10 124h176M10 125h176M10 126h175M10 127h175M10 128h175M10 129h175M10 130h175M10 131h175M10 132h175M11 133h174M11 134h174M11 135h173M11 136h173M11 137h173M11 138h173M11 139h173M11 140h173M11 141h173M11 142h173M11 143h173M11 144h172M12 145h171M12 146h171" />
<path stroke="#252525" d="M99 92h1M98 93h2M30 94h1M97 94h3M29 95h2M63 95h3M96 95h5M28 96h3M63 96h3M96 96h5M134 96h2M167 96h2M28 97h3M62 97h4M96 97h5M134 97h2M167 97h2M28 98h3M62 98h4M96 98h5M133 98h3M167 98h3M28 99h3M62 99h4M96 99h5M133 99h3M167 99h3M28 100h3M63 100h3M96 100h5M133 100h3M167 100h3M28 101h3M63 101h3M96 101h5M133 101h3M167 101h3M29 102h2M63 102h3M97 102h3M134 102h2M167 102h2M30 103h1M64 103h1M98 103h2M99 104h1" />
</svg>