<svg xmlns="http://www.w3.org/2000/svg" viewBox="0 -0.5 20 20" shape-rendering="crispEdges">
<metadata>Made with Pixels to Svg https://codepen.io/shshaw/pen/XbxvNj</metadata>
<path stroke="#8a745c" d="M8 4h2M7 5h1M6 6h1M5 7h1M5 8h1M5 9h1M4 10h1M4 11h1M4 12h1M4 13h1M5 14h1M6 15h1M7 16h6" />
<path stroke="#9f896f" d="M10 4h1" />
<path stroke="#b7a795" d="M11 4h1" />
<path stroke="#cabbaa" d="M8 5h4M7 6h4M12 6h1M6 7h5M13 7h1M6 8h5M13 8h1M6 9h6M5 10h10M5 11h1M7 11h8M5 12h1M8 12h7M5 13h1M9 13h6M6 14h1M9 14h5M7 15h6" />
<path stroke="#b3987a" d="M12 5h1M15 10h1M15 11h1M15 12h1M15 13h1M14 14h1M13 15h1" />
<path stroke="#eae8e6" d="M11 6h1M11 7h2M11 8h2M12 9h2" />
<path stroke="#c3af97" d="M13 6h1M14 7h1M14 8h1M14 9h1" />
<path stroke="#927a5d" d="M6 11h1M6 12h2M6 13h3M7 14h2" />
</svg>