<svg xmlns="http://www.w3.org/2000/svg" viewBox="0 -0.5 220 125" shape-rendering="crispEdges">
<metadata>Made with Pixels to Svg https://codepen.io/shshaw/pen/XbxvNj</metadata>
<path stroke="#d9e1e1" d="M0 0h45M156 0h64M0 1h46M154 1h66M0 2h46M153 2h67M0 3h46M152 3h68M0 4h46M151 4h69M0 5h47M150 5h70M0 6h50M149 6h71M0 7h52M148 7h72M0 8h54M147 8h73M0 9h55M146 9h74M0 10h57M144 10h76M0 11h57M143 11h77M0 12h57M138 12h82M0 13h57M135 13h85M0 14h58M132 14h88M0 15h60M131 15h25M168 15h52M0 16h61M129 16h23M177 16h5M189 16h13M205 16h12M0 17h14M24 17h37M128 17h11M141 17h8M192 17h6M207 17h6M7 18h4M25 18h35M127 18h8M29 19h30M126 19h6M40 20h15M127 20h3M208 34h2M84 35h6M207 35h3M24 36h1M81 36h10M206 36h5M22 37h3M80 37h11M206 37h5M20 38h6M78 38h14M205 38h6M19 39h8M77 39h15M205 39h7M16 40h9M74 40h16M204 40h9M15 41h9M68 41h20M140 41h1M169 41h4M204 41h9M12 42h8M61 42h14M138 42h3M168 42h6M204 42h9M11 43h6M50 43h2M58 43h6M137 43h4M159 43h2M166 43h9M204 43h10M10 44h4M49 44h3M135 44h6M160 44h14M203 44h11M47 45h7M135 45h7M164 45h9M202 45h10M45 46h5M134 46h8M169 46h1M202 46h9M44 47h2M134 47h8M201 47h4M133 48h13M198 48h5M131 49h14M196 49h3M130 50h13M194 50h3M125 51h16M133 52h3" />
<path stroke="#9fddea" d="M45 0h111M46 1h108M46 2h107M46 3h106M46 4h105M47 5h103M50 6h99M52 7h96M54 8h93M55 9h91M57 10h87M57 11h86M57 12h81M57 13h78M58 14h74M61 15h70M63 16h66M65 17h61M66 18h59M80 19h44M15 20h4M84 20h39M14 21h8M95 21h26M141 21h14M13 22h17M75 22h12M93 22h26M137 22h28M9 23h29M49 23h9M70 23h47M132 23h51M198 23h7M0 24h209M0 25h220M0 26h220M0 27h220M0 28h220M0 29h220M0 30h220M0 31h220M0 32h220M0 33h13M14 33h206M0 34h13M14 34h194M210 34h10M0 35h12M14 35h70M90 35h117M210 35h10M0 36h5M6 36h6M15 36h4M20 36h4M25 36h56M91 36h115M211 36h9M0 37h6M8 37h3M16 37h2M19 37h3M25 37h55M93 37h113M211 37h9M0 38h7M19 38h1M26 38h52M95 38h110M211 38h9M0 39h8M27 39h50M96 39h109M212 39h8M0 40h8M26 40h48M98 40h33M132 40h72M213 40h7M0 41h6M26 41h42M100 41h30M131 41h1M133 41h7M141 41h28M173 41h31M213 41h7M0 42h4M28 42h33M75 42h8M102 42h28M131 42h1M133 42h5M141 42h27M175 42h29M213 42h7M0 43h7M32 43h18M52 43h6M64 43h34M108 43h29M141 43h18M161 43h5M176 43h28M214 43h6M0 44h8M19 44h5M33 44h16M52 44h66M120 44h1M123 44h12M141 44h19M179 44h24M215 44h5M0 45h8M16 45h1M19 45h11M35 45h12M55 45h65M121 45h14M142 45h22M183 45h19M216 45h4M0 46h8M10 46h2M16 46h3M20 46h25M50 46h1M59 46h75M142 46h27M179 46h23M0 47h7M8 47h5M16 47h28M46 47h8M57 47h77M142 47h29M174 47h27M0 48h6M7 48h6M15 48h118M146 48h52M205 48h5M219 48h1M0 49h14M15 49h116M146 49h50M199 49h13M218 49h2M0 50h14M15 50h115M148 50h46M197 50h23M0 51h125M151 51h69M0 52h133M148 52h54M203 52h17M0 53h202M204 53h16M0 54h220M0 55h220M0 56h220M0 57h220M0 58h220M0 59h220M0 60h220M0 61h220M0 62h220M0 63h220M0 64h220M0 65h64M67 65h153M0 66h62M69 66h151M0 67h63M68 67h152M0 68h63M68 68h152M0 69h63M68 69h92M164 69h56M0 70h62M69 70h11M96 70h62M165 70h55M0 71h63M68 71h10M97 71h42M143 71h14M166 71h54M0 72h63M64 72h1M66 72h1M68 72h9M98 72h40M144 72h12M168 72h52M0 73h63M64 73h1M66 73h1M68 73h8M99 73h39M144 73h10M170 73h50M0 74h63M68 74h7M100 74h32M135 74h3M144 74h13M167 74h53M0 75h63M64 75h1M66 75h1M68 75h7M100 75h31M136 75h2M144 75h16M164 75h56M0 76h62M63 76h2M66 76h2M69 76h7M99 76h32M136 76h2M144 76h16M163 76h57M0 77h62M63 77h2M66 77h2M69 77h7M99 77h32M136 77h2M144 77h17M163 77h57M0 78h62M64 78h1M66 78h1M69 78h7M99 78h32M136 78h2M144 78h17M163 78h57M0 79h62M63 79h1M67 79h1M69 79h7M99 79h32M136 79h2M144 79h17M163 79h16M180 79h7M188 79h5M194 79h4M199 79h21M0 80h61M62 80h3M66 80h3M70 80h6M99 80h32M136 80h2M144 80h4M149 80h11M163 80h11M175 80h2M204 80h3M208 80h12M0 81h50M51 81h10M62 81h2M67 81h2M70 81h6M99 81h1M101 81h8M110 81h21M136 81h2M144 81h3M149 81h5M155 81h5M162 81h8M171 81h2M177 81h2M181 81h2M184 81h2M187 81h5M193 81h5M200 81h3M207 81h13M0 82h40M42 82h3M46 82h4M52 82h9M64 82h1M66 82h1M68 82h1M70 82h5M102 82h7M110 82h9M120 82h8M129 82h1M136 82h1M150 82h3M155 82h5M163 82h5M171 82h3M175 82h3M180 82h1M182 82h1M184 82h1M187 82h5M193 82h1M195 82h2M201 82h2M204 82h2M209 82h3M213 82h4M218 82h2M0 83h9M10 83h10M21 83h11M33 83h8M43 83h2M46 83h4M52 83h2M56 83h1M59 83h1M63 83h1M66 83h2M70 83h2M103 83h1M106 83h3M112 83h2M116 83h1M118 83h1M120 83h2M124 83h3M151 83h1M156 83h3M163 83h2M166 83h1M173 83h1M175 83h3M187 83h4M205 83h1M207 83h3M213 83h3M218 83h2M0 84h1M2 84h4M7 84h2M11 84h9M23 84h3M27 84h4M33 84h4M39 84h1M51 84h1M53 84h1M71 84h1M158 84h1M175 84h1M189 84h2M0 85h1M2 85h3M13 85h8M34 85h3" />
<path stroke="#a3b8b7" d="M60 15h1M156 15h12M61 16h2M152 16h25M182 16h7M202 16h3M217 16h3M14 17h10M61 17h4M126 17h2M139 17h2M149 17h43M198 17h9M213 17h7M0 18h7M11 18h14M60 18h6M125 18h2M135 18h85M0 19h29M59 19h21M124 19h2M132 19h88M0 20h15M19 20h21M55 20h29M123 20h4M130 20h90M0 21h14M22 21h73M121 21h20M155 21h65M0 22h13M30 22h45M87 22h6M119 22h18M165 22h55M0 23h9M38 23h11M58 23h12M117 23h15M183 23h15M205 23h15M209 24h11M91 37h2M92 38h3M92 39h4M25 40h1M90 40h8M24 41h2M88 41h12M20 42h8M83 42h19M174 42h1M17 43h15M98 43h10M175 43h1M18 44h1M24 44h9M174 44h5M214 44h1M30 45h5M54 45h1M173 45h10M212 45h4M51 46h8M170 46h9M211 46h9M54 47h3M171 47h3M205 47h15M203 48h2M210 48h9M145 49h1M212 49h6M143 50h5M141 51h10M136 52h12" />
<path stroke="#e7ce6e" d="M13 33h1M13 34h1M12 35h2M5 36h1M12 36h3M19 36h1M6 37h2M11 37h5M18 37h1M7 38h4M16 38h3M8 39h2M17 39h2M8 40h1M6 41h3M4 42h5M7 43h2M8 44h2M17 44h1M8 45h3M15 45h1M17 45h2M8 46h2M12 46h4M19 46h1M7 47h1M13 47h3M6 48h1M13 48h2M14 49h1M14 50h1" />
<path stroke="#dbaa67" d="M11 38h5M10 39h7M9 40h7M9 41h6M9 42h3M9 43h2M14 44h3M11 45h4" />
<path stroke="#453b2c" d="M131 40h1M130 41h1M132 41h1M130 42h1M132 42h1M118 44h2M121 44h2M120 45h1" />
<path stroke="#9bd8e5" d="M202 52h1M202 53h2" />
<path stroke="#8e8982" d="M64 65h1M62 66h3M63 67h2M63 68h1" />
<path stroke="#72716f" d="M65 65h1M64 69h1M64 71h1" />
<path stroke="#5e574e" d="M66 65h1" />
<path stroke="#635f5a" d="M65 66h2M65 67h2M65 68h2M65 69h2M65 71h2" />
<path stroke="#52504d" d="M67 66h2M67 67h1M67 68h1M67 69h1" />
<path stroke="#807b74" d="M64 68h1M63 69h1" />
<path stroke="#84b283" d="M160 69h1M158 70h2M157 71h1M156 72h1M154 73h3" />
<path stroke="#5e985d" d="M161 69h2M160 70h4M158 71h6M157 72h7M157 73h7M157 74h6M160 75h1" />
<path stroke="#5e815e" d="M163 69h1M164 70h1M164 71h1M164 72h2M164 73h1M163 74h2M161 75h1" />
<path stroke="#8e6125" d="M62 70h3M63 71h1M63 72h1M65 72h1M63 73h1M65 73h1M63 74h1M65 74h1M63 75h1M65 75h1M62 76h1M62 77h1M62 78h2M62 79h1M61 80h1M61 81h1M63 82h1" />
<path stroke="#694311" d="M65 70h4M67 71h1M67 72h1M67 73h1M64 74h1M66 74h2M67 75h1M68 76h1M65 77h1M68 77h1M65 78h1M67 78h2M64 79h2M65 80h1M64 81h2M65 82h1M67 82h1" />
<path stroke="#323b47" d="M80 70h15M78 71h15M77 72h14M76 73h14M75 74h14M75 75h14" />
<path stroke="#282f38" d="M95 70h1M93 71h4M91 72h2M96 72h2M90 73h1M98 73h1M89 74h1M99 74h1M89 75h1M99 75h1" />
<path stroke="#6d6863" d="M139 71h2M138 72h3M132 74h1M138 74h3M131 75h2M138 75h3M138 76h3M131 77h2M138 77h3M131 78h2M138 79h3M131 80h2M138 80h3M131 81h1M138 81h2M131 82h1" />
<path stroke="#58524c" d="M141 71h1M141 72h1M133 74h1M141 74h1M133 75h1M141 75h1M141 76h1M133 77h1M141 77h1M133 78h1M141 79h1M133 80h1M141 80h1M133 81h1M141 81h1M133 82h1" />
<path stroke="#524e49" d="M142 71h1M142 72h2M134 74h1M142 74h2M134 75h2M142 75h2M142 76h2M134 77h2M142 77h2M134 78h2M142 79h2M134 80h2M143 80h1M134 81h2M135 82h1" />
<path stroke="#4e6b4e" d="M165 71h1M166 72h2M165 73h5M165 74h2M163 75h1" />
<path stroke="#802921" d="M93 72h3M91 73h7M90 74h9M90 75h3M96 75h3M88 76h5M96 76h3M88 77h11M88 78h11M88 79h5M96 79h3M88 80h5M96 80h3M88 81h5M96 81h3M88 82h4M96 82h3" />
<path stroke="#c9c9c9" d="M138 73h2M131 76h2M138 78h2M131 79h2" />
<path stroke="#a1a1a1" d="M140 73h2M133 76h1M140 78h2M133 79h1" />
<path stroke="#7c7c7c" d="M142 73h2M134 76h2M142 78h2M134 79h2" />
<path stroke="#b2a5a4" d="M93 75h3M93 76h3M93 79h3M93 80h3M93 81h3M93 82h3" />
<path stroke="#445644" d="M162 75h1M160 76h2" />
<path stroke="#80561e" d="M65 76h1" />
<path stroke="#a53f35" d="M76 76h10M76 77h9M76 78h8M76 79h7M76 80h6M76 81h1M78 81h2M76 82h1" />
<path stroke="#92382f" d="M86 76h2M85 77h3M84 78h4M83 79h5M82 80h6M80 81h3M84 81h4M78 82h3M82 82h1M84 82h1M86 82h2" />
<path stroke="#513a1c" d="M162 76h1M162 77h1M162 78h1M162 79h1" />
<path stroke="#5a4427" d="M161 77h1M160 80h1M160 81h2M160 82h1M159 83h2M159 84h2" />
<path stroke="#583f1e" d="M161 78h1M161 79h1M161 80h1" />
<path stroke="#603e10" d="M66 79h1M68 79h1M69 80h1M66 81h1M69 81h1M69 82h1M69 83h1" />
<path stroke="#7c5f3b" d="M179 79h1M174 80h1M177 80h3M173 81h2" />
<path stroke="#604d35" d="M187 79h1M193 79h1M198 79h1M180 80h10M175 81h2M179 81h2M174 82h1M174 84h1" />
<path stroke="#226721" d="M142 80h1M148 80h1M50 81h1M100 81h1M109 81h1M132 81h1M140 81h1M142 81h2M147 81h2M154 81h1M170 81h1M183 81h1M198 81h1M203 81h1M40 82h2M50 82h2M61 82h2M75 82h1M92 82h1M99 82h3M109 82h1M128 82h1M132 82h1M137 82h3M141 82h1M143 82h3M148 82h1M153 82h2M161 82h1M168 82h1M170 82h1M178 82h1M183 82h1M194 82h1M197 82h2M200 82h1M203 82h1M212 82h1M217 82h1M9 83h1M20 83h1M32 83h1M41 83h2M50 83h2M54 83h2M57 83h2M61 83h2M64 83h2M72 83h4M79 83h2M87 83h2M91 83h7M99 83h4M104 83h2M109 83h1M114 83h2M122 83h2M127 83h2M130 83h4M136 83h1M139 83h1M141 83h1M143 83h1M145 83h1M150 83h1M152 83h2M155 83h1M161 83h1M165 83h1M167 83h1M171 83h2M178 83h1M180 83h1M184 83h1M193 83h4M198 83h7M210 83h3M216 83h2M1 84h1M6 84h1M9 84h2M20 84h3M26 84h1M31 84h2M37 84h2M40 84h3M46 84h2M49 84h2M52 84h1M54 84h12M67 84h1M69 84h2M72 84h1M76 84h1M80 84h2M91 84h2M102 84h2M105 84h2M108 84h1M110 84h3M120 84h1M122 84h1M124 84h1M126 84h1M136 84h1M151 84h1M162 84h1M165 84h1M176 84h2M181 84h1M185 84h4M192 84h2M199 84h2M202 84h1M204 84h2M209 84h2M214 84h3M218 84h1M1 85h1M5 85h6M12 85h1M21 85h5M27 85h4M32 85h2M38 85h3M46 85h1M50 85h1M52 85h3M62 85h1M64 85h1M70 85h1M104 85h1M106 85h1M108 85h4M174 85h2M178 85h1M188 85h1M205 85h2M1 86h2M4 86h1M6 86h1M9 86h1M13 86h1M17 86h5M24 86h2M27 86h2M30 86h1M45 86h1M50 86h1M58 86h2M65 86h1M71 86h2M130 86h1M132 86h1M34 87h1M75 87h1M105 87h1M129 87h1M192 87h1M74 88h1M106 88h1M157 88h1M192 88h1M156 89h2M176 89h1M191 89h2M137 90h1M152 90h1M156 90h1M159 90h1M176 90h1M190 90h2M193 90h1M34 91h1M111 91h1M145 91h1M153 91h1M155 91h1M159 91h1M161 91h1M177 91h2M189 91h1M33 92h2M81 92h1M95 92h1M110 92h1M135 92h1M145 92h1M155 92h1M176 92h2M195 92h1M19 93h1M31 93h3M35 93h1M50 93h1M92 93h1M134 93h1M145 93h3M172 93h1M174 93h2M178 93h2M6 94h1M19 94h1M30 94h1M43 94h1M50 94h1M66 94h1M78 94h1M80 94h1M143 94h4M172 94h3M180 94h2M6 95h1M44 95h1M48 95h2M51 95h1M64 95h2M142 95h1M169 95h4M5 96h2M44 96h2M47 96h2M50 96h1M53 96h1M63 96h2M66 96h1M141 96h1M167 96h4M5 97h2M62 97h1M64 97h1M66 97h1M71 97h2M4 98h1M6 98h2M60 98h2M70 98h1M72 98h1M186 98h1M4 99h1M59 99h1M186 99h1M184 100h4M211 100h1M183 101h2M188 101h1M211 101h1M21 102h1M182 102h2M190 102h1M211 102h1M20 103h2M185 103h1M210 103h2M213 103h2M18 104h4M179 104h1M208 104h2M214 104h1M18 105h1M20 105h3M210 105h1M16 106h2M22 106h1M9 108h1M9 109h1M174 109h1M9 110h1M174 110h2M199 110h1M172 111h2M175 111h1M197 111h3M22 112h1M170 112h1M174 112h1M197 112h1M199 112h1M21 113h1M177 113h1M194 113h1M198 113h1M19 114h3M200 114h1M17 115h1M22 115h1M202 115h2M9 118h2M183 118h1M208 118h1M9 119h1M182 119h2M208 119h1M8 120h2M182 120h1M208 120h1M6 121h2M9 121h2M181 121h2M207 121h1M180 122h1M204 122h1M206 122h3M185 123h1M208 123h2" />
<path stroke="#49351a" d="M162 80h1M162 82h1M162 83h1" />
<path stroke="#674f30" d="M190 80h5" />
<path stroke="#5a462c" d="M195 80h8M207 80h1M186 81h1M192 81h1M204 81h3M179 82h1M186 82h1M206 82h3M174 83h1M206 83h1" />
<path stroke="#4b3a25" d="M203 80h1M199 81h1M185 82h1M192 82h1M199 82h1M179 83h1M185 83h2M191 83h2M173 84h1" />
<path stroke="#3ca33b" d="M77 81h1M83 81h1M77 82h1M81 82h1M83 82h1M85 82h1M119 82h1M134 82h1M181 82h1M77 83h1M81 83h6M119 83h1M134 83h2M147 83h3M169 83h2M181 83h3M68 84h1M75 84h1M77 84h3M84 84h3M101 84h1M113 84h2M116 84h1M118 84h2M123 84h1M128 84h7M137 84h5M143 84h8M152 84h3M164 84h1M168 84h1M170 84h1M172 84h1M182 84h2M191 84h1M197 84h1M206 84h3M47 85h3M58 85h4M67 85h3M74 85h4M80 85h1M82 85h6M91 85h2M95 85h2M98 85h1M101 85h3M112 85h5M118 85h10M134 85h11M147 85h7M155 85h1M157 85h11M171 85h3M180 85h2M183 85h3M190 85h3M194 85h6M203 85h2M207 85h4M213 85h1M219 85h1M3 86h1M5 86h1M7 86h1M11 86h1M14 86h3M22 86h1M31 86h2M34 86h4M42 86h2M46 86h3M51 86h1M56 86h2M60 86h5M67 86h4M73 86h13M88 86h27M117 86h13M133 86h10M145 86h1M147 86h5M162 86h1M165 86h2M168 86h1M171 86h3M175 86h7M184 86h13M198 86h10M210 86h10M2 87h10M13 87h13M27 87h7M35 87h26M63 87h12M76 87h21M100 87h5M106 87h23M131 87h10M144 87h10M156 87h4M161 87h9M172 87h9M182 87h1M184 87h8M193 87h2M199 87h1M201 87h1M203 87h5M209 87h4M214 87h6M0 88h13M14 88h60M75 88h1M77 88h19M102 88h3M107 88h22M131 88h23M155 88h2M158 88h21M181 88h3M187 88h5M193 88h2M196 88h4M203 88h9M214 88h6M0 89h46M47 89h10M59 89h2M62 89h42M105 89h15M121 89h35M159 89h17M177 89h9M189 89h2M193 89h17M212 89h1M215 89h5M0 90h12M14 90h31M47 90h7M57 90h4M64 90h2M67 90h3M71 90h40M112 90h8M121 90h16M138 90h14M153 90h3M160 90h16M177 90h13M194 90h16M211 90h9M0 91h11M14 91h14M29 91h5M35 91h9M46 91h4M54 91h15M71 91h12M84 91h27M112 91h8M121 91h15M138 91h7M146 91h7M154 91h1M157 91h2M163 91h14M179 91h10M194 91h10M205 91h15M0 92h9M12 92h1M14 92h10M26 92h1M29 92h4M35 92h33M72 92h9M82 92h13M96 92h14M111 92h1M114 92h4M122 92h13M138 92h7M146 92h9M156 92h20M178 92h15M196 92h6M203 92h1M206 92h14M0 93h19M20 93h3M25 93h6M38 93h12M51 93h29M82 93h1M84 93h8M93 93h2M96 93h22M119 93h3M123 93h11M137 93h8M148 93h24M173 93h1M176 93h1M180 93h24M205 93h1M207 93h13M0 94h6M7 94h11M20 94h10M31 94h1M37 94h6M44 94h6M51 94h15M67 94h11M79 94h1M83 94h7M93 94h13M107 94h25M135 94h8M149 94h23M176 94h3M182 94h15M198 94h5M204 94h3M208 94h12M0 95h6M7 95h11M20 95h8M29 95h3M33 95h9M43 95h1M45 95h3M52 95h12M66 95h14M82 95h22M105 95h37M148 95h1M150 95h19M176 95h20M198 95h5M204 95h13M218 95h2M0 96h5M7 96h10M20 96h19M41 96h1M43 96h1M46 96h1M54 96h9M67 96h12M80 96h23M105 96h36M142 96h3M148 96h19M175 96h20M198 96h18M219 96h1M0 97h5M7 97h34M43 97h3M47 97h2M50 97h12M68 97h3M73 97h29M104 97h1M106 97h35M144 97h49M195 97h3M200 97h20M0 98h4M8 98h52M62 98h7M74 98h112M187 98h6M194 98h21M217 98h3M0 99h4M5 99h1M8 99h51M60 99h7M68 99h3M76 99h110M187 99h12M201 99h8M211 99h5M217 99h3M0 100h7M8 100h60M69 100h18M88 100h73M162 100h22M188 100h21M210 100h1M212 100h4M217 100h3M0 101h8M9 101h24M34 101h43M78 101h7M87 101h12M100 101h59M162 101h21M189 101h18M209 101h2M212 101h8M0 102h21M22 102h55M78 102h28M107 102h28M136 102h32M169 102h13M191 102h9M201 102h10M213 102h7M0 103h20M22 103h9M32 103h33M66 103h12M79 103h28M108 103h7M116 103h2M119 103h7M127 103h8M136 103h15M152 103h30M184 103h1M186 103h1M188 103h2M191 103h8M201 103h9M215 103h5M0 104h18M22 104h1M24 104h18M44 104h19M66 104h10M77 104h38M116 104h2M119 104h7M127 104h6M134 104h17M152 104h27M180 104h1M182 104h16M202 104h6M212 104h1M215 104h5M0 105h5M6 105h12M25 105h16M44 105h13M58 105h4M66 105h9M77 105h29M107 105h8M116 105h9M127 105h23M152 105h11M164 105h34M199 105h11M211 105h1M214 105h1M217 105h3M0 106h5M6 106h10M21 106h1M25 106h15M44 106h13M65 106h9M76 106h10M88 106h17M106 106h9M116 106h8M127 106h22M153 106h9M164 106h48M214 106h6M0 107h4M5 107h10M18 107h3M24 107h12M46 107h11M64 107h21M89 107h15M105 107h10M116 107h7M128 107h7M136 107h10M149 107h2M152 107h8M162 107h1M164 107h21M186 107h25M213 107h7M0 108h6M7 108h2M10 108h4M15 108h21M38 108h3M45 108h12M63 108h22M86 108h2M90 108h26M117 108h8M126 108h9M136 108h22M160 108h24M186 108h19M206 108h4M211 108h1M214 108h6M0 109h9M10 109h51M63 109h27M91 109h34M126 109h8M136 109h20M157 109h17M175 109h7M185 109h20M207 109h13M0 110h8M10 110h123M134 110h22M157 110h17M176 110h23M200 110h5M206 110h14M0 111h8M11 111h121M134 111h22M158 111h14M176 111h21M200 111h8M210 111h10M0 112h8M9 112h13M23 112h43M67 112h82M151 112h6M159 112h11M173 112h1M176 112h21M200 112h20M0 113h21M23 113h20M45 113h7M53 113h12M68 113h12M81 113h14M96 113h44M142 113h8M151 113h25M178 113h16M200 113h20M0 114h19M22 114h9M32 114h11M45 114h7M53 114h27M81 114h12M96 114h20M117 114h21M140 114h2M143 114h25M170 114h6M177 114h15M198 114h2M202 114h12M215 114h5M0 115h17M21 115h1M23 115h8M32 115h10M45 115h7M53 115h27M81 115h11M94 115h1M99 115h16M118 115h80M199 115h3M204 115h10M216 115h4M0 116h10M11 116h6M19 116h11M32 116h10M43 116h9M53 116h25M82 116h31M115 116h72M188 116h32M0 117h9M10 117h20M32 117h20M53 117h23M78 117h3M82 117h43M126 117h34M161 117h26M188 117h25M214 117h6M0 118h8M11 118h19M31 118h20M53 118h6M61 118h15M77 118h23M101 118h23M126 118h34M161 118h1M163 118h20M184 118h4M190 118h18M209 118h4M214 118h6M0 119h8M10 119h19M31 119h1M33 119h8M42 119h9M52 119h1M54 119h6M62 119h38M101 119h23M126 119h34M162 119h6M169 119h13M184 119h24M209 119h3M214 119h6M0 120h8M10 120h19M30 120h2M34 120h7M42 120h11M55 120h5M61 120h1M64 120h36M101 120h22M124 120h1M129 120h30M161 120h6M170 120h12M185 120h23M212 120h1M215 120h5M0 121h6M8 121h1M11 121h5M17 121h10M29 121h11M42 121h18M61 121h2M66 121h20M87 121h12M105 121h17M124 121h2M127 121h28M159 121h10M171 121h9M184 121h23M209 121h11M0 122h6M8 122h18M28 122h57M86 122h11M99 122h3M104 122h18M123 122h40M164 122h16M183 122h16M200 122h4M205 122h1M209 122h11M0 123h83M85 123h100M186 123h20M210 123h1M212 123h8M0 124h220" />
<path stroke="#358d34" d="M45 82h1M45 83h1M117 83h1M142 83h1M44 84h2M87 84h4M98 84h3M117 84h1M142 84h1M169 84h1M42 85h4M72 85h2M78 85h2M88 85h3M97 85h1M99 85h2M117 85h1M128 85h6M145 85h2M156 85h1M168 85h3M182 85h1M10 86h1M23 86h1M26 86h1M39 86h3M52 86h4M86 86h2M115 86h2M143 86h2M146 86h1M152 86h10M163 86h2M167 86h1M169 86h2M182 86h2M197 86h1M208 86h2M12 87h1M26 87h1M61 87h2M97 87h3M130 87h1M141 87h3M154 87h2M160 87h1M170 87h2M181 87h1M183 87h1M195 87h4M200 87h1M202 87h1M208 87h1M213 87h1M13 88h1M96 88h6M129 88h2M154 88h1M179 88h2M184 88h3M195 88h1M200 88h3M212 88h2M46 89h1M57 89h2M61 89h1M120 89h1M186 89h3M210 89h2M213 89h2M12 90h2M45 90h2M54 90h3M61 90h3M66 90h1M70 90h1M120 90h1M210 90h1M11 91h3M28 91h1M44 91h2M50 91h4M69 91h2M120 91h1M204 91h1M9 92h3M13 92h1M24 92h2M27 92h2M68 92h4M113 92h1M118 92h4M137 92h1M202 92h1M204 92h2M23 93h2M83 93h1M95 93h1M118 93h1M122 93h1M135 93h2M204 93h1M206 93h1M18 94h1M32 94h1M34 94h3M81 94h2M90 94h3M106 94h1M132 94h3M197 94h1M203 94h1M207 94h1M18 95h2M28 95h1M32 95h1M42 95h1M81 95h1M104 95h1M146 95h2M196 95h2M203 95h1M217 95h1M17 96h3M39 96h2M42 96h1M49 96h1M79 96h1M103 96h2M145 96h3M173 96h2M195 96h3M216 96h3M41 97h2M46 97h1M102 97h2M105 97h1M141 97h3M193 97h2M198 97h2M5 98h1M193 98h1M215 98h2M6 99h2M67 99h1M71 99h5M199 99h2M209 99h2M216 99h1M7 100h1M68 100h1M87 100h1M161 100h1M209 100h1M216 100h1M8 101h1M33 101h1M77 101h1M85 101h2M99 101h1M159 101h3M187 101h1M207 101h2M77 102h1M106 102h1M135 102h1M168 102h1M187 102h1M200 102h1M31 103h1M65 103h1M78 103h1M107 103h1M115 103h1M118 103h1M126 103h1M135 103h1M151 103h1M182 103h2M199 103h2M42 104h2M63 104h3M76 104h1M115 104h1M118 104h1M126 104h1M133 104h1M151 104h1M181 104h1M198 104h4M213 104h1M5 105h1M19 105h1M23 105h2M41 105h3M57 105h1M62 105h4M75 105h2M106 105h1M115 105h1M125 105h2M150 105h2M163 105h1M198 105h1M212 105h2M5 106h1M18 106h2M24 106h1M40 106h4M57 106h8M74 106h2M86 106h2M105 106h1M115 106h1M124 106h3M149 106h4M162 106h2M212 106h2M4 107h1M15 107h3M21 107h3M36 107h10M57 107h7M85 107h4M104 107h1M115 107h1M123 107h5M135 107h1M146 107h3M151 107h1M160 107h2M163 107h1M185 107h1M211 107h2M6 108h1M14 108h1M36 108h2M41 108h4M57 108h6M85 108h1M88 108h2M116 108h1M125 108h1M135 108h1M158 108h2M184 108h2M205 108h1M210 108h1M212 108h2M61 109h2M90 109h1M125 109h1M134 109h2M156 109h1M182 109h3M205 109h2M133 110h1M156 110h1M205 110h1M8 111h3M132 111h2M156 111h2M208 111h2M8 112h1M66 112h1M149 112h2M157 112h2M43 113h2M52 113h1M65 113h3M80 113h1M95 113h1M140 113h2M150 113h1M176 113h1M31 114h1M43 114h2M52 114h1M80 114h1M93 114h3M116 114h1M138 114h2M142 114h1M168 114h2M176 114h1M192 114h6M214 114h1M18 115h1M31 115h1M42 115h3M52 115h1M80 115h1M92 115h2M95 115h4M115 115h3M214 115h2M10 116h1M17 116h2M30 116h2M42 116h1M52 116h1M78 116h4M113 116h2M187 116h1M9 117h1M30 117h2M52 117h1M76 117h2M81 117h1M125 117h1M160 117h1M187 117h1M213 117h1M8 118h1M30 118h1M51 118h2M59 118h2M76 118h1M100 118h1M124 118h2M160 118h1M162 118h1M188 118h2M213 118h1M8 119h1M29 119h2M32 119h1M41 119h1M51 119h1M53 119h1M60 119h2M100 119h1M124 119h2M160 119h2M168 119h1M212 119h2M29 120h1M32 120h2M41 120h1M53 120h2M60 120h1M62 120h2M100 120h1M123 120h1M125 120h4M159 120h2M167 120h3M183 120h2M209 120h3M213 120h2M16 121h1M27 121h2M40 121h2M60 121h1M63 121h3M86 121h1M99 121h6M122 121h2M126 121h1M155 121h4M169 121h2M180 121h1M6 122h2M26 122h2M85 122h1M97 122h2M102 122h2M122 122h1M163 122h1M199 122h1M83 123h2" />
<path stroke="#1c4b1c" d="M130 82h1M140 82h1M142 82h1M146 82h2M149 82h1M169 82h1M60 83h1M76 83h1M89 83h2M98 83h1M110 83h2M129 83h1M137 83h2M140 83h1M144 83h1M146 83h1M154 83h1M168 83h1M197 83h1M43 84h1M48 84h1M66 84h1M73 84h2M82 84h2M93 84h5M104 84h1M107 84h1M109 84h1M115 84h1M121 84h1M125 84h1M127 84h1M135 84h1M155 84h3M161 84h1M163 84h1M166 84h2M171 84h1M178 84h3M184 84h1M194 84h3M198 84h1M201 84h1M203 84h1M211 84h3M217 84h1M219 84h1M11 85h1M26 85h1M31 85h1M37 85h1M41 85h1M51 85h1M55 85h3M63 85h1M65 85h2M71 85h1M81 85h1M93 85h2M105 85h1M107 85h1M154 85h1M176 85h2M179 85h1M186 85h2M189 85h1M193 85h1M200 85h3M211 85h2M214 85h5M0 86h1M8 86h1M12 86h1M29 86h1M33 86h1M38 86h1M44 86h1M49 86h1M66 86h1M131 86h1M174 86h1M0 87h2M76 88h1M105 88h1M104 89h1M158 89h1M111 90h1M157 90h2M192 90h1M83 91h1M136 91h2M156 91h1M160 91h1M162 91h1M190 91h4M112 92h1M136 92h1M193 92h2M34 93h1M36 93h2M80 93h2M177 93h1M33 94h1M147 94h2M175 94h1M179 94h1M50 95h1M80 95h1M143 95h3M149 95h1M173 95h3M51 96h2M65 96h1M171 96h2M49 97h1M63 97h1M65 97h1M67 97h1M69 98h1M71 98h1M73 98h1M185 101h2M184 102h3M188 102h2M212 102h1M187 103h1M190 103h1M212 103h1M23 104h1M210 104h2M215 105h2M20 106h1M23 106h1M8 110h1M174 111h1M171 112h2M175 112h1M198 112h1M22 113h1M195 113h3M199 113h1M201 114h1M19 115h2M198 115h1M183 121h1M208 121h1M181 122h2M206 123h2M211 123h1" />
<path stroke="#9d4b39" d="M68 83h1" />
<path stroke="#854031" d="M78 83h1" />
</svg>