<svg shape-rendering="crispEdges" viewBox="2 40.75 198.25 84" xmlns="http://www.w3.org/2000/svg" style="max-height: 500px" width="198.25" height="84">
<metadata>Made with Pixels to Svg https://codepen.io/shshaw/pen/XbxvNj</metadata>
<path d="M2 0h198M2 1h198M2 2h198M2 3h198M2 4h198M2 5h198M2 6h198M2 7h198M2 8h198M2 9h198M2 10h198M2 11h198M2 12h198M2 13h198M2 14h198M2 15h198M2 16h198M2 17h198M2 18h198M2 19h198M2 20h198M2 21h198M2 22h198M2 23h198M2 24h198M2 25h198M2 26h198M2 27h198M2 28h198M2 29h198M2 30h198M2 31h198M2 32h198M2 33h198M2 34h198M2 35h198M2 36h198M2 37h198M2 38h198M2 39h198M2 40h198M2 41h198M2 42h23M26 42h174M2 43h22M26 43h174M2 44h15M18 44h6M27 44h4M32 44h4M37 44h163M2 45h16M20 45h3M28 45h2M31 45h3M37 45h163M2 46h17M31 46h1M38 46h46M90 46h58M149 46h51M2 47h18M39 47h42M91 47h55M149 47h51M2 48h18M38 48h42M93 48h52M149 48h51M2 49h16M38 49h38M95 49h48M149 49h51M2 50h14M40 50h37M96 50h47M150 50h24M178 50h22M2 51h17M44 51h30M98 51h33M132 51h10M150 51h23M180 51h20M2 52h18M31 52h5M45 52h23M100 52h30M131 52h1M133 52h9M150 52h14M166 52h5M181 52h19M2 53h18M28 53h1M31 53h11M47 53h14M75 53h8M102 53h28M131 53h1M133 53h8M154 53h11M184 53h16M3 54h17M22 54h2M28 54h3M32 54h18M52 54h6M64 54h34M108 54h31M154 54h15M188 54h10M199 54h1M3 55h16M20 55h5M28 55h21M52 55h66M120 55h1M123 55h15M156 55h18M184 55h14M2 56h16M19 56h6M27 56h20M55 56h65M121 56h12M160 56h16M179 56h21M2 57h24M27 57h18M50 57h1M59 57h82M156 57h44M2 58h24M27 58h17M46 58h8M57 58h143M2 59h198M2 60h198M2 61h198M2 62h198M2 63h198M2 64h198M2 65h198M2 66h198M2 67h198M2 68h198M2 69h198M2 70h198M2 71h198M2 72h198M2 73h58M63 73h137M2 74h56M65 74h135M2 75h57M64 75h136M2 76h57M64 76h40M108 76h92M2 77h57M64 77h38M109 77h91M2 78h56M65 78h11M92 78h9M110 78h90M2 79h57M64 79h10M93 79h7M112 79h23M139 79h61M2 80h57M60 80h1M62 80h1M64 80h9M94 80h4M114 80h20M140 80h60M2 81h57M60 81h1M62 81h1M64 81h8M95 81h6M111 81h23M140 81h60M2 82h57M64 82h7M96 82h8M108 82h20M131 82h3M140 82h60M2 83h57M60 83h1M62 83h1M64 83h7M96 83h8M107 83h20M132 83h2M140 83h60M2 84h56M59 84h2M62 84h2M65 84h7M95 84h10M107 84h20M132 84h2M140 84h60M2 85h56M59 85h2M62 85h2M65 85h7M95 85h10M107 85h20M132 85h2M140 85h60M2 86h56M60 86h1M62 86h1M65 86h7M95 86h10M107 86h20M132 86h2M140 86h60M2 87h56M59 87h1M63 87h1M65 87h7M95 87h9M107 87h20M132 87h2M140 87h35M176 87h7M184 87h5M190 87h4M195 87h5M2 88h55M58 88h3M62 88h3M66 88h6M95 88h9M106 88h21M132 88h2M140 88h4M145 88h25M171 88h2M2 89h44M47 89h10M58 89h2M63 89h2M66 89h6M95 89h1M97 89h7M107 89h20M132 89h2M140 89h3M145 89h5M151 89h15M167 89h2M173 89h2M177 89h2M180 89h2M183 89h5M189 89h5M196 89h3M2 90h34M38 90h3M42 90h4M48 90h9M60 90h1M62 90h1M64 90h1M66 90h5M98 90h5M107 90h8M116 90h8M125 90h1M132 90h1M146 90h3M151 90h6M158 90h6M167 90h3M171 90h3M176 90h1M178 90h1M180 90h1M183 90h5M189 90h1M191 90h2M197 90h2M2 91h3M6 91h10M17 91h11M29 91h8M39 91h2M42 91h4M48 91h2M52 91h1M55 91h1M59 91h1M62 91h2M66 91h2M99 91h1M102 91h1M108 91h2M112 91h1M114 91h1M116 91h2M120 91h3M147 91h1M152 91h4M158 91h3M162 91h1M169 91h1M171 91h3M183 91h4M3 92h2M7 92h9M19 92h3M23 92h4M29 92h4M35 92h1M47 92h1M49 92h1M67 92h1M154 92h1M171 92h1M185 92h2M9 93h8" stroke="#9fddea"/>
<path d="M25 42h1M24 43h2M17 44h1M24 44h3M31 44h1M18 45h2M23 45h5M30 45h1M19 46h4M28 46h3M20 47h2M29 47h2M20 48h1M18 49h3M16 50h5M19 51h2M20 52h2M29 52h1M20 53h3M27 53h1M29 53h2M20 54h2M24 54h4M31 54h1M19 55h1M25 55h3M18 56h1M25 56h2M26 57h1M26 58h1" stroke="#e7ce6e"/>
<path d="M36 44h1M34 45h3M32 46h6M84 46h6M148 46h1M31 47h8M81 47h10M146 47h3M28 48h10M80 48h11M145 48h4M27 49h9M76 49h16M143 49h6M24 50h8M77 50h15M143 50h7M174 50h4M23 51h6M74 51h16M142 51h8M173 51h6M22 52h4M68 52h20M142 52h8M164 52h2M171 52h9M61 53h14M83 53h1M141 53h13M165 53h15M50 54h2M58 54h6M139 54h15M169 54h11M49 55h3M138 55h13M174 55h4M47 56h8M133 56h16M176 56h1M45 57h5M51 57h1M141 57h3M44 58h2" stroke="#d9e1e1"/>
<path d="M23 46h5M22 47h7M21 48h7M21 49h6M21 50h3M21 51h2M26 52h3M23 53h4" stroke="#dbaa67"/>
<path d="M91 48h2M36 49h2M92 49h3M32 50h8M92 50h4M29 51h15M90 51h8M179 51h1M30 52h1M36 52h9M88 52h12M180 52h1M42 53h5M84 53h18M180 53h4M98 54h10M180 54h8M151 55h5M178 55h6M149 56h11M177 56h2M52 57h7M144 57h12M54 58h3" stroke="#a3b8b7"/>
<path d="M131 51h1M130 52h1M132 52h1M130 53h1M132 53h1M118 55h2M121 55h2M120 56h1" stroke="#453b2c"/>
<path d="M2 54h1M198 54h1M2 55h1M198 55h2" stroke="#9bd8e5"/>
<path d="M60 73h1M58 74h3M59 75h2M59 76h1" stroke="#8e8982"/>
<path d="M61 73h1M60 77h1M60 79h1" stroke="#72716f"/>
<path d="M62 73h1" stroke="#5e574e"/>
<path d="M61 74h2M61 75h2M61 76h2M61 77h2M61 79h2" stroke="#635f5a"/>
<path d="M63 74h2M63 75h1M63 76h1M63 77h1" stroke="#52504d"/>
<path d="M60 76h1M59 77h1" stroke="#807b74"/>
<path d="M104 76h1M102 77h2M101 78h1M100 79h1M98 80h3" stroke="#84b283"/>
<path d="M105 76h2M104 77h4M102 78h6M101 79h7M101 80h7M101 81h6M104 82h1" stroke="#5e985d"/>
<path d="M107 76h1M108 77h1M108 78h1M108 79h2M108 80h1M107 81h2M105 82h1" stroke="#5e815e"/>
<path d="M58 78h3M59 79h1M59 80h1M61 80h1M59 81h1M61 81h1M59 82h1M61 82h1M59 83h1M61 83h1M58 84h1M58 85h1M58 86h2M58 87h1M57 88h1M57 89h1M59 90h1" stroke="#8e6125"/>
<path d="M61 78h4M63 79h1M63 80h1M63 81h1M60 82h1M62 82h2M63 83h1M64 84h1M61 85h1M64 85h1M61 86h1M63 86h2M60 87h2M61 88h1M60 89h2M61 90h1M63 90h1" stroke="#694311"/>
<path d="M76 78h15M74 79h15M73 80h14M72 81h14M71 82h14M71 83h14" stroke="#323b47"/>
<path d="M91 78h1M89 79h4M87 80h2M92 80h2M86 81h1M94 81h1M85 82h1M95 82h1M85 83h1M95 83h1" stroke="#282f38"/>
<path d="M109 78h1M110 79h2M109 80h5M109 81h2M107 82h1" stroke="#4e6b4e"/>
<path d="M135 79h2M134 80h3M128 82h1M134 82h3M127 83h2M134 83h3M134 84h3M127 85h2M134 85h3M127 86h2M134 87h3M127 88h2M134 88h3M127 89h1M134 89h2M127 90h1" stroke="#6d6863"/>
<path d="M137 79h1M137 80h1M129 82h1M137 82h1M129 83h1M137 83h1M137 84h1M129 85h1M137 85h1M129 86h1M137 87h1M129 88h1M137 88h1M129 89h1M137 89h1M129 90h1" stroke="#58524c"/>
<path d="M138 79h1M138 80h2M130 82h1M138 82h2M130 83h2M138 83h2M138 84h2M130 85h2M138 85h2M130 86h2M138 87h2M130 88h2M139 88h1M130 89h2M131 90h1" stroke="#524e49"/>
<path d="M89 80h3M87 81h7M86 82h9M86 83h3M92 83h3M84 84h5M92 84h3M84 85h11M84 86h11M84 87h5M92 87h3M84 88h5M92 88h3M84 89h5M92 89h3M84 90h4M92 90h3" stroke="#802921"/>
<path d="M134 81h2M127 84h2M134 86h2M127 87h2" stroke="#c9c9c9"/>
<path d="M136 81h2M129 84h1M136 86h2M129 87h1" stroke="#a1a1a1"/>
<path d="M138 81h2M130 84h2M138 86h2M130 87h2" stroke="#7c7c7c"/>
<path d="M106 82h1M104 83h2" stroke="#445644"/>
<path d="M89 83h3M89 84h3M89 87h3M89 88h3M89 89h3M89 90h3" stroke="#b2a5a4"/>
<path d="M106 83h1M106 84h1M106 85h1M106 86h1" stroke="#513a1c"/>
<path d="M61 84h1" stroke="#80561e"/>
<path d="M72 84h10M72 85h9M72 86h8M72 87h7M72 88h6M72 89h1M74 89h2M72 90h1" stroke="#a53f35"/>
<path d="M82 84h2M81 85h3M80 86h4M79 87h5M78 88h6M76 89h3M80 89h4M74 90h3M78 90h1M80 90h1M82 90h2" stroke="#92382f"/>
<path d="M105 84h1M104 87h1M104 88h2M104 89h1M103 90h2M103 91h2" stroke="#5a4427"/>
<path d="M105 85h1M105 86h1M105 87h1" stroke="#583f1e"/>
<path d="M62 87h1M64 87h1M65 88h1M62 89h1M65 89h1M65 90h1M65 91h1" stroke="#603e10"/>
<path d="M106 87h1M106 89h1M106 90h1" stroke="#49351a"/>
<path d="M175 87h1M170 88h1M173 88h3M169 89h2" stroke="#7c5f3b"/>
<path d="M183 87h1M189 87h1M194 87h1M176 88h10M171 89h2M175 89h2M170 90h1M170 92h1" stroke="#604d35"/>
<path d="M138 88h1M144 88h1M46 89h1M96 89h1M105 89h1M128 89h1M136 89h1M138 89h2M143 89h2M150 89h1M166 89h1M179 89h1M194 89h1M199 89h1M36 90h2M46 90h2M57 90h2M71 90h1M88 90h1M95 90h3M105 90h1M124 90h1M128 90h1M133 90h3M137 90h1M139 90h3M144 90h1M149 90h2M157 90h1M164 90h1M166 90h1M174 90h1M179 90h1M190 90h1M193 90h2M196 90h1M199 90h1M5 91h1M16 91h1M28 91h1M37 91h2M46 91h2M50 91h2M53 91h2M57 91h2M60 91h2M64 91h1M68 91h4M75 91h2M83 91h2M87 91h7M95 91h4M100 91h2M105 91h1M110 91h2M118 91h2M123 91h2M126 91h4M132 91h1M135 91h1M137 91h1M139 91h1M141 91h1M146 91h1M148 91h2M151 91h1M156 91h2M161 91h1M163 91h1M167 91h2M174 91h1M176 91h1M180 91h1M189 91h4M194 91h6M2 92h1M5 92h2M16 92h3M22 92h1M27 92h2M33 92h2M36 92h3M42 92h2M45 92h2M48 92h1M50 92h12M63 92h1M65 92h2M68 92h1M72 92h1M76 92h2M87 92h2M98 92h2M101 92h2M104 92h1M106 92h3M116 92h1M118 92h1M120 92h1M122 92h1M132 92h1M147 92h1M156 92h1M158 92h1M161 92h1M172 92h2M177 92h1M181 92h4M188 92h2M195 92h2M198 92h1M2 93h5M8 93h1M17 93h5M23 93h4M28 93h2M34 93h3M42 93h1M46 93h1M48 93h3M58 93h1M60 93h1M66 93h1M100 93h1M102 93h1M104 93h4M170 93h2M174 93h1M184 93h1M2 94h1M5 94h1M9 94h1M13 94h5M20 94h2M23 94h2M26 94h1M41 94h1M46 94h1M54 94h2M61 94h1M67 94h2M126 94h1M128 94h1M30 95h1M71 95h1M101 95h1M125 95h1M188 95h1M70 96h1M102 96h1M153 96h1M188 96h1M152 97h2M172 97h1M187 97h2M133 98h1M148 98h1M152 98h1M155 98h1M172 98h1M186 98h2M189 98h1M30 99h1M107 99h1M141 99h1M149 99h1M151 99h1M155 99h1M157 99h1M173 99h2M185 99h1M29 100h2M77 100h1M91 100h1M106 100h1M131 100h1M141 100h1M151 100h1M172 100h2M191 100h1M15 101h1M27 101h3M31 101h1M46 101h1M88 101h1M130 101h1M141 101h3M168 101h1M170 101h2M174 101h2M15 102h1M26 102h1M39 102h1M46 102h1M62 102h1M74 102h1M76 102h1M139 102h4M168 102h3M176 102h2M40 103h1M44 103h2M47 103h1M60 103h2M138 103h1M165 103h4M40 104h2M43 104h2M46 104h1M49 104h1M59 104h2M62 104h1M137 104h1M163 104h4M58 105h1M60 105h1M62 105h1M67 105h2M56 106h2M66 106h1M68 106h1M182 106h1M55 107h1M182 107h1M180 108h4M179 109h2M184 109h1M17 110h1M178 110h2M186 110h1M16 111h2M181 111h1M14 112h4M175 112h1M14 113h1M16 113h3M12 114h2M18 114h1M5 116h1M5 117h1M170 117h1M5 118h1M170 118h2M195 118h1M168 119h2M171 119h1M193 119h3M18 120h1M166 120h1M170 120h1M193 120h1M195 120h1M17 121h1M173 121h1M190 121h1M194 121h1M15 122h3M196 122h1M13 123h1M18 123h1M198 123h2" stroke="#226721"/>
<path d="M186 88h5" stroke="#674f30"/>
<path d="M191 88h8M182 89h1M188 89h1M175 90h1M182 90h1M170 91h1" stroke="#5a462c"/>
<path d="M199 88h1M195 89h1M181 90h1M188 90h1M195 90h1M175 91h1M181 91h2M187 91h2M169 92h1" stroke="#4b3a25"/>
<path d="M73 89h1M79 89h1M73 90h1M77 90h1M79 90h1M81 90h1M115 90h1M130 90h1M177 90h1M73 91h1M77 91h6M115 91h1M130 91h2M143 91h3M165 91h2M177 91h3M64 92h1M71 92h1M73 92h3M80 92h3M97 92h1M109 92h2M112 92h1M114 92h2M119 92h1M124 92h7M133 92h5M139 92h8M148 92h3M160 92h1M164 92h1M166 92h1M168 92h1M178 92h2M187 92h1M193 92h1M43 93h3M54 93h4M63 93h3M70 93h4M76 93h1M78 93h6M87 93h2M91 93h2M94 93h1M97 93h3M108 93h5M114 93h10M130 93h11M143 93h7M151 93h1M153 93h11M167 93h3M176 93h2M179 93h3M186 93h3M190 93h6M199 93h1M3 94h1M7 94h1M10 94h3M18 94h1M27 94h2M30 94h4M38 94h2M42 94h3M47 94h1M52 94h2M56 94h5M63 94h4M69 94h13M84 94h27M113 94h13M129 94h10M141 94h1M143 94h5M158 94h1M161 94h2M164 94h1M167 94h3M171 94h7M180 94h13M194 94h6M2 95h6M9 95h13M23 95h7M31 95h26M59 95h12M72 95h21M96 95h5M102 95h23M127 95h10M140 95h10M152 95h4M157 95h9M168 95h9M178 95h1M180 95h8M189 95h2M195 95h1M197 95h1M199 95h1M2 96h7M10 96h60M71 96h1M73 96h19M98 96h3M103 96h22M127 96h23M151 96h2M154 96h21M177 96h3M183 96h5M189 96h2M192 96h4M199 96h1M2 97h40M43 97h10M55 97h2M58 97h42M101 97h15M117 97h35M155 97h17M173 97h9M185 97h2M189 97h11M2 98h6M10 98h31M43 98h7M53 98h4M60 98h2M63 98h3M67 98h40M108 98h8M117 98h16M134 98h14M149 98h3M156 98h16M173 98h13M190 98h10M2 99h5M10 99h14M25 99h5M31 99h9M42 99h4M50 99h15M67 99h12M80 99h27M108 99h8M117 99h15M134 99h7M142 99h7M150 99h1M153 99h2M159 99h14M175 99h10M190 99h10M2 100h3M8 100h1M10 100h10M22 100h1M25 100h4M31 100h33M68 100h9M78 100h13M92 100h14M107 100h1M110 100h4M118 100h13M134 100h7M142 100h9M152 100h20M174 100h15M192 100h8M2 101h13M16 101h3M21 101h6M34 101h12M47 101h29M78 101h1M80 101h8M89 101h2M92 101h22M115 101h3M119 101h11M133 101h8M144 101h24M169 101h1M172 101h1M176 101h24M2 102h12M16 102h10M27 102h1M33 102h6M40 102h6M47 102h15M63 102h11M75 102h1M79 102h7M89 102h13M103 102h25M131 102h8M145 102h23M172 102h3M178 102h15M194 102h6M2 103h12M16 103h8M25 103h3M29 103h9M39 103h1M41 103h3M48 103h12M62 103h14M78 103h22M101 103h37M144 103h1M146 103h19M172 103h20M194 103h6M2 104h11M16 104h19M37 104h1M39 104h1M42 104h1M50 104h9M63 104h12M76 104h23M101 104h36M138 104h3M144 104h19M171 104h20M194 104h6M2 105h35M39 105h3M43 105h2M46 105h12M64 105h3M69 105h29M100 105h1M102 105h35M140 105h49M191 105h3M196 105h4M2 106h54M58 106h7M70 106h112M183 106h6M190 106h10M2 107h53M56 107h7M64 107h3M72 107h110M183 107h12M197 107h3M2 108h62M65 108h115M184 108h16M2 109h71M74 109h21M96 109h83M185 109h15M2 110h15M18 110h55M74 110h28M103 110h28M132 110h46M187 110h9M197 110h3M2 111h14M18 111h43M62 111h12M75 111h28M104 111h7M112 111h2M115 111h16M132 111h15M148 111h30M180 111h1M182 111h1M184 111h2M187 111h8M197 111h3M2 112h12M18 112h1M20 112h18M40 112h19M62 112h10M73 112h38M112 112h2M115 112h14M130 112h17M148 112h27M176 112h1M178 112h16M198 112h2M2 113h12M21 113h16M40 113h13M54 113h4M62 113h9M73 113h29M103 113h8M112 113h34M148 113h11M160 113h34M195 113h5M2 114h10M17 114h1M21 114h15M40 114h13M61 114h9M72 114h10M84 114h17M102 114h9M112 114h33M149 114h9M160 114h40M2 115h9M14 115h3M20 115h12M42 115h11M60 115h21M85 115h15M101 115h10M112 115h19M132 115h10M145 115h2M148 115h8M158 115h1M160 115h21M182 115h18M2 116h3M6 116h4M11 116h21M34 116h3M41 116h12M59 116h22M82 116h2M86 116h26M113 116h18M132 116h22M156 116h24M182 116h18M2 117h3M6 117h51M59 117h27M87 117h43M132 117h20M153 117h17M171 117h7M181 117h19M2 118h2M6 118h123M130 118h22M153 118h17M172 118h23M196 118h4M2 119h2M7 119h121M130 119h22M154 119h14M172 119h21M196 119h4M2 120h2M5 120h13M19 120h43M63 120h82M147 120h6M155 120h11M169 120h1M172 120h21M196 120h4M2 121h15M19 121h20M41 121h20M64 121h27M92 121h44M138 121h8M147 121h25M174 121h16M196 121h4M2 122h13M18 122h21M41 122h48M92 122h20M113 122h21M136 122h2M139 122h25M166 122h6M173 122h15M194 122h2M198 122h2M2 123h11M17 123h1M19 123h20M41 123h47M90 123h1M95 123h16M114 123h80M195 123h3M2 124h11M15 124h94M111 124h89" stroke="#3ca33b"/>
<path d="M41 90h1M41 91h1M113 91h1M138 91h1M40 92h2M83 92h4M94 92h3M113 92h1M138 92h1M165 92h1M38 93h4M68 93h2M74 93h2M84 93h3M93 93h1M95 93h2M113 93h1M124 93h6M141 93h2M152 93h1M164 93h3M178 93h1M6 94h1M19 94h1M22 94h1M35 94h3M48 94h4M82 94h2M111 94h2M139 94h2M142 94h1M148 94h10M159 94h2M163 94h1M165 94h2M178 94h2M193 94h1M8 95h1M22 95h1M57 95h2M93 95h3M126 95h1M137 95h3M150 95h2M156 95h1M166 95h2M177 95h1M179 95h1M191 95h4M196 95h1M198 95h1M9 96h1M92 96h6M125 96h2M150 96h1M175 96h2M180 96h3M191 96h1M196 96h3M42 97h1M53 97h2M57 97h1M116 97h1M182 97h3M8 98h2M41 98h2M50 98h3M57 98h3M62 98h1M66 98h1M116 98h1M7 99h3M24 99h1M40 99h2M46 99h4M65 99h2M116 99h1M5 100h3M9 100h1M20 100h2M23 100h2M64 100h4M109 100h1M114 100h4M133 100h1M19 101h2M79 101h1M91 101h1M114 101h1M118 101h1M131 101h2M14 102h1M28 102h1M30 102h3M77 102h2M86 102h3M102 102h1M128 102h3M193 102h1M14 103h2M24 103h1M28 103h1M38 103h1M77 103h1M100 103h1M142 103h2M192 103h2M13 104h3M35 104h2M38 104h1M45 104h1M75 104h1M99 104h2M141 104h3M169 104h2M191 104h3M37 105h2M42 105h1M98 105h2M101 105h1M137 105h3M189 105h2M194 105h2M189 106h1M63 107h1M67 107h5M195 107h2M64 108h1M73 109h1M95 109h1M183 109h1M73 110h1M102 110h1M131 110h1M183 110h1M196 110h1M61 111h1M74 111h1M103 111h1M111 111h1M114 111h1M131 111h1M147 111h1M178 111h2M195 111h2M38 112h2M59 112h3M72 112h1M111 112h1M114 112h1M129 112h1M147 112h1M177 112h1M194 112h4M15 113h1M19 113h2M37 113h3M53 113h1M58 113h4M71 113h2M102 113h1M111 113h1M146 113h2M159 113h1M194 113h1M14 114h2M20 114h1M36 114h4M53 114h8M70 114h2M82 114h2M101 114h1M111 114h1M145 114h4M158 114h2M11 115h3M17 115h3M32 115h10M53 115h7M81 115h4M100 115h1M111 115h1M131 115h1M142 115h3M147 115h1M156 115h2M159 115h1M181 115h1M10 116h1M32 116h2M37 116h4M53 116h6M81 116h1M84 116h2M112 116h1M131 116h1M154 116h2M180 116h2M57 117h2M86 117h1M130 117h2M152 117h1M178 117h3M129 118h1M152 118h1M4 119h3M128 119h2M152 119h2M4 120h1M62 120h1M145 120h2M153 120h2M39 121h2M61 121h3M91 121h1M136 121h2M146 121h1M172 121h1M39 122h2M89 122h3M112 122h1M134 122h2M138 122h1M164 122h2M172 122h1M188 122h6M14 123h1M39 123h2M88 123h2M91 123h4M111 123h3M13 124h2M109 124h2" stroke="#358d34"/>
<path d="M126 90h1M136 90h1M138 90h1M142 90h2M145 90h1M165 90h1M56 91h1M72 91h1M85 91h2M94 91h1M106 91h2M125 91h1M133 91h2M136 91h1M140 91h1M142 91h1M150 91h1M164 91h1M193 91h1M39 92h1M44 92h1M62 92h1M69 92h2M78 92h2M89 92h5M100 92h1M103 92h1M105 92h1M111 92h1M117 92h1M121 92h1M123 92h1M131 92h1M151 92h3M155 92h1M157 92h1M159 92h1M162 92h2M167 92h1M174 92h3M180 92h1M190 92h3M194 92h1M197 92h1M199 92h1M7 93h1M22 93h1M27 93h1M33 93h1M37 93h1M47 93h1M51 93h3M59 93h1M61 93h2M67 93h1M77 93h1M89 93h2M101 93h1M103 93h1M150 93h1M172 93h2M175 93h1M182 93h2M185 93h1M189 93h1M196 93h3M4 94h1M8 94h1M25 94h1M29 94h1M34 94h1M40 94h1M45 94h1M62 94h1M127 94h1M170 94h1M72 96h1M101 96h1M100 97h1M154 97h1M107 98h1M153 98h2M188 98h1M79 99h1M132 99h2M152 99h1M156 99h1M158 99h1M186 99h4M108 100h1M132 100h1M189 100h2M30 101h1M32 101h2M76 101h2M173 101h1M29 102h1M143 102h2M171 102h1M175 102h1M46 103h1M76 103h1M139 103h3M145 103h1M169 103h3M47 104h2M61 104h1M167 104h2M45 105h1M59 105h1M61 105h1M63 105h1M65 106h1M67 106h1M69 106h1M181 109h2M180 110h3M184 110h2M183 111h1M186 111h1M19 112h1M16 114h1M19 114h1M4 118h1M170 119h1M167 120h2M171 120h1M194 120h1M18 121h1M191 121h3M195 121h1M197 122h1M15 123h2M194 123h1" stroke="#1c4b1c"/>
<path d="M74 91h1" stroke="#854031"/>
<path d="M30 93h3" stroke="#85eaff"/>
</svg>