<svg xmlns="http://www.w3.org/2000/svg" viewBox="0 -0.5 200 75" shape-rendering="crispEdges">
<metadata>Made with Pixels to Svg https://codepen.io/shshaw/pen/XbxvNj</metadata>
<path stroke="#8abfca" d="M0 0h71M111 0h89M0 1h16M34 1h1M150 1h50" />
<path stroke="#96cfdb" d="M71 0h40M16 1h18M35 1h115M0 2h83M127 2h73M0 3h23M24 3h2M41 3h12M166 3h7M192 3h8" />
<path stroke="#9bd8e5" d="M83 2h44M26 3h15M53 3h74M128 3h38M173 3h19M0 4h21M26 4h64M93 4h107M0 5h21M40 5h26M93 5h36M134 5h5M161 5h13M189 5h11" />
<path stroke="#e7ce6e" d="M23 3h1M23 4h1M22 5h2M15 6h1M22 6h3M29 6h1M16 7h2M21 7h5M28 7h1M17 8h4M26 8h3M18 9h2M27 9h2M18 10h1M16 11h3M14 12h5M17 13h2M18 14h2M27 14h1M18 15h3M25 15h1M27 15h2M18 16h2M22 16h4M29 16h1M17 17h1M23 17h3M16 18h1M23 18h2M24 19h1M24 20h1" />
<path stroke="#9fddea" d="M127 3h1M21 4h2M24 4h2M90 4h3M21 5h1M24 5h16M66 5h27M129 5h5M139 5h22M174 5h15M0 6h15M16 6h6M25 6h4M30 6h4M35 6h165M0 7h16M18 7h3M26 7h2M29 7h3M35 7h49M88 7h112M0 8h17M29 8h1M36 8h46M88 8h58M147 8h53M0 9h18M37 9h42M89 9h55M147 9h53M0 10h18M36 10h42M91 10h52M147 10h53M0 11h16M36 11h38M93 11h48M147 11h53M0 12h14M38 12h37M94 12h47M148 12h24M176 12h24M0 13h17M42 13h30M96 13h33M130 13h10M148 13h23M178 13h22M0 14h18M29 14h5M43 14h23M98 14h30M129 14h1M131 14h9M148 14h14M164 14h5M179 14h21M0 15h18M26 15h1M29 15h11M45 15h14M73 15h8M100 15h28M129 15h1M131 15h8M152 15h11M182 15h18M0 16h18M20 16h2M26 16h3M30 16h18M50 16h6M62 16h34M106 16h31M152 16h15M186 16h14M0 17h17M18 17h5M26 17h21M50 17h66M118 17h1M121 17h15M154 17h18M182 17h18M0 18h16M17 18h6M25 18h20M53 18h65M119 18h12M158 18h16M177 18h23M0 19h24M25 19h18M48 19h1M57 19h82M154 19h46M0 20h24M25 20h17M44 20h8M55 20h145M0 21h200M0 22h200M0 23h58M61 23h139M0 24h56M63 24h137M0 25h57M62 25h138M0 26h57M62 26h41M106 26h94M0 27h57M62 27h39M107 27h93M0 28h56M63 28h11M90 28h10M108 28h92M0 29h57M62 29h10M91 29h7M110 29h23M137 29h63M0 30h57M58 30h1M60 30h1M62 30h9M92 30h4M112 30h20M138 30h62M0 31h57M58 31h1M60 31h1M62 31h8M93 31h7M109 31h23M138 31h62M0 32h57M62 32h7M94 32h8M106 32h20M129 32h3M138 32h62M0 33h57M58 33h1M60 33h1M62 33h7M94 33h8M105 33h20M130 33h2M138 33h62M0 34h56M57 34h2M60 34h2M63 34h7M93 34h10M105 34h20M130 34h2M138 34h62M0 35h56M57 35h2M60 35h2M63 35h7M93 35h10M105 35h20M130 35h2M138 35h62M0 36h56M58 36h1M60 36h1M63 36h7M93 36h10M105 36h20M130 36h2M138 36h62M0 37h56M57 37h1M61 37h1M63 37h7M93 37h9M105 37h20M130 37h2M138 37h62M0 38h55M56 38h3M60 38h3M64 38h6M93 38h9M104 38h21M130 38h2M138 38h4M143 38h57M0 39h44M45 39h10M56 39h2M61 39h2M64 39h6M93 39h1M95 39h7M105 39h20M130 39h2M138 39h3M143 39h5M149 39h15M165 39h12M178 39h14M193 39h4M198 39h2M0 40h34M36 40h3M40 40h4M46 40h9M58 40h1M60 40h1M62 40h1M64 40h5M96 40h5M105 40h8M114 40h8M123 40h2M130 40h1M144 40h3M149 40h6M156 40h6M165 40h7M173 40h2M176 40h1M178 40h7M186 40h2M189 40h2M193 40h1M195 40h2M199 40h1M0 41h3M4 41h10M15 41h11M27 41h8M37 41h2M40 41h4M46 41h2M50 41h1M53 41h2M57 41h1M60 41h2M64 41h2M97 41h1M100 41h1M106 41h2M110 41h1M112 41h1M114 41h2M118 41h3M145 41h1M150 41h4M156 41h3M160 41h1M167 41h5M173 41h1M179 41h6M186 41h1M199 41h1M1 42h2M5 42h9M17 42h3M21 42h4M27 42h4M33 42h1M45 42h1M47 42h1M65 42h1M152 42h1M167 42h3M183 42h2M7 43h8" />
<path stroke="#d9e1e1" d="M34 6h1M32 7h3M84 7h4M30 8h6M82 8h6M146 8h1M29 9h8M79 9h10M144 9h3M26 10h10M78 10h11M143 10h4M25 11h9M74 11h16M141 11h6M22 12h8M75 12h15M141 12h7M172 12h4M21 13h6M72 13h16M140 13h8M171 13h6M20 14h4M66 14h20M140 14h8M162 14h2M169 14h9M59 15h14M81 15h1M139 15h13M163 15h15M48 16h2M56 16h6M137 16h15M167 16h11M47 17h3M136 17h13M172 17h4M45 18h8M131 18h16M174 18h1M43 19h5M49 19h1M139 19h3M42 20h2" />
<path stroke="#dbaa67" d="M21 8h5M20 9h7M19 10h7M19 11h6M19 12h3M19 13h2M24 14h3M21 15h4" />
<path stroke="#a3b8b7" d="M89 10h2M34 11h2M90 11h3M30 12h8M90 12h4M27 13h15M88 13h8M177 13h1M28 14h1M34 14h9M86 14h12M178 14h1M40 15h5M82 15h18M178 15h4M96 16h10M178 16h8M149 17h5M176 17h6M147 18h11M175 18h2M50 19h7M142 19h12M52 20h3" />
<path stroke="#453b2c" d="M129 13h1M128 14h1M130 14h1M128 15h1M130 15h1M116 17h2M119 17h2M118 18h1" />
<path stroke="#8e8982" d="M58 23h1M56 24h3M57 25h2M57 26h1" />
<path stroke="#72716f" d="M59 23h1M58 27h1M58 29h1" />
<path stroke="#5e574e" d="M60 23h1" />
<path stroke="#635f5a" d="M59 24h2M59 25h2M59 26h2M59 27h2M59 29h2" />
<path stroke="#52504d" d="M61 24h2M61 25h1M61 26h1M61 27h1" />
<path stroke="#807b74" d="M58 26h1M57 27h1" />
<path stroke="#5a4427" d="M103 26h2M101 27h5M100 28h4M105 28h1M98 29h5M96 30h7M100 31h3M102 32h1M104 32h1M102 33h2M103 34h1M102 37h1M102 38h2M102 39h1M101 40h2M101 41h2" />
<path stroke="#583f1e" d="M105 26h1M104 28h1M103 29h3M103 30h3M103 31h2M103 32h1M103 35h1M103 36h1M103 37h1" />
<path stroke="#513a1c" d="M106 27h1M106 28h2M106 29h1M106 30h1M105 31h2M105 32h1M104 33h1M104 34h1M104 35h1M104 36h1" />
<path stroke="#8e6125" d="M56 28h3M57 29h1M57 30h1M59 30h1M57 31h1M59 31h1M57 32h1M59 32h1M57 33h1M59 33h1M56 34h1M56 35h1M56 36h2M56 37h1M55 38h1M55 39h1M57 40h1" />
<path stroke="#694311" d="M59 28h4M61 29h1M61 30h1M61 31h1M58 32h1M60 32h2M61 33h1M62 34h1M59 35h1M62 35h1M59 36h1M61 36h2M58 37h2M59 38h1M58 39h2M59 40h1M61 40h1" />
<path stroke="#323b47" d="M74 28h15M72 29h15M71 30h14M70 31h14M69 32h14M69 33h14" />
<path stroke="#282f38" d="M89 28h1M87 29h4M85 30h2M90 30h2M84 31h1M92 31h1M83 32h1M93 32h1M83 33h1M93 33h1" />
<path stroke="#49351a" d="M107 29h3M107 30h5M107 31h2M104 37h1M104 39h1M104 40h1" />
<path stroke="#6d6863" d="M133 29h2M132 30h3M126 32h1M132 32h3M125 33h2M132 33h3M132 34h3M125 35h2M132 35h3M125 36h2M132 37h3M125 38h2M132 38h3M125 39h1M132 39h2M125 40h1" />
<path stroke="#58524c" d="M135 29h1M135 30h1M127 32h1M135 32h1M127 33h1M135 33h1M135 34h1M127 35h1M135 35h1M127 36h1M135 37h1M127 38h1M135 38h1M127 39h1M135 39h1M127 40h1" />
<path stroke="#524e49" d="M136 29h1M136 30h2M128 32h1M136 32h2M128 33h2M136 33h2M136 34h2M128 35h2M136 35h2M128 36h2M136 37h2M128 38h2M137 38h1M128 39h2M129 40h1" />
<path stroke="#802921" d="M87 30h3M85 31h7M84 32h9M84 33h3M90 33h3M82 34h5M90 34h3M82 35h11M82 36h11M82 37h5M90 37h3M82 38h5M90 38h3M82 39h5M90 39h3M82 40h4M90 40h3" />
<path stroke="#ab9692" d="M132 31h3M125 34h2M132 36h3M125 37h2" />
<path stroke="#907773" d="M135 31h1M127 34h1M135 36h1M127 37h1" />
<path stroke="#83706c" d="M136 31h2M128 34h2M136 36h2M128 37h2" />
<path stroke="#b2a5a4" d="M87 33h3M87 34h3M87 37h3M87 38h3M87 39h3M87 40h3" />
<path stroke="#80561e" d="M59 34h1" />
<path stroke="#a53f35" d="M70 34h10M70 35h9M70 36h8M70 37h7M70 38h6M70 39h1M72 39h2M70 40h1" />
<path stroke="#92382f" d="M80 34h2M79 35h3M78 36h4M77 37h5M76 38h6M74 39h3M78 39h4M72 40h3M76 40h1M78 40h1M80 40h2" />
<path stroke="#603e10" d="M60 37h1M62 37h1M63 38h1M60 39h1M63 39h1M63 40h1M63 41h1" />
<path stroke="#9d4b39" d="M136 38h1M142 38h1M44 39h1M126 39h1M134 39h1M136 39h2M141 39h1M148 39h1M164 39h1M177 39h1M192 39h1M197 39h1M34 40h2M44 40h2M55 40h2M69 40h1M86 40h1M93 40h3M103 40h1M122 40h1M126 40h1M131 40h3M135 40h2M138 40h4M147 40h2M155 40h1M162 40h3M172 40h1M177 40h1M188 40h1M191 40h2M194 40h1M197 40h2M3 41h1M14 41h1M26 41h1M35 41h2M44 41h2M48 41h2M51 41h2M55 41h2M58 41h2M62 41h1M66 41h5M73 41h2M81 41h12M96 41h1M98 41h1M103 41h3M108 41h2M116 41h2M121 41h3M125 41h3M130 41h2M134 41h2M144 41h1M146 41h1M149 41h1M154 41h1M159 41h1M165 41h2M172 41h1M174 41h1M187 41h3M193 41h6M0 42h1M3 42h2M14 42h3M20 42h1M25 42h2M31 42h2M34 42h2M37 42h1M40 42h5M46 42h1M48 42h1M51 42h3M55 42h1M57 42h3M61 42h1M63 42h2M67 42h1M70 42h1M74 42h1M77 42h1M85 42h3M96 42h7M104 42h3M109 42h1M114 42h1M118 42h3M129 42h2M145 42h1M149 42h1M151 42h1M153 42h2M157 42h1M159 42h2M170 42h5M180 42h1M182 42h1M186 42h1M192 42h2M197 42h1M199 42h1M0 43h1M2 43h5M15 43h4M20 43h2M23 43h3M27 43h1M31 43h1M33 43h1M35 43h1M40 43h1M44 43h2M50 43h1M59 43h2M64 43h1M99 43h2M170 43h1M194 43h2M3 44h1M7 44h1M11 44h2M15 44h1M18 44h1M21 44h1M24 44h1M38 44h2M43 44h1M52 44h1M60 44h1M65 44h1M124 44h1M126 44h1M69 45h1M99 45h1M123 45h1M186 45h1M68 46h1M70 46h1M99 46h2M151 46h1M186 46h1M98 47h1M150 47h3M170 47h1M185 47h1M105 48h1M131 48h1M146 48h1M150 48h1M152 48h2M170 48h1M28 49h1M77 49h1M105 49h1M131 49h1M139 49h1M147 49h1M156 49h1M171 49h2M183 49h1M27 50h2M75 50h1M89 50h1M104 50h1M106 50h1M129 50h2M139 50h1M149 50h1M170 50h2M188 50h2M13 51h1M25 51h3M30 51h1M44 51h1M74 51h2M86 51h1M128 51h1M139 51h3M166 51h1M168 51h2M173 51h1M13 52h1M24 52h1M37 52h1M44 52h1M60 52h1M72 52h1M74 52h1M137 52h2M142 52h1M166 52h2M174 52h2M38 53h1M42 53h4M58 53h2M74 53h1M136 53h1M143 53h1M163 53h3M169 53h1M38 54h2M41 54h2M44 54h1M46 54h2M58 54h1M60 54h1M135 54h1M161 54h2M43 55h1M56 55h1M65 55h2M54 56h2M63 56h5M180 56h1M53 57h1M180 57h1M178 58h4M177 59h1M182 59h1M15 60h1M176 60h1M182 60h3M14 61h2M179 61h1M181 61h1M184 61h1M12 62h4M17 62h1M173 62h1M12 63h1M15 63h2M10 64h2M3 66h1M3 67h1M168 67h1M3 68h1M193 68h1M169 69h1M191 69h3M16 70h1M164 70h2M168 70h2M191 70h1M193 70h1M15 71h2M171 71h1M188 71h2M193 71h1M13 72h1M15 72h1M195 72h1M11 73h1M16 73h1M192 73h1M197 73h1" />
<path stroke="#e3bb8f" d="M71 39h1M77 39h1M39 40h1M71 40h1M75 40h1M77 40h1M79 40h1M113 40h1M128 40h1M175 40h1M185 40h1M39 41h1M71 41h1M75 41h6M111 41h1M113 41h1M128 41h2M136 41h1M140 41h4M163 41h2M175 41h3M185 41h1M62 42h1M68 42h2M71 42h3M78 42h3M95 42h1M107 42h2M110 42h1M112 42h2M117 42h1M122 42h7M131 42h5M137 42h8M146 42h3M158 42h1M161 42h2M164 42h3M176 42h3M185 42h1M191 42h1M39 43h1M41 43h3M52 43h4M61 43h3M66 43h1M68 43h4M74 43h8M85 43h2M89 43h2M92 43h1M95 43h3M106 43h5M112 43h10M128 43h11M141 43h9M151 43h11M165 43h3M174 43h2M177 43h5M184 43h10M197 43h3M1 44h1M5 44h1M8 44h3M16 44h1M23 44h1M25 44h7M36 44h2M40 44h3M45 44h1M50 44h2M54 44h5M61 44h4M67 44h13M82 44h27M111 44h13M127 44h10M139 44h1M141 44h5M156 44h1M159 44h2M162 44h1M165 44h3M169 44h7M178 44h13M192 44h8M0 45h6M7 45h13M21 45h34M57 45h12M70 45h21M94 45h5M100 45h23M125 45h10M138 45h10M150 45h4M155 45h9M166 45h9M176 45h1M178 45h8M187 45h2M193 45h1M195 45h1M197 45h3M0 46h7M8 46h60M69 46h1M71 46h19M96 46h3M101 46h22M125 46h23M149 46h2M152 46h21M175 46h3M181 46h5M187 46h2M190 46h4M197 46h3M0 47h40M41 47h10M53 47h2M56 47h42M99 47h15M115 47h35M153 47h17M171 47h9M183 47h2M187 47h13M0 48h6M8 48h31M41 48h7M51 48h4M58 48h2M61 48h3M65 48h40M106 48h8M115 48h16M132 48h14M147 48h3M154 48h16M171 48h13M188 48h12M0 49h5M8 49h14M23 49h5M29 49h9M40 49h4M48 49h15M65 49h12M78 49h27M106 49h8M115 49h16M132 49h7M140 49h7M148 49h1M151 49h2M157 49h14M173 49h10M186 49h1M188 49h12M0 50h3M6 50h1M8 50h10M20 50h1M23 50h4M29 50h33M66 50h9M76 50h13M90 50h14M105 50h1M108 50h4M116 50h13M132 50h7M140 50h9M150 50h20M172 50h16M190 50h10M0 51h13M14 51h3M19 51h6M31 51h13M45 51h29M76 51h1M78 51h8M87 51h2M90 51h22M113 51h3M117 51h11M131 51h8M142 51h24M167 51h1M170 51h2M174 51h26M0 52h12M14 52h10M25 52h1M31 52h6M38 52h6M45 52h15M61 52h11M73 52h1M77 52h7M87 52h13M101 52h25M129 52h8M143 52h23M169 52h5M176 52h15M192 52h8M0 53h12M14 53h8M23 53h3M27 53h9M37 53h1M39 53h3M46 53h12M60 53h14M76 53h22M99 53h37M140 53h1M142 53h1M144 53h19M170 53h20M192 53h8M0 54h11M14 54h19M35 54h1M37 54h1M40 54h1M43 54h1M48 54h9M61 54h12M74 54h23M99 54h36M136 54h3M142 54h19M169 54h20M192 54h8M0 55h35M37 55h3M41 55h2M44 55h12M59 55h1M61 55h4M67 55h29M98 55h1M100 55h35M138 55h49M189 55h3M194 55h6M0 56h54M56 56h7M68 56h112M181 56h6M188 56h12M0 57h53M54 57h7M62 57h3M70 57h110M181 57h12M195 57h5M0 58h62M63 58h115M182 58h18M0 59h71M72 59h21M94 59h83M181 59h1M183 59h17M0 60h15M16 60h55M72 60h28M101 60h28M130 60h46M179 60h1M181 60h1M185 60h9M195 60h5M0 61h14M16 61h43M60 61h12M73 61h28M102 61h7M110 61h2M113 61h16M130 61h15M146 61h30M178 61h1M180 61h1M182 61h2M185 61h8M195 61h5M0 62h12M16 62h1M18 62h18M38 62h19M60 62h10M71 62h38M110 62h2M113 62h14M128 62h17M146 62h27M174 62h1M176 62h16M196 62h4M0 63h12M17 63h1M19 63h16M38 63h13M52 63h4M57 63h2M60 63h9M71 63h29M101 63h8M110 63h34M146 63h11M158 63h34M193 63h7M0 64h10M14 64h2M19 64h15M35 64h1M38 64h13M56 64h1M59 64h9M70 64h10M82 64h17M100 64h9M110 64h33M147 64h9M158 64h42M0 65h9M12 65h3M18 65h12M40 65h11M54 65h3M58 65h21M83 65h15M99 65h10M110 65h19M130 65h10M143 65h2M146 65h8M156 65h1M158 65h21M180 65h20M0 66h3M4 66h4M9 66h21M32 66h3M39 66h12M57 66h22M80 66h2M84 66h26M111 66h18M130 66h22M154 66h24M180 66h20M0 67h3M4 67h51M57 67h27M85 67h43M130 67h20M151 67h17M169 67h7M179 67h21M0 68h3M4 68h123M128 68h22M151 68h17M170 68h23M194 68h6M0 69h2M5 69h121M128 69h22M152 69h14M170 69h21M194 69h6M0 70h2M3 70h13M17 70h43M61 70h82M145 70h6M153 70h11M167 70h1M170 70h21M194 70h6M0 71h15M17 71h20M39 71h20M62 71h27M90 71h44M136 71h8M145 71h25M172 71h16M194 71h6M0 72h13M16 72h21M39 72h48M90 72h20M111 72h21M134 72h2M137 72h25M164 72h6M171 72h15M192 72h2M196 72h4M0 73h11M14 73h2M17 73h20M39 73h47M88 73h1M93 73h16M112 73h80M193 73h3M198 73h2M0 74h11M13 74h94M109 74h91" />
<path stroke="#854031" d="M94 39h1M103 39h1M142 39h1M134 40h1M137 40h1M142 40h2M72 41h1M93 41h3M99 41h1M124 41h1M132 41h2M137 41h3M147 41h2M155 41h1M161 41h2M178 41h1M190 41h3M36 42h1M49 42h2M54 42h1M56 42h1M60 42h1M66 42h1M75 42h2M88 42h3M103 42h1M115 42h2M121 42h1M150 42h1M155 42h2M175 42h1M179 42h1M181 42h1M187 42h4M194 42h3M198 42h1M1 43h1M19 43h1M32 43h1M34 43h1M46 43h4M51 43h1M56 43h3M65 43h1M87 43h2M98 43h1M101 43h5M168 43h2M171 43h3M182 43h2M196 43h1M0 44h1M6 44h1M13 44h2M19 44h1M32 44h1M44 44h1M53 44h1M59 44h1M66 44h1M125 44h1M168 44h1M186 47h1M151 48h1M184 48h4M149 49h2M153 49h3M184 49h2M187 49h1M28 51h2M172 51h1M139 52h3M168 52h1M137 53h3M166 53h3M45 54h1M57 54h1M59 54h1M163 54h3M57 55h2M60 55h1M178 59h3M177 60h2M180 60h1M14 63h1M16 64h1M168 68h2M166 69h3M166 70h1M192 70h1M190 71h3M14 72h1M194 72h1M13 73h1M196 73h1" />
<path stroke="#d0ac85" d="M38 42h2M81 42h4M91 42h4M111 42h1M136 42h1M163 42h1M36 43h3M67 43h1M72 43h2M82 43h3M91 43h1M93 43h2M111 43h1M122 43h6M139 43h2M150 43h1M162 43h3M176 43h1M2 44h1M4 44h1M17 44h1M20 44h1M22 44h1M33 44h3M46 44h4M80 44h2M109 44h2M137 44h2M140 44h1M146 44h10M157 44h2M161 44h1M163 44h2M176 44h2M191 44h1M6 45h1M20 45h1M55 45h2M91 45h3M124 45h1M135 45h3M148 45h2M154 45h1M164 45h2M175 45h1M177 45h1M189 45h4M194 45h1M196 45h1M7 46h1M90 46h6M123 46h2M148 46h1M173 46h2M178 46h3M189 46h1M194 46h3M40 47h1M51 47h2M55 47h1M114 47h1M180 47h3M6 48h2M39 48h2M48 48h3M55 48h3M60 48h1M64 48h1M114 48h1M5 49h3M22 49h1M38 49h2M44 49h4M63 49h2M114 49h1M3 50h3M7 50h1M18 50h2M21 50h2M62 50h4M107 50h1M112 50h4M131 50h1M17 51h2M77 51h1M89 51h1M112 51h1M116 51h1M129 51h2M12 52h1M26 52h5M75 52h2M84 52h3M100 52h1M126 52h3M191 52h1M12 53h2M22 53h1M26 53h1M36 53h1M75 53h1M98 53h1M141 53h1M190 53h2M11 54h3M33 54h2M36 54h1M73 54h1M97 54h2M139 54h3M166 54h3M189 54h3M35 55h2M40 55h1M96 55h2M99 55h1M135 55h3M187 55h2M192 55h2M187 56h1M61 57h1M65 57h5M193 57h2M62 58h1M71 59h1M93 59h1M71 60h1M100 60h1M129 60h1M194 60h1M59 61h1M72 61h1M101 61h1M109 61h1M112 61h1M129 61h1M145 61h1M176 61h2M193 61h2M36 62h2M57 62h3M70 62h1M109 62h1M112 62h1M127 62h1M145 62h1M175 62h1M192 62h4M13 63h1M18 63h1M35 63h3M51 63h1M56 63h1M59 63h1M69 63h2M100 63h1M109 63h1M144 63h2M157 63h1M192 63h1M12 64h2M17 64h2M34 64h1M36 64h2M51 64h5M57 64h2M68 64h2M80 64h2M99 64h1M109 64h1M143 64h4M156 64h2M9 65h3M15 65h3M30 65h10M51 65h3M57 65h1M79 65h4M98 65h1M109 65h1M129 65h1M140 65h3M145 65h1M154 65h2M157 65h1M179 65h1M8 66h1M30 66h2M35 66h4M51 66h6M79 66h1M82 66h2M110 66h1M129 66h1M152 66h2M178 66h2M55 67h2M84 67h1M128 67h2M150 67h1M176 67h3M127 68h1M150 68h1M2 69h3M126 69h2M150 69h2M2 70h1M60 70h1M143 70h2M151 70h2M37 71h2M59 71h3M89 71h1M134 71h2M144 71h1M170 71h1M37 72h2M87 72h3M110 72h1M132 72h2M136 72h1M162 72h2M170 72h1M186 72h6M12 73h1M37 73h2M86 73h2M89 73h4M109 73h3M11 74h2M107 74h2" />
<path stroke="#85eaff" d="M22 43h1M26 43h1M28 43h3" />
</svg>