<svg xmlns="http://www.w3.org/2000/svg" viewBox="0 -0.5 32 32" shape-rendering="crispEdges">
<metadata>Made with Pixels to Svg https://codepen.io/shshaw/pen/XbxvNj</metadata>
<path stroke="#520a1e" d="M18 7h3M18 8h1M22 8h2M8 9h3M12 9h2M17 9h2M21 9h1M24 9h1M7 10h1M11 10h1M14 10h1M17 10h1M25 10h1M7 11h1M11 11h1M15 11h1M17 11h1M25 11h1M7 12h1M15 12h1M18 12h1M6 13h2M15 13h1M5 14h1M8 14h1M5 15h1M8 15h1M5 16h1M6 17h1M7 18h1M8 19h1" />
<path stroke="#8f2133" d="M19 8h1M19 9h2M22 9h1M8 10h1M12 10h1M18 10h1M8 11h1M10 11h1M12 11h1M18 11h1M8 12h4M14 12h1M8 13h3M6 14h1M9 14h1M6 15h1M9 15h1M6 16h3M7 17h2M8 18h1" />
<path stroke="#b52a41" d="M20 8h2M23 9h1M9 10h2M13 10h1M24 10h1M9 11h1M13 11h2M7 14h1M7 15h1" />
<path stroke="#c4c4c4" d="M19 10h5M19 11h1M24 11h1M19 12h1M25 12h1M26 13h1M26 14h1M27 15h1M27 16h1M27 17h1M27 18h1M27 19h1" />
<path stroke="#ffffff" d="M20 11h4M20 12h5M12 13h2M19 13h7M11 14h4M18 14h2M22 14h2M25 14h1M11 15h9M22 15h2M25 15h2M10 16h17M10 17h2M16 17h7M26 17h1M10 18h1M13 18h3M18 18h4M26 18h1M15 19h2M18 19h5M25 19h2M11 20h1M16 20h10M12 21h1M15 21h11M13 22h1M17 22h8M14 23h1M16 23h8M15 24h1M18 24h3" />
<path stroke="#a1a1a1" d="M12 12h2M11 13h1M14 13h1M18 13h1M10 14h1M15 14h3M10 15h1M9 16h1M9 17h1M12 17h4M9 18h1M11 18h1M16 18h2M11 19h1M17 19h1" />
<path stroke="#f7e3bc" d="M20 14h1M20 15h1M24 18h1" />
<path stroke="#050505" d="M21 14h1M24 14h1M21 15h1M24 15h1" />
<path stroke="#b3914f" d="M23 17h3M22 18h1M25 18h1M23 19h2" />
<path stroke="#c2c2c2" d="M12 18h1M10 19h1M12 19h3M11 21h1M14 21h1M12 22h1M12 23h2M13 24h2M21 24h2M15 25h6" />
<path stroke="#e5aa7a" d="M23 18h1M14 27h1M16 27h1M21 27h1M23 27h1" />
<path stroke="#8a8a8a" d="M9 19h1M10 20h1M12 20h4M26 20h1M10 21h1M13 21h1M26 21h1M11 22h1M14 22h3M25 22h1M11 23h1M15 23h1M24 23h1M12 24h1M16 24h2M23 24h1M13 25h2M21 25h2M15 26h6" />
<path stroke="#ad7832" d="M13 26h2M21 26h2M13 27h1M15 27h1M19 27h2M22 27h1" />
</svg>