<svg xmlns="http://www.w3.org/2000/svg" viewBox="0 -0.5 32 32" shape-rendering="crispEdges">
<metadata>Made with Pixels to Svg https://codepen.io/shshaw/pen/XbxvNj</metadata>
<path stroke="#520a1e" d="M17 4h3M17 5h1M21 5h2M7 6h3M11 6h2M16 6h2M20 6h1M23 6h1M6 7h1M10 7h1M13 7h1M16 7h1M24 7h1M6 8h1M10 8h1M14 8h1M16 8h1M24 8h1M6 9h1M14 9h1M17 9h1M5 10h2M14 10h1M4 11h1M7 11h1M4 12h1M7 12h1M4 13h1M5 14h1M6 15h1M7 16h1" />
<path stroke="#8f2133" d="M18 5h1M18 6h2M21 6h1M7 7h1M11 7h1M17 7h1M7 8h1M9 8h1M11 8h1M17 8h1M7 9h4M13 9h1M7 10h3M5 11h1M8 11h1M5 12h1M8 12h1M5 13h3M6 14h2M7 15h1" />
<path stroke="#b52a41" d="M19 5h2M22 6h1M8 7h2M12 7h1M23 7h1M8 8h1M12 8h2M6 11h1M6 12h1" />
<path stroke="#c4c4c4" d="M18 7h5M18 8h1M23 8h1M18 9h1M24 9h1M25 10h1M25 11h1M26 12h1M26 13h1M26 14h1M26 15h1M26 16h1" />
<path stroke="#ffffff" d="M19 8h4M19 9h5M11 10h2M18 10h7M10 11h4M17 11h2M21 11h2M24 11h1M10 12h9M21 12h2M24 12h2M9 13h17M9 14h2M15 14h7M25 14h1M9 15h1M12 15h3M17 15h4M25 15h1M14 16h2M17 16h5M24 16h2M10 17h1M15 17h10M11 18h1M14 18h11M12 19h1M16 19h8M13 20h1M15 20h8M14 21h1M17 21h3" />
<path stroke="#a1a1a1" d="M11 9h2M10 10h1M13 10h1M17 10h1M9 11h1M14 11h3M9 12h1M8 13h1M8 14h1M11 14h4M8 15h1M10 15h1M15 15h2M10 16h1M16 16h1" />
<path stroke="#f7e3bc" d="M19 11h1M19 12h1M23 15h1" />
<path stroke="#050505" d="M20 11h1M23 11h1M20 12h1M23 12h1" />
<path stroke="#b3914f" d="M22 14h3M21 15h1M24 15h1M22 16h2" />
<path stroke="#c2c2c2" d="M11 15h1M9 16h1M11 16h3M10 18h1M13 18h1M11 19h1M11 20h2M12 21h2M20 21h2M14 22h6" />
<path stroke="#e5aa7a" d="M22 15h1M13 23h1M20 23h1M14 24h1M19 24h1M13 25h1M15 25h1M20 25h1M22 25h1" />
<path stroke="#8a8a8a" d="M8 16h1M9 17h1M11 17h4M25 17h1M9 18h1M12 18h1M25 18h1M10 19h1M13 19h3M24 19h1M10 20h1M14 20h1M23 20h1M11 21h1M15 21h2M22 21h1M12 22h2M20 22h2M14 23h6" />
<path stroke="#ad7832" d="M12 23h1M12 24h2M18 24h1M20 24h2M12 25h1M14 25h1M18 25h2M21 25h1" />
</svg>