<svg xmlns="http://www.w3.org/2000/svg" viewBox="0 -0.5 32 32" shape-rendering="crispEdges">
<metadata>Made with Pixels to Svg https://codepen.io/shshaw/pen/XbxvNj</metadata>
<path stroke="#520a1e" d="M16 4h3M16 5h1M20 5h2M6 6h3M10 6h2M15 6h2M19 6h1M22 6h1M5 7h1M9 7h1M12 7h1M15 7h1M23 7h1M5 8h1M9 8h1M13 8h1M15 8h1M23 8h1M5 9h1M13 9h1M16 9h1M4 10h2M13 10h1M3 11h1M6 11h1M3 12h1M6 12h1M3 13h1M4 14h1M5 15h1M6 16h1" />
<path stroke="#8f2133" d="M17 5h1M17 6h2M20 6h1M6 7h1M10 7h1M16 7h1M6 8h1M8 8h1M10 8h1M16 8h1M6 9h4M12 9h1M6 10h3M4 11h1M7 11h1M4 12h1M7 12h1M4 13h3M5 14h2M6 15h1" />
<path stroke="#b52a41" d="M18 5h2M21 6h1M7 7h2M11 7h1M22 7h1M7 8h1M11 8h2M5 11h1M5 12h1" />
<path stroke="#c4c4c4" d="M17 7h5M17 8h1M22 8h1M17 9h1M23 9h1M24 10h1M24 11h1M25 12h1M25 13h1M25 14h1M25 15h1M25 16h1" />
<path stroke="#ffffff" d="M18 8h4M18 9h5M10 10h2M17 10h7M9 11h4M16 11h2M20 11h2M23 11h1M9 12h9M20 12h2M23 12h2M8 13h17M8 14h2M14 14h7M24 14h1M8 15h1M11 15h3M16 15h4M24 15h1M13 16h2M16 16h5M23 16h2M9 17h1M14 17h10M10 18h1M13 18h11M11 19h1M15 19h8M12 20h1M14 20h8M13 21h1M16 21h3" />
<path stroke="#a1a1a1" d="M10 9h2M9 10h1M12 10h1M16 10h1M8 11h1M13 11h3M8 12h1M7 13h1M7 14h1M10 14h4M7 15h1M9 15h1M14 15h2M9 16h1M15 16h1" />
<path stroke="#f7e3bc" d="M18 11h1M18 12h1M22 15h1" />
<path stroke="#050505" d="M19 11h1M22 11h1M19 12h1M22 12h1" />
<path stroke="#b3914f" d="M21 14h3M20 15h1M23 15h1M21 16h2" />
<path stroke="#c2c2c2" d="M10 15h1M8 16h1M10 16h3M9 18h1M12 18h1M10 19h1M10 20h2M11 21h2M19 21h2M13 22h6" />
<path stroke="#e5aa7a" d="M21 15h1" />
<path stroke="#8a8a8a" d="M7 16h1M8 17h1M10 17h4M24 17h1M8 18h1M11 18h1M24 18h1M9 19h1M12 19h3M23 19h1M9 20h1M13 20h1M22 20h1M10 21h1M14 21h2M21 21h1M11 22h2M19 22h2M13 23h6" />
<path stroke="#835f37" d="M7 19h1M25 19h1" />
<path stroke="#6d5132" d="M8 19h1M6 21h1M6 22h2M26 22h1M6 23h1M8 23h2M26 23h1M8 24h3M23 24h3M11 25h2M14 25h1M17 25h1M21 25h2M11 26h2M14 26h2M17 26h2" />
<path stroke="#836747" d="M24 19h1M7 20h2M23 20h3M7 21h3M22 21h2M25 21h2M9 22h2M21 22h3M25 22h1M11 23h2M19 23h3M23 23h2M11 24h5M17 24h2M20 24h3M15 25h1M18 25h2" />
<path stroke="#5a4022" d="M6 20h1M26 20h1" />
<path stroke="#543a1c" d="M5 21h1M27 21h1M5 22h1M8 22h1M24 22h1M27 22h1M5 23h1M22 23h1M27 23h1M5 24h1M27 24h1M10 25h1M13 25h1M16 25h1M20 25h1M26 25h1M24 26h1" />
<path stroke="#493825" d="M24 21h1M7 23h1M10 23h1M16 24h1M19 24h1M8 26h1M14 28h1" />
<path stroke="#3e2a13" d="M25 23h1M7 24h1M6 25h1M23 25h1M13 26h1M16 26h1M20 26h1M26 26h1M7 27h1M23 27h1M25 27h1M19 29h1" />
<path stroke="#60482e" d="M6 24h1M26 24h1M7 25h3M24 25h2M7 26h1M9 26h2M19 26h1M21 26h3M25 26h1M10 27h1M12 27h9M22 27h1M13 28h1M15 28h1M17 28h1M19 28h1" />
<path stroke="#382612" d="M6 26h1M9 27h1M21 27h1M16 28h1M18 28h1M20 28h1M13 29h1M17 29h1" />
<path stroke="#402d18" d="M11 27h1M10 28h1M12 28h1M22 28h1M15 29h1" />
</svg>