<svg xmlns="http://www.w3.org/2000/svg" viewBox="0 -0.5 32 32" shape-rendering="crispEdges">
<metadata>Made with Pixels to Svg https://codepen.io/shshaw/pen/XbxvNj</metadata>
<path stroke="#674722" d="M7 19h2M23 19h2" />
<path stroke="#472905" d="M9 19h3M20 19h3M12 20h1M19 20h1" />
<path stroke="#60401b" d="M25 19h1M6 20h1" />
<path stroke="#836747" d="M7 20h2M23 20h3M7 21h3M22 21h2M25 21h2M9 22h2M20 22h4M25 22h1M11 23h3M18 23h4M23 23h2M11 24h5M17 24h2M20 24h3M15 25h1M18 25h2" />
<path stroke="#6f4e28" d="M9 20h1M22 20h1M10 21h1M20 21h2M11 22h2M19 22h1M14 23h4" />
<path stroke="#4d3110" d="M10 20h2M20 20h2M11 21h2M15 21h3" />
<path stroke="#381f02" d="M13 20h6" />
<path stroke="#5a4022" d="M26 20h1" />
<path stroke="#543a1c" d="M5 21h1M27 21h1M5 22h1M8 22h1M24 22h1M27 22h1M5 23h1M22 23h1M27 23h1M5 24h1M27 24h1M10 25h1M13 25h1M16 25h1M20 25h1M26 25h1M24 26h1" />
<path stroke="#6d5132" d="M6 21h1M6 22h2M26 22h1M6 23h1M8 23h2M26 23h1M8 24h3M23 24h3M11 25h2M14 25h1M17 25h1M21 25h2M11 26h2M14 26h2M17 26h2" />
<path stroke="#452b0b" d="M13 21h2M13 22h1M18 22h1" />
<path stroke="#4b2e0c" d="M18 21h2" />
<path stroke="#493825" d="M24 21h1M7 23h1M10 23h1M16 24h1M19 24h1M8 26h1M14 28h1" />
<path stroke="#3c260e" d="M14 22h1" />
<path stroke="#40280c" d="M15 22h2" />
<path stroke="#3a2308" d="M17 22h1" />
<path stroke="#3e2a13" d="M25 23h1M7 24h1M6 25h1M23 25h1M13 26h1M16 26h1M20 26h1M26 26h1M7 27h1M23 27h1M25 27h1M19 29h1" />
<path stroke="#60482e" d="M6 24h1M26 24h1M7 25h3M24 25h2M7 26h1M9 26h2M19 26h1M21 26h3M25 26h1M10 27h1M12 27h9M22 27h1M13 28h1M15 28h1M17 28h1M19 28h1" />
<path stroke="#382612" d="M6 26h1M9 27h1M21 27h1M16 28h1M18 28h1M20 28h1M13 29h1M17 29h1" />
<path stroke="#402d18" d="M11 27h1M10 28h1M12 28h1M22 28h1M15 29h1" />
</svg>