<svg xmlns="http://www.w3.org/2000/svg" viewBox="0 -0.5 50 50" shape-rendering="crispEdges">
<metadata>Made with Pixels to Svg https://codepen.io/shshaw/pen/XbxvNj</metadata>
<path stroke="#a1501a" d="M21 12h1" />
<path stroke="#8b4415" d="M22 12h1M21 13h1" />
<path stroke="#813f13" d="M22 13h1" />
<path stroke="#2d5c37" d="M20 14h4M20 15h1M23 15h1M23 16h1M23 17h1M23 18h2M24 19h2M25 20h1M18 27h1M18 28h1M18 29h1M18 30h1M18 31h1" />
<path stroke="#bbb733" d="M21 15h1M21 16h1M20 20h1M20 21h1M20 22h1M20 23h1M20 24h1M20 25h1M20 27h1M20 28h1M20 29h1" />
<path stroke="#aba732" d="M22 15h1M22 16h1M22 17h1M22 18h1M22 19h1M21 20h2M21 21h2M21 22h2M21 23h2M21 24h1M21 25h1M20 26h2M21 27h1M21 28h1M19 29h1M21 29h1M19 30h3M19 31h3M19 32h2" />
<path stroke="#356d41" d="M20 16h1M20 17h1M20 18h1M18 23h1M18 24h1M18 25h1M18 26h1" />
<path stroke="#c7c338" d="M21 17h1M21 18h1M20 19h2M19 20h1M19 21h1M19 22h1M19 23h1" />
<path stroke="#3b7a48" d="M19 18h1M18 19h1M18 20h1M18 21h1M18 22h1" />
<path stroke="#2f6f3c" d="M19 19h1M21 34h2" />
<path stroke="#a19e2c" d="M23 19h1M22 24h1M22 25h1M22 26h1M22 27h1M22 28h1M21 32h3" />
<path stroke="#898624" d="M23 20h1M23 21h1M23 22h1M23 23h1M23 24h1M23 25h1M23 26h1M23 27h1M23 28h1M22 29h2M22 30h2M22 31h2" />
<path stroke="#96932a" d="M24 20h1M24 21h1M24 22h1M24 23h1M24 24h1M24 25h1M24 26h1M24 27h1M24 28h1M24 29h1M24 30h1M24 31h1M24 32h1" />
<path stroke="#32633c" d="M25 21h1M25 22h1M25 23h1M25 24h1M18 32h1M18 33h3" />
<path stroke="#b2ae2f" d="M19 24h1M19 25h1M19 26h1M19 27h1M19 28h1" />
<path stroke="#284d2f" d="M25 25h1M25 26h1M21 33h2" />
<path stroke="#213e27" d="M25 27h1M25 28h1M25 29h1M25 30h1M25 31h1M25 32h1M23 33h3" />
<path stroke="#347241" d="M19 34h2" />
<path stroke="#2a6336" d="M23 34h2" />
</svg>