<svg xmlns="http://www.w3.org/2000/svg" viewBox="0 -0.5 80 80" shape-rendering="crispEdges">
<metadata>Made with Pixels to Svg https://codepen.io/shshaw/pen/XbxvNj</metadata>
<path stroke="#424242" d="M38 14h8M35 15h3M33 16h2M32 17h1M30 18h2M29 19h1M28 20h1M27 21h1M27 22h1M26 23h1M26 24h1M25 25h1M25 26h1M25 27h1M24 28h1M24 29h1M24 30h1" />
<path stroke="#343434" d="M46 14h2M48 15h3M51 16h2M53 17h1M54 18h2M56 19h1M57 20h1M58 21h1M58 22h1M59 23h1M59 24h1M60 25h1M60 26h1M60 27h1M24 31h1M24 32h1M24 33h1M24 34h1M25 35h1M25 36h1M25 37h1M26 38h1M26 39h1M27 40h1M27 41h1M28 42h1M29 43h1M30 44h2M32 45h1M33 46h2M35 47h3M38 48h2" />
<path stroke="#6b6c6d" d="M38 15h2M35 16h3M33 17h2M32 18h1M30 19h2M29 20h1M28 21h1M28 22h1M27 23h1M27 24h1M26 25h1M26 26h1M26 27h1M25 28h1M25 29h1" />
<path stroke="#565656" d="M40 15h5M25 30h1M25 31h1M25 32h1" />
<path stroke="#464749" d="M45 15h3M38 16h13M35 17h17M33 18h5M48 18h4M32 19h4M50 19h1M30 20h4M29 21h4M29 22h3M28 23h3M28 24h3M56 24h3M27 25h3M56 25h4M27 26h2M57 26h3M27 27h2M57 27h3M26 28h2M58 28h2M26 29h2M58 29h2M26 30h2M58 30h2M26 31h2M58 31h2M26 32h2M58 32h2M25 33h3M58 33h1M25 34h3M58 34h1M26 35h3M57 35h2M26 36h3M26 37h4M27 38h3M27 39h4M36 44h3M47 44h1M36 45h11M36 46h9M42 49h2M42 50h1M42 51h1" />
<path stroke="#4b4b4b" d="M52 17h1M52 18h2M51 19h5M52 20h5M53 21h5M54 22h4M55 23h4M55 24h1M41 27h4M40 28h1M45 28h1M39 29h1M46 29h1M38 30h1M47 30h1M38 31h1M47 31h1M38 32h1M47 32h1M39 33h1M46 33h1M40 34h1M45 34h1M41 35h4M28 40h4M28 41h5M29 42h6M30 43h6M32 44h4M33 45h3M35 46h1" />
<path stroke="#7e7e7e" d="M38 18h6M36 19h4M34 20h4M33 21h3M32 22h3M31 23h3M31 24h1M30 25h1M29 26h2M29 27h1M28 28h2M28 29h2M28 30h1M28 31h1M28 32h1M28 33h1" />
<path stroke="#787878" d="M44 18h3" />
<path stroke="#616161" d="M47 18h1M40 19h10M38 20h14M36 21h17M35 22h19M34 23h21M32 24h23M31 25h25M31 26h26M30 27h11M45 27h12M30 28h10M41 28h4M46 28h11M30 29h9M40 29h6M47 29h9M29 30h9M39 30h8M48 30h8M29 31h9M39 31h8M48 31h8M29 32h9M39 32h8M48 32h7M29 33h10M40 33h6M47 33h8M28 34h12M41 34h4M46 34h9M29 35h12M45 35h9M29 36h24M30 37h22M30 38h20M31 39h19M32 40h17M33 41h14M35 42h9M36 43h6" />
<path stroke="#585858" d="M57 28h1M56 29h2M56 30h2M56 31h2M55 32h3M55 33h3M55 34h3M54 35h3M53 36h4M52 37h4M50 38h6M50 39h5M49 40h5M47 41h6M44 42h7M42 43h8M39 44h8" />
<path stroke="#353636" d="M60 28h1M60 29h1M60 30h1M60 31h1M60 32h1M59 33h2M59 34h1M59 35h1M57 36h2M56 37h3M56 38h2M55 39h3M54 40h3M53 41h3M51 42h5M50 43h4M48 44h5M47 45h4M45 46h3M38 47h8M40 48h2" />
<path stroke="#2a2b2b" d="M61 28h1M61 29h1M61 30h1M60 34h1M60 35h1M59 36h1M59 37h1M58 38h1M58 39h1M57 40h1M56 41h2M56 42h1M54 43h2M53 44h1M51 45h2M48 46h3M46 47h2" />
<path stroke="#292929" d="M61 31h1M61 32h1M61 33h1M61 34h1M50 47h1" />
<path stroke="#2d2b2b" d="M60 36h1M60 37h1M59 38h1M59 39h1M58 40h1M58 41h1M57 42h1M56 43h1M54 44h2M53 45h1M51 46h2M48 47h2M44 48h4M44 49h1M44 50h1M44 51h1M41 52h1M44 52h1M41 53h1M44 53h1" />
<path stroke="#363636" d="M42 48h2" />
<path stroke="#3e3e3e" d="M41 49h1M41 50h1M41 51h1" />
<path stroke="#37383a" d="M43 50h1M43 51h1M42 52h2M42 53h2" />
<path stroke="#7a2c1b" d="M40 54h2M40 55h1M40 56h1" />
<path stroke="#632517" d="M42 54h2M40 57h1M40 58h1M40 59h1M40 60h1" />
<path stroke="#49160c" d="M44 54h2M45 55h1M45 56h1M45 57h1M45 59h1M45 60h1" />
<path stroke="#9c3c28" d="M41 55h2M41 56h2M41 57h2M41 58h1M41 59h1" />
<path stroke="#7e3425" d="M43 55h2M44 56h1M44 57h1M44 58h1" />
<path stroke="#903522" d="M43 56h1M43 57h1M42 58h2M42 59h2M41 60h3M41 61h2M41 62h2M41 63h2M41 64h2M41 65h1M41 66h1M41 67h1" />
<path stroke="#541b10" d="M45 58h1M45 61h1" />
<path stroke="#802d1c" d="M44 59h1M44 60h1M43 61h1M43 62h1M43 63h1M43 64h1M42 65h1M42 66h1M42 67h1M41 68h2" />
<path stroke="#521b0f" d="M40 61h1M40 62h1M40 63h1M40 64h1M40 65h1" />
<path stroke="#70291a" d="M44 61h1M44 62h1M44 63h1M44 64h1M43 65h2M43 66h2M43 67h2M43 68h2M41 69h4M42 70h2" />
<path stroke="#3e130a" d="M45 62h1M45 63h1M45 64h1M42 71h2" />
<path stroke="#34120a" d="M45 65h1M45 66h1M45 67h1M45 68h1M45 69h1M44 70h1" />
<path stroke="#511e13" d="M40 66h1M40 67h1M40 68h1M40 69h1M41 70h1" />
</svg>