<svg xmlns="http://www.w3.org/2000/svg" viewBox="0 -0.5 40 40" shape-rendering="crispEdges">
<metadata>Made with Pixels to Svg https://codepen.io/shshaw/pen/XbxvNj</metadata>
<path stroke="#4b4444" d="M9 18h6M9 19h1" />
<path stroke="#403939" d="M15 18h6M9 20h1" />
<path stroke="#2f2b2b" d="M21 18h5M15 23h1" />
<path stroke="#363232" d="M26 18h1M26 19h1M10 21h1M11 22h1M12 23h3" />
<path stroke="#4b4343" d="M27 18h2" />
<path stroke="#612121" d="M29 18h3" />
<path stroke="#511b1b" d="M32 18h1M29 19h3" />
<path stroke="#521d1d" d="M33 18h2" />
<path stroke="#514b4b" d="M10 19h4M10 20h2" />
<path stroke="#423d3d" d="M14 19h5M12 20h4M11 21h2" />
<path stroke="#433e3e" d="M19 19h6M16 20h7M13 21h7" />
<path stroke="#3a3434" d="M25 19h1M23 20h3M20 21h5M12 22h12" />
<path stroke="#471414" d="M32 19h2" />
<path stroke="#2d2929" d="M26 20h1M16 23h3" />
<path stroke="#242020" d="M25 21h1M24 22h1M19 23h5" />
</svg>