<svg xmlns="http://www.w3.org/2000/svg" viewBox="0 -0.5 50 50" shape-rendering="crispEdges">
<metadata>Made with Pixels to Svg https://codepen.io/shshaw/pen/XbxvNj</metadata>
<path stroke="#3c2f1e" d="M33 12h1M32 13h1M31 14h1M30 15h1M29 16h1M28 17h1M28 18h1" />
<path stroke="#362b1c" d="M34 12h1M35 13h1M35 14h1M34 15h1" />
<path stroke="#493925" d="M33 13h1M32 14h1M31 15h1M30 16h1M29 17h1" />
<path stroke="#453623" d="M34 13h1M33 14h1M32 15h1M31 16h1M30 17h1" />
<path stroke="#403221" d="M34 14h1M33 15h1M32 16h1M31 17h1M29 18h2" />
<path stroke="#312719" d="M33 16h1M32 17h1M31 18h1M29 19h2" />
<path stroke="#383838" d="M27 19h1M26 20h1M25 21h1M24 22h1M23 23h1M22 24h1M17 26h1" />
<path stroke="#424242" d="M28 19h1M27 20h1M26 21h1M25 22h1M24 23h1M23 24h1M22 25h1" />
<path stroke="#343434" d="M28 20h1M27 21h1M26 22h1M25 23h1M22 26h1M16 27h1M23 27h1M15 28h1M23 28h1M16 29h1M22 29h1M17 30h1M21 30h1" />
<path stroke="#3c3a3a" d="M19 24h2M18 25h1M21 25h1" />
<path stroke="#313131" d="M24 24h1" />
<path stroke="#434343" d="M19 25h2M18 26h1M20 26h2" />
<path stroke="#2b2a2a" d="M23 25h1M18 31h1M20 31h1M19 32h1" />
<path stroke="#333232" d="M19 26h1M18 27h1M20 27h1" />
<path stroke="#3e3d3d" d="M17 27h1M19 27h1M21 27h2M16 28h1M18 28h1M20 28h1M22 28h1" />
<path stroke="#2d2c2c" d="M17 28h1M19 28h1M21 28h1" />
<path stroke="#363636" d="M17 29h1M19 29h1M21 29h1M18 30h1M20 30h1M19 31h1" />
<path stroke="#252525" d="M18 29h1M20 29h1M19 30h1" />
</svg>