<svg xmlns="http://www.w3.org/2000/svg" viewBox="0 -0.5 30 30" shape-rendering="crispEdges">
<metadata>Made with Pixels to Svg https://codepen.io/shshaw/pen/XbxvNj</metadata>
<path stroke="#3c3b3b" d="M11 5h3M11 6h1M11 7h1" />
<path stroke="#333231" d="M14 5h6M19 6h1M19 7h1M11 8h1M19 8h1M11 9h1M19 9h1M11 10h1M11 11h1M12 12h1M13 13h3M15 14h1M15 15h1M15 16h1M15 17h1M15 18h1" />
<path stroke="#514f4e" d="M12 6h1" />
<path stroke="#4f4c4b" d="M13 6h1M12 7h1" />
<path stroke="#474443" d="M14 6h1M12 8h1" />
<path stroke="#434241" d="M15 6h4M16 7h1M18 7h1M16 8h1M18 8h1M12 9h1M14 9h1M16 9h1M18 9h1M12 10h1M14 10h1M16 10h1M12 11h1M14 11h1M13 12h3" />
<path stroke="#2f2d2c" d="M13 7h1M15 7h1M13 8h1" />
<path stroke="#474645" d="M14 7h1M14 8h1" />
<path stroke="#222120" d="M17 7h1M15 8h1M17 8h1M13 9h1M15 9h1M17 9h1M13 10h1M15 10h1M13 11h1" />
<path stroke="#1c1b1a" d="M17 10h1M15 11h1M17 11h1" />
<path stroke="#3a3938" d="M18 10h1M16 11h1M18 11h1M16 12h2" />
<path stroke="#2b2a29" d="M19 10h1M16 13h1" />
<path stroke="#272726" d="M19 11h1M18 12h1M17 13h1" />
<path stroke="#433423" d="M14 19h1M14 20h1M14 21h1" />
<path stroke="#3e3020" d="M15 19h1M14 22h1" />
<path stroke="#382b1d" d="M16 19h1M14 23h1M14 24h1" />
<path stroke="#5c4832" d="M15 20h1" />
<path stroke="#362a1c" d="M16 20h1M16 21h1M16 22h1M14 25h1" />
<path stroke="#58452f" d="M15 21h1" />
<path stroke="#493928" d="M15 22h1M15 23h1" />
<path stroke="#362b1d" d="M16 23h1M16 24h1M16 25h1M14 26h1M16 26h1M15 27h1" />
<path stroke="#493826" d="M15 24h1" />
<path stroke="#4d3924" d="M15 25h1M15 26h1" />
</svg>