<svg xmlns="http://www.w3.org/2000/svg" viewBox="0 -0.5 21 21" shape-rendering="crispEdges">
<metadata>Made with Pixels to Svg https://codepen.io/shshaw/pen/XbxvNj</metadata>
<path stroke="#262a34" d="M10 3h1M9 4h1M11 4h1M9 5h1M11 5h1M8 6h1M12 6h1M5 7h3M13 7h3M4 8h1M16 8h1M5 9h1M15 9h1M6 10h1M14 10h1M7 11h1M13 11h1M6 12h1M5 13h1" />
<path stroke="#e8dc38" d="M10 4h1M11 7h2M8 8h1M10 8h1M13 8h2M9 9h3M13 9h1M9 10h4M10 11h2" />
<path stroke="#ffb562" d="M10 5h1M9 6h2M9 7h1M6 8h2M8 11h1M12 11h1M8 12h1M12 12h2M6 13h1M14 13h1" />
<path stroke="#d0924d" d="M11 6h1M8 7h1M5 8h1M9 8h1M15 8h1M6 9h3M14 9h1M7 10h2M13 10h1M9 11h1M7 12h1M9 12h3M7 13h2M12 13h2" />
<path stroke="#f9f077" d="M10 7h1M11 8h2M12 9h1" />
<path stroke="#23272f" d="M14 12h1M15 13h1M6 14h1M14 14h1" />
<path stroke="#21242d" d="M9 13h2M7 14h2" />
<path stroke="#1a1d24" d="M11 13h1M12 14h2" />
</svg>