<svg xmlns="http://www.w3.org/2000/svg" viewBox="0 -0.5 21 21" shape-rendering="crispEdges">
<metadata>Made with Pixels to Svg https://codepen.io/shshaw/pen/XbxvNj</metadata>
<path stroke="#23272f" d="M10 1h1M10 2h1M9 3h1M11 3h1M9 4h1M11 4h1M9 5h1M11 5h1M8 6h1M12 6h1M8 7h1M12 7h1M6 8h2M13 8h2M3 9h3M15 9h3M1 10h2M18 10h2M3 11h3M15 11h3M6 12h2M13 12h2M8 13h1M12 13h1M8 14h1M12 14h1M9 15h1M11 15h1M9 16h1M11 16h1M9 17h1M11 17h1M10 18h1M10 19h1" />
<path stroke="#e3a23a" d="M10 3h1M10 4h1M10 5h1M9 6h1M11 6h1M9 7h1M11 7h1M8 8h1M12 8h1M6 9h2M13 9h2M3 10h3M15 10h3M6 11h2M13 11h2M8 12h1M12 12h1M9 13h1M11 13h1M9 14h1M11 14h1M10 15h1M10 16h1M10 17h1" />
<path stroke="#e3b56b" d="M10 6h1M10 7h1M9 8h1M11 8h1M8 9h1M12 9h1M6 10h2M13 10h2M8 11h1M12 11h1M9 12h1M11 12h1M10 13h1M10 14h1" />
<path stroke="#dfce8d" d="M10 8h1M9 9h1M11 9h1M8 10h1M12 10h1M9 11h1M11 11h1M10 12h1" />
<path stroke="#f2eb92" d="M10 9h1M9 10h3M10 11h1" />
</svg>