<svg xmlns="http://www.w3.org/2000/svg" viewBox="0 -0.5 50 50" shape-rendering="crispEdges">
<metadata>Made with Pixels to Svg https://codepen.io/shshaw/pen/XbxvNj</metadata>
<path stroke="#b8b8b8" d="M21 1h2M17 2h2M20 2h1M23 2h1M25 2h2M16 3h1M19 3h1M24 3h1M27 3h1M15 4h1M28 4h1M15 5h1M28 5h1M15 6h1M19 6h1M24 6h1M28 6h1M15 7h1M20 7h1M23 7h1M28 7h1M16 8h1M20 8h1M23 8h1M27 8h1M17 9h1M20 9h1M23 9h1M26 9h1M17 10h1M20 10h1M23 10h1M26 10h1M17 11h1M20 11h1M23 11h1M26 11h1M17 12h1M20 12h1M23 12h1M26 12h1M17 13h1M26 13h1" />
<path stroke="#e7e7e7" d="M21 2h2M17 3h2M20 3h4M25 3h2M16 4h12M16 5h12M16 6h3M20 6h4M25 6h3M16 7h4M21 7h2M24 7h4M17 8h3M21 8h2M24 8h3M18 9h2M21 9h2M24 9h2M18 10h2M21 10h2M24 10h2M18 11h2M21 11h2M24 11h2M18 12h2M21 12h2M24 12h2M18 13h8" />
<path stroke="#a14411" d="M37 6h1M37 7h1M37 8h1M36 9h1M38 9h1M36 10h1M38 10h1M36 11h1M38 11h1M33 12h3M39 12h3M30 13h3M42 13h3M33 14h3M39 14h3M36 15h1M38 15h1M36 16h1M38 16h1M43 16h1M36 17h1M38 17h1M43 17h1M37 18h1M42 18h1M44 18h1M37 19h1M40 19h2M45 19h2M37 20h1M42 20h1M44 20h1M43 21h1M43 22h1" />
<path stroke="#bb851a" d="M37 9h1M37 10h1M37 11h1M36 12h1M38 12h1M33 13h3M39 13h3M36 14h1M38 14h1M37 15h1M37 16h1M37 17h1M43 18h1M42 19h1M44 19h1M43 20h1" />
<path stroke="#565656" d="M1 11h7M1 12h1M7 12h1M1 13h1M7 13h1M1 14h1M7 14h1M1 15h1M7 15h1M2 16h1M6 16h1M3 17h3M4 18h1M4 19h1M4 20h1M4 21h1" />
<path stroke="#787878" d="M2 12h5M2 13h1M4 13h1M6 13h1M2 14h1M4 14h1M6 14h1M2 15h1M4 15h1M6 15h1M3 16h3" />
<path stroke="#ceb42c" d="M37 12h1M36 13h1M38 13h1M37 14h1M43 19h1" />
<path stroke="#383838" d="M3 13h1M5 13h1M3 14h1M5 14h1M3 15h1M5 15h1" />
<path stroke="#e3c83a" d="M37 13h1" />
<path stroke="#94938c" d="M16 14h11M14 15h2M26 15h3M13 16h2M29 16h2M12 17h2M31 17h1M11 18h2M32 18h1M10 19h1M33 19h1M10 20h1M34 20h1M9 21h1M35 21h1M2 22h4M8 22h1M36 22h1M2 23h1M6 23h1M8 23h1M37 23h1M1 24h1M7 24h1M37 24h1M1 25h1M7 25h1M38 25h1M1 26h1M7 26h1M38 26h1M1 27h1M6 27h1M38 27h1M1 28h1M6 28h1M29 28h5M38 28h1M1 29h1M6 29h1M28 29h1M34 29h1M38 29h1M2 30h1M6 30h1M27 30h1M34 30h1M38 30h1M2 31h1M6 31h1M26 31h1M34 31h1M38 31h1M3 32h1M6 32h1M26 32h1M34 32h1M38 32h1M3 33h2M6 33h1M34 33h1M38 33h1M4 34h3M34 34h1M38 34h1M6 35h1M33 35h2M37 35h1M6 36h1M32 36h2M37 36h1M7 37h1M29 37h4M36 37h1M8 38h1M35 38h2M9 39h1M33 39h3M10 40h1M31 40h2M11 41h3M28 41h3M14 42h15M14 43h2M19 43h1M24 43h1M27 43h2M15 44h2M19 44h1M24 44h1M27 44h1M17 45h2M25 45h1M27 45h1M26 46h1" />
<path stroke="#eceae2" d="M16 15h10M15 16h14M14 17h17M13 18h19M11 19h22M11 20h3M17 20h10M30 20h4M10 21h3M18 21h7M30 21h5M9 22h4M19 22h5M30 22h6M3 23h3M9 23h6M19 23h5M28 23h9M2 24h5M8 24h8M19 24h6M28 24h9M2 25h5M8 25h9M19 25h7M28 25h10M2 26h5M8 26h9M19 26h7M28 26h10M2 27h4M7 27h31M2 28h4M7 28h13M22 28h7M34 28h4M2 29h4M7 29h12M23 29h5M29 29h5M35 29h3M3 30h3M7 30h11M23 30h4M28 30h6M35 30h3M3 31h3M7 31h11M22 31h4M27 31h7M35 31h3M4 32h2M7 32h19M27 32h7M35 32h3M5 33h1M7 33h27M35 33h3M7 34h27M35 34h3M7 35h26M35 35h2M7 36h25M34 36h3M8 37h21M33 37h3M9 38h26M10 39h23M11 40h20M14 41h14M16 43h3M25 43h2M17 44h2M25 44h2M26 45h1" />
<path stroke="#000000" d="M14 20h3M27 20h3M13 21h5M25 21h5M13 22h6M24 22h6M15 23h4M24 23h4M18 24h1M27 24h1M17 25h2M26 25h2M17 26h2M26 26h2" />
<path stroke="#ffffff" d="M16 24h2M25 24h2" />
<path stroke="#80362f" d="M44 24h4M42 25h2M47 25h1M40 26h2M48 26h1M39 27h2M48 27h1M39 28h1M47 28h1M39 29h1M47 29h1M47 30h1M47 31h1M46 32h1M45 33h1M43 34h2M41 35h2M39 36h4M42 37h1M41 38h2M36 39h6" />
<path stroke="#ac493f" d="M44 25h3M42 26h6M41 27h7M40 28h7M40 29h7M39 30h8M39 31h8M39 32h7M39 33h6M39 34h4M38 35h3M38 36h1M37 37h5M37 38h4" />
<path stroke="#e3a864" d="M20 28h2M19 29h1M21 29h2M18 30h1M22 30h1M18 31h4" />
<path stroke="#ffbd72" d="M20 29h1M19 30h3" />
<path stroke="#b89041" d="M16 45h1M16 46h1M15 47h3M25 47h1M24 48h2M26 49h1" />
<path stroke="#c18f2c" d="M19 45h1M18 46h1M25 46h1M26 47h2M28 48h1M27 49h1" />
<path stroke="#d2a449" d="M17 46h1M26 48h2" />
</svg>