<svg xmlns="http://www.w3.org/2000/svg" viewBox="0 -0.5 90 30" shape-rendering="crispEdges">
<metadata>Made with Pixels to Svg https://codepen.io/shshaw/pen/XbxvNj</metadata>
<path stroke="#596faf" d="M11 10h6M22 10h6M34 10h5M47 10h5M58 10h5M69 10h3M76 10h4M10 11h2M22 11h2M33 11h2M46 11h2M57 11h5M68 11h2M71 11h1M75 11h5M9 12h3M20 12h4M31 12h4M44 12h4M58 12h3M66 12h4M72 12h3M77 12h3M9 13h7M20 13h4M25 13h3M31 13h4M36 13h3M44 13h8M58 13h3M66 13h4M72 13h3M77 13h3M9 14h6M20 14h4M25 14h3M31 14h4M36 14h3M44 14h8M58 14h3M66 14h4M72 14h3M77 14h3M9 15h3M20 15h4M25 15h3M31 15h4M36 15h3M50 15h2M58 15h3M66 15h4M72 15h3M77 15h3M9 16h7M20 16h8M31 16h8M47 16h5M55 16h8M66 16h2M72 16h2M77 16h2M9 17h6M20 17h6M31 17h6M46 17h4M55 17h6M66 17h1" />
<path stroke="#69b4b5" d="M17 10h1" />
<path stroke="#6bb9b6" d="M28 10h1M33 10h1M39 10h1M75 10h1M28 13h1M39 13h1M15 14h1M28 14h1M39 14h1M28 15h1M39 15h1M49 15h1M68 16h2M74 16h1M79 16h1M15 17h1M26 17h1M37 17h1M67 17h1M73 17h1M77 17h2" />
<path stroke="#b8aab0" d="M46 10h1M57 10h1M68 10h1M80 10h1M80 11h1M57 12h1M70 12h2M75 12h1M80 12h1M70 13h2M75 13h1M80 13h1M70 14h2M75 14h1M80 14h1M57 15h1M70 15h2M75 15h1M80 15h1M28 16h1M39 16h1M46 16h1M70 16h2M75 16h1M80 16h1M27 17h1M38 17h1M44 17h1M51 17h1M62 17h1M68 17h1M71 17h1" />
<path stroke="#5f8ab1" d="M52 10h1M52 13h1M52 14h1M52 15h1" />
<path stroke="#608fb2" d="M63 10h1" />
<path stroke="#a69eaf" d="M72 10h1" />
<path stroke="#6d80b8" d="M9 11h1M20 11h1M31 11h1M44 11h1M66 11h1M73 11h1" />
<path stroke="#66a7b4" d="M12 11h1" />
<path stroke="#68afb5" d="M13 11h2M24 11h2M35 11h2M48 11h2M62 11h1M70 11h1" />
<path stroke="#6174af" d="M21 11h1M32 11h1" />
<path stroke="#5c71af" d="M45 11h1" />
<path stroke="#9ba5b1" d="M50 11h1" />
<path stroke="#7dc1be" d="M55 11h1" />
<path stroke="#74b7b5" d="M56 11h1" />
<path stroke="#87aeb3" d="M63 11h1" />
<path stroke="#6476af" d="M67 11h1" />
<path stroke="#5a76af" d="M72 11h1" />
<path stroke="#5a74af" d="M74 11h1" />
<path stroke="#aca2af" d="M12 12h1" />
<path stroke="#a09baf" d="M61 12h1M61 13h1M61 14h1" />
<path stroke="#b2a6af" d="M76 12h1M76 13h1M76 14h1M76 15h1M76 16h1M76 17h1" />
<path stroke="#5f73af" d="M16 13h1" />
<path stroke="#95aeb2" d="M17 13h1" />
<path stroke="#c0b4b9" d="M16 14h1M16 17h1" />
<path stroke="#75adb4" d="M12 15h1" />
<path stroke="#79b6b4" d="M13 15h2M47 15h2" />
<path stroke="#86c5c2" d="M44 15h3" />
<path stroke="#959db0" d="M61 15h1" />
<path stroke="#5b78af" d="M16 16h1" />
<path stroke="#b3aab0" d="M17 16h1" />
<path stroke="#ccc3c6" d="M45 16h1" />
<path stroke="#87b3b3" d="M52 16h1" />
<path stroke="#8cb2b3" d="M63 16h1" />
<path stroke="#7681af" d="M45 17h1" />
<path stroke="#66a6b4" d="M50 17h1M61 17h1" />
<path stroke="#67abb4" d="M72 17h1" />
</svg>