<svg xmlns="http://www.w3.org/2000/svg" viewBox="0 -0.5 32 32" shape-rendering="crispEdges">
<metadata>Made with Pixels to Svg https://codepen.io/shshaw/pen/XbxvNj</metadata>
<path stroke="#520a1e" d="M18 6h3M18 7h1M22 7h2M8 8h3M12 8h2M17 8h2M21 8h1M24 8h1M7 9h1M11 9h1M14 9h1M17 9h1M25 9h1M7 10h1M11 10h1M15 10h1M17 10h1M25 10h1M7 11h1M15 11h1M18 11h1M6 12h2M15 12h1M5 13h1M8 13h1M5 14h1M8 14h1M5 15h1M6 16h1M7 17h1M8 18h1" />
<path stroke="#8f2133" d="M19 7h1M19 8h2M22 8h1M8 9h1M12 9h1M18 9h1M8 10h1M10 10h1M12 10h1M18 10h1M8 11h4M14 11h1M8 12h3M6 13h1M9 13h1M6 14h1M9 14h1M6 15h3M7 16h2M8 17h1" />
<path stroke="#b52a41" d="M20 7h2M23 8h1M9 9h2M13 9h1M24 9h1M9 10h1M13 10h2M7 13h1M7 14h1" />
<path stroke="#c4c4c4" d="M19 9h5M19 10h1M24 10h1M19 11h1M25 11h1M26 12h1M26 13h1M27 14h1M27 15h1M27 16h1M27 17h1M27 18h1" />
<path stroke="#ffffff" d="M20 10h4M20 11h5M12 12h2M19 12h7M11 13h4M18 13h2M22 13h2M25 13h1M11 14h9M22 14h2M25 14h2M10 15h17M10 16h2M16 16h7M26 16h1M10 17h1M13 17h3M18 17h4M26 17h1M15 18h2M18 18h5M25 18h2M11 19h1M16 19h10M12 20h1M15 20h11M13 21h1M17 21h8M14 22h1M16 22h8M15 23h1M18 23h3" />
<path stroke="#a1a1a1" d="M12 11h2M11 12h1M14 12h1M18 12h1M10 13h1M15 13h3M10 14h1M9 15h1M9 16h1M12 16h4M9 17h1M11 17h1M16 17h2M11 18h1M17 18h1" />
<path stroke="#f7e3bc" d="M20 13h1M20 14h1M24 17h1" />
<path stroke="#050505" d="M21 13h1M24 13h1M21 14h1M24 14h1" />
<path stroke="#b3914f" d="M23 16h3M22 17h1M25 17h1M23 18h2" />
<path stroke="#c2c2c2" d="M12 17h1M10 18h1M12 18h3M11 20h1M14 20h1M12 21h1M12 22h2M13 23h2M21 23h2M15 24h6" />
<path stroke="#e5aa7a" d="M23 17h1M13 25h1M22 25h1M14 26h2M21 26h2M23 27h1" />
<path stroke="#8a8a8a" d="M9 18h1M10 19h1M12 19h4M26 19h1M10 20h1M13 20h1M26 20h1M11 21h1M14 21h3M25 21h1M11 22h1M15 22h1M24 22h1M12 23h1M16 23h2M23 23h1M13 24h2M21 24h2M15 25h6" />
<path stroke="#ad7832" d="M14 25h1M21 25h1M20 26h1M21 27h2" />
</svg>