<svg xmlns="http://www.w3.org/2000/svg" viewBox="0 -0.5 32 32" shape-rendering="crispEdges">
<metadata>Made with Pixels to Svg https://codepen.io/shshaw/pen/XbxvNj</metadata>
<path stroke="#520a1e" d="M18 8h3M18 9h1M22 9h2M8 10h3M12 10h2M17 10h2M21 10h1M24 10h1M7 11h1M11 11h1M14 11h1M17 11h1M25 11h1M7 12h1M11 12h1M15 12h1M17 12h1M25 12h1M7 13h1M15 13h1M18 13h1M6 14h2M15 14h1M5 15h1M8 15h1M5 16h1M8 16h1M5 17h1M6 18h1M7 19h1M8 20h1" />
<path stroke="#8f2133" d="M19 9h1M19 10h2M22 10h1M8 11h1M12 11h1M18 11h1M8 12h1M10 12h1M12 12h1M18 12h1M8 13h4M14 13h1M8 14h3M6 15h1M9 15h1M6 16h1M9 16h1M6 17h3M7 18h2M8 19h1" />
<path stroke="#b52a41" d="M20 9h2M23 10h1M9 11h2M13 11h1M24 11h1M9 12h1M13 12h2M7 15h1M7 16h1" />
<path stroke="#c4c4c4" d="M19 11h5M19 12h1M24 12h1M19 13h1M25 13h1M26 14h1M26 15h1M27 16h1M27 17h1M27 18h1M27 19h1M27 20h1" />
<path stroke="#ffffff" d="M20 12h4M20 13h5M12 14h2M19 14h7M11 15h4M18 15h2M22 15h2M25 15h1M11 16h9M22 16h2M25 16h2M10 17h17M10 18h2M16 18h7M26 18h1M10 19h1M13 19h3M18 19h4M26 19h1M15 20h2M18 20h5M25 20h2M11 21h1M16 21h10M12 22h1M15 22h11M13 23h1M17 23h8M14 24h1M16 24h8M15 25h1M18 25h3" />
<path stroke="#a1a1a1" d="M12 13h2M11 14h1M14 14h1M18 14h1M10 15h1M15 15h3M10 16h1M9 17h1M9 18h1M12 18h4M9 19h1M11 19h1M16 19h2M11 20h1M17 20h1" />
<path stroke="#f7e3bc" d="M20 15h1M20 16h1M24 19h1" />
<path stroke="#050505" d="M21 15h1M24 15h1M21 16h1M24 16h1" />
<path stroke="#b3914f" d="M23 18h3M22 19h1M25 19h1M23 20h2" />
<path stroke="#c2c2c2" d="M12 19h1M10 20h1M12 20h3M11 22h1M14 22h1M12 23h1M12 24h2M13 25h2M21 25h2M15 26h6" />
<path stroke="#e5aa7a" d="M23 19h1M14 28h1M17 28h1M19 28h1" />
<path stroke="#8a8a8a" d="M9 20h1M10 21h1M12 21h4M26 21h1M10 22h1M13 22h1M26 22h1M11 23h1M14 23h3M25 23h1M11 24h1M15 24h1M24 24h1M12 25h1M16 25h2M23 25h1M13 26h2M21 26h2M15 27h6" />
<path stroke="#ad7832" d="M14 27h1M21 27h1M15 28h2M20 28h1" />
</svg>